<?xml version="1.0" encoding="UTF-8"?>
<svg width="40px" height="41px" viewBox="0 0 40 41" version="1.1" xmlns="http://www.w3.org/2000/svg" xmlns:xlink="http://www.w3.org/1999/xlink">
    <!-- Generator: Sketch 42 (36781) - http://www.bohemiancoding.com/sketch -->
    <title>google plus icon</title>
    <desc>Created with Sketch.</desc>
    <defs></defs>
    <g id="Page-1" stroke="none" stroke-width="1" fill="none" fill-rule="evenodd">
        <g id="Footer" transform="translate(-303.000000, -86.000000)">
            <g id="Group-2">
                <g id="Social-icons" transform="translate(247.000000, 86.000000)">
                    <g id="google-plus-icon" transform="translate(56.000000, 0.000000)">
                        <path d="M20,40.1960784 C31.045695,40.1960784 40,31.1978798 40,20.0980392 C40,8.99819866 31.045695,0 20,0 C8.954305,0 0,8.99819866 0,20.0980392 C0,31.1978798 8.954305,40.1960784 20,40.1960784 Z" id="Oval-31" fill="#E4654F"></path>
                        <path d="M16.6013949,11.254902 L21.0388513,11.254902 L21.0388513,11.3344902 C21.0388513,11.851581 20.1511795,11.9316347 19.5338256,12.0507843 C19.3411282,12.0507843 18.9164718,12.0903457 18.8009436,12.169934 C19.9196718,12.7670784 20.1128205,13.7616987 20.1128205,15.1942869 C20.1128205,16.8656398 19.4954667,17.7411104 18.8009436,18.3377895 C18.4150974,18.7357307 18.0680615,19.0140568 18.0680615,19.4119979 C18.0680615,19.8099391 18.5306256,20.2078803 19.032,20.6854097 C19.8808615,21.4417307 21.0388513,22.4759123 21.0388513,24.2268535 C21.0388513,26.0573829 20.267159,27.370356 18.8009436,28.0871156 C17.6434051,28.6837946 16.4086974,28.7633829 15.9068718,28.7633829 C15.8301538,28.7633829 15.7913436,28.723356 15.7529846,28.723356 C15.7529846,28.723356 15.7141744,28.7633829 15.6758154,28.7633829 C14.9424821,28.7633829 11.2,28.5641796 11.2,25.0622972 C11.2,21.6404685 15.251159,21.3621424 16.4858667,21.3621424 L16.5246769,21.3621424 C15.8301538,20.3670568 15.9456821,19.3724365 15.9456821,19.3724365 L15.6758154,19.3724365 C15.2123487,19.3724365 14.3255795,19.2928483 13.5538872,18.7757575 C12.5890462,18.178613 12.1260308,17.1044045 12.1260308,15.5922281 C12.1260308,11.4140784 16.5630359,11.254902 16.6013949,11.254902 L16.6013949,11.254902 Z M16.4475077,22.2771744 L16.1383795,22.2771744 C15.2895179,22.3172012 14.5178256,22.6751156 13.9392821,23.1922064 C13.3995487,23.7097626 13.0904205,24.3860299 13.1292308,25.0622972 C13.244759,26.455324 14.6726154,27.2512064 16.4475077,27.1315913 C18.1831385,27.0124417 19.3794872,25.9777946 19.263959,24.5847678 C19.1867897,23.2322332 18.1064205,22.2771744 16.4475077,22.2771744 L16.4475077,22.2771744 Z M15.7529846,12.4882869 C15.6370051,12.4882869 15.5214769,12.4882869 15.3666872,12.5283137 C14.8653128,12.6870248 14.4794667,13.1249928 14.2484103,13.7616987 C14.0552615,14.3984045 14.0164513,15.0746718 14.2096,15.8705542 C14.5566359,17.2235542 15.5214769,18.2181744 16.4858667,18.2181744 C16.6013949,18.2181744 16.7173744,18.2181744 16.8329026,18.178613 C17.9132718,17.8602601 18.5694359,16.228934 18.1064205,14.6371692 C17.6434051,12.9658163 16.9100718,12.4882869 15.7529846,12.4882869 L15.7529846,12.4882869 Z M28.4850051,18.0990248 L28.4850051,19.9691156 L25.5913846,19.9691156 L25.5913846,22.9539071 L23.7781333,22.9539071 L23.7781333,19.9691156 L20.8845128,19.9691156 L20.8845128,18.0990248 L23.7781333,18.0990248 L23.7781333,15.1146987 L25.5913846,15.1146987 L25.5913846,18.0990248 L28.4850051,18.0990248 L28.4850051,18.0990248 Z" id="Imported-Layers" fill="#FFFFFF"></path>
                    </g>
                </g>
            </g>
        </g>
    </g>
</svg>