<?xml version="1.0" encoding="UTF-8"?>
<svg width="27px" height="27px" viewBox="0 0 27 27" version="1.1" xmlns="http://www.w3.org/2000/svg" xmlns:xlink="http://www.w3.org/1999/xlink">
    <!-- Generator: Sketch 39.1 (31720) - http://www.bohemiancoding.com/sketch -->
    <title>Octicons-mark-github</title>
    <desc>Created with Sketch.</desc>
    <defs></defs>
    <g id="Page-1" stroke="none" stroke-width="1" fill="none" fill-rule="evenodd">
        <g id="New-login-recovery-and-registration" transform="translate(-364.000000, -295.000000)" fill="#000000">
            <g id="Octicons-mark-github" transform="translate(364.000000, 295.000000)">
                <path d="M13.5,0 C6.04467773,0 0,6.19594595 0,13.8378378 C0,19.9527027 3.86775,25.1385135 9.23262891,26.9678919 C9.9074707,27.0945946 10.1538457,26.6672162 10.1538457,26.3023514 C10.1538457,25.9729459 10.1414795,24.8817568 10.1348877,23.7263514 C6.38085938,24.5624865 5.58736523,22.0945946 5.58736523,22.0945946 C4.97269336,20.4966216 4.08854883,20.0709459 4.08854883,20.0709459 C2.86165723,19.2128378 4.181625,19.2297297 4.181625,19.2297297 C5.53705664,19.326 6.2506582,20.6554054 6.2506582,20.6554054 C7.45532227,22.7702703 9.4114248,22.1587838 10.1793691,21.8040541 C10.302082,20.9121622 10.6514473,20.3006757 11.0363027,19.9560811 C8.03951367,19.6064324 4.887,18.4189189 4.887,13.1165405 C4.887,11.6047027 5.41352637,10.3716216 6.27539062,9.40286486 C6.13778027,9.05151351 5.67305859,7.64356757 6.40886133,5.73902703 C6.40886133,5.73902703 7.54101562,5.36740541 10.1216777,7.15794595 C11.1977754,6.84967568 12.3521836,6.69764865 13.4999736,6.69256757 C14.6469463,6.69764865 15.8021455,6.85135135 16.8799307,7.15962162 C19.4556885,5.36740541 20.5894775,5.7407027 20.5894775,5.7407027 C21.3277588,7.64694595 20.8630371,9.05318919 20.7246094,9.40286486 C21.5897695,10.3716216 22.1121826,11.6047297 22.1121826,13.1165405 C22.1121826,18.4324324 18.9547119,19.603027 15.9472178,19.9459459 C16.433376,20.375 16.8634775,21.2162162 16.8634775,22.5067568 C16.8634775,24.3564324 16.8453369,25.847973 16.8453369,26.3040541 C16.8453369,26.6722973 17.0908682,27.103027 17.7747803,26.9678919 C23.1355723,25.1351351 27,19.9493243 27,13.8378378 C27,6.19594595 20.9553223,0 13.5,0 L13.5,0 Z" id="Shape"></path>
            </g>
        </g>
    </g>
</svg>