<?xml version="1.0" encoding="UTF-8"?>
<svg width="82px" height="68px" viewBox="0 0 82 68" version="1.1" xmlns="http://www.w3.org/2000/svg" xmlns:xlink="http://www.w3.org/1999/xlink">
    <!-- Generator: Sketch 42 (36781) - http://www.bohemiancoding.com/sketch -->
    <title>SMS notification icon</title>
    <desc>Created with Sketch.</desc>
    <defs></defs>
    <g id="Page-1" stroke="none" stroke-width="1" fill="none" fill-rule="evenodd">
        <g id="Voice-Messages" transform="translate(-213.000000, -1843.000000)" fill="#343434">
            <g id="SMS-notification-icon" transform="translate(213.000000, 1843.000000)">
                <path d="M26.5074609,0.676746411 C29.0939844,-0.0113875598 31.7846094,0.193588517 34.4287891,0.159425837 C43.6682031,0.16430622 52.9092188,0.159425837 62.1486328,0.161052632 C63.4715234,0.162679426 64.8008203,0.130143541 66.1173047,0.281435407 C70.5552344,0.784114833 74.7625391,3.05674641 77.6597656,6.50717703 C80.3551953,9.65502392 81.8942969,13.7724402 82,17.9386603 L82,49.9084211 C81.9407422,55.3256459 79.3446094,60.6289952 75.1292969,63.9460287 C72.390625,66.1454545 69.0033203,67.4973206 65.523125,67.7722488 C64.0272656,67.889378 62.525,67.8194258 61.0259375,67.8373206 C51.9482813,67.8389474 42.8690234,67.8389474 33.7913672,67.8389474 C31.7717969,67.8145455 29.7346094,67.9430622 27.7358594,67.5754067 C23.4949219,66.8628708 19.5534766,64.5154067 16.8484375,61.1251675 C14.2442969,57.9155024 12.8076953,53.7736842 12.8092969,49.6172249 C8.53792969,52.2070813 4.29058594,54.842488 0,57.3981818 L0,57.3152153 C0.92890625,55.8738756 1.665625,54.3121531 2.51765625,52.8236364 C5.7784375,46.856555 9.04402344,40.8927273 12.3048047,34.9272727 C12.5017969,34.5270813 12.8333203,34.1545455 12.8141016,33.6811483 C12.8076953,29.5035407 12.8141016,25.325933 12.8108984,21.1466986 C12.8317188,19.6240191 12.7532422,18.0980861 12.9037891,16.5802871 C13.1408203,14.0538756 13.9207813,11.5844019 15.1523828,9.37684211 C17.5595312,5.06583732 21.7540234,1.82200957 26.5074609,0.676746411 L26.5074609,0.676746411 Z M35.5594922,18.3974163 C32.6574609,18.470622 29.9235938,20.4032536 28.8089063,23.1167464 C28.3460547,24.1855502 28.1746875,25.3600957 28.1875,26.52 C28.1939063,31.6167464 28.1826953,36.7151196 28.1923047,41.811866 C28.1746875,43.6257416 28.828125,45.4347368 29.9796484,46.8191388 C31.3746094,48.5337799 33.5255078,49.5830622 35.7148438,49.6139713 C43.2982422,49.6188517 50.8816406,49.6139713 58.4650391,49.6172249 C59.3202734,49.6237321 60.1851172,49.5781818 61.0099219,49.3292823 C63.5516016,48.6248804 65.6480469,46.4937799 66.3415234,43.9120574 C66.6890625,42.7537799 66.6153906,41.5336842 66.625,40.3396172 C66.6169922,35.5649761 66.6330078,30.7919617 66.6169922,26.0189474 C66.6073828,22.7263158 64.2835156,19.6337799 61.1764844,18.7195215 C59.7270703,18.2363636 58.1879688,18.4201914 56.6921094,18.3827751 C49.6468359,18.3941627 42.6031641,18.3648804 35.5594922,18.3974163 L35.5594922,18.3974163 Z" id="Shape-Copy-5"></path>
                <path d="M30.90375,26.1523445 C31.9976172,27.2894737 33.3221094,28.1598086 34.4608203,29.2497608 C37.9233984,32.1324402 41.4035937,34.9955981 44.8757812,37.86689 C45.8767578,38.7453589 47.3261719,39.0869856 48.5882031,38.641244 C49.5731641,38.3207656 50.2954687,37.5350239 51.0946484,36.9103349 C54.6965625,33.9056459 58.3529297,30.9676555 61.9051953,27.9044019 C62.5922656,27.3382775 63.3161719,26.8095694 63.90875,26.1377033 C63.7646094,27.5302392 63.5371875,28.9520574 62.8677344,30.1981818 C62.0669531,31.6915789 60.8113281,32.8726316 59.4916406,33.8910048 C56.2580859,36.4645933 53.0325391,39.052823 49.789375,41.6133971 C48.3671875,42.7521531 46.2146875,42.6805742 44.8453516,41.4848804 C42.0089844,39.2203828 39.1678125,36.9623923 36.3314453,34.6995215 C34.7795312,33.4810526 33.1491406,32.2609569 32.1225391,30.5251675 C31.3313672,29.2090909 31.0510937,27.6652632 30.90375,26.1523445 L30.90375,26.1523445 Z" id="Shape-Copy-6"></path>
            </g>
        </g>
    </g>
</svg>