<?xml version="1.0" encoding="UTF-8"?>
<svg width="76px" height="77px" viewBox="0 0 76 77" version="1.1" xmlns="http://www.w3.org/2000/svg" xmlns:xlink="http://www.w3.org/1999/xlink">
    <!-- Generator: Sketch 42 (36781) - http://www.bohemiancoding.com/sketch -->
    <title>Callburn Rings Icon</title>
    <desc>Created with Sketch.</desc>
    <defs>
        <path d="M9.92268071,10.6826992 C10.9990555,10.4288141 12.0817899,10.902106 13.0309712,11.3628603 C15.7274728,12.8203483 17.8182155,15.1335229 19.6259527,17.540729 C20.8183915,19.1925487 22.0124202,20.8459357 23.1205933,22.5541744 C23.5800797,23.2891872 24.0379762,24.0508422 24.238306,24.90026 C24.4290962,25.8154998 24.15881,26.7370084 23.9441711,27.6224716 C23.5896193,29.0000328 22.6515674,30.1566201 21.5529338,31.0420833 C20.1092879,32.2065066 18.3889962,32.9869679 16.6321363,33.5777991 C16.3125628,35.8345548 16.9580696,38.1195199 18.0519335,40.0941811 C19.6291325,42.9590071 21.8391191,45.4179305 24.0713645,47.8000615 C25.2558537,49.0882929 26.5579969,50.2668208 27.8585501,51.43908 C29.9365735,53.2538877 32.0988625,55.0279485 34.583905,56.2785672 C36.472728,57.2439572 38.6318372,57.7673991 40.7623279,57.5088125 C41.3474178,55.7018408 42.3490664,54.0406179 43.5987423,52.6035033 C44.2633282,51.8512514 45.0137697,51.1538512 45.9009441,50.6601859 C46.5448611,50.2950303 47.2905328,50.1790581 48.0107658,50.0505484 C48.7341787,49.9173371 49.4925698,49.9956967 50.1714649,50.2746568 C51.4720182,50.8075019 52.6262989,51.6130383 53.794889,52.371559 C55.9317393,53.836883 58.1210569,55.2583256 59.989211,57.0574614 C61.4646553,58.4632321 62.8272154,60.0523643 63.6253544,61.9345612 C63.9322087,62.7542023 64.2263436,63.7180251 63.808195,64.5517709 C62.8844524,66.4856852 61.4090082,68.1265346 59.7030257,69.4288707 C56.7887053,71.6621185 53.2606764,72.9707234 49.6960793,73.8044692 C49.3383477,73.9298446 48.9806161,73.7652895 48.6371937,73.6790939 C42.2536713,71.8407784 36.2819378,68.8082629 30.7490218,65.2005882 C27.3116182,62.9501013 24.0347964,60.4645356 20.9121967,57.8065789 C19.4208532,56.571632 18.0090057,55.2379521 16.7529701,53.7694937 C12.821102,49.2904606 9.23742589,44.4979891 6.23883979,39.3591683 C3.62660386,34.8331194 1.3911786,30.0453495 0.076316083,24.9895899 C0.966670385,21.0042221 2.56930813,17.050198 5.35325524,13.9690996 C6.62518996,12.5852696 8.14833178,11.3706962 9.92268071,10.6826992 L9.92268071,10.6826992 Z" id="path-1"></path>
        <mask id="mask-2" maskContentUnits="userSpaceOnUse" maskUnits="objectBoundingBox" x="-2" y="-2" width="67.9392088" height="67.2382971">
            <rect x="-1.92368392" y="8.611641" width="67.9392088" height="67.2382971" fill="white"></rect>
            <use xlink:href="#path-1" fill="black"></use>
        </mask>
    </defs>
    <g id="Page-1" stroke="none" stroke-width="1" fill="none" fill-rule="evenodd">
        <g id="Voice-Messages" transform="translate(-727.000000, -1836.000000)">
            <g id="Callburn-Rings-Icon" transform="translate(729.000000, 1837.000000)">
                <g id="#8271a4ff" transform="translate(32.700952, 0.000000)" stroke="#979797" fill="#3190E6">
                    <path d="M2.23383535,0.0940314871 C10.7224097,-0.0031343829 19.2046243,2.85385563 25.8663824,8.03655776 C32.5901473,13.1941848 37.4711968,20.6477474 39.4188468,28.8269196 C40.1200008,31.6980143 40.4570635,34.6537374 40.4554736,37.6063261 C40.4507039,38.6970913 39.5635294,39.6906907 38.4728454,39.8505442 C37.447348,40.0417416 36.3471245,39.4712839 35.9210263,38.5341034 C35.6920781,38.1109617 35.6873083,37.621998 35.6809487,37.1549749 C35.6380209,32.636762 34.6268328,28.1295194 32.7221105,24.0187762 C30.3276934,18.8157006 26.5246086,14.2536062 21.8120905,10.9295932 C16.2966636,6.99280826 9.51566161,4.81284495 2.70604111,4.78933707 C1.96354922,4.81911371 1.19561863,4.5652287 0.697974176,4.00574135 C-0.488104948,2.824079 0.147862411,0.58299522 1.78229852,0.177092634 C1.89518273,0.156719145 2.12095114,0.114404976 2.23383535,0.0940314871 Z" id="Shape"></path>
                    <path d="M1.77911869,11.9278941 C1.9794484,11.8714752 2.18295796,11.8416986 2.39123727,11.8385642 C6.9654325,11.8150564 11.5396277,13.0139578 15.4921649,15.283251 C20.185604,17.9521781 23.9966384,22.0958323 26.2225241,26.9650961 C27.7583853,30.2922436 28.5469848,33.9516356 28.5310856,37.6063261 C28.5406251,38.9211997 27.2448416,40.0386072 25.9236195,39.8724849 C24.7025621,39.7878566 23.7136329,38.6610459 23.7661002,37.4621444 C23.7629204,32.8013171 22.1173548,28.1686991 19.1728259,24.5234118 C15.5223733,19.9378096 9.87021341,16.9601459 3.96207664,16.5887215 C3.04787357,16.4821525 2.03668547,16.7031265 1.21787749,16.1843861 C0.154222084,15.577883 -0.243257515,14.1031559 0.370450986,13.0547048 C0.66458589,12.5155909 1.18448921,12.1034196 1.77911869,11.9278941 L1.77911869,11.9278941 Z" id="Shape"></path>
                    <path d="M2.14162008,23.6066048 C5.04640099,23.501603 7.96708109,24.3713943 10.3694478,25.9746311 C14.282237,28.5432579 16.7434306,33.1319945 16.6019279,37.7724484 C16.5176622,38.7409727 15.7497316,39.5966592 14.7941907,39.8192004 C13.7305353,40.0903245 12.5190175,39.5277028 12.0722504,38.5356706 C11.7749356,37.9620785 11.8703308,37.3022909 11.8019643,36.6848175 C11.5841454,34.1475345 10.2215854,31.7403285 8.16900072,30.1997793 C6.52661502,28.9397573 4.45177151,28.2752682 2.37533808,28.2799697 C1.15746059,28.2752682 0.0938051854,27.2064436 0.0779060014,26.0122437 C0.015899184,24.8446861 0.963490548,23.7382489 2.14162008,23.6066048 L2.14162008,23.6066048 Z" id="Shape"></path>
                </g>
                <g id="Shape-Copy-7">
                    <use fill="#3190E6" fill-rule="evenodd" xlink:href="#path-1"></use>
                    <use stroke="#979797" mask="url(#mask-2)" stroke-width="4" xlink:href="#path-1"></use>
                </g>
            </g>
        </g>
    </g>
</svg>