<?xml version="1.0" encoding="UTF-8"?>
<svg width="77px" height="63px" viewBox="0 0 77 63" version="1.1" xmlns="http://www.w3.org/2000/svg" xmlns:xlink="http://www.w3.org/1999/xlink">
    <!-- Generator: Sketch 42 (36781) - http://www.bohemiancoding.com/sketch -->
    <title>Balance icon Copy 3</title>
    <desc>Created with Sketch.</desc>
    <defs></defs>
    <g id="Page-1" stroke="none" stroke-width="1" fill="none" fill-rule="evenodd">
        <g id="Voice-Messages" transform="translate(-474.000000, -3230.000000)">
            <g id="Balance-icon-Copy-3" transform="translate(475.000000, 3231.000000)">
                <path d="M42.5076299,18.1162123 C47.5190036,18.1162123 51.5815248,14.0607601 51.5815248,9.05810617 C51.5815248,4.05545227 47.5190036,0 42.5076299,0 C37.4962561,0 33.4337349,4.05545227 33.4337349,9.05810617 C33.4337349,14.0607601 37.4962561,18.1162123 42.5076299,18.1162123 Z" id="Path" stroke="#314E55" stroke-width="1.8" fill="#E4AD40"></path>
                <path d="M15.1231582,11.6333214 C15.1168933,11.7052422 13.8008724,12.5018356 13.762074,12.539132 C11.9719482,14.2599573 9.02200606,17.2264216 7.86404226,19.6346485 C7.29687303,20.8141951 7.34686411,22.4064 6.35172644,23.257891 C5.66278498,23.8473847 4.5309668,23.1540632 3.62955797,23.257891 C2.57747603,23.3790738 1.49149376,24.3198277 0.907389492,25.0695122 C0.602576502,25.4607327 0.337836335,25.9338654 0.302463164,26.4282281 C0.0799585544,29.5378724 -0.934779078,34.9777681 2.87340006,36.5431133 C3.39455495,36.7573331 3.97545946,36.7963101 4.53694746,36.8450502 C5.13959962,36.8973636 5.94983526,36.3937094 6.35172644,36.8450502 C7.34126871,37.9563482 7.5003994,39.591304 8.16650543,40.921198 C9.46484806,43.513365 12.1880569,46.1610977 14.3670003,47.7147776 C14.6570607,47.9216031 15.0953946,48.1148648 15.1231582,48.4696198 C15.365683,51.5685363 13.8427484,55.9878743 15.8793161,59.0374103 C16.1235187,59.4030769 17.2054921,60.5014717 17.8453267,60.5470947 C19.0685483,60.6343156 25.7757863,62.025755 27.6753795,59.3393472 C28.3732638,58.3523981 28.7340006,57.4840319 28.7340006,56.3199785 C28.7340006,55.7140116 27.9844735,54.6107437 28.582769,54.5083572 C30.3961282,54.1980366 32.1928546,55.2714879 34.0271059,55.4141679 C36.0876912,55.5744536 38.162967,55.5092928 40.2276008,55.4141679 C41.4455722,55.3580516 42.6584598,55.1838883 43.8571588,54.9612626 C44.8308603,54.780424 45.9001561,53.6675978 46.7305588,54.2064204 C47.4925269,54.7008378 46.7776213,56.0226243 46.8817904,56.9238522 C46.9294392,57.3360897 47.029868,57.7463074 47.1842536,58.1315997 C48.754137,62.0494793 54.2803832,60.8664577 57.3167696,60.6980631 C57.7000936,60.6768044 58.0590285,60.4622784 58.3753906,60.2451578 C62.7211571,57.262642 59.352007,51.5317765 60.4926328,47.2618723 C60.906449,45.7127617 64.0319767,43.9246839 65.0295802,42.4308824 C65.3422131,41.9627491 66.0317238,40.8676118 66.0882013,40.7702296 C67.3368455,38.6172333 68.2067625,36.4603872 68.6591382,33.9766499 C68.9122774,32.5868071 68.3944063,31.0437238 68.9616014,29.7495337 C69.2171828,29.166364 70.2165917,29.4504679 70.7763804,29.14566 C71.3431232,28.8370654 71.8322094,28.3936049 72.2886962,27.9379125 C74.81306,25.4179411 74.8438835,20.6757053 72.2886962,18.1249641 C71.917847,17.7547603 72.1379216,20.8916544 71.8350014,21.5972382 C71.5418063,22.2801697 71.2089974,22.9552178 70.7763804,23.5598278 C70.4448828,24.0231169 70.0227917,24.4259727 69.5665277,24.7675753 C69.2058193,25.0376359 68.7686994,25.5542524 68.356675,25.3714491 C67.9852813,25.2066724 68.3278301,24.5505848 68.2054435,24.1637016 C67.803557,22.8932757 67.1110859,20.9157379 66.3906645,19.7856169 C65.1740326,17.8770934 59.1065602,10.5121339 56.4093801,9.67073171 C55.7587433,9.46776151 54.3512089,11.3261973 53.8384432,11.6333214 C53.1229145,12.0618916 52.2718847,12.2396544 51.5699694,12.6901004 C51.3720384,12.8171204 54.4443217,13.8992738 55.0482958,14.8036585 C55.1988797,15.0291414 55.3094802,15.2906553 55.350759,15.5585007 C55.4120813,15.9564019 55.4546703,16.3772589 55.350759,16.7662482 C55.2460391,17.1582647 55.0332169,17.5361431 54.7458327,17.8230273 C54.4584484,18.1099114 54.0799114,18.3223633 53.6872116,18.426901 C52.8465332,18.6506918 44.9803334,15.2780718 43.5546956,14.954627 C41.9140015,14.5823908 40.2440672,14.2916802 38.5640534,14.1997848 C36.5500235,14.089619 34.5318412,14.3507532 32.5147901,14.3507532 C32.2081549,14.3507532 31.885813,14.3280592 31.6074006,14.1997848 C31.2136661,14.0183774 30.8263941,13.7775004 30.5487796,13.4449426 C30.3030031,13.150524 30.1814118,12.7615962 30.0950848,12.3881636 C29.6481155,10.4546666 31.2554303,10.2294733 32.5147901,9.67073171 C32.6069216,9.62985565 32.5808209,9.44485163 32.5147901,9.36879484 C31.9078095,8.66965121 31.1177713,8.13649303 30.5487796,7.40620517 C30.0497408,6.76570034 30.148434,5.36611057 29.3389269,5.29264706 C27.4631693,5.12242035 25.7776565,6.84232695 23.8945899,6.80233142 C23.1105636,6.78567904 22.8873973,5.5700869 22.2310425,5.14167862 C21.5494086,4.69677041 20.7426292,4.46947894 19.9625688,4.23586801 C19.7211462,4.16356724 15.0855873,4.81192742 14.8553231,4.99071017 C14.3277152,7.1413603 15.3153082,9.42744175 15.1231582,11.6333214 Z" id="Shape" stroke="#314E55" stroke-width="1.8" fill="#5ECB66"></path>
                <text id="COINS" font-family=".AppleSystemUIFont" font-size="13.6418523" font-weight="normal" fill="#314E55">
                    <tspan x="16" y="38">COINS</tspan>
                </text>
                <ellipse id="Oval-1437" stroke="#314E55" stroke-width="2" stroke-linecap="round" stroke-linejoin="round" cx="13.1428571" cy="21.1489362" rx="1.14285714" ry="1.14893617"></ellipse>
            </g>
        </g>
    </g>
</svg>