<?xml version="1.0" encoding="UTF-8"?>
<svg width="52px" height="43px" viewBox="0 0 52 43" version="1.1" xmlns="http://www.w3.org/2000/svg" xmlns:xlink="http://www.w3.org/1999/xlink">
    <!-- Generator: Sketch 42 (36781) - http://www.bohemiancoding.com/sketch -->
    <title>Browsersettings</title>
    <desc>Created with Sketch.</desc>
    <defs></defs>
    <g id="Page-1" stroke="none" stroke-width="1" fill="none" fill-rule="evenodd" stroke-linecap="round">
        <g id="ClickToCall" transform="translate(-486.000000, -1972.000000)" stroke="#314E55">
            <g id="Group-31" transform="translate(362.000000, 1973.000000)">
                <g id="Browsersettings" transform="translate(125.000000, 0.000000)">
                    <rect id="Rectangle-435" stroke-width="1.3" fill="#EAEAEA" x="0" y="7.13043478" width="50" height="33.8695652"></rect>
                    <rect id="Rectangle-436" stroke-width="1.3" fill="#EAEAEA" x="0" y="0" width="50" height="7.13043478"></rect>
                    <ellipse id="Oval-475" stroke-width="1.8" cx="3.57142857" cy="3.56521739" rx="0.892857143" ry="0.891304348"></ellipse>
                    <ellipse id="Oval-476" stroke-width="1.8" cx="8.03571429" cy="3.56521739" rx="0.892857143" ry="0.891304348"></ellipse>
                    <ellipse id="Oval-477" stroke-width="1.8" cx="12.5" cy="3.56521739" rx="0.892857143" ry="0.891304348"></ellipse>
                    <g id="Datawork" transform="translate(14.964286, 11.695652)" stroke-width="0.864" stroke-linejoin="round">
                        <path d="M4.1418332,22.0437765 L3.7512464,22.4343633 C3.42328363,22.7623261 2.89143436,22.7622095 2.55817423,22.4289494 C2.22722144,22.0979966 2.22179832,21.5668393 2.55276033,21.2358772 L2.9601777,20.8284599 C2.67023294,20.3790471 2.46105714,19.8711938 2.35356053,19.3261067 L1.76170747,19.3261067 C1.29789807,19.3261067 0.921906253,18.9499501 0.921906253,18.4786491 C0.921906253,18.0106111 1.2936565,17.6311914 1.76170747,17.6311914 L2.35356053,17.6311914 C2.46105714,17.0861044 2.67023294,16.5782511 2.9601777,16.1288383 L2.55276033,15.7214209 C2.22479756,15.3934581 2.2249141,14.8616089 2.55817423,14.5283487 C2.88912702,14.1973959 3.42028439,14.1919728 3.7512464,14.5229348 L4.1418332,14.9135216 C4.59385841,14.6042778 5.10787388,14.3811255 5.66101695,14.2672516 L5.66101695,13.731882 C5.66101695,13.2680726 6.03717358,12.8920807 6.50847458,12.8920807 C6.9765125,12.8920807 7.3559322,13.263831 7.3559322,13.731882 L7.3559322,14.2672516 C7.90907528,14.3811255 8.42309074,14.6042778 8.87511595,14.9135216 L9.26570275,14.5229348 C9.59366553,14.194972 10.1255148,14.1950886 10.4587749,14.5283487 C10.7897277,14.8593015 10.7951508,15.3904589 10.4641888,15.7214209 L10.0567715,16.1288383 C10.3467162,16.5782511 10.555892,17.0861044 10.6633886,17.6311914 L11.2552417,17.6311914 C11.7190511,17.6311914 12.0950429,18.0073481 12.0950429,18.4786491 C12.0950429,18.946687 11.7232926,19.3261067 11.2552417,19.3261067 L10.6633886,19.3261067 C10.555892,19.8711938 10.3467162,20.3790471 10.0567715,20.8284599 L10.4641888,21.2358772 C10.7921516,21.56384 10.7920351,22.0956893 10.4587749,22.4289494 C10.1278221,22.7599022 9.59666476,22.7653253 9.26570275,22.4343633 L8.87511595,22.0437765 C8.42309074,22.3530203 7.90907528,22.5761726 7.3559322,22.6900465 L7.3559322,23.2254162 C7.3559322,23.6892256 6.97977557,24.0652174 6.50847458,24.0652174 C6.04043665,24.0652174 5.66101695,23.6934671 5.66101695,23.2254162 L5.66101695,22.6900465 C5.10787388,22.5761726 4.59385841,22.3530203 4.1418332,22.0437765 Z M6.50847458,19.7678571 C7.21053146,19.7678571 7.77966102,19.190659 7.77966102,18.4786491 C7.77966102,17.7666391 7.21053146,17.189441 6.50847458,17.189441 C5.80641769,17.189441 5.23728814,17.7666391 5.23728814,18.4786491 C5.23728814,19.190659 5.80641769,19.7678571 6.50847458,19.7678571 Z" id="Rectangle-354" fill="#5ECC66"></path>
                        <path d="M16.1250397,17.4400607 L15.7141418,17.8509587 C15.3691245,18.195976 14.8096182,18.1958534 14.459028,17.8452632 C14.1108652,17.4971004 14.10516,16.938322 14.4533326,16.5901495 L14.8819363,16.1615458 C14.576914,15.6887628 14.3568607,15.1545003 14.2437741,14.5810679 L13.6211438,14.5810679 C13.1332155,14.5810679 12.7376716,14.1853505 12.7376716,13.6895411 C12.7376716,13.1971645 13.1287534,12.7980144 13.6211438,12.7980144 L14.2437741,12.7980144 C14.3568607,12.2245819 14.576914,11.6903195 14.8819363,11.2175365 L14.4533326,10.7889328 C14.1083152,10.4439154 14.1084378,9.88440919 14.459028,9.53381902 C14.8071909,9.18565617 15.3659693,9.17995103 15.7141418,9.52812359 L16.1250397,9.93902151 C16.6005709,9.61369653 17.141316,9.37894 17.7232234,9.25914443 L17.7232234,8.69593475 C17.7232234,8.20800653 18.1189408,7.81246256 18.6147501,7.81246256 C19.1071268,7.81246256 19.5062769,8.2035444 19.5062769,8.69593475 L19.5062769,9.25914443 C20.0881842,9.37894 20.6289293,9.61369653 21.1044605,9.93902151 L21.5153585,9.52812359 C21.8603758,9.18310624 22.4198821,9.18322884 22.7704722,9.53381902 C23.1186351,9.88198187 23.1243402,10.4407602 22.7761677,10.7889328 L22.347564,11.2175365 C22.6525863,11.6903195 22.8726396,12.2245819 22.9857262,12.7980144 L23.6083565,12.7980144 C24.0962847,12.7980144 24.4918287,13.1937317 24.4918287,13.6895411 C24.4918287,14.1819177 24.1007469,14.5810679 23.6083565,14.5810679 L22.9857262,14.5810679 C22.8726396,15.1545003 22.6525863,15.6887628 22.347564,16.1615458 L22.7761677,16.5901495 C23.121185,16.9351668 23.1210624,17.4946731 22.7704722,17.8452632 C22.4223094,18.1934261 21.863531,18.1991312 21.5153585,17.8509587 L21.1044605,17.4400607 C20.6289293,17.7653857 20.0881842,18.0001423 19.5062769,18.1199378 L19.5062769,18.6831475 C19.5062769,19.1710757 19.1105595,19.5666197 18.6147501,19.5666197 C18.1223735,19.5666197 17.7232234,19.1755378 17.7232234,18.6831475 L17.7232234,18.1199378 C17.141316,18.0001423 16.6005709,17.7653857 16.1250397,17.4400607 Z M18.6147501,15.04579 C19.3533151,15.04579 19.9520402,14.4385767 19.9520402,13.6895411 C19.9520402,12.9405055 19.3533151,12.3332922 18.6147501,12.3332922 C17.8761852,12.3332922 17.27746,12.9405055 17.27746,13.6895411 C17.27746,14.4385767 17.8761852,15.04579 18.6147501,15.04579 Z" id="Rectangle-354" fill="#D26CBA" transform="translate(18.614750, 13.689541) rotate(-14.000000) translate(-18.614750, -13.689541) "></path>
                        <path d="M6.42250099,9.66762644 L6.09200447,9.99812297 C5.8144975,10.2756299 5.3644712,10.2755313 5.08248186,9.99354198 C4.80244488,9.713505 4.79785609,9.26406415 5.07790087,8.98401937 L5.42263864,8.6392816 C5.17730077,8.25900922 5.00030586,7.82928721 4.90934719,7.36805968 L4.40854845,7.36805968 C4.01609433,7.36805968 3.69794742,7.0497733 3.69794742,6.65098015 C3.69794742,6.25494806 4.01250532,5.93390062 4.40854845,5.93390062 L4.90934719,5.93390062 C5.00030586,5.47267308 5.17730077,5.04295107 5.42263864,4.66267869 L5.07790087,4.31794092 C4.8003939,4.04043396 4.80049252,3.59040766 5.08248186,3.30841832 C5.36251884,3.02838134 5.81195969,3.02379255 6.09200447,3.30383733 L6.42250099,3.63433385 C6.80498386,3.37266601 7.23992002,3.18384485 7.70796416,3.08748998 L7.70796416,2.6344849 C7.70796416,2.24203079 8.02625054,1.92388387 8.42504369,1.92388387 C8.82107578,1.92388387 9.14212322,2.23844178 9.14212322,2.6344849 L9.14212322,3.08748998 C9.61016736,3.18384485 10.0451035,3.37266601 10.4275864,3.63433385 L10.7580829,3.30383733 C11.0355899,3.02633036 11.4856162,3.02642898 11.7676055,3.30841832 C12.0476425,3.58845529 12.0522313,4.03789614 11.7721865,4.31794092 L11.4274487,4.66267869 C11.6727866,5.04295107 11.8497815,5.47267308 11.9407402,5.93390062 L12.4415389,5.93390062 C12.833993,5.93390062 13.15214,6.252187 13.15214,6.65098015 C13.15214,7.04701224 12.8375821,7.36805968 12.4415389,7.36805968 L11.9407402,7.36805968 C11.8497815,7.82928721 11.6727866,8.25900922 11.4274487,8.6392816 L11.7721865,8.98401937 C12.0496935,9.26152634 12.0495949,9.71155264 11.7676055,9.99354198 C11.4875685,10.273579 11.0381277,10.2781677 10.7580829,9.99812297 L10.4275864,9.66762644 C10.0451035,9.92929429 9.61016736,10.1181154 9.14212322,10.2144703 L9.14212322,10.6674754 C9.14212322,11.0599295 8.82383684,11.3780764 8.42504369,11.3780764 C8.0290116,11.3780764 7.70796416,11.0635185 7.70796416,10.6674754 L7.70796416,10.2144703 C7.23992002,10.1181154 6.80498386,9.92929429 6.42250099,9.66762644 Z M8.42504369,7.74184852 C9.01909182,7.74184852 9.50066299,7.25345011 9.50066299,6.65098015 C9.50066299,6.04851018 9.01909182,5.56011178 8.42504369,5.56011178 C7.83099556,5.56011178 7.34942439,6.04851018 7.34942439,6.65098015 C7.34942439,7.25345011 7.83099556,7.74184852 8.42504369,7.74184852 Z" id="Rectangle-354" fill="#7EA1DF" transform="translate(8.425044, 6.650980) rotate(-54.000000) translate(-8.425044, -6.650980) "></path>
                    </g>
                </g>
            </g>
        </g>
    </g>
</svg>