<?xml version="1.0" encoding="UTF-8"?>
<svg width="54px" height="50px" viewBox="0 0 54 50" version="1.1" xmlns="http://www.w3.org/2000/svg" xmlns:xlink="http://www.w3.org/1999/xlink">
    <!-- Generator: Sketch 42 (36781) - http://www.bohemiancoding.com/sketch -->
    <title>ClickToCall</title>
    <desc>Created with Sketch.</desc>
    <defs>
        <rect id="path-1" x="0" y="0" width="44.8568182" height="49.1985428" rx="0.9144576"></rect>
        <mask id="mask-2" maskContentUnits="userSpaceOnUse" maskUnits="objectBoundingBox" x="0" y="0" width="44.8568182" height="49.1985428" fill="white">
            <use xlink:href="#path-1"></use>
        </mask>
        <linearGradient x1="49.9999972%" y1="-0.000522115834%" x2="49.9999972%" y2="99.9994882%" id="linearGradient-3">
            <stop stop-color="#D11A1C" offset="0%"></stop>
            <stop stop-color="#FFE500" offset="100%"></stop>
        </linearGradient>
        <linearGradient x1="50.0001804%" y1="99.9998541%" x2="50.0001804%" y2="0.000583600817%" id="linearGradient-4">
            <stop stop-color="#FFE900" offset="0%"></stop>
            <stop stop-color="#DC5F13" offset="100%"></stop>
        </linearGradient>
        <linearGradient x1="4.24998921%" y1="50.0619108%" x2="103.198466%" y2="49.5635078%" id="linearGradient-5">
            <stop stop-color="#F0BAA2" offset="0%"></stop>
            <stop stop-color="#F5CFAC" offset="39.85%"></stop>
            <stop stop-color="#F8DDB2" offset="75.52%"></stop>
            <stop stop-color="#F9E2B5" offset="100%"></stop>
        </linearGradient>
        <linearGradient x1="65.6957268%" y1="104.494064%" x2="36.002619%" y2="-4.66733375%" id="linearGradient-6">
            <stop stop-color="#F0BAA2" offset="0%"></stop>
            <stop stop-color="#F5CFAC" offset="39.85%"></stop>
            <stop stop-color="#F8DDB2" offset="75.52%"></stop>
            <stop stop-color="#F9E2B5" offset="100%"></stop>
        </linearGradient>
        <linearGradient x1="49.999845%" y1="100.000325%" x2="49.999845%" y2="0.00113782286%" id="linearGradient-7">
            <stop stop-color="#F0BAA2" offset="0%"></stop>
            <stop stop-color="#F1C0A4" offset="8.45%"></stop>
            <stop stop-color="#F6D6AB" offset="46.27%"></stop>
            <stop stop-color="#F9E3AE" offset="78.14%"></stop>
            <stop stop-color="#FAE7AF" offset="100%"></stop>
        </linearGradient>
        <linearGradient x1="5.53421183%" y1="92.6961048%" x2="99.9681373%" y2="0.043853771%" id="linearGradient-8">
            <stop stop-color="#F0BAA2" offset="0%"></stop>
            <stop stop-color="#F5CFAC" offset="39.85%"></stop>
            <stop stop-color="#F8DDB2" offset="75.52%"></stop>
            <stop stop-color="#F9E2B5" offset="100%"></stop>
        </linearGradient>
        <linearGradient x1="50.0032353%" y1="99.9993339%" x2="50.0032353%" y2="-0.00049960864%" id="linearGradient-9">
            <stop stop-color="#EC9500" offset="0%"></stop>
            <stop stop-color="#E8810B" offset="6.37%"></stop>
            <stop stop-color="#E26614" offset="16.27%"></stop>
            <stop stop-color="#DE4F18" offset="27.14%"></stop>
            <stop stop-color="#DC3A1A" offset="39.14%"></stop>
            <stop stop-color="#DA281B" offset="52.88%"></stop>
            <stop stop-color="#D9191B" offset="69.89%"></stop>
            <stop stop-color="#D9121B" offset="100%"></stop>
        </linearGradient>
        <linearGradient x1="50.0002741%" y1="100.000359%" x2="50.0002741%" y2="0.000449155587%" id="linearGradient-10">
            <stop stop-color="#E42E18" offset="0%"></stop>
            <stop stop-color="#FDD403" offset="100%"></stop>
        </linearGradient>
        <linearGradient x1="-0.000954889317%" y1="49.999905%" x2="99.9994483%" y2="49.999905%" id="linearGradient-11">
            <stop stop-color="#E42E18" offset="0%"></stop>
            <stop stop-color="#FDD403" offset="100%"></stop>
        </linearGradient>
        <linearGradient x1="100.000657%" y1="49.9998465%" x2="-0.00347230841%" y2="49.9998465%" id="linearGradient-12">
            <stop stop-color="#CB2F21" offset="0%"></stop>
            <stop stop-color="#CC3721" offset="9.55%"></stop>
            <stop stop-color="#CF4C21" offset="23.88%"></stop>
            <stop stop-color="#D56920" offset="41.2%"></stop>
            <stop stop-color="#DE8F1C" offset="60.85%"></stop>
            <stop stop-color="#EABA0F" offset="82.18%"></stop>
            <stop stop-color="#F5DE00" offset="100%"></stop>
        </linearGradient>
        <linearGradient x1="-14.0292303%" y1="40.4436359%" x2="128.839768%" y2="57.5183851%" id="linearGradient-13">
            <stop stop-color="#EEAB0C" offset="0%"></stop>
            <stop stop-color="#EA8912" offset="21.99%"></stop>
            <stop stop-color="#E66415" offset="46.63%"></stop>
            <stop stop-color="#E54517" offset="68.74%"></stop>
            <stop stop-color="#E42D18" offset="87.28%"></stop>
            <stop stop-color="#E32119" offset="100%"></stop>
        </linearGradient>
        <rect id="path-14" x="0" y="0" width="39.9753409" height="4.52094718" rx="0.5225472"></rect>
        <mask id="mask-15" maskContentUnits="userSpaceOnUse" maskUnits="objectBoundingBox" x="0" y="0" width="39.9753409" height="4.52094718" fill="white">
            <use xlink:href="#path-14"></use>
        </mask>
        <rect id="path-16" x="0" y="0" width="3.95795455" height="2.65938069" rx="0.2612736"></rect>
        <rect id="path-18" x="0.094237013" y="0.0886460231" width="3.76948052" height="2.48208865" rx="0.1306368"></rect>
    </defs>
    <g id="Page-1" stroke="none" stroke-width="1" fill="none" fill-rule="evenodd">
        <g id="ClickToCall" transform="translate(-148.000000, -1964.000000)">
            <g id="Group-32" transform="translate(25.000000, 1964.000000)">
                <g id="ClickToCall" transform="translate(123.000000, 0.000000)">
                    <use id="Rectangle-121" stroke="#314E55" mask="url(#mask-2)" stroke-width="1.8" fill="#FFFFFF" xlink:href="#path-1"></use>
                    <g id="Sub-Header-Text" transform="translate(0.633068, 10.238616)" font-size="2.3514624" font-family="Raleway-Medium, Raleway" fill="#777777" font-weight="400">
                        <text id="Want-to-talk-with-us">
                            <tspan x="10.2661208" y="2">Want to talk with us?</tspan>
                            <tspan x="1.36701131" y="5"> </tspan>
                            <tspan x="1.9619313" y="5" font-family="Raleway-Regular, Raleway" font-weight="normal">Let’s do it </tspan>
                            <tspan x="13.0537794" y="5" font-family="Raleway-SemiBoldItalic, Raleway" font-style="italic" font-weight="500">now</tspan>
                            <tspan x="17.6015077" y="5" font-family="Raleway-Regular, Raleway" font-weight="normal">, totally </tspan>
                            <tspan x="26.1396677" y="5" font-family="Raleway-SemiBold, Raleway" font-weight="500">free</tspan>
                            <tspan x="30.6544755" y="5" font-family="Raleway-Regular, Raleway" font-weight="normal"> of charge!</tspan>
                            <tspan x="42.2236705" y="5"> </tspan>
                        </text>
                    </g>
                    <g id="Call_Burn-LOGO" transform="translate(32.851023, 45.076503)">
                        <g id="Burn" transform="translate(4.632506, 0.000000)">
                            <path d="M0.319868397,0.582904689 L0.00488893794,2.93970455 L0.891431969,3.07269635 C1.33630775,3.13940144 1.64168629,2.97662638 1.70469699,2.50529779 C1.74542071,2.20030047 1.66676222,2.04000952 1.48858978,1.92492951 C1.6809785,1.83356629 1.76775705,1.70868055 1.80342115,1.44183405 C1.86361822,0.991293592 1.64146416,0.781163408 1.19328111,0.713935346 L0.319868397,0.582904689 L0.319868397,0.582904689 Z M1.00007792,2.08493282 C1.18000271,2.11191818 1.27588856,2.21821226 1.24994879,2.4123395 C1.2189494,2.64451296 1.10966174,2.68823342 0.92319647,2.66028056 L0.511023067,2.59843912 L0.587904513,2.02311752 L1.00007792,2.08493282 L1.00007792,2.08493282 Z M1.11573328,1.1194479 C1.2858597,1.14499509 1.36303732,1.24140499 1.33709755,1.43547994 C1.31212033,1.62265165 1.22062771,1.7078961 1.04398549,1.68140756 L0.641610461,1.62105658 L0.716640829,1.0595676 L1.11573328,1.1194479 L1.11573328,1.1194479 Z" id="Shape-Copy-33" fill="url(#linearGradient-3)"></path>
                            <path d="M3.76544059,3.05128065 L4.20819381,3.05128065 L4.20819381,1.87862033 C4.20819381,1.87862033 4.44276243,1.79110095 4.73348042,1.73158673 L4.73348042,1.2590553 C4.4823755,1.3115617 4.20486187,1.48657431 4.20486187,1.48657431 L4.20486187,1.30104996 L3.76541591,1.30104996 L3.76541591,3.05128065 L3.76544059,3.05128065 L3.76544059,3.05128065 Z M5.50992133,3.05128065 L5.50992133,1.74212462 C5.50992133,1.74212462 5.65531735,1.67910648 5.81058578,1.67910648 C6.02533553,1.67910648 6.05840812,1.85064133 6.05840812,2.11665108 L6.05840812,3.05128065 L6.50113666,3.05128065 L6.50113666,2.10266158 C6.50113666,1.56711201 6.3822234,1.2590553 5.91962662,1.2590553 C5.73128559,1.2590553 5.50666343,1.39905493 5.50666343,1.39905493 L5.50666343,1.30104996 L5.06721747,1.30104996 L5.06721747,3.05128065 L5.50992133,3.05128065 L5.50992133,3.05128065 L5.50992133,3.05128065 Z" id="Shape-Copy-34" fill="url(#linearGradient-4)"></path>
                            <path d="M2.3718996,1.42530813 C2.18264537,1.78241962 2.21339794,2.2877937 2.84444283,2.47669121 C2.92917284,2.50205536 3.19387702,2.48082269 3.30452213,2.28133499 C3.47385876,1.97607618 3.27791597,1.72277465 3.14747666,1.53474004 L3.30178254,1.46586461 C3.34275307,1.50218502 3.38458743,1.53623051 3.4259035,1.57796368 C3.64460221,1.79915473 3.77067297,2.18037523 3.56878205,2.60207377 C3.36689113,3.02382461 2.95533475,3.05671956 2.81551665,3.05671956 C2.67577259,3.05671956 2.23696834,2.9725995 2.07782498,2.60421796 C1.86813485,2.11882141 2.02036751,1.66075016 2.13688671,1.5373549 C2.14816595,1.52537884 2.16006221,1.51107555 2.17232869,1.4950726 L2.25952681,1.45362707 L2.28304784,1.46479252 C2.24573011,1.53748564 2.2184082,1.57440747 2.2184082,1.57440747 C2.24289179,1.53790402 2.31357829,1.44324607 2.33527293,1.40815464 L2.3718996,1.42530813 L2.3718996,1.42530813 Z" id="Shape-Copy-51" fill="#FCE1D2"></path>
                            <path d="M2.32754776,1.47595797 C2.13829353,1.83306946 2.31542937,2.29307571 2.83207762,2.42993751 C2.91749871,2.45255605 3.18151182,2.43406899 3.29215693,2.23458129 C3.46149356,1.92932248 3.26555077,1.67602095 3.13511146,1.48798633 L3.23956163,1.44165101 C3.28053216,1.47797142 3.32236653,1.5120169 3.36368259,1.55375007 C3.5823813,1.77494112 3.75828309,2.13362152 3.55641685,2.55532007 C3.35452592,2.97707091 2.94296955,3.00996585 2.80315144,3.00996585 C2.66340738,3.00996585 2.22460314,2.92584579 2.06545978,2.55746425 C1.85576964,2.07206771 2.00800231,1.61399646 2.12452151,1.49060119 C2.13580075,1.47862513 2.14769701,1.46432185 2.15996349,1.4483189 L2.24716161,1.40687336 L2.27068264,1.41803882 C2.23336491,1.49073194 2.20604299,1.52765377 2.20604299,1.52765377 C2.23052659,1.49115031 2.25352932,1.45530058 2.27522395,1.42020915 L2.32754776,1.47595797 L2.32754776,1.47595797 Z" id="Shape-Copy-52" fill="#FACCB0"></path>
                            <path d="M2.23306115,1.16784854 C2.22860072,1.04127987 2.20158633,0.910298147 2.13306115,0.805350867 C2.13306115,0.805350867 2.16183813,0.981768838 2.14831295,1.19176785 L2.23306115,1.16784854 L2.23306115,1.16784854 Z" id="Shape-Copy-53" fill="url(#linearGradient-5)"></path>
                            <path d="M2.4709635,1.1944944 C2.4621359,1.00360959 2.37344078,0.805795393 2.18054059,0.711817309 C2.12750106,0.685904042 2.15255367,0.707136709 2.15255367,0.707136709 C2.23592265,0.917999054 2.24913938,1.04008689 2.23589799,1.15289197 L2.4709635,1.1944944 L2.4709635,1.1944944 Z" id="Shape-Copy-54" fill="url(#linearGradient-6)"></path>
                            <path d="M2.07200025,0.479199324 C2.07200025,0.479199324 2.45075553,0.743666309 2.42217488,1.20754255 C2.42217488,1.20754255 2.37898305,1.56054871 2.24197859,1.73085457 C2.10667712,1.89906854 1.90540322,2.08788761 1.90540322,2.08788761 C1.90540322,2.08788761 1.78540399,1.87875108 2.01019892,1.40930518 C2.23499386,0.939859288 2.07200025,0.479199324 2.07200025,0.479199324 L2.07200025,0.479199324 Z" id="Shape-Copy-55" fill="url(#linearGradient-7)" opacity="0.6"></path>
                            <path d="M2.06992705,0.461784354 C2.06992705,0.461784354 2.44868232,0.726251338 2.42010167,1.19012758 C2.42010167,1.19012758 2.38925037,1.56057486 2.23990538,1.7134396 C2.08989401,1.86701035 1.90333001,2.0704465 1.90333001,2.0704465 C1.90333001,2.0704465 1.78333079,1.86130996 2.00812572,1.39186406 C2.23292065,0.922418168 2.06992705,0.461784354 2.06992705,0.461784354 L2.06992705,0.461784354 Z" id="Shape-Copy-56"></path>
                            <path d="M2.40587546,0.202102563 C2.51441819,0.383730769 2.72251808,0.54729029 2.4539137,1.2393654 L2.3265852,1.2066535 C2.57193572,0.491149236 2.40587546,0.202102563 2.40587546,0.202102563 L2.40587546,0.202102563 L2.40587546,0.202102563 Z" id="Shape-Copy-57" fill="#FDF3DA"></path>
                            <path d="M2.40744425,0.266140495 C2.50381696,0.4552995 2.67777662,0.560364592 2.37841394,1.20396019 L2.25352932,1.16201783 C2.54509134,0.466229616 2.40744425,0.266140495 2.40744425,0.266140495 L2.40744425,0.266140495 L2.40744425,0.266140495 Z" id="Shape-Copy-58" fill="#FACCB0"></path>
                            <path d="M3.45865524,1.98138435 C3.44169936,1.82878109 3.35864766,1.78092915 3.1650002,1.62712306 C3.11368831,1.58630509 3.0664488,1.53194214 3.02831659,1.4689763 L3.25580175,1.37180808 C3.30119019,1.42439293 3.33149851,1.46542009 3.39001726,1.54339523 C3.57016419,1.7837009 3.45865524,1.98138435 3.45865524,1.98138435 L3.45865524,1.98138435 L3.45865524,1.98138435 Z" id="Shape-Copy-59" fill="#FEF5DD"></path>
                            <path d="M2.96506806,1.34385523 C2.90170003,1.19459899 2.89227012,1.01610862 2.98844535,0.853150515 C3.01945051,0.800644118 3.00942814,0.832963793 3.00942814,0.832963793 C3.04462985,1.03307906 3.09429735,1.17524902 3.15295041,1.25782632 L2.96506806,1.34385523 L2.96506806,1.34385523 Z" id="Shape-Copy-60" fill="#FDF3DA"></path>
                            <path d="M3.33332491,1.45161362 C3.20374944,1.2816477 3.16477807,1.22728475 3.10500059,0.978768411 C3.04517374,0.730278223 3.15860781,0.369453631 3.4671702,0.281881955 C3.52361574,0.265800564 3.49550404,0.282274184 3.49550404,0.282274184 C3.27357211,0.652433828 3.35805531,0.746673398 3.35610551,1.06309766 C3.35422975,1.36997768 3.33537343,1.47559189 3.33537343,1.47559189 L3.33332491,1.45161362 L3.33332491,1.45161362 Z" id="Shape-Copy-61" fill="url(#linearGradient-8)"></path>
                            <path d="M2.08515525,1.79510169 C2.1497949,1.74458259 2.21589073,1.6919193 2.26853539,1.62704461 C2.29351261,1.59632 2.31098678,1.53837469 2.33102779,1.49355599 C2.33813593,1.47763149 2.32979374,1.45990273 2.33384143,1.44580863 C2.3316695,1.43226366 2.32964565,1.41848334 2.32781925,1.40444154 L2.21939544,1.35295494 L2.05901803,1.42915197 C2.04196343,1.53515842 2.03794042,1.67032055 2.06306572,1.8117845 C2.07044535,1.80621485 2.07787434,1.80080209 2.08515525,1.79510169 L2.08515525,1.79510169 L2.08515525,1.79510169 Z M2.32078516,1.24616404 C2.32473412,1.18620529 2.33803721,1.127031 2.3672102,1.07353095 C2.63926932,0.574092609 2.44236397,0.347305764 2.28117209,0.241639253 C2.28117209,0.241639253 2.46307137,0.710823662 2.21919799,1.19569723 L2.220358,1.19365764 L2.22134524,1.19891351 L2.32078516,1.24616404 L2.32078516,1.24616404 Z M2.21616222,1.19954108 C2.25767573,1.0820554 2.33598868,0.669404272 2.23385853,0.404414315 C2.23385853,0.404414315 2.26572175,0.940826786 2.1128227,1.24867431 L2.21616222,1.19954108 L2.21616222,1.19954108 Z" id="Shape-Copy-62" fill="url(#linearGradient-9)"></path>
                            <path d="M2.55631634,0.00156891626 C2.63218587,0.202651684 2.89109,0.62074172 2.39290316,1.28047101 L2.26799241,1.22108753 C2.64857408,0.529979914 2.55631634,0.00156891626 2.55631634,0.00156891626 L2.55631634,0.00156891626 L2.55631634,0.00156891626 Z M2.30935784,1.39568176 C2.107615,1.73145599 2.24649522,2.19747642 2.75593661,2.33240321 C2.8413577,2.35502176 3.1053708,2.33653469 3.21606528,2.13699469 C3.37084009,1.85788449 3.22026105,1.62218097 3.09362263,1.44018668 L3.2062669,1.3902167 C3.23018283,1.41108329 3.25703581,1.43228981 3.28754158,1.45621578 C3.50628965,1.67732838 3.68219144,2.03606108 3.48027583,2.45778577 C3.27833555,2.87948432 2.86682853,2.91243156 2.72701043,2.91243156 C2.58726637,2.91243156 2.14841276,2.8283115 1.98931876,2.45992996 C1.80147135,2.02500022 1.90940155,1.61763111 2.01760324,1.44884187 L2.17615425,1.37350774 C2.15218896,1.41563314 2.13644245,1.43697041 2.13644245,1.43697041 C2.15095491,1.41534551 2.16487501,1.39385136 2.17842491,1.37243565 L2.21939544,1.35292879 L2.30935784,1.39568176 L2.30935784,1.39568176 Z M3.01303903,1.32102749 C2.90328243,1.13192079 3.00363555,0.913240008 3.00363555,0.913240008 C3.03332684,1.10020253 3.06316622,1.20369871 3.10872743,1.27856216 L3.01303903,1.32102749 L3.01303903,1.32102749 Z M2.18474325,1.21449808 C2.27157116,1.06890265 2.34998283,0.906362925 2.34998283,0.906362925 C2.32172304,1.03033346 2.28670064,1.13309747 2.25318378,1.21410585 L2.22132056,1.19896581 L2.21917331,1.1973446 L2.21747032,1.19896581 L2.18474325,1.21449808 L2.18474325,1.21449808 Z" id="Shape-Copy-63" fill="url(#linearGradient-10)"></path>
                            <path d="M2.56786707,0.202625535 C2.64321829,0.402217833 2.83790235,0.652120045 2.43799543,1.30188672 L2.31844046,1.24509195 C2.68307817,0.589128057 2.56786707,0.202625535 2.56786707,0.202625535 L2.56786707,0.202625535 L2.56786707,0.202625535 Z M2.24745778,1.36626458 L2.36479146,1.4220134 C2.17553723,1.77912489 2.2876632,2.23913114 2.80433613,2.37599294 C2.88975722,2.39861148 3.15377033,2.38012442 3.26441544,2.18063671 C3.43375207,1.87537791 3.23780928,1.62207638 3.10736997,1.43404176 L3.21182014,1.38770643 C3.25279067,1.42402685 3.29462503,1.45807233 3.3359411,1.4998055 C3.55463981,1.72099655 3.7305416,2.07967695 3.52867536,2.5013755 C3.32678443,2.92312634 2.91522806,2.95602128 2.77540995,2.95602128 C2.63566589,2.95602128 2.19686165,2.87190122 2.03771829,2.50351968 C1.82802815,2.01812314 1.98026082,1.56005189 2.09678002,1.43665662 C2.10805926,1.42468056 2.11995552,1.41037727 2.132222,1.39437433 L2.21942012,1.35292879 L2.24294115,1.36409425 L2.24745778,1.36626458 L2.24745778,1.36626458 Z M3.03275918,1.31224156 C2.94795512,1.1373597 2.95400197,0.956829732 2.95400197,0.956829732 C2.99652741,1.11126339 3.04897462,1.20775174 3.10633336,1.2796081 L3.03275918,1.31224156 L3.03275918,1.31224156 Z M2.24943226,1.2122493 C2.32670861,1.07810696 2.39186656,0.943049417 2.39186656,0.943049417 C2.3652604,1.05995983 2.3325827,1.1579648 2.30081819,1.2366721 L2.24943226,1.2122493 L2.24943226,1.2122493 Z" id="Shape-Copy-64" fill="url(#linearGradient-11)"></path>
                            <path d="M3.43190099,2.01074923 C3.42674265,1.85717848 3.34763991,1.80231871 3.1664317,1.63230048 C3.11842707,1.58719414 3.07550674,1.52893505 3.0423601,1.46288367 L3.26752525,1.362996 C3.30874259,1.4193201 3.35647573,1.47878202 3.40877485,1.56156851 C3.56986802,1.81662199 3.43190099,2.01074923 3.43190099,2.01074923 L3.43190099,2.01074923 L3.43190099,2.01074923 Z M2.99238099,1.33017951 C2.9513611,1.17239883 2.9678974,0.994483722 3.08651449,0.849097482 C3.12474542,0.802239183 3.11013424,0.832545415 3.11013424,0.832545415 C3.11595897,1.03600771 3.14493451,1.15098312 3.1909153,1.24208486 L2.99238099,1.33017951 L2.99238099,1.33017951 Z" id="Shape-Copy-65" fill="url(#linearGradient-12)"></path>
                            <path d="M3.32192684,1.48741106 C3.3513521,1.33695199 3.28705976,1.26370975 3.14970908,1.05279511 C3.01230914,0.841906616 2.98820259,0.467929276 3.24810516,0.272023931 C3.29567804,0.236148046 3.27474794,0.26193057 3.27474794,0.26193057 C3.18851594,0.690767682 3.29841126,0.747980829 3.40032853,1.04534276 C3.49916784,1.33373572 3.32192684,1.48741106 3.32192684,1.48741106 L3.32192684,1.48741106 L3.32192684,1.48741106 Z" id="Shape-Copy-66" fill="url(#linearGradient-13)"></path>
                            <polygon id="Shape-Copy-67" fill="#FFFFFF" points="2.41396764 1.28981495 2.21917331 1.1973446 2.21939548 1.35205112 2.38207381 1.42900143"></polygon>
                        </g>
                        <g id="Call" transform="translate(0.000000, 0.130743)">
                            <path d="M3.13508469,1.67489656 C3.13508469,1.2666384 2.96382294,1.088671 2.53563154,1.088671 C2.21944271,1.088671 1.86702211,1.18986609 1.86702211,1.18986609 L1.88020178,1.51439642 C1.88020178,1.51439642 2.28203383,1.48646971 2.49939977,1.48646971 C2.63114717,1.48646971 2.69373829,1.52485587 2.69373829,1.67489656 L2.69373829,1.78307333 L2.34131769,1.81097389 C1.97902468,1.83887446 1.76491664,1.95055514 1.76491664,2.34484995 C1.76491664,2.71474811 1.92958855,2.91711216 2.27544399,2.91711216 C2.52245186,2.91711216 2.75961199,2.79499817 2.75961199,2.79499817 C2.89792455,2.89268936 3.00992712,2.91711216 3.23060032,2.91711216 L3.24378,2.56470742 C3.1548542,2.54724015 3.14167452,2.50535008 3.13508469,2.40067722 L3.13508469,1.67489656 L3.13508469,1.67489656 L3.13508469,1.67489656 Z M2.69373829,2.10757751 L2.69373829,2.48095344 C2.69373829,2.48095344 2.51257944,2.53678071 2.37095962,2.53678071 C2.2523919,2.53678071 2.20957029,2.45302673 2.20957029,2.33091274 C2.20957029,2.2052687 2.27872657,2.14598981 2.39401172,2.13550422 L2.69373829,2.10757751 L2.69373829,2.10757751 Z" id="Shape-Copy-68" fill="#23BEFF"></path>
                            <polygon id="Shape-Copy-69" fill="#23BEFF" points="3.40136845 2.91716445 3.84271484 2.91716445 3.84271484 0.474518724 3.40136845 0.474518724"></polygon>
                            <path d="M4.51803752,2.91716445 L4.51803752,0.474518724 L4.07669112,0.474518724 L4.07669112,1.3164374 L4.07669112,2.91716445 L4.51803752,2.91716445 Z" id="Shape-Copy-70" fill="#23BEFF"></path>
                            <path d="M0.249969594,0.325053301 L0.352223151,0.271814743 C0.414814274,0.239233582 0.489128892,0.267970898 0.521954677,0.33313322 L0.621518001,0.530842818 C0.654343787,0.59600514 0.626207399,0.678085609 0.563616276,0.71066677 L0.461362719,0.763905329 C0.398796278,0.796460341 0.324456979,0.767775322 0.291631193,0.702586851 L0.192067869,0.504903402 C0.159242083,0.439688783 0.18735379,0.357660611 0.249969594,0.325053301 L0.249969594,0.325053301 L0.249969594,0.325053301 Z" id="Shape-Copy-71" fill="#23BEFF"></path>
                            <path d="M1.70365829,2.33878347 C1.5642104,2.3767251 1.32816092,2.42993751 1.19281008,2.44735248 C0.807020713,2.49713942 0.70982677,2.34443157 0.636993015,1.71056325 C0.560185612,1.04202188 0.653356545,0.899956517 0.996645159,0.85568693 C1.13053981,0.838402703 1.37268552,0.830479675 1.5306195,0.83283305 L1.48602086,0.444761612 C1.33319585,0.42943853 1.08645947,0.415239838 0.882692788,0.441493037 C0.222252784,0.526659041 0.0700447974,0.876736557 0.172742613,1.77041741 C0.267468453,2.59480446 0.476319431,2.96859876 1.16289666,2.88005958 C1.3438087,2.85670888 1.59353148,2.78812109 1.74919481,2.73522247 L1.70365829,2.33878347 L1.70365829,2.33878347 Z" id="Shape-Copy-72" fill="#23BEFF"></path>
                            <path d="M0.896045232,0.987946571 L1.36128287,0.927935524 C1.40291979,0.922548911 1.44110136,0.95424102 1.44618566,0.998353716 L1.50470441,1.50770238 C1.50976402,1.55181508 1.4798506,1.59226697 1.43823836,1.59765358 L0.973000721,1.65763848 C0.931363803,1.66302509 0.893182231,1.63133298 0.888122617,1.58722029 L0.829579186,1.07787162 C0.824519572,1.03378507 0.854408314,0.993307035 0.896045232,0.987946571 L0.896045232,0.987946571 L0.896045232,0.987946571 Z" id="Shape-Copy-73" fill="#23BEFF"></path>
                            <path d="M0.949387716,1.74865708 L1.02304965,1.73922026 C1.04561232,1.73633463 1.06629888,1.75338848 1.06906367,1.77714949 L1.07841952,1.8580773 C1.08115963,1.88181231 1.06496585,1.90362357 1.04240318,1.90650921 L0.968741253,1.91594602 C0.946178584,1.91883165 0.925492022,1.9017778 0.922751917,1.87801679 L0.913396062,1.79708898 C0.910631271,1.77335397 0.926825047,1.75154271 0.949387716,1.74865708 L0.949387716,1.74865708 L0.949387716,1.74865708 Z" id="Shape-Copy-74" fill="#23BEFF"></path>
                            <path d="M1.17877333,1.719083 L1.25243526,1.70964619 C1.27499793,1.70676056 1.29568449,1.72381441 1.29842459,1.74757542 L1.30778045,1.82850323 C1.31052055,1.85226424 1.29432678,1.8740495 1.27176411,1.87693513 L1.19810218,1.88637195 C1.17553951,1.88925758 1.15485295,1.87220373 1.15211284,1.84844272 L1.14275699,1.76751491 C1.13999219,1.7437799 1.15621066,1.72196864 1.17877333,1.719083 L1.17877333,1.719083 L1.17877333,1.719083 Z" id="Shape-Copy-75" fill="#23BEFF"></path>
                            <path d="M1.40815893,1.68948278 L1.48182086,1.68004597 C1.50438353,1.67716034 1.52507009,1.69421419 1.5278102,1.7179752 L1.5389681,1.81444905 C1.54072078,1.82963114 1.53035282,1.84359138 1.51591172,1.84546315 L1.42748778,1.85679772 C1.40492511,1.85968336 1.38423855,1.84262951 1.38149845,1.8188685 L1.37214259,1.73794068 C1.3693778,1.71417968 1.38559626,1.69239442 1.40815893,1.68948278 L1.40815893,1.68948278 L1.40815893,1.68948278 Z" id="Shape-Copy-76" fill="#23BEFF"></path>
                            <path d="M0.975919841,1.97944454 L1.04955709,1.96998173 C1.07211976,1.96712209 1.09280632,1.98417594 1.09557111,2.00793695 L1.10492696,2.08881277 C1.10766707,2.11262577 1.09147329,2.13441103 1.06891062,2.13729667 L0.995248692,2.14673348 C0.972686023,2.14961912 0.951999462,2.13256526 0.949259356,2.10880425 L0.939903501,2.02787644 C0.93713871,2.00411543 0.953332486,1.98230418 0.975919841,1.97944454 L0.975919841,1.97944454 L0.975919841,1.97944454 Z" id="Shape-Copy-77" fill="#23BEFF"></path>
                            <path d="M1.20528076,1.94981832 L1.2789427,1.94038151 C1.30150536,1.93752187 1.32219193,1.95457572 1.32493203,1.97831073 L1.33428789,2.05923855 C1.33702799,2.08299956 1.32083422,2.10478481 1.29827155,2.10767045 L1.2246343,2.11710726 C1.20204695,2.1199929 1.18138507,2.10293905 1.17862028,2.07917804 L1.16926442,1.99827622 C1.16652432,1.97451521 1.18271809,1.95270396 1.20528076,1.94981832 L1.20528076,1.94981832 L1.20528076,1.94981832 Z" id="Shape-Copy-78" fill="#23BEFF"></path>
                            <path d="M1.43466637,1.92024422 L1.5083283,1.91080741 C1.53089097,1.90792177 1.55157753,1.92497562 1.55431764,1.94873663 L1.56367349,2.02966444 C1.56643828,2.05342545 1.55021982,2.07521071 1.52765715,2.07809635 L1.45401991,2.08753316 C1.43145724,2.0904188 1.41077067,2.07336494 1.40800588,2.04960393 L1.39865003,1.96867612 C1.39590992,1.94491511 1.4121037,1.92312985 1.43466637,1.92024422 L1.43466637,1.92024422 L1.43466637,1.92024422 Z" id="Shape-Copy-79" fill="#23BEFF"></path>
                            <path d="M1.00242728,2.21017994 L1.07608921,2.20074313 C1.09865188,2.19785749 1.11933844,2.21491135 1.12207855,2.23867236 L1.1314344,2.31960017 C1.13417451,2.34336118 1.11798073,2.36514644 1.09541806,2.36803207 L1.02175613,2.37746889 C0.999193462,2.38035452 0.978506901,2.36330067 0.975766795,2.33953966 L0.96641094,2.25861185 C0.963646149,2.23485084 0.97986461,2.21306558 1.00242728,2.21017994 L1.00242728,2.21017994 L1.00242728,2.21017994 Z" id="Shape-Copy-80" fill="#23BEFF"></path>
                            <path d="M1.2317882,2.18055358 L1.30545013,2.17111677 C1.3280128,2.16823113 1.34869936,2.18533698 1.35143947,2.20909799 L1.36079533,2.28997381 C1.36353543,2.31373481 1.34734166,2.33557207 1.32477899,2.33840571 L1.25114174,2.34784252 C1.22857907,2.35072816 1.20789251,2.3336743 1.20512772,2.3099133 L1.19577186,2.22903748 C1.19303176,2.20527647 1.20922553,2.18343922 1.2317882,2.18055358 L1.2317882,2.18055358 L1.2317882,2.18055358 Z" id="Shape-Copy-81" fill="#23BEFF"></path>
                            <path d="M1.46117381,2.1509795 L1.53483574,2.14154269 C1.55739841,2.13865705 1.57808497,2.15571091 1.58082508,2.17947192 L1.59018093,2.26039973 C1.59292104,2.28416074 1.57672726,2.305946 1.55416459,2.30883163 L1.48050266,2.31826844 C1.45793999,2.32115408 1.43725343,2.30410023 1.43448864,2.28033922 L1.42513279,2.19941141 C1.42241737,2.1756504 1.43863583,2.15389114 1.46117381,2.1509795 L1.46117381,2.1509795 L1.46117381,2.1509795 Z" id="Shape-Copy-82" fill="#23BEFF"></path>
                            <path d="M1.33050562,0.100756548 C1.50292738,0.0415747912 1.76355918,0.208440255 1.75479741,0.432481755 C1.66214478,0.197083192 1.5159096,0.135088218 1.33050562,0.100756548 L1.33050562,0.100756548 L1.33050562,0.100756548 Z" id="Shape-Copy-83" fill="#23BEFF"></path>
                            <path d="M1.48434255,0.0237172361 C1.61162757,-0.0199312695 1.80248114,0.103111242 1.79602072,0.268320446 C1.7276192,0.0947662925 1.62121957,0.0489860553 1.48434255,0.0237172361 L1.48434255,0.0237172361 L1.48434255,0.0237172361 Z" id="Shape-Copy-84" fill="#23BEFF"></path>
                            <path d="M0.421954178,2.95125201 C0.274301577,3.00191963 0.0511212682,2.85914561 0.0586419835,2.66752373 C0.137967036,2.86889438 0.263156123,2.92190171 0.421954178,2.95125201 L0.421954178,2.95125201 L0.421954178,2.95125201 Z" id="Shape-Copy-85" fill="#23BEFF"></path>
                            <path d="M0.290471591,3.01773654 C0.181262346,3.05514583 0.0174978513,2.9497031 0.0230521189,2.80815092 C0.0817545563,2.9568522 0.17304203,2.99610726 0.290471591,3.01773654 L0.290471591,3.01773654 L0.290471591,3.01773654 Z" id="Shape-Copy-86" fill="#23BEFF"></path>
                            <path d="M0.068637978,0.212418452 C0.068637978,0.212418452 0.0782406895,0.13037278 0.163208641,0.0724520711 C0.244794661,0.0168190741 0.362841363,0.0408140536 0.362841363,0.0408140536" id="Shape-Copy-87" stroke="#23BEFF" stroke-width="0.5"></path>
                            <path d="M0.134807852,0.230357674 C0.134807852,0.230357674 0.150409172,0.172332978 0.204668196,0.139681089 C0.269467985,0.100685997 0.347647387,0.122653232 0.347647387,0.122653232" id="Shape-Copy-88" stroke="#23BEFF" stroke-width="0.5"></path>
                            <path d="M0.204852649,0.290052942 C0.204852649,0.290052942 0.211838683,0.24686452 0.240646818,0.210942591 C0.269454953,0.175020661 0.322751237,0.194110601 0.322751237,0.194110601" id="Shape-Copy-89" stroke="#23BEFF" stroke-width="0.5"></path>
                        </g>
                    </g>
                    <g id="Group-5" transform="translate(1.978977, 31.513661)">
                        <rect id="Rectangle-43-Copy" fill="#22CD78" x="0" y="0" width="40.9210025" height="4.71345298" rx="0.5225472"></rect>
                        <text id="Call-me-now" font-family="Helvetica-Bold, Helvetica" font-size="2.0901888" font-weight="bold" fill="#FFFFFF">
                            <tspan x="14.3518571" y="3.06375228">Call me now</tspan>
                        </text>
                    </g>
                    <g id="Group-4" transform="translate(2.506705, 26.460838)">
                        <text id="Insert-your-phonenum" font-family="Helvetica" font-size="1.8289152" font-weight="normal" fill="#D8D8D8">
                            <tspan x="15.0473976" y="2.06375228">Insert your phonenumber</tspan>
                        </text>
                        <use id="Rectangle-43-Copy" stroke="#D8D8D8" mask="url(#mask-15)" xlink:href="#path-14"></use>
                        <g id="New-Caller-ID-number-" transform="translate(0.659659, 0.930783)">
                            <text id="(+39)" font-family="Helvetica-Light, Helvetica" font-size="1.8289152" font-weight="300" fill="#777777">
                                <tspan x="4.69697283" y="1">(+39)</tspan>
                            </text>
                            <g id="IT-Copy-3">
                                <mask id="mask-17" fill="white">
                                    <use xlink:href="#path-16"></use>
                                </mask>
                                <use id="background" fill="#FFFFFF" xlink:href="#path-16"></use>
                                <rect id="left" fill="#229F55" mask="url(#mask-17)" x="0" y="0" width="1.31931818" height="2.65938069"></rect>
                                <rect id="right" fill="#CF3946" mask="url(#mask-17)" x="2.63863636" y="0" width="1.31931818" height="2.65938069"></rect>
                                <mask id="mask-19" fill="white">
                                    <use xlink:href="#path-18"></use>
                                </mask>
                                <use id="overlay" stroke-opacity="0.156646286" stroke="#2F343A" stroke-width="0.5" xlink:href="#path-18"></use>
                            </g>
                        </g>
                        <path id="Line" stroke="#D8D8D8" stroke-width="0.5" stroke-linecap="square"></path>
                    </g>
                    <text id="Powered-with-♥︎-by" font-family="Raleway-Regular, Raleway" font-size="1.8289152" font-weight="normal" fill="#777777">
                        <tspan x="15.5378519" y="48.140255">Powered with </tspan>
                        <tspan x="27.6745332" y="48.140255" font-family="HiraginoSans-W3, Hiragino Sans" font-weight="300">♥︎</tspan>
                        <tspan x="29.5034484" y="48.140255"> by</tspan>
                    </text>
                    <text id="Cannot-answer-now?-T" font-family="Raleway-Regular, Raleway" font-size="1.8289152" font-weight="normal">
                        <tspan x="13.65157" y="40.428051" fill="#343434">Cannot answer now? </tspan>
                        <tspan x="9.52187949" y="42.428051" fill="#343434">Try to </tspan>
                        <tspan x="14.9043769" y="42.428051" font-family="Raleway-Bold, Raleway" font-weight="bold" fill="#3190E6">schedule this call later!</tspan>
                    </text>
                    <g id="callerid-icon" transform="translate(20.581364, 1.595628)">
                        <path d="M0.491798616,0.625807698 L0.701100015,0.520481987 C0.829216922,0.456024308 0.98133049,0.51287743 1.04852114,0.641792788 L1.25231594,1.03293606 C1.31950658,1.16185142 1.2619146,1.32423717 1.13379769,1.38869485 L0.924496294,1.49402056 C0.796429906,1.55842651 0.644265819,1.50167685 0.57707517,1.37270976 L0.373280373,0.981618225 C0.306089724,0.852599404 0.36363119,0.690317109 0.491798616,0.625807698 L0.491798616,0.625807698 L0.491798616,0.625807698 Z" id="Shape" fill="#23BEFF"></path>
                        <path d="M3.46733399,4.60971647 C3.18190003,4.68477915 2.69873359,4.79005313 2.42168583,4.82450643 C1.63201888,4.92300356 1.43307394,4.62089052 1.28399153,3.36686275 C1.12677551,2.04423876 1.31748581,1.76318052 2.02015855,1.67559878 C2.29422567,1.64140413 2.78987038,1.62572943 3.11314329,1.63038528 L3.02185494,0.86263535 C2.70903952,0.832320583 2.20399823,0.804230278 1.78691101,0.85616889 C0.435065459,1.02465899 0.123513027,1.71724278 0.333723773,3.48527657 C0.52761679,5.1162214 0.955110981,5.85572583 2.36045646,5.68056235 C2.73076282,5.63436595 3.24191694,5.49867374 3.56054207,5.39402055 L3.46733399,4.60971647 L3.46733399,4.60971647 Z" id="Shape" fill="#23BEFF"></path>
                        <path d="M2.76653047,1.81853342 C2.8517565,1.80787669 2.92990984,1.8705755 2.94031681,1.95784685 L3.06009804,2.96552834 C3.07045449,3.05279969 3.00922512,3.1328286 2.9240496,3.14348533 L1.97176108,3.26215782 C1.88653504,3.27281454 1.80838171,3.21011574 1.79802525,3.12284439 L1.67819351,2.1151629 C1.66783706,2.02794328 1.72901591,1.94786263 1.81424194,1.93725764 L2.76653047,1.81853342 Z" id="Shape" fill="#23BEFF"></path>
                        <path d="M1.92334502,3.44226482 L2.07395433,3.42355824 C2.120086,3.41783805 2.16238178,3.45164387 2.16803468,3.49874527 L2.18716368,3.65916832 C2.1927661,3.70621818 2.15965628,3.74945459 2.11352461,3.75517478 L1.96291529,3.77388136 C1.91678362,3.77960155 1.87448784,3.74579573 1.86888541,3.69869433 L1.84975642,3.53827128 C1.84410352,3.49122142 1.87721334,3.44798501 1.92334502,3.44226482 L1.92334502,3.44226482 L1.92334502,3.44226482 Z" id="Shape" fill="#23BEFF"></path>
                        <path d="M2.39287121,3.38375628 L2.54348052,3.36504971 C2.58961219,3.35932952 2.63190797,3.39313534 2.6375104,3.44023674 L2.6566394,3.60065978 C2.66224182,3.64776118 2.629132,3.69094606 2.58300032,3.69666625 L2.43239101,3.71537282 C2.38625934,3.72109301 2.34396356,3.68728719 2.33836113,3.64018579 L2.31923213,3.47976275 C2.31357924,3.43271288 2.34673953,3.38947647 2.39287121,3.38375628 L2.39287121,3.38375628 L2.39287121,3.38375628 Z" id="Shape" fill="#23BEFF"></path>
                        <path d="M2.86239744,3.32519601 L3.01300676,3.30648944 C3.05913843,3.30076925 3.10143421,3.33457507 3.10703663,3.38167647 L3.12985011,3.5729164 C3.13343364,3.60301183 3.11223528,3.63068519 3.08270899,3.63439559 L2.90191725,3.65686409 C2.85578557,3.66258428 2.81348979,3.62877846 2.80788737,3.58167706 L2.78875837,3.42125401 C2.78310547,3.37415261 2.81626577,3.33096774 2.86239744,3.32519601 L2.86239744,3.32519601 L2.86239744,3.32519601 Z" id="Shape" fill="#23BEFF"></path>
                        <path d="M1.9776532,3.89884851 L2.12821204,3.8800904 C2.17434372,3.87442174 2.2166395,3.90822756 2.22229239,3.95532896 L2.24142139,4.11564894 C2.24702381,4.16285341 2.21391399,4.20603828 2.16778232,4.21175848 L2.017173,4.23046505 C1.97104133,4.23618524 1.92874555,4.20237942 1.92314313,4.15527802 L1.90401413,3.99485498 C1.89836123,3.94775357 1.93147105,3.90451717 1.9776532,3.89884851 L1.9776532,3.89884851 L1.9776532,3.89884851 Z" id="Shape" fill="#23BEFF"></path>
                        <path d="M2.44712893,3.84023671 L2.59773824,3.82153013 C2.64386992,3.81586148 2.68616569,3.8496673 2.69176812,3.89671716 L2.71089712,4.05714021 C2.71649954,4.10424161 2.68338972,4.14742648 2.63725805,4.15314667 L2.4866992,4.17185325 C2.44051706,4.17757344 2.39827175,4.14376762 2.39261885,4.09666622 L2.37348986,3.93629471 C2.36788743,3.88919331 2.40099725,3.8459569 2.44712893,3.84023671 L2.44712893,3.84023671 L2.44712893,3.84023671 Z" id="Shape" fill="#23BEFF"></path>
                        <path d="M2.91665516,3.78172813 L3.06726448,3.76302156 C3.11339615,3.75730137 3.15569193,3.79110719 3.16129436,3.83820859 L3.18042335,3.99863163 C3.18607625,4.04573303 3.15291596,4.08891791 3.10678428,4.0946381 L2.95622544,4.11334467 C2.91009377,4.11906486 2.86779799,4.08525904 2.86214509,4.03815764 L2.84301609,3.8777346 C2.83741367,3.8306332 2.87052349,3.78744832 2.91665516,3.78172813 L2.91665516,3.78172813 L2.91665516,3.78172813 Z" id="Shape" fill="#23BEFF"></path>
                        <path d="M2.03191091,4.35532905 L2.18252023,4.33662248 C2.2286519,4.33090229 2.27094768,4.36470811 2.27655011,4.41180951 L2.2956791,4.57223255 C2.30128153,4.61933395 2.26817171,4.66251883 2.22204003,4.66823902 L2.07143072,4.68694559 C2.02529904,4.69266579 1.98300326,4.65885997 1.97740084,4.61175856 L1.95827184,4.45133552 C1.95261895,4.40423412 1.98577924,4.36104925 2.03191091,4.35532905 L2.03191091,4.35532905 L2.03191091,4.35532905 Z" id="Shape" fill="#23BEFF"></path>
                        <path d="M2.50138664,4.29671706 L2.65199595,4.27801049 C2.69812763,4.27229029 2.74042341,4.30619918 2.74602583,4.35330058 L2.76515483,4.51362056 C2.77075725,4.56072196 2.73764743,4.6040099 2.69151576,4.60962703 L2.54095692,4.6283336 C2.49482524,4.63405379 2.45252946,4.60024797 2.44687657,4.55314657 L2.42774757,4.39282659 C2.42214514,4.34572519 2.45525497,4.30243725 2.50138664,4.29671706 L2.50138664,4.29671706 L2.50138664,4.29671706 Z" id="Shape" fill="#23BEFF"></path>
                        <path d="M2.97091284,4.23820852 L3.12152215,4.21950194 C3.16765383,4.21378175 3.20994961,4.24758757 3.21555203,4.29468897 L3.23468103,4.45511202 C3.24028345,4.50221342 3.20717363,4.54539829 3.16104196,4.55111848 L3.01043264,4.56982506 C2.96430097,4.57554525 2.92200519,4.54173943 2.91635229,4.49463803 L2.8972233,4.33421499 C2.89167134,4.28711358 2.92483164,4.24398024 2.97091284,4.23820852 L2.97091284,4.23820852 L2.97091284,4.23820852 Z" id="Shape" fill="#23BEFF"></path>
                        <path d="M2.70353292,0.182156769 C3.05646065,0.0646223813 3.5899443,0.396015554 3.57200995,0.840959775 C3.38236056,0.373460539 3.08303379,0.25033913 2.70353292,0.182156769 L2.70353292,0.182156769 L2.70353292,0.182156769 Z" id="Shape" fill="#23BEFF"></path>
                        <path d="M3.01841963,0.0297552257 C3.27920018,-0.057102273 3.67021944,0.187743791 3.65698339,0.516498648 C3.51684289,0.17113792 3.29885218,0.0800384233 3.01841963,0.0297552257 L3.01841963,0.0297552257 L3.01841963,0.0297552257 Z" id="Shape" fill="#23BEFF"></path>
                        <path d="M0.844524265,5.82468682 C0.542014786,5.92551188 0.0847647358,5.64140146 0.100173118,5.26008721 C0.262693658,5.66080084 0.519180069,5.76628175 0.844524265,5.82468682 L0.844524265,5.82468682 L0.844524265,5.82468682 Z" id="Shape" fill="#23BEFF"></path>
                        <path d="M0.574599725,5.95536106 C0.351102407,6.02980295 0.0159574694,5.81997924 0.0273243085,5.53830021 C0.147459169,5.83420545 0.334279485,5.9123203 0.574599725,5.95536106 L0.574599725,5.95536106 L0.574599725,5.95536106 Z" id="Shape" fill="#23BEFF"></path>
                        <path d="M0.120633428,0.403667796 C0.120633428,0.403667796 0.14028543,0.241028822 0.31417281,0.126212715 C0.481139047,0.0159315342 0.722722269,0.0634967349 0.722722269,0.0634967349" id="Shape" stroke="#23BEFF" stroke-width="0.5"></path>
                        <path d="M0.256075632,0.438464456 C0.256075632,0.438464456 0.28800382,0.323669982 0.399045209,0.259072375 C0.531658332,0.181925551 0.691652908,0.225384929 0.691652908,0.225384929" id="Shape" stroke="#23BEFF" stroke-width="0.5"></path>
                        <path d="M0.399449363,0.483271863 C0.399449363,0.483271863 0.413748981,0.429166224 0.472715955,0.38416391 C0.531682929,0.339161596 0.640774358,0.363077112 0.640774358,0.363077112" id="Shape" stroke="#23BEFF" stroke-width="0.5"></path>
                        <path d="M2.24159623,2.02027018 C2.31438078,2.00325717 2.39166018,2.00508241 2.46350926,2.02567829 C2.54400578,2.04857262 2.61729229,2.09526263 2.67182367,2.15804177 C2.73908663,2.23447639 2.7771217,2.33508976 2.77730423,2.43633408 C2.78273455,2.50060045 2.77566144,2.56572311 2.75692912,2.62746569 C2.73205916,2.71063791 2.68852533,2.78736547 2.6361387,2.85658927 C2.58541768,2.92367236 2.52611766,2.98413052 2.46223153,3.0390679 C2.42399112,3.07169683 2.38401666,3.10238785 2.34207998,3.13026215 C2.3669043,3.09145897 2.38616141,3.04772088 2.38921882,3.00145901 C2.39131793,2.97009197 2.38221416,2.93741798 2.36074386,2.9137575 C2.33439083,2.88423823 2.29576254,2.86925326 2.25793282,2.86017214 C2.21695443,2.85187971 2.17675181,2.83860731 2.13999447,2.8187325 C2.05872218,2.77736046 1.99205245,2.70915068 1.95171292,2.62823184 C1.91538909,2.55587584 1.90080937,2.47326697 1.90941118,2.3930016 C1.9184465,2.30658452 1.95508976,2.22329963 2.01274699,2.15770377 C2.07188729,2.08967425 2.15315957,2.04070833 2.24159623,2.02027018 L2.24159623,2.02027018 Z M2.10110689,2.2720751 C2.07910741,2.2767905 2.06205077,2.29803571 2.06230688,2.32083545 C2.06148734,2.34632971 2.08269289,2.3701399 2.10794491,2.37151306 C2.12843336,2.37376713 2.14902426,2.36151227 2.15760379,2.34267657 C2.1670797,2.32295998 2.16180393,2.29720663 2.14505462,2.28318997 C2.13324815,2.27269691 2.11639639,2.26837014 2.10110689,2.2720751 L2.10110689,2.2720751 Z M2.56868262,2.27224689 C2.54775707,2.2769856 2.5313028,2.2967432 2.53053629,2.31854648 C2.52831343,2.3463832 2.55276489,2.37274393 2.58043567,2.37163046 C2.60994606,2.37282161 2.63518957,2.34268027 2.62961965,2.31336755 C2.62604263,2.28514241 2.59576574,2.26465976 2.56868262,2.27224689 L2.56868262,2.27224689 Z M2.04469005,2.46040017 C2.04432499,2.53386033 2.07359853,2.60677967 2.12454771,2.66025236 C2.16700917,2.7051622 2.22405036,2.73664191 2.28526696,2.748044 C2.34500049,2.75942357 2.40829339,2.75232542 2.4637146,2.72740305 C2.50704309,2.70777612 2.54585391,2.67818925 2.57517308,2.64098597 C2.61596894,2.59003707 2.63844316,2.52532002 2.6383519,2.46040017 L2.04469005,2.46040017 L2.04469005,2.46040017 Z" id="Shape" fill="#FFFFFF"></path>
                    </g>
                    <text id="Tell-us-your-phonenu" font-family="Raleway-Medium, Raleway" font-size="1.8289152" font-weight="400" fill="#777777">
                        <tspan x="5.97640241" y="18.6211293">Tell us your phonenumber and we will</tspan>
                        <tspan x="10.5761241" y="20.6211293"> </tspan>
                        <tspan x="11.0388397" y="20.6211293" font-family="Raleway-SemiBoldItalic, Raleway" font-style="italic" font-weight="500">#ring</tspan>
                        <tspan x="15.5416289" y="20.6211293"> you just immediately.</tspan>
                    </text>
                    <g id="Group-13" transform="translate(35.100000, 25.454545)" fill="#314E55">
                        <path d="M15.5519126,0.0174493793 C16.257463,-0.0989802416 16.9883276,0.379212844 17.2258911,1.09442337 C17.4420349,1.69805551 17.281712,2.41881031 16.8474772,2.86512386 C13.4839422,6.45850233 10.11846,10.0504947 6.75492503,13.6431802 C6.254484,14.1719647 5.76572641,14.7125308 5.25554916,15.2309198 C4.31827697,16.1713662 3.27780099,16.9960761 2.16073351,17.6773279 C1.64795995,17.9829557 1.12025753,18.2740298 0.551663044,18.4431299 C0.394585572,18.4812468 0.221281089,18.5325312 0.0661508578,18.4590697 C-0.0383510969,18.3447192 0.00773361604,18.1735399 0.025907869,18.0342402 C0.151180398,17.4451617 0.414707067,16.9032096 0.676935574,16.373039 C1.43830696,14.8941056 2.41582214,13.5440764 3.54522214,12.3638404 C7.25666423,8.40246118 10.9661591,4.43900284 14.6776012,0.476930562 C14.9125683,0.22813155 15.2241269,0.0652686878 15.5519126,0.0174493793 L15.5519126,0.0174493793 Z" id="Shape"></path>
                        <path d="M10.9291615,9.83189555 C13.1769271,7.43607888 15.4207983,5.03541099 17.6776511,2.64998983 C18.2663671,3.26609657 18.2767523,4.3707919 17.6834928,4.98689865 C16.1568555,6.6141412 14.6295692,8.24069073 13.0983884,9.86308205 C12.5148651,10.4736445 11.5010014,10.4486953 10.9291615,9.83189555 L10.9291615,9.83189555 Z" id="Shape"></path>
                    </g>
                </g>
            </g>
        </g>
    </g>
</svg>