<?xml version="1.0" encoding="UTF-8"?>
<svg width="49px" height="54px" viewBox="0 0 49 54" version="1.1" xmlns="http://www.w3.org/2000/svg" xmlns:xlink="http://www.w3.org/1999/xlink">
    <!-- Generator: Sketch 42 (36781) - http://www.bohemiancoding.com/sketch -->
    <title>Peopleweb</title>
    <desc>Created with Sketch.</desc>
    <defs></defs>
    <g id="Page-1" stroke="none" stroke-width="1" fill="none" fill-rule="evenodd" stroke-linejoin="round">
        <g id="ClickToCall" transform="translate(-488.000000, -1705.000000)" stroke="#314E55">
            <g id="Group-8" transform="translate(362.000000, 1706.000000)">
                <g id="Peopleweb" transform="translate(150.500000, 26.000000) scale(-1, 1) translate(-150.500000, -26.000000) translate(127.000000, 0.000000)">
                    <path d="M40,20 C40,8.954305 31.045695,0 20,0 C8.954305,0 0,8.954305 0,20 C0,31.045695 8.954305,40 20,40" id="Oval-597" stroke-width="2"></path>
                    <path d="M19.9660272,38.2352941 L19.9660272,0" id="Line-199" stroke-width="2" stroke-linecap="square"></path>
                    <path d="M39.4117647,19.0375489 L1.76470588,19.0375489" id="Line-200" stroke-width="2" stroke-linecap="square"></path>
                    <path d="M31.7647059,20.5882353 C31.7647059,9.86741368 26.4974676,1.17647059 20,1.17647059 C13.5025324,1.17647059 8.23529412,9.86741368 8.23529412,20.5882353 C8.23529412,31.3090569 13.5025324,40 20,40" id="Oval-596" stroke-width="2" stroke-linecap="round"></path>
                    <path d="M46.7274953,52 C45.76445,47.6556738 42.3443262,44.23555 38,43.2725047 L38,40.6264018 C40.8770387,39.742364 43.1035529,37.3724403 43.7840716,34.412102 C44.5217919,33.8655567 45,32.9886241 45,32 C45,30.8465467 44.3490396,29.8451334 43.3944527,29.3430937 C42.1411611,26.2118276 39.0788805,24 35.5,24 C31.9211195,24 28.8588389,26.2118276 27.6055473,29.3430937 C26.6509604,29.8451334 26,30.8465467 26,32 C26,32.9886241 26.4782081,33.8655567 27.2159284,34.412102 C27.8964471,37.3724403 30.1229613,39.742364 33,40.6264018 L33,43.2725047 C28.6556738,44.23555 25.23555,47.6556738 24.2725047,52 L46.7274953,52 Z" id="Oval-602" stroke-width="2" stroke-linecap="round" fill="#E0D358"></path>
                    <path d="M15,26 C15,26 9,20.7466923 9,17.6347216 C9,14.5227508 11.6862915,12 15,12 C18.3137085,12 21,14.5227508 21,17.6347216 C21,20.7466923 15,26 15,26 Z M15,17.6347216 C15.8284271,17.6347216 16.5,17.0040339 16.5,16.2260412 C16.5,15.4480485 15.8284271,14.8173608 15,14.8173608 C14.1715729,14.8173608 13.5,15.4480485 13.5,16.2260412 C13.5,17.0040339 14.1715729,17.6347216 15,17.6347216 Z" id="Oval-1466" stroke-width="1.44" stroke-linecap="round" fill="#EA86A5"></path>
                </g>
            </g>
        </g>
    </g>
</svg>