<?xml version="1.0" encoding="UTF-8"?>
<svg width="37px" height="56px" viewBox="0 0 37 56" version="1.1" xmlns="http://www.w3.org/2000/svg" xmlns:xlink="http://www.w3.org/1999/xlink">
    <!-- Generator: Sketch 42 (36781) - http://www.bohemiancoding.com/sketch -->
    <title>ContactUsIcon</title>
    <desc>Created with Sketch.</desc>
    <defs></defs>
    <g id="Page-1" stroke="none" stroke-width="1" fill="none" fill-rule="evenodd" stroke-linecap="round" stroke-linejoin="round">
        <g id="Contact-Us" transform="translate(-494.000000, -1365.000000)" stroke="#314E55" stroke-width="1.008">
            <g id="ContactUsIcon" transform="translate(495.000000, 1366.000000)">
                <path d="M17.5,54 C12.696128,54 0,27.9411255 0,18 C0,8.0588745 7.83501688,0 17.5,0 C27.1649831,0 35,8.0588745 35,18 C35,27.9411255 22.303872,54 17.5,54 Z M17.5,32 C25.0172091,32 31.1111111,25.7319865 31.1111111,18 C31.1111111,10.2680135 25.0172091,4 17.5,4 C9.98279091,4 3.88888889,10.2680135 3.88888889,18 C3.88888889,25.7319865 9.98279091,32 17.5,32 Z" id="Oval-616" fill="#73C9C9"></path>
                <polygon id="Star-12" fill="#5ECC66" points="17.2058013 20.625 13.2055961 22.788119 13.9695673 18.2065595 10.7333333 14.961881 15.2056987 14.2934405 17.2058013 10.125 19.2059039 14.2934405 23.6782692 14.961881 20.4420353 18.2065595 21.2060065 22.788119"></polygon>
            </g>
        </g>
    </g>
</svg>