<?xml version="1.0" encoding="UTF-8"?>
<svg width="72px" height="107px" viewBox="0 0 72 107" version="1.1" xmlns="http://www.w3.org/2000/svg" xmlns:xlink="http://www.w3.org/1999/xlink">
    <!-- Generator: Sketch 42 (36781) - http://www.bohemiancoding.com/sketch -->
    <title>ContactUsIcon</title>
    <desc>Created with Sketch.</desc>
    <defs></defs>
    <g id="Page-1" stroke="none" stroke-width="1" fill="none" fill-rule="evenodd" stroke-linecap="round" stroke-linejoin="round">
        <g id="Homepage" transform="translate(-476.000000, -1710.000000)" stroke="#314E55" stroke-width="2">
            <g id="Optimplaces" transform="translate(322.000000, 1711.000000)">
                <g id="ContactUsIcon" transform="translate(155.000000, 0.000000)">
                    <path d="M35,105 C25.392256,105 0,54.3299662 0,35 C0,15.6700338 15.6700338,0 35,0 C54.3299662,0 70,15.6700338 70,35 C70,54.3299662 44.607744,105 35,105 Z M35,62.2222222 C50.0344182,62.2222222 62.2222222,50.0344182 62.2222222,35 C62.2222222,19.9655818 50.0344182,7.77777778 35,7.77777778 C19.9655818,7.77777778 7.77777778,19.9655818 7.77777778,35 C7.77777778,50.0344182 19.9655818,62.2222222 35,62.2222222 Z" id="Oval-616" fill="#73C9C9"></path>
                    <polygon id="Star-12" fill="#5ECC66" points="34.4116026 40.1041667 26.4111922 44.3102313 27.9391346 35.4016434 21.4666667 29.0925465 30.4113974 27.792801 34.4116026 19.6875 38.4118078 27.792801 47.3565385 29.0925465 40.8840705 35.4016434 42.412013 44.3102313"></polygon>
                </g>
            </g>
        </g>
    </g>
</svg>