<?xml version="1.0" encoding="UTF-8"?>
<svg width="44px" height="54px" viewBox="0 0 44 54" version="1.1" xmlns="http://www.w3.org/2000/svg" xmlns:xlink="http://www.w3.org/1999/xlink">
    <!-- Generator: Sketch 42 (36781) - http://www.bohemiancoding.com/sketch -->
    <title>InteractiveIcon</title>
    <desc>Created with Sketch.</desc>
    <defs></defs>
    <g id="Page-1" stroke="none" stroke-width="1" fill="none" fill-rule="evenodd" stroke-linecap="round" stroke-linejoin="round">
        <g id="Voice-Messages" transform="translate(-649.000000, -1020.000000)" stroke="#314E55" stroke-width="1.8">
            <g id="Group-10" transform="translate(205.000000, 1021.000000)">
                <g id="Interactive" transform="translate(315.000000, 0.000000)">
                    <g id="InteractiveIcon" transform="translate(129.000000, 0.000000)">
                        <path d="M42.5381531,52 C40.7510734,43.9319656 34.4045044,37.5803072 26.3429348,35.7917944 L26.3429348,30.8776033 C31.6817253,29.2358188 35.8133671,24.834532 37.0761749,19.3367608 C38.4451291,18.3217481 39.3325181,16.693159 39.3325181,14.8571429 C39.3325181,12.7150154 38.1245605,10.8552477 36.3531766,9.92288839 C34.0275001,4.10767975 28.3449646,0 21.7037979,0 C15.0626312,0 9.38009573,4.10767975 7.05441919,9.92288839 C5.28303535,10.8552477 4.07507767,12.7150154 4.07507767,14.8571429 C4.07507767,16.693159 4.96246675,18.3217481 6.33142094,19.3367608 C7.59422877,24.834532 11.7258705,29.2358188 17.064661,30.8776033 L17.064661,35.7917944 C9.00309137,37.5803072 2.65652247,43.9319656 0.869442715,52 L42.5381531,52 Z" id="Oval-606" fill="#E0D358"></path>
                        <path d="M17.696979,18.3038215 L17.1088191,18.8919814 C16.5709717,19.4298288 15.7023969,19.4332771 15.160422,18.8913022 C14.6221994,18.3530796 14.622329,17.4803187 15.1597428,16.942905 L15.7494613,16.3531864 C15.2708404,15.6294636 14.9249717,14.8101218 14.7465958,13.9299293 L13.9117274,13.9299293 C13.1510962,13.9299293 12.5344828,13.3181925 12.5344828,12.5517241 C12.5344828,11.7905625 13.1517096,11.173519 13.9117274,11.173519 L14.7465958,11.173519 C14.9249717,10.2933265 15.2708404,9.47398466 15.7494613,8.75026186 L15.1597428,8.16054328 C14.6218953,7.62269581 14.618447,6.75412107 15.160422,6.2121461 C15.6986445,5.67392352 16.5714054,5.67405316 17.1088191,6.2114669 L17.696979,6.79962677 C18.420948,6.31924055 19.2408595,5.97209229 20.1217949,5.79312844 L20.1217949,4.96345149 C20.1217949,4.2028203 20.7335316,3.5862069 21.5,3.5862069 C22.2611617,3.5862069 22.8782051,4.20343369 22.8782051,4.96345149 L22.8782051,5.79312844 C23.7591405,5.97209229 24.579052,6.31924055 25.303021,6.79962677 L25.8911809,6.2114669 C26.4290283,5.67361943 27.2976031,5.67017113 27.839578,6.2121461 C28.3778006,6.75036868 28.377671,7.62312954 27.8402572,8.16054328 L27.2505387,8.75026186 C27.7291596,9.47398466 28.0750283,10.2933265 28.2534042,11.173519 L29.0882726,11.173519 C29.8489038,11.173519 30.4655172,11.7852558 30.4655172,12.5517241 C30.4655172,13.3128858 29.8482904,13.9299293 29.0882726,13.9299293 L28.2534042,13.9299293 C28.0750283,14.8101218 27.7291596,15.6294636 27.2505387,16.3531864 L27.8402572,16.942905 C28.3781047,17.4807525 28.381553,18.3493272 27.839578,18.8913022 C27.3013555,19.4295248 26.4285946,19.4293951 25.8911809,18.8919814 L25.303021,18.3038215 C24.579052,18.7842077 23.7591405,19.131356 22.8782051,19.3103198 L22.8782051,20.1399968 C22.8782051,20.900628 22.2664684,21.5172414 21.5,21.5172414 C20.7388383,21.5172414 20.1217949,20.9000146 20.1217949,20.1399968 L20.1217949,19.3103198 C19.2408595,19.131356 18.420948,18.7842077 17.696979,18.3038215 Z M21.5,14.6206897 C22.6417425,14.6206897 23.5673077,13.6943822 23.5673077,12.5517241 C23.5673077,11.409066 22.6417425,10.4827586 21.5,10.4827586 C20.3582575,10.4827586 19.4326923,11.409066 19.4326923,12.5517241 C19.4326923,13.6943822 20.3582575,14.6206897 21.5,14.6206897 Z" id="Rectangle-358" fill="#E65F58"></path>
                        <path d="M15.2291667,23.3103448 C15.2291667,25.2909522 18.2372535,26.8965517 21.9479167,26.8965517 C25.6585798,26.8965517 28.6666667,25.2909522 28.6666667,23.3103448" id="Oval-612"></path>
                    </g>
                </g>
            </g>
        </g>
    </g>
</svg>