<?xml version="1.0" encoding="UTF-8"?>
<svg width="268px" height="162px" viewBox="0 0 268 162" version="1.1" xmlns="http://www.w3.org/2000/svg" xmlns:xlink="http://www.w3.org/1999/xlink">
    <!-- Generator: Sketch 42 (36781) - http://www.bohemiancoding.com/sketch -->
    <title>404</title>
    <desc>Created with Sketch.</desc>
    <defs></defs>
    <g id="Page-1" stroke="none" stroke-width="1" fill="none" fill-rule="evenodd">
        <g id="404" transform="translate(-519.000000, -132.000000)" fill="#23BDFF">
            <g id="Group" transform="translate(95.000000, 89.000000)">
                <g id="type" transform="translate(422.000000, 0.000000)">
                    <path d="M47.488,180.256 L2.016,180.256 L2.016,158.752 L34.944,44.512 L59.136,44.512 L24.864,158.752 L47.488,158.752 L47.488,113.28 L70.336,113.28 L70.336,158.752 L81.312,158.752 L81.312,180.256 L70.336,180.256 L70.336,204 L47.488,204 L47.488,180.256 Z M102.053678,77.44 C102.053678,72.0639731 102.987002,67.2853542 104.853678,63.104 C106.720354,58.9226458 109.221662,55.3386816 112.357678,52.352 C115.493694,49.3653184 119.114991,47.0880078 123.221678,45.52 C127.328365,43.9519922 131.621655,43.168 136.101678,43.168 C140.5817,43.168 144.874991,43.9519922 148.981678,45.52 C153.088365,47.0880078 156.709662,49.3653184 159.845678,52.352 C162.981694,55.3386816 165.483002,58.9226458 167.349678,63.104 C169.216354,67.2853542 170.149678,72.0639731 170.149678,77.44 L170.149678,171.072 C170.149678,176.448027 169.216354,181.226646 167.349678,185.408 C165.483002,189.589354 162.981694,193.173318 159.845678,196.16 C156.709662,199.146682 153.088365,201.423992 148.981678,202.992 C144.874991,204.560008 140.5817,205.344 136.101678,205.344 C131.621655,205.344 127.328365,204.560008 123.221678,202.992 C119.114991,201.423992 115.493694,199.146682 112.357678,196.16 C109.221662,193.173318 106.720354,189.589354 104.853678,185.408 C102.987002,181.226646 102.053678,176.448027 102.053678,171.072 L102.053678,77.44 Z M124.901678,171.072 C124.901678,174.35735 125.947001,177.082656 128.037678,179.248 C130.128355,181.413344 132.816328,182.496 136.101678,182.496 C139.387028,182.496 142.075001,181.413344 144.165678,179.248 C146.256355,177.082656 147.301678,174.35735 147.301678,171.072 L147.301678,77.44 C147.301678,74.1546502 146.256355,71.4293442 144.165678,69.264 C142.075001,67.0986558 139.387028,66.016 136.101678,66.016 C132.816328,66.016 130.128355,67.0986558 128.037678,69.264 C125.947001,71.4293442 124.901678,74.1546502 124.901678,77.44 L124.901678,171.072 Z M236.363356,180.256 L190.891356,180.256 L190.891356,158.752 L223.819356,44.512 L248.011356,44.512 L213.739356,158.752 L236.363356,158.752 L236.363356,113.28 L259.211356,113.28 L259.211356,158.752 L270.187356,158.752 L270.187356,180.256 L259.211356,180.256 L259.211356,204 L236.363356,204 L236.363356,180.256 Z" id="404"></path>
                </g>
            </g>
        </g>
    </g>
</svg>