<?xml version="1.0" encoding="UTF-8"?>
<svg width="456px" height="124px" viewBox="0 0 456 124" version="1.1" xmlns="http://www.w3.org/2000/svg" xmlns:xlink="http://www.w3.org/1999/xlink">
    <!-- Generator: Sketch 42 (36781) - http://www.bohemiancoding.com/sketch -->
    <title>Call_Burn LOGO</title>
    <desc>Created with Sketch.</desc>
    <defs>
        <linearGradient x1="49.9999972%" y1="-0.000522115834%" x2="49.9999972%" y2="99.9994882%" id="linearGradient-1">
            <stop stop-color="#D11A1C" offset="0%"></stop>
            <stop stop-color="#FFE500" offset="100%"></stop>
        </linearGradient>
        <linearGradient x1="50.0001804%" y1="99.9998541%" x2="50.0001804%" y2="0.000583600817%" id="linearGradient-2">
            <stop stop-color="#FFE900" offset="0%"></stop>
            <stop stop-color="#DC5F13" offset="100%"></stop>
        </linearGradient>
        <linearGradient x1="4.24998921%" y1="50.0619108%" x2="103.198466%" y2="49.5635078%" id="linearGradient-3">
            <stop stop-color="#F0BAA2" offset="0%"></stop>
            <stop stop-color="#F5CFAC" offset="39.85%"></stop>
            <stop stop-color="#F8DDB2" offset="75.52%"></stop>
            <stop stop-color="#F9E2B5" offset="100%"></stop>
        </linearGradient>
        <linearGradient x1="65.6957268%" y1="104.494064%" x2="36.002619%" y2="-4.66733375%" id="linearGradient-4">
            <stop stop-color="#F0BAA2" offset="0%"></stop>
            <stop stop-color="#F5CFAC" offset="39.85%"></stop>
            <stop stop-color="#F8DDB2" offset="75.52%"></stop>
            <stop stop-color="#F9E2B5" offset="100%"></stop>
        </linearGradient>
        <linearGradient x1="49.999845%" y1="100.000325%" x2="49.999845%" y2="0.00113782286%" id="linearGradient-5">
            <stop stop-color="#F0BAA2" offset="0%"></stop>
            <stop stop-color="#F1C0A4" offset="8.45%"></stop>
            <stop stop-color="#F6D6AB" offset="46.27%"></stop>
            <stop stop-color="#F9E3AE" offset="78.14%"></stop>
            <stop stop-color="#FAE7AF" offset="100%"></stop>
        </linearGradient>
        <linearGradient x1="5.53421183%" y1="92.6961048%" x2="99.9681373%" y2="0.043853771%" id="linearGradient-6">
            <stop stop-color="#F0BAA2" offset="0%"></stop>
            <stop stop-color="#F5CFAC" offset="39.85%"></stop>
            <stop stop-color="#F8DDB2" offset="75.52%"></stop>
            <stop stop-color="#F9E2B5" offset="100%"></stop>
        </linearGradient>
        <linearGradient x1="50.0032353%" y1="99.9993339%" x2="50.0032353%" y2="-0.00049960864%" id="linearGradient-7">
            <stop stop-color="#EC9500" offset="0%"></stop>
            <stop stop-color="#E8810B" offset="6.37%"></stop>
            <stop stop-color="#E26614" offset="16.27%"></stop>
            <stop stop-color="#DE4F18" offset="27.14%"></stop>
            <stop stop-color="#DC3A1A" offset="39.14%"></stop>
            <stop stop-color="#DA281B" offset="52.88%"></stop>
            <stop stop-color="#D9191B" offset="69.89%"></stop>
            <stop stop-color="#D9121B" offset="100%"></stop>
        </linearGradient>
        <linearGradient x1="50.0002741%" y1="100.000359%" x2="50.0002741%" y2="0.000449155587%" id="linearGradient-8">
            <stop stop-color="#E42E18" offset="0%"></stop>
            <stop stop-color="#FDD403" offset="100%"></stop>
        </linearGradient>
        <linearGradient x1="-0.000954889317%" y1="49.999905%" x2="99.9994483%" y2="49.999905%" id="linearGradient-9">
            <stop stop-color="#E42E18" offset="0%"></stop>
            <stop stop-color="#FDD403" offset="100%"></stop>
        </linearGradient>
        <linearGradient x1="100.000657%" y1="49.9998465%" x2="-0.00347230841%" y2="49.9998465%" id="linearGradient-10">
            <stop stop-color="#CB2F21" offset="0%"></stop>
            <stop stop-color="#CC3721" offset="9.55%"></stop>
            <stop stop-color="#CF4C21" offset="23.88%"></stop>
            <stop stop-color="#D56920" offset="41.2%"></stop>
            <stop stop-color="#DE8F1C" offset="60.85%"></stop>
            <stop stop-color="#EABA0F" offset="82.18%"></stop>
            <stop stop-color="#F5DE00" offset="100%"></stop>
        </linearGradient>
        <linearGradient x1="-14.0292303%" y1="40.4436359%" x2="128.839768%" y2="57.5183851%" id="linearGradient-11">
            <stop stop-color="#EEAB0C" offset="0%"></stop>
            <stop stop-color="#EA8912" offset="21.99%"></stop>
            <stop stop-color="#E66415" offset="46.63%"></stop>
            <stop stop-color="#E54517" offset="68.74%"></stop>
            <stop stop-color="#E42D18" offset="87.28%"></stop>
            <stop stop-color="#E32119" offset="100%"></stop>
        </linearGradient>
    </defs>
    <g id="Page-1" stroke="none" stroke-width="1" fill="none" fill-rule="evenodd">
        <g id="Homepage" transform="translate(-284.000000, -139.000000)">
            <g id="Call_Burn-LOGO" transform="translate(284.000000, 139.000000)">
                <g id="Burn" transform="translate(189.197595, 0.000000)">
                    <path d="M13.1219519,22.8025497 L0.200558758,114.997804 L36.5691876,120.200288 C54.8193138,122.809713 67.3468485,116.442143 69.9317346,98.0043195 C71.6023426,86.073181 68.375538,79.8027867 61.0663751,75.3009914 C68.958732,71.7269689 72.5186457,66.841585 73.9816933,56.4028617 C76.4511556,38.778246 67.3377361,30.558199 48.9519362,27.9283158 L13.1219519,22.8025497 L13.1219519,22.8025497 Z M41.0261671,81.5601337 C48.4072168,82.6157695 52.3407391,86.7738694 51.2766125,94.3679 C50.0049255,103.450254 45.5216212,105.160548 37.8722618,104.067065 L20.9636844,101.647899 L24.1175897,79.1419915 L41.0261671,81.5601337 L41.0261671,81.5601337 Z M45.7706937,43.7914928 C52.749785,44.7908688 55.9158401,48.5623116 54.8517135,56.1542963 C53.827074,63.4762347 50.0737748,66.8108979 42.8273862,65.7746974 L26.3207672,63.4138377 L29.3987358,41.4490453 L45.7706937,43.7914928 L45.7706937,43.7914928 Z" id="Shape-Copy-33" fill="url(#linearGradient-1)"></path>
                    <path d="M154.469559,119.36253 L172.632611,119.36253 L172.632611,73.4894305 C172.632611,73.4894305 182.255313,70.0657747 194.181429,67.7376479 L194.181429,49.252771 C183.880359,51.3067598 172.495925,58.1530484 172.495925,58.1530484 L172.495925,50.8955529 L154.468547,50.8955529 L154.468547,119.36253 L154.469559,119.36253 L154.469559,119.36253 Z M226.033341,119.36253 L226.033341,68.1498777 C226.033341,68.1498777 231.997918,65.6846819 238.367491,65.6846819 C247.177163,65.6846819 248.533899,72.3949244 248.533899,82.8009149 L248.533899,119.36253 L266.695939,119.36253 L266.695939,82.2536619 C266.695939,61.3035891 261.817764,49.252771 242.84067,49.252771 C235.114361,49.252771 225.899693,54.7293927 225.899693,54.7293927 L225.899693,50.8955529 L207.872314,50.8955529 L207.872314,119.36253 L226.033341,119.36253 L226.033341,119.36253 L226.033341,119.36253 Z" id="Shape-Copy-34" fill="url(#linearGradient-2)"></path>
                    <path d="M97.3023678,55.7563871 C89.538597,69.726171 90.8001591,89.4958138 116.687495,96.8852638 C120.163372,97.8774796 131.022324,97.0468825 135.561315,89.2431569 C142.508006,77.3017893 134.469851,67.3929296 129.118843,60.0372354 L135.448928,57.3429094 C137.129661,58.7637214 138.845831,60.0955409 140.540739,61.7280938 C149.51241,70.3808288 154.684207,85.293729 146.402042,101.790083 C138.119876,118.288483 121.236611,119.575294 115.500857,119.575294 C109.768141,119.575294 91.7670868,116.284616 85.2385534,101.873961 C76.6364412,82.8858158 82.8814774,64.9666041 87.6614412,60.1395257 C88.1241489,59.6710362 88.612169,59.1115084 89.1153763,58.4854918 L92.6925023,56.8641909 L93.657405,57.3009704 C92.1265206,60.1446402 91.0056945,61.588979 91.0056945,61.588979 C92.0100843,60.1610067 94.9098547,56.4580985 95.7998331,55.0853629 L97.3023678,55.7563871 L97.3023678,55.7563871 Z" id="Shape-Copy-51" fill="#FCE1D2"></path>
                    <path d="M95.4829238,57.7377499 C87.7191531,71.7075337 94.9857914,89.7024402 116.180238,95.0563136 C119.684464,95.9411245 130.515066,95.2179322 135.054057,87.4142066 C142.000749,75.472839 133.962594,65.5639794 128.611586,58.2082852 L132.896442,56.3957014 C134.577175,57.8165134 136.293345,59.1483329 137.988253,60.7808858 C146.959923,69.4336208 154.175937,83.4647788 145.894784,99.9611326 C137.612619,116.459532 120.729354,117.746344 114.9936,117.746344 C109.260883,117.746344 91.2598294,114.455666 84.7312961,100.045011 C76.1291839,81.0568656 82.3742201,63.1376539 87.1541838,58.3105755 C87.6168916,57.842086 88.1049116,57.2825581 88.608119,56.6565416 L92.185245,55.0352406 L93.1501476,55.4720201 C91.6192633,58.31569 90.4984372,59.7600288 90.4984372,59.7600288 C91.502827,58.3320564 92.4464673,56.9296567 93.3364457,55.5569211 L95.4829238,57.7377499 L95.4829238,57.7377499 Z" id="Shape-Copy-52" fill="#FACCB0"></path>
                    <path d="M90.3192265,45.7043211 C90.1936778,40.7463111 89.4332981,35.6154305 87.5045053,31.5043841 C87.5045053,31.5043841 88.314497,38.4151155 87.9338009,46.6413001 L90.3192265,45.7043211 L90.3192265,45.7043211 Z" id="Shape-Copy-53" fill="url(#linearGradient-3)"></path>
                    <path d="M101.378651,46.7272239 C101.01618,39.2600333 97.3742545,31.5217734 89.4535479,27.8454607 C87.2756826,26.831764 88.3043721,27.6623611 88.3043721,27.6623611 C91.7275997,35.9110494 92.2702941,40.6869827 91.7265872,45.0997855 L101.378651,46.7272239 L101.378651,46.7272239 Z" id="Shape-Copy-54" fill="url(#linearGradient-4)"></path>
                    <path d="M84.9996058,18.7457171 C84.9996058,18.7457171 100.537272,29.0913563 99.3648092,47.2376524 C99.3648092,47.2376524 97.5929523,61.0468405 91.9726222,67.7090066 C86.4221538,74.2893405 78.1653006,81.6757218 78.1653006,81.6757218 C78.1653006,81.6757218 73.2425758,73.494545 82.4643317,55.1303706 C91.6860876,36.7661962 84.9996058,18.7457171 84.9996058,18.7457171 L84.9996058,18.7457171 Z" id="Shape-Copy-55" fill="url(#linearGradient-5)" opacity="0.6"></path>
                    <path d="M84.9145567,18.0644639 C84.9145567,18.0644639 100.452223,28.410103 99.2797601,46.5563991 C99.2797601,46.5563991 98.014148,61.0478634 91.887573,67.0277533 C85.7336608,73.0352616 78.0802514,80.9934456 78.0802514,80.9934456 C78.0802514,80.9934456 73.1575267,72.8122688 82.3792826,54.4480944 C91.6010384,36.08392 84.9145567,18.0644639 84.9145567,18.0644639 L84.9145567,18.0644639 Z" id="Shape-Copy-56"></path>
                    <path d="M98.6955535,7.90601592 C103.147471,15.0110989 111.682759,21.4093561 100.665858,48.4825251 L95.4434367,47.2028737 C105.506572,19.2131837 98.6955535,7.90601592 98.6955535,7.90601592 L98.6955535,7.90601592 L98.6955535,7.90601592 Z" id="Shape-Copy-57" fill="#FDF3DA"></path>
                    <path d="M98.7593404,10.4111049 C102.7121,17.810784 109.847115,21.9208075 97.5686525,47.0975147 L92.4464673,45.4567786 C104.404983,18.2383573 98.7593404,10.4111049 98.7593404,10.4111049 L98.7593404,10.4111049 L98.7593404,10.4111049 Z" id="Shape-Copy-58" fill="#FACCB0"></path>
                    <path d="M141.884313,77.5094386 C141.188732,71.5397777 137.781705,69.6678655 129.837711,63.6511511 C127.732745,62.0543998 125.794839,59.9277848 124.230543,57.4646348 L133.56266,53.6635279 C135.424629,55.7205855 136.667966,57.32552 139.068579,60.3758163 C146.458741,69.7762932 141.884313,77.5094386 141.884313,77.5094386 L141.884313,77.5094386 L141.884313,77.5094386 Z" id="Shape-Copy-59" fill="#FEF5DD"></path>
                    <path d="M121.635532,52.5700448 C119.036471,46.7313155 118.6497,39.7489808 122.59436,33.3742504 C123.866047,31.3202616 123.454976,32.5845694 123.454976,32.5845694 C124.898786,40.4128448 126.935915,45.9743674 129.341591,49.2046945 L121.635532,52.5700448 L121.635532,52.5700448 Z" id="Shape-Copy-60" fill="#FDF3DA"></path>
                    <path d="M136.74289,56.7854274 C131.427319,50.136559 129.828598,48.009944 127.376348,38.2882756 C124.922073,28.5676301 129.575476,14.452594 142.233622,11.0268924 C144.549186,10.3978072 143.39596,11.042236 143.39596,11.042236 C134.291653,25.5224484 137.757405,29.2089901 137.677418,41.5871372 C137.600469,53.5919247 136.826927,57.7234292 136.826927,57.7234292 L136.74289,56.7854274 L136.74289,56.7854274 Z" id="Shape-Copy-61" fill="url(#linearGradient-6)"></path>
                    <path d="M85.5392628,70.2222788 C88.1909733,68.2460306 90.9024206,66.1859043 93.062061,63.6480824 C94.0867006,62.4461716 94.8035433,60.1794189 95.6256849,58.4261635 C95.9172819,57.8032157 95.5750604,57.1096875 95.7411087,56.5583429 C95.6520096,56.0284793 95.5689855,55.4894095 95.4940612,54.9401107 L91.0461941,52.926015 L84.4670363,55.9067538 C83.7674059,60.0536019 83.6023701,65.3409866 84.6330846,70.8748908 C84.935819,70.6570125 85.2405784,70.4452717 85.5392628,70.2222788 L85.5392628,70.2222788 L85.5392628,70.2222788 Z M95.2055017,48.7484799 C95.3675,46.4029637 95.9132319,44.0881346 97.1099947,41.9952754 C108.270668,22.4578315 100.193026,13.5861953 93.5804557,9.45264499 C93.5804557,9.45264499 101.042505,27.8065904 91.0380942,46.7742774 L91.0856812,46.694491 L91.1261808,46.9000945 L95.2055017,48.7484799 L95.2055017,48.7484799 Z M90.913558,46.9246441 C92.6165656,42.3287417 95.8291953,26.1863123 91.6395131,15.8202151 C91.6395131,15.8202151 92.9466372,36.8040436 86.6742637,48.8466785 L90.913558,46.9246441 L90.913558,46.9246441 Z" id="Shape-Copy-62" fill="url(#linearGradient-7)"></path>
                    <path d="M104.867691,0.0613741694 C107.980084,7.92749688 118.6011,24.2826901 98.1639965,50.0905284 L93.0397863,47.7675161 C108.652377,20.7321944 104.867691,0.0613741694 104.867691,0.0613741694 L104.867691,0.0613741694 L104.867691,0.0613741694 Z M94.7367189,54.5974382 C86.4606284,67.7325334 92.1579078,85.9627075 113.056707,91.2408861 C116.560934,92.125697 127.391536,91.4025047 131.932552,83.5967333 C138.281875,72.6782685 132.104675,63.4578225 126.909591,56.3384188 L131.530593,54.3836515 C132.511696,55.199928 133.613285,56.0295022 134.864722,56.9654583 C143.838418,65.6151245 151.054432,79.6483284 142.771254,96.1457051 C134.487063,112.642059 117.605823,113.930917 111.870069,113.930917 C106.137353,113.930917 88.1342738,110.640238 81.6077654,96.2295831 C73.9017066,79.2156405 78.3293239,63.2798374 82.7680786,56.6769997 L89.2723122,53.7300166 C88.2891847,55.3779131 87.6432163,56.2126018 87.6432163,56.2126018 C88.2385603,55.3666611 88.8096044,54.525835 89.3654613,53.6880776 L91.0461941,52.9249921 L94.7367189,54.5974382 L94.7367189,54.5974382 Z M123.603812,51.6770507 C119.10127,44.2794174 123.218053,35.7248811 123.218053,35.7248811 C124.436078,43.0386363 125.660178,47.0872857 127.529234,50.0158565 L123.603812,51.6770507 L123.603812,51.6770507 Z M89.6246586,47.5097445 C93.1865973,41.8142216 96.4032769,35.4558577 96.4032769,35.4558577 C95.2439763,40.30544 93.8072534,44.3254481 92.4322925,47.494401 L91.1251683,46.9021403 L91.0370817,46.8387203 L90.9672199,46.9021403 L89.6246586,47.5097445 L89.6246586,47.5097445 Z" id="Shape-Copy-63" fill="url(#linearGradient-8)"></path>
                    <path d="M105.341536,7.92647398 C108.432667,15.7342912 116.419185,25.5101735 100.013815,50.9282858 L95.1093151,48.7065409 C110.067837,23.0460006 105.341536,7.92647398 105.341536,7.92647398 L105.341536,7.92647398 L105.341536,7.92647398 Z M92.1973949,53.4466725 L97.0107707,55.6275014 C89.247,69.5972852 93.8467405,87.5921917 115.042199,92.9460651 C118.546426,93.830876 129.377028,93.1076837 133.916019,85.3039581 C140.862711,73.3625905 132.824555,63.4537309 127.473547,56.0980367 L131.758404,54.2854529 C133.439136,55.7062649 135.155306,57.0380844 136.850214,58.6706373 C145.821885,67.3233722 153.037899,81.3545303 144.756746,97.8508841 C136.47458,114.349284 119.591315,115.636096 113.855561,115.636096 C108.122845,115.636096 90.121791,112.345417 83.5932577,97.9347621 C74.9911455,78.946617 81.2361817,61.0274054 86.0161454,56.2003269 C86.4788532,55.7318374 86.9668732,55.1723096 87.4700806,54.5462931 L91.0472066,52.9249921 L92.0121093,53.3617716 L92.1973949,53.4466725 L92.1973949,53.4466725 Z M124.412791,51.3333553 C120.933877,44.4921812 121.181937,37.4300601 121.181937,37.4300601 C122.926456,43.4713242 125.077997,47.2458356 127.431023,50.0567726 L124.412791,51.3333553 L124.412791,51.3333553 Z M92.278394,47.4217749 C95.4484992,42.1742834 98.1214719,36.8909903 98.1214719,36.8909903 C97.030008,41.4643889 95.6894717,45.2982286 94.3863975,48.3771661 L92.278394,47.4217749 L92.278394,47.4217749 Z" id="Shape-Copy-64" fill="url(#linearGradient-9)"></path>
                    <path d="M140.786774,78.6581584 C140.575164,72.6506501 137.330134,70.5046 129.896435,63.8536859 C127.927143,62.0891785 126.166423,59.810151 124.80665,57.2262985 L134.043593,53.3188097 C135.734451,55.5221424 137.692606,57.8482234 139.838071,61.0867337 C146.446591,71.0641279 140.786774,78.6581584 140.786774,78.6581584 L140.786774,78.6581584 L140.786774,78.6581584 Z M122.756358,52.0350666 C121.0736,45.862871 121.751968,38.9030402 126.617994,33.2157005 C128.18634,31.3826586 127.586946,32.568203 127.586946,32.568203 C127.825894,40.5274099 129.014557,45.0251136 130.900825,48.588907 L122.756358,52.0350666 L122.756358,52.0350666 Z" id="Shape-Copy-65" fill="url(#linearGradient-10)"></path>
                    <path d="M136.301445,58.1857813 C137.51137,52.2999985 134.867759,49.4348477 129.220092,41.1841135 C123.5704,32.9344022 122.579172,18.304846 133.266001,10.6412581 C135.222131,9.2378354 134.361515,10.2464176 134.361515,10.2464176 C130.815776,27.0220239 135.334517,29.2601353 139.525212,40.8925862 C143.589345,52.1741814 136.301445,58.1857813 136.301445,58.1857813 L136.301445,58.1857813 L136.301445,58.1857813 Z" id="Shape-Copy-66" fill="url(#linearGradient-11)"></path>
                    <polygon id="Shape-Copy-67" fill="#FFFFFF" points="99.0266377 50.4771856 91.0370817 46.8387203 91.0461941 52.926015 97.718501 55.9538074"></polygon>
                </g>
                <g id="Call" transform="translate(0.000000, 5.114514)">
                    <path d="M127.76892,65.5199946 C127.76892,49.5494128 120.743254,42.5875362 103.177571,42.5875362 C90.2065659,42.5875362 75.7492259,46.5461701 75.7492259,46.5461701 L76.2898954,59.241417 C76.2898954,59.241417 92.7742397,58.1489568 101.691236,58.1489568 C107.095906,58.1489568 109.66358,59.6505782 109.66358,65.5199946 L109.66358,69.7517435 L95.2062399,70.8431809 C80.3439041,71.9346182 71.5605562,76.3034361 71.5605562,91.7277878 C71.5605562,106.197771 78.3158873,114.114016 92.503905,114.114016 C102.636902,114.114016 112.365915,109.33706 112.365915,109.33706 C118.039907,113.158625 122.634585,114.114016 131.687255,114.114016 L132.227925,100.328355 C128.579924,99.6450557 128.039255,98.0063653 127.76892,93.9116853 L127.76892,65.5199946 L127.76892,65.5199946 L127.76892,65.5199946 Z M109.66358,82.4459676 L109.66358,97.051997 C109.66358,97.051997 102.231906,99.2358945 96.42224,99.2358945 C91.5582396,99.2358945 89.80157,95.9595368 89.80157,91.1825806 C89.80157,86.2675325 92.6385661,83.9486118 97.3679053,83.5384278 L109.66358,82.4459676 L109.66358,82.4459676 Z" id="Shape-Copy-68" fill="#23BEFF"></path>
                    <polygon id="Shape-Copy-69" fill="#23BEFF" points="138.692671 114.116062 156.798011 114.116062 156.798011 18.5626175 138.692671 18.5626175"></polygon>
                    <path d="M184.501754,114.116062 L184.501754,18.5626175 L166.396413,18.5626175 L166.396413,51.4974914 L166.396413,114.116062 L184.501754,114.116062 Z" id="Shape-Copy-70" fill="#23BEFF"></path>
                    <path d="M9.41292796,12.715705 L13.6076726,10.6330749 C16.1753464,9.35853793 19.2239528,10.4827081 20.5705641,13.031782 L24.6549474,20.7659502 C26.0015587,23.3150241 24.8473204,26.525916 22.2796466,27.8004529 L18.084902,29.8830831 C15.5182406,31.1565971 12.4686218,30.0344727 11.1220105,27.484376 L7.0376272,19.7512306 C5.69101594,17.200111 6.84424167,13.9912648 9.41292796,12.715705 L9.41292796,12.715705 L9.41292796,12.715705 Z" id="Shape-Copy-71" fill="#23BEFF"></path>
                    <path d="M69.0475568,91.4904744 C63.3269902,92.9747064 53.6435391,95.0563136 48.0910457,95.7375669 C32.2648197,97.6851739 28.2776354,91.7114214 25.2897784,66.915234 C22.1389106,40.7626775 25.9610591,35.2052465 40.0437778,33.473472 C45.5365343,32.7973332 55.4700704,32.4873937 61.9489918,32.5794549 L60.119423,17.3985541 C53.8500869,16.7991331 43.7282277,16.2436968 35.3691131,17.2706913 C8.27590206,20.6022858 2.03187829,34.2969088 6.24484779,69.2566586 C10.1307831,101.505716 18.6984707,116.128112 46.8639082,112.664563 C54.2854575,111.751111 64.529828,109.068036 70.9156003,106.998704 L69.0475568,91.4904744 L69.0475568,91.4904744 Z" id="Shape-Copy-72" fill="#23BEFF"></path>
                    <path d="M35.91687,38.6473145 L55.0023002,36.2997525 C56.7103703,36.0890345 58.2766918,37.3287927 58.4852646,39.0544298 L60.8858776,58.9795539 C61.093438,60.705191 59.8663005,62.2876216 58.159243,62.4983396 L39.0738127,64.8448787 C37.3657427,65.0555967 35.7994212,63.8158385 35.5918608,62.0902014 L33.1902353,42.1650773 C32.9826749,40.4404631 34.2087999,38.8570096 35.91687,38.6473145 L35.91687,38.6473145 L35.91687,38.6473145 Z" id="Shape-Copy-73" fill="#23BEFF"></path>
                    <path d="M38.1048601,68.4076492 L41.1261293,68.0363355 C42.0515449,67.9227933 42.9000112,68.5938176 43.01341,69.5287507 L43.3971436,72.7130472 C43.50953,73.6469575 42.8453368,74.505173 41.9199212,74.6187152 L38.898652,74.9900289 C37.9732365,75.1035711 37.1247701,74.4325469 37.0123838,73.4976137 L36.6286502,70.3133172 C36.5152514,69.3794069 37.1794446,68.5211914 38.1048601,68.4076492 L38.1048601,68.4076492 L38.1048601,68.4076492 Z" id="Shape-Copy-74" fill="#23BEFF"></path>
                    <path d="M47.5149391,67.2507461 L50.5362083,66.8794324 C51.4616238,66.7658902 52.3100902,67.4369145 52.4224765,68.3718476 L52.8062101,71.5561441 C52.9185965,72.4910773 52.2544032,73.3482699 51.3289877,73.4618121 L48.3077185,73.8331258 C47.382303,73.946668 46.5338366,73.2756438 46.4214503,72.3407106 L46.0377167,69.1564141 C45.9243178,68.2225038 46.5895235,67.3642884 47.5149391,67.2507461 L47.5149391,67.2507461 L47.5149391,67.2507461 Z" id="Shape-Copy-75" fill="#23BEFF"></path>
                    <path d="M56.9250181,66.0928201 L59.9462872,65.7215064 C60.8717028,65.6079642 61.7201691,66.2789885 61.8325555,67.2139216 L62.2902008,71.009914 C62.3620876,71.6072893 61.9368419,72.1565881 61.3445355,72.2302371 L57.7177975,72.6762227 C56.7923819,72.7897649 55.9439156,72.1187407 55.8315292,71.1838075 L55.4477956,67.999511 C55.3343968,67.0645778 55.9996025,66.2073853 56.9250181,66.0928201 L56.9250181,66.0928201 L56.9250181,66.0928201 Z" id="Shape-Copy-76" fill="#23BEFF"></path>
                    <path d="M39.1932865,77.4357896 L42.2135432,77.0634529 C43.1389588,76.9509336 43.9874251,77.6219579 44.1008239,78.5568911 L44.4845575,81.7391417 C44.5969439,82.6761207 43.9327507,83.5333133 43.0073351,83.6468555 L39.9860659,84.0181692 C39.0606504,84.1317114 38.212184,83.4606872 38.0997977,82.525754 L37.7160641,79.3414575 C37.6026653,78.4065243 38.2668585,77.5483089 39.1932865,77.4357896 L39.1932865,77.4357896 L39.1932865,77.4357896 Z" id="Shape-Copy-77" fill="#23BEFF"></path>
                    <path d="M48.602353,76.2768407 L51.6236222,75.9055269 C52.5490377,75.7930076 53.3975041,76.4640319 53.5098904,77.3979422 L53.893624,80.5822386 C54.0060104,81.5171718 53.3418171,82.3743644 52.4164016,82.4879066 L49.3961449,82.8592203 C48.4697169,82.9727625 47.622263,82.3017383 47.5088642,81.3668051 L47.1251306,78.1835315 C47.0127442,77.2485983 47.6769374,76.3903829 48.602353,76.2768407 L48.602353,76.2768407 L48.602353,76.2768407 Z" id="Shape-Copy-78" fill="#23BEFF"></path>
                    <path d="M58.012432,75.1199376 L61.0337011,74.7486238 C61.9591167,74.6350816 62.807583,75.3061059 62.9199694,76.2410391 L63.303703,79.4253356 C63.4171018,80.3602687 62.7518961,81.2174613 61.8264805,81.3310035 L58.8062239,81.7023172 C57.8808083,81.8158594 57.032342,81.1448352 56.9189431,80.209902 L56.5352095,77.0256055 C56.4228232,76.0906723 57.0870164,75.2334798 58.012432,75.1199376 L58.012432,75.1199376 L58.012432,75.1199376 Z" id="Shape-Copy-79" fill="#23BEFF"></path>
                    <path d="M40.2807004,86.4618841 L43.3019696,86.0905703 C44.2273852,85.9770281 45.0758515,86.6480524 45.1882378,87.5829856 L45.5719714,90.7672821 C45.6843578,91.7022152 45.0201646,92.5594078 44.094749,92.67295 L41.0734798,93.0442637 C40.1480643,93.157806 39.2995979,92.4867817 39.1872116,91.5518485 L38.803478,88.367552 C38.6900792,87.4326189 39.3552849,86.5754263 40.2807004,86.4618841 L40.2807004,86.4618841 L40.2807004,86.4618841 Z" id="Shape-Copy-80" fill="#23BEFF"></path>
                    <path d="M49.6897669,85.3029352 L52.7110361,84.9316214 C53.6364516,84.8180792 54.484918,85.4911493 54.5973043,86.4260825 L54.9810379,89.6083332 C55.0934243,90.5432663 54.429231,91.4025047 53.5038155,91.5140011 L50.4835588,91.8853148 C49.5581432,91.9988571 48.7096769,91.3278328 48.5962781,90.3928996 L48.2125445,87.2106489 C48.1001581,86.2757158 48.7643513,85.4164774 49.6897669,85.3029352 L49.6897669,85.3029352 L49.6897669,85.3029352 Z" id="Shape-Copy-81" fill="#23BEFF"></path>
                    <path d="M59.0998459,84.1460321 L62.121115,83.7747184 C63.0465306,83.6611761 63.8949969,84.3322004 64.0073833,85.2671336 L64.3911169,88.4514301 C64.5035032,89.3863632 63.83931,90.2435558 62.9138944,90.357098 L59.8926253,90.7284118 C58.9672097,90.841954 58.1187434,90.1709297 58.0053445,89.2359965 L57.621611,86.0517 C57.5102371,85.1167669 58.1754428,84.2605972 59.0998459,84.1460321 L59.0998459,84.1460321 L59.0998459,84.1460321 Z" id="Shape-Copy-82" fill="#23BEFF"></path>
                    <path d="M53.7397256,3.94329039 C60.8129784,1.61925517 71.5048693,8.17197066 71.1454354,16.9699578 C67.3445492,7.72598503 61.3455479,5.29147631 53.7397256,3.94329039 L53.7397256,3.94329039 L53.7397256,3.94329039 Z" id="Shape-Copy-83" fill="#23BEFF"></path>
                    <path d="M60.0505737,0.929818667 C65.2770453,-0.787635174 73.1137153,4.05376389 72.8484431,10.5543113 C70.0397967,3.72541208 65.6709038,1.92408021 60.0505737,0.929818667 L60.0505737,0.929818667 L60.0505737,0.929818667 Z" id="Shape-Copy-84" fill="#23BEFF"></path>
                    <path d="M16.4821308,115.51437 C10.4193427,117.508008 1.25529871,111.890225 1.56410806,104.350409 C4.82128732,112.273814 9.96169736,114.359513 16.4821308,115.51437 L16.4821308,115.51437 L16.4821308,115.51437 Z" id="Shape-Copy-85" fill="#23BEFF"></path>
                    <path d="M11.0723985,118.098223 C6.59314424,119.57018 -0.123712213,115.421286 0.104097962,109.85158 C2.51179839,115.702584 6.25598518,117.247167 11.0723985,118.098223 L11.0723985,118.098223 L11.0723985,118.098223 Z" id="Shape-Copy-86" fill="#23BEFF"></path>
                    <path d="M1.97416638,8.34995575 C1.97416638,8.34995575 2.36802486,5.12167444 5.85301429,2.84264695 C9.19929264,0.653634904 14.0410182,1.59777421 14.0410182,1.59777421" id="Shape-Copy-87" stroke="#23BEFF" stroke-width="1.08"></path>
                    <path d="M4.68865117,9.03734645 C4.68865117,9.03734645 5.32854464,6.75422734 7.55399693,5.4694614 C10.2117823,3.93510716 13.4183371,4.79946005 13.4183371,4.79946005" id="Shape-Copy-88" stroke="#23BEFF" stroke-width="1.08"></path>
                    <path d="M7.56209685,9.91192836 C7.56209685,9.91192836 7.84863142,8.83583459 9.03020686,7.94079462 C10.2117823,7.04575465 12.3977475,7.52140446 12.3977475,7.52140446" id="Shape-Copy-89" stroke="#23BEFF" stroke-width="1.08"></path>
                </g>
            </g>
        </g>
    </g>
</svg>