<?xml version="1.0" encoding="UTF-8"?>
<svg width="60px" height="80px" viewBox="0 0 60 80" version="1.1" xmlns="http://www.w3.org/2000/svg" xmlns:xlink="http://www.w3.org/1999/xlink">
    <!-- Generator: sketchtool 47.1 (45422) - http://www.bohemiancoding.com/sketch -->
    <title>A05158B9-1DD3-4849-B011-7BA8A3D51837</title>
    <desc>Created with sketchtool.</desc>
    <defs></defs>
    <g id="Page-1" stroke="none" stroke-width="1" fill="none" fill-rule="evenodd">
        <g id="Click-to-call" transform="translate(-144.000000, -2429.000000)" fill-rule="nonzero">
            <g id="Group-9" transform="translate(59.000000, 2362.000000)">
                <g id="001-pencil-case" transform="translate(85.000000, 67.259846)">
                    <g id="Group" transform="translate(2.967564, 9.013854)">
                        <path d="M43.92355,65.8191768 L14.2531509,65.8191768 C12.0184789,65.8191768 10.2071526,64.0080032 10.2071526,61.7731785 L10.2071526,30.7542152 L47.9693955,30.7542152 L47.9693955,61.7731785 C47.9695482,64.0080032 46.1582219,65.8191768 43.92355,65.8191768 Z M47.9695482,30.7542152 L10.2071526,30.7542152 C7.97248071,30.7542152 6.16115438,28.9430416 6.16115438,26.7082169 C6.16115438,24.473545 7.97232793,22.6622187 10.2071526,22.6622187 L47.9693955,22.6622187 C50.2040674,22.6622187 52.0153937,24.4733922 52.0153937,26.7082169 C52.0153937,28.9428888 50.2042202,30.7542152 47.9695482,30.7542152 Z" id="Combined-Shape-Copy-2" fill="#30CC7B"></path>
                        <path d="M52.2400006,3.77986038 C52.1240427,3.77986038 52.0067099,3.76504099 51.889377,3.73402723 L47.981031,2.6861285 C47.2622143,2.49454591 46.8347437,1.75418766 47.0275486,1.035371 C47.2191311,0.316554331 47.9622394,-0.110916238 48.6783061,0.0818885722 L52.5880271,1.1284123 C53.3068437,1.32121711 53.7330921,2.06172814 53.5415095,2.7805448 C53.3809407,3.38202859 52.8347622,3.77986038 52.2400006,3.77986038" id="Shape" fill="#434C6D"></path>
                        <path d="M38.2754019,69.2080657 L8.60500271,69.2080657 C6.3703308,69.2080657 4.55900447,67.3968921 4.55900447,65.1620674 L4.55900447,34.1431041 L42.3212473,34.1431041 L42.3212473,65.1620674 C42.3214001,67.3968921 40.5100738,69.2080657 38.2754019,69.2080657 Z M42.3214001,34.1431041 L4.55900447,34.1431041 C2.32433256,34.1431041 0.513006232,32.3319305 0.513006232,30.0971058 C0.513006232,27.8624339 2.32417978,26.0511076 4.55900447,26.0511076 L42.3212473,26.0511076 C44.5559192,26.0511076 46.3672456,27.8622811 46.3672456,30.0971058 C46.3672456,32.3317777 44.556072,34.1431041 42.3214001,34.1431041 Z" id="Combined-Shape" stroke="#000000" stroke-width="3"></path>
                    </g>
                    <polygon id="Shape" fill="#A31C09" points="21.0131271 35.0649616 31.8024048 35.0649616 31.8024048 12.1378419 21.0131271 12.1378419"></polygon>
                    <path d="M26.4078423,0 L24.3835446,2.53136521 C22.201428,5.257063 21.0132798,8.64611934 21.0132798,12.1378419 L31.8025576,12.1378419 C31.8025576,8.64611934 30.6144094,5.257063 28.4322928,2.53136521 L26.4078423,0 Z" id="Shape" fill="#6C4126"></path>
                    <polygon id="Shape" fill="#CE3929" points="25.0591253 35.0649616 27.7564065 35.0649616 27.7564065 12.1378419 25.0591253 12.1378419"></polygon>
                    <g id="Group" transform="translate(36.666525, 7.486082)" fill="#2C3651">
                        <polygon id="Shape" points="10.4426263 18.5440949 0.0216943605 15.7510224 4.20916428 0.118860651 14.631624 2.91193318"></polygon>
                        <path d="M17.6543206,17.6839594 L16.3515895,17.3347107 C15.6327729,17.1419059 15.2053023,16.4027699 15.3981071,15.6825782 L19.2377034,1.35314754 C19.4305082,0.63433088 20.1696442,0.206860311 20.8898359,0.399665121 L22.1925669,0.74891377 C22.9113836,0.94171858 23.3388542,1.68085461 23.1460494,2.40104627 L19.3064531,16.730477 C19.1136483,17.4492936 18.3731373,17.8767642 17.6543206,17.6839594" id="Shape"></path>
                    </g>
                    <path d="M51.2978433,10.3977098 L40.8767586,7.60463726 L41.9232823,3.69751348 C42.1160871,2.97732182 42.8552231,2.55122624 43.5754148,2.74403105 L51.3908846,4.83845351 C52.1110762,5.0300361 52.5371718,5.77039435 52.344367,6.48921101 L51.2978433,10.3977098 Z" id="Shape" fill="#434C6D"></path>
                    <path d="M11.3346923,10.6511671 L0.913607578,13.4442397 L0.214957502,10.8386247 C-0.556414515,7.9606081 1.15224554,5.00161954 4.0288872,4.23162252 C6.90690384,3.46025051 9.8658924,5.16753557 10.6358894,8.04555222 L11.3346923,10.6511671 Z" id="Shape" fill="#CC4B4C"></path>
                    <path d="M7.52656811,35.0649616 L17.8761531,35.0649616 L11.3351506,10.6516255 L0.912690915,13.443323 L6.72815453,35.1457807 C6.98573687,35.0933782 7.25279139,35.0649616 7.52656811,35.0649616" id="Shape" fill="#E39700"></path>
                    <polygon id="Shape" fill="#434C6D" points="43.2920131 35.0649616 45.805809 25.6810812 37.9903392 23.5866588 34.9141705 35.0649616"></polygon>
                </g>
            </g>
        </g>
    </g>
</svg>