<?xml version="1.0" encoding="UTF-8"?>
<svg width="59px" height="55px" viewBox="0 0 59 55" version="1.1" xmlns="http://www.w3.org/2000/svg" xmlns:xlink="http://www.w3.org/1999/xlink">
    <!-- Generator: sketchtool 47.1 (45422) - http://www.bohemiancoding.com/sketch -->
    <title>00B1CEC4-1BC9-446B-8933-EC908CDD39CB</title>
    <desc>Created with sketchtool.</desc>
    <defs></defs>
    <g id="Page-1" stroke="none" stroke-width="1" fill="none" fill-rule="evenodd">
        <g id="Click-to-call" transform="translate(-482.000000, -2072.000000)" fill-rule="nonzero">
            <g id="004-earth" transform="translate(482.000000, 2072.000000)">
                <path d="M58.5822632,28.7213267 C58.5822632,42.5846665 47.3454801,53.8228849 33.4821402,53.8228849 C19.6188004,53.8228849 8.380582,42.5846665 8.380582,28.7213267 C8.380582,14.8594221 19.6188004,3.61976842 33.4821402,3.61976842 C47.3454801,3.61976842 58.5822632,14.8594221 58.5822632,28.7213267 Z" id="path-1_1_" fill="#23BDFF"></path>
                <path d="M34.5011869,53.8228849 C34.5011869,53.8228849 31.6966557,49.0348011 30.9962406,48.4922664 C30.2958255,47.9482964 30.7938666,46.1398475 30.977582,45.0562134 C31.1612974,43.9697088 31.334966,39.2677416 30.9962406,38.3649524 C30.6575152,37.4607279 34.9518638,37.0976028 36.2177781,37.0976028 C37.4851276,37.0976028 42.9090391,36.9167579 44.1763887,35.4699988 C45.4423029,34.0232396 44.1763887,31.672256 44.1763887,29.8638071 C44.1763887,28.0553582 51.5910293,24.4384603 52.6760986,24.0767705 C53.761168,23.7150807 58.4860997,26.592811 58.4860997,26.592811 C58.4860997,26.592811 59.358748,40.0226972 50.7930153,46.8876268 C42.2258473,53.7539916 34.5011869,53.8228849 34.5011869,53.8228849 Z" id="path-2_1_" fill="#30CC7B"></path>
                <path d="M11.951551,16.1411244 C11.951551,16.1411244 15.0445728,17.3855095 15.5871075,17.3855095 C16.1296421,17.3855095 23.2529216,17.0238197 24.8790903,15.3962156 C26.5066944,13.7686116 26.0301824,11.417628 26.0301824,11.417628 L26.0301824,5.67221443 C26.0301824,5.67221443 17.761552,6.33531237 11.951551,16.1411244 Z" id="path-3_1_" fill="#30CC7B"></path>
                <path d="M13.3495107,43.8634983 C13.3495107,43.8634983 19.2183581,41.2627765 20.0823948,39.9968622 C20.9464315,38.7295127 20.8459621,35.8417355 20.1670762,35.1183559 C19.4896254,34.3935411 21.5693417,33.4993636 21.7501866,32.775984 C21.9310315,32.0526044 23.5586355,31.3478834 24.46286,30.6230686 C25.3670845,29.9011243 27.898913,29.0327818 30.9962406,27.1052048 C34.0921329,25.1776279 29.4145654,25.125958 29.4145654,25.125958 C29.4145654,25.125958 20.8459621,27.9950765 19.399203,28.3567663 C17.9524439,28.7184561 13.7930113,29.3815541 13.7930113,29.3815541 L12.7969291,29.3815541 L9.55607381,29.7461144 C9.55607381,29.7461144 7.43760506,33.9715697 13.3495107,43.8634983 Z" id="path-4_1_" fill="#EDC951"></path>
                <path d="M27.7410325,54.5405234 C12.7136831,54.5405234 0.48655888,42.3133992 0.48655888,27.2860497 C0.48655888,12.2587003 12.7136831,0.0315760925 27.7410325,0.0315760925 C42.768382,0.0315760925 54.9955062,12.2587003 54.9955062,27.2860497 C54.9955062,42.3133992 42.768382,54.5405234 27.7410325,54.5405234 Z M27.7410325,4.33740689 C15.0861958,4.33740689 4.79238967,14.6326483 4.79238967,27.2860497 C4.79238967,39.9394512 15.0861958,50.2346926 27.7410325,50.2346926 C40.3944339,50.2346926 50.6896754,39.9394512 50.6896754,27.2860497 C50.6896754,14.6326483 40.3944339,4.33740689 27.7410325,4.33740689 Z" id="path-7_1_" fill="#000000"></path>
                <path d="M28.7615144,54.5405234 C28.0223468,54.5405234 27.3018378,54.1587397 26.9013955,53.4755479 C25.7732678,51.5465357 24.2963679,49.1998579 23.8442557,48.6831582 C22.3128152,47.4014559 22.7376571,45.2140939 23.0204067,43.7572878 L23.1136997,43.260682 C23.2672743,42.353587 23.3864023,38.3979637 23.2026869,37.5712442 C22.9558192,36.9268049 23.0591592,36.1058265 23.5227536,35.4355521 C24.7283862,33.6974318 28.7873494,33.5094105 30.4766704,33.5094105 C33.1792968,33.5094105 36.227825,33.055863 36.8751349,32.5578219 C36.9368518,32.3640595 36.720125,31.3378365 36.6038676,30.7852549 C36.4459871,30.0302992 36.2823655,29.2495086 36.2823655,28.4299654 C36.2823655,24.5461061 46.1542003,20.6321059 46.2532344,20.6005298 C46.9134618,20.3794971 48.2855865,19.9216438 53.8659432,23.3189443 C54.880684,23.9375487 55.202186,25.260874 54.585017,26.2770501 C53.9678479,27.2917908 52.6430873,27.6147282 51.6254759,26.9975591 C49.9792133,25.9943005 48.0817772,25.0427119 47.2938101,24.8087618 C45.702088,25.4704244 41.6259015,27.6951037 40.6140313,28.7959611 C40.6570896,29.1260748 40.7374651,29.5179054 40.8192759,29.9011243 C41.1522602,31.4928464 41.6115488,33.6744674 40.0557086,35.4527755 C38.186978,37.585597 32.734361,37.8152413 30.4766704,37.8152413 C29.7044914,37.8152413 28.4629768,37.9343693 27.567364,38.0879439 C27.6951037,40.3212348 27.4568477,43.4013391 27.3578136,43.9826263 C27.3276728,44.1620359 27.2889203,44.3629747 27.2472973,44.5768309 C27.1841451,44.9069446 27.0764993,45.4609615 27.049229,45.8154749 C27.5702346,46.4168559 28.5734931,47.806204 30.6173275,51.2996681 C31.2187085,52.3258911 30.8728068,53.6434753 29.8465838,54.2448563 C29.5049879,54.4457951 29.1303806,54.5405234 28.7615144,54.5405234 Z" id="path-11" fill="#000000"></path>
                <path d="M10.0254094,18.1031479 C9.59052045,18.1031479 8.93459889,18.1031479 5.53299257,16.2502054 C4.48811096,15.6818357 4.10345675,14.3742985 4.67182641,13.3308521 C5.24163135,12.2845353 6.54629808,11.9013163 7.59405024,12.469686 C8.62744963,13.0323145 9.79002395,13.6064253 10.2694064,13.7930113 C12.3433816,13.7298591 17.175959,13.148572 18.0959715,12.4151455 C18.932738,11.5769437 18.8638447,10.1919015 18.8624094,10.1775487 C18.8566683,10.1129613 18.8537978,10.0483738 18.8537978,9.98235105 L18.8537978,3.5465693 C18.8537978,2.35672472 19.8183039,1.3936539 21.0067132,1.3936539 C22.1951225,1.3936539 23.1596286,2.35672472 23.1596286,3.5465693 L23.1596286,9.90915193 C23.1998163,10.5866026 23.2213455,13.3782163 21.1143589,15.4837675 C18.6499884,17.9495733 10.1086554,18.1031479 10.0254094,18.1031479 Z" id="path-12" fill="#000000"></path>
                <path d="M7.60840301,44.2237528 C6.7443663,44.2237528 5.92769372,43.6984414 5.59901531,42.8415811 C5.17273806,41.732112 5.72675495,40.4862917 6.83622402,40.0600144 C9.4197225,39.0682381 12.1323959,37.7477833 12.6419192,37.2353894 C12.8227641,36.9368518 12.8973985,35.5403274 12.7065067,34.9604755 C12.3060644,34.4566933 12.1065609,33.8423948 12.1410076,33.2051318 C12.2113361,31.936347 13.1213017,31.1584269 13.7858349,30.5914925 C13.8791279,30.511117 13.9752915,30.433612 14.0585375,30.3575424 C14.5034734,29.2954374 15.5253906,28.6409512 16.5157316,28.0051235 C16.8243162,27.8084905 17.134336,27.6147282 17.3768978,27.4195305 C17.5692249,27.2659559 17.7845165,27.1195576 18.0270783,26.9717241 L14.1805361,27.9333596 C12.552932,28.3409783 9.126926,28.059664 7.94712837,27.9462771 L7.51367473,27.9462771 L4.68904973,29.2021444 C3.59680399,29.6858328 2.33088974,29.1935328 1.84720141,28.1084634 C1.36494836,27.0219588 1.85294252,25.7503034 2.93944715,25.2666151 L6.18173774,23.8255971 C6.45731091,23.7035985 6.75584851,23.6404463 7.05725667,23.6404463 L8.05190358,23.6404463 C8.12366743,23.6404463 8.19256072,23.6433169 8.26432457,23.6504933 C10.0957379,23.8327734 12.4926504,23.9174548 13.1356545,23.7567038 L23.1495816,21.2507102 C23.3548262,21.2004755 23.5643767,21.1789464 23.7767976,21.1889933 C25.6039052,21.2779805 27.8859955,21.7846333 28.3840366,23.6992927 C28.6280337,24.6350932 28.4787649,26.0215708 26.3933075,27.3219317 C24.6350932,28.4141774 23.0347595,29.2193678 21.8650088,29.806396 C21.1344528,30.1738269 20.306298,30.5900572 20.068042,30.7809491 C19.7192698,31.0608281 19.2815103,31.3464482 18.839445,31.6291977 C18.5796599,31.7971251 18.1720412,32.0583455 17.9596202,32.2277082 C17.694094,32.8491831 17.227629,33.3041659 16.7984812,33.6802085 C17.3754625,35.5561154 17.160171,38.2400833 16.1181599,39.7643474 C15.0919369,41.2685176 11.3444289,42.9406152 8.380582,44.0802251 C8.12797326,44.1763887 7.86531758,44.2237528 7.60840301,44.2237528 Z" id="path-13" fill="#000000"></path>
            </g>
        </g>
    </g>
</svg>