<?xml version="1.0" encoding="UTF-8"?>
<svg width="56px" height="72px" viewBox="0 0 56 72" version="1.1" xmlns="http://www.w3.org/2000/svg" xmlns:xlink="http://www.w3.org/1999/xlink">
    <!-- Generator: sketchtool 47.1 (45422) - http://www.bohemiancoding.com/sketch -->
    <title>688D7BB9-BC83-4628-B8B9-28EEC2C4E1E7</title>
    <desc>Created with sketchtool.</desc>
    <defs></defs>
    <g id="Page-1" stroke="none" stroke-width="1" fill="none" fill-rule="evenodd">
        <g id="Click-to-call" transform="translate(-174.000000, -1516.000000)" fill-rule="nonzero">
            <g id="fireworks" transform="translate(198.921865, 1551.139693) scale(-1, 1) rotate(-9.000000) translate(-198.921865, -1551.139693) translate(166.421865, 1518.639693)">
                <path d="M64.3896473,0.512189557 L60.775162,25.9547 C60.659433,26.7694188 59.6629861,27.1019523 59.08111,26.5200763 L38.3817606,5.82072687 C37.7998846,5.23885081 38.1324181,4.24240393 38.9471369,4.12667486 L64.3896473,0.512189557 Z" id="Shape" fill="#23BDFF" opacity="0"></path>
                <path d="M56.1752717,1.23609052 L52.5607864,25.7112555 C52.4450573,26.494998 51.4486104,26.8148883 50.8667344,26.2551357 L30.167385,6.34279281 C29.5855089,5.78304017 29.9180425,4.82447903 30.7327613,4.71315008 L56.1752717,1.23609052 Z" id="Shape-Copy" fill="#23BDFF"></path>
                <path d="M27.0957034,52.828336 L12.1717643,37.9043591 C11.285211,37.0178036 11.285211,35.580546 12.1717643,34.6939904 L33.6465223,13.2191781 L51.7808219,31.3534071 L30.306064,52.8282194 C29.4195106,53.714775 27.9822567,53.714775 27.0957034,52.828336 Z" id="Shape" fill="#62CD4D"></path>
                <path d="M20.181885,51.7332948 L5.25794593,36.8093179 C4.3713926,35.9227623 4.3713926,34.4855048 5.25794593,33.5989492 L26.7327039,12.1241368 L44.8670035,30.2583658 L23.3922456,51.7331782 C22.5056922,52.6197337 21.0684383,52.6197337 20.181885,51.7332948 Z" id="Shape-Copy-5" fill="#62CD4D"></path>
                <g id="Group" transform="translate(11.506849, 21.438356)" fill="#23BDFF">
                    <polygon id="Shape" points="7.97510883 24.6206665 26.4084385 24.6206665 34.3394663 16.6863936 0.0440810152 16.6863936"></polygon>
                    <polygon id="Shape" points="30.3552299 0.0697049526 14.0828179 0.0697049526 5.87415077 8.28184932 38.563897 8.28184932"></polygon>
                </g>
                <path d="M59.6573267,5.34076544 C59.3972768,5.08177456 59.0294186,4.96036895 58.6660036,5.01146872 L32.8824836,8.65782756 C32.0590704,8.77434436 31.38404,9.33457947 31.12095,10.1200493 C30.8576262,10.9054028 31.0594454,11.7569881 31.6474808,12.3422493 L32.2144689,12.9066749 L11.5011021,33.5261904 C10.1574724,34.8637473 10.1574724,37.0400856 11.5011021,38.3779917 L14.9831273,41.8442792 L4.4520445,52.3278809 C3.99543722,52.7824245 3.99543722,53.5194718 4.4520445,53.9741317 C4.68040661,54.2013453 4.97962762,54.3150685 5.27884863,54.3150685 C5.57806964,54.3150685 5.87729064,54.2013453 6.10565275,53.9741317 L16.6368525,43.49053 L20.8003392,47.6351989 L16.2214042,52.1934385 C15.7647969,52.647982 15.7647969,53.3850293 16.2214042,53.8396893 C16.6781284,54.2941164 17.4182882,54.2941164 17.8751293,53.8396893 L22.4541813,49.2814497 L26.4705714,53.279687 C27.1424448,53.9484072 28.0249071,54.2828256 28.9073693,54.2828256 C29.7899485,54.2828256 30.6722939,53.9484072 31.3441672,53.279687 L52.0574171,32.6601714 L52.6242883,33.2244806 C53.0417244,33.64003 53.5938626,33.8618891 54.1613184,33.8618891 C54.3933053,33.8618891 54.6279816,33.8248738 54.8569284,33.7486315 C55.6458475,33.4864978 56.2086262,32.8145184 56.3255551,31.9948268 L59.9884693,6.32795721 C60.039918,5.96525357 59.9173765,5.59963993 59.6573267,5.34076544 Z M26.3238257,22.0628465 L41.3027662,22.0628465 C41.3378449,22.0628465 41.3724559,22.0606349 41.4068329,22.0576085 L47.1736485,27.7983596 L20.562155,27.7983596 L26.3238257,22.0628465 Z M28.6624033,19.7348385 L33.8680772,14.5526929 L39.073751,19.7348385 L28.6624033,19.7348385 L28.6624033,19.7348385 Z M37.5043315,43.8546304 C37.4500765,43.846948 37.395003,43.8415936 37.3385264,43.8415936 L20.2987143,43.8415936 L14.8092541,38.3788065 L43.0051338,38.3788065 L37.5043315,43.8546304 Z M29.6903251,51.6332033 C29.2585068,52.06307 28.5557642,52.06307 28.1239458,51.6332033 L22.637175,46.1696015 L35.1788499,46.1696015 L29.6903251,51.6332033 Z M45.3225473,36.0718671 C45.2519223,36.0585974 45.1793095,36.050915 45.1048258,36.050915 L12.8356115,36.050915 C12.8074316,35.7365175 12.913603,35.4124588 13.1547104,35.1723248 L18.2236943,30.1262512 L49.4888403,30.1262512 C49.4963238,30.1262512 49.5035734,30.12532 49.5110568,30.1250872 L50.4036919,31.0136878 L45.3225473,36.0718671 Z M54.0543285,31.3556722 L33.5241893,10.9184397 L57.4539188,7.53421453 L54.0543285,31.3556722 Z" id="Shape" fill="#000000"></path>
                <path d="M13.5616438,57.6027397 C13.8858904,57.6027397 14.2039726,57.4708219 14.4332877,57.2413836 C14.6624795,57.0121918 14.7945205,56.6941096 14.7945205,56.369863 C14.7945205,56.0456164 14.6626027,55.7287671 14.4332877,55.4982192 C14.2039726,55.2689041 13.8858904,55.1369863 13.5616438,55.1369863 C13.2373973,55.1369863 12.9193151,55.2687808 12.69,55.4982192 C12.4608082,55.7275342 12.3287671,56.0456164 12.3287671,56.369863 C12.3287671,56.6941096 12.4606849,57.0121918 12.69,57.2413836 C12.9193151,57.4708219 13.2373973,57.6027397 13.5616438,57.6027397 Z" id="Shape" fill="#000000"></path>
                <path d="M2.05479452,57.6027397 C2.3790411,57.6027397 2.69712329,57.4719315 2.92631507,57.2413836 C3.15686301,57.0121918 3.28767123,56.6952192 3.28767123,56.369863 C3.28767123,56.0456164 3.15686301,55.7275342 2.92631507,55.4982192 C2.69712329,55.2689041 2.38015068,55.1369863 2.05479452,55.1369863 C1.73054795,55.1369863 1.41246575,55.2687808 1.18315068,55.4982192 C0.953835616,55.7276575 0.821917808,56.0456164 0.821917808,56.369863 C0.821917808,56.6953425 0.953712329,57.0121918 1.18315068,57.2413836 C1.41369863,57.4720548 1.73054795,57.6027397 2.05479452,57.6027397 Z" id="Shape" fill="#000000"></path>
                <path d="M6.32306626,56.2841258 L0.325307177,62.2818443 C-0.108435726,62.7155843 -0.108435726,63.4188984 0.325307177,63.8527494 C0.542234165,64.0695639 0.826471831,64.1780822 1.1107095,64.1780822 C1.39494716,64.1780822 1.67918483,64.0695639 1.89611182,63.8527494 L7.89387091,57.8550309 C8.32761381,57.4212909 8.32761381,56.7179768 7.89387091,56.2841258 C7.45990586,55.8504969 6.75692024,55.8504969 6.32306626,56.2841258 Z" id="Shape" fill="#000000"></path>
                <path d="M18.6240662,57.1107296 L12.6588382,63.0759471 C12.2187434,63.5160494 12.2187434,64.2296801 12.6588382,64.6698951 C12.8789419,64.8898899 13.167342,65 13.4557422,65 C13.7441423,65 14.0325424,64.8898899 14.2526461,64.6698951 L20.2178741,58.7046776 C20.6579689,58.2645753 20.6579689,57.5509446 20.2178741,57.1107296 C19.7777794,56.6709654 19.0643864,56.67074 18.6240662,57.1107296 Z" id="Shape" fill="#000000"></path>
                <path d="M5.2762706,15.3403695 C5.50601507,15.5699991 5.80704739,15.6849315 6.1080797,15.6849315 C6.40911201,15.6849315 6.71014432,15.5699991 6.93988879,15.3403695 L7.39737791,14.8828749 L7.85486703,15.3403695 C8.0846115,15.5699991 8.38564381,15.6849315 8.68667612,15.6849315 C8.98770844,15.6849315 9.28874075,15.5699991 9.51848522,15.3403695 C9.97785653,14.8809927 9.97785653,14.1361083 9.51848522,13.6766138 L9.0609961,13.2191193 L9.51848522,12.7616247 C9.97785653,12.3022479 9.97785653,11.5573634 9.51848522,11.097869 C9.05899627,10.6386099 8.31435597,10.6386099 7.85474939,11.097869 L7.39726027,11.5553636 L6.93977115,11.097869 C6.48028221,10.6386099 5.73564191,10.6386099 5.27603533,11.097869 C4.81666402,11.5572458 4.81666402,12.3021303 5.27603533,12.7616247 L5.73352445,13.2191193 L5.27603533,13.6766138 C4.81678166,14.1359906 4.81678166,14.8808751 5.2762706,15.3403695 Z" id="Shape" fill="#000000"></path>
                <path d="M54.723992,43.1526635 C54.2645003,42.6934044 53.5198556,42.6934044 53.0602463,43.1526635 L52.6027544,43.6101581 L52.1452626,43.1526635 C51.6857709,42.6934044 50.9411262,42.6934044 50.4815168,43.1526635 C50.0221428,43.6120403 50.0221428,44.3569248 50.4815168,44.8164192 L50.9390087,45.2739138 L50.4815168,45.7314084 C50.0221428,46.1907851 50.0221428,46.9356696 50.4815168,47.395164 C50.7112627,47.6247936 51.0122968,47.739726 51.3133309,47.739726 C51.614365,47.739726 51.9153991,47.6247936 52.1451449,47.395164 L52.6026368,46.9376695 L53.0601286,47.395164 C53.2898745,47.6247936 53.5909086,47.739726 53.8919427,47.739726 C54.1929768,47.739726 54.4940109,47.6247936 54.7237567,47.395164 C55.1831308,46.9357872 55.1831308,46.1909028 54.7237567,45.7314084 L54.2662649,45.2739138 L54.7237567,44.8164192 C55.1833661,44.3568071 55.1833661,43.6120403 54.723992,43.1526635 Z" id="Shape" fill="#000000"></path>
                <path d="M45.7033836,53.8170995 C45.2712178,53.3851677 44.570857,53.3851677 44.1385806,53.8170995 L42.7397399,55.215899 L41.3408991,53.8170995 C40.9089546,53.385389 40.2085938,53.3851677 39.7760961,53.8170995 C39.344041,54.2491419 39.344041,54.9497034 39.7760961,55.3818564 L41.1749369,56.7807666 L39.7760961,58.1796768 C39.344041,58.6117192 39.344041,59.3122806 39.7760961,59.7444337 C39.992179,59.9603996 40.2753107,60.0684932 40.5584423,60.0684932 C40.841574,60.0684932 41.1247056,59.9603996 41.3407885,59.7444337 L42.7396292,58.3456342 L44.1384699,59.7444337 C44.3545528,59.9603996 44.6376845,60.0684932 44.9208161,60.0684932 C45.2039478,60.0684932 45.4870794,59.9603996 45.7031623,59.7444337 C46.1352174,59.3123913 46.1352174,58.6118298 45.7031623,58.1796768 L44.3043216,56.7807666 L45.7031623,55.3818564 C46.1354387,54.9495927 46.1354387,54.2490313 45.7033836,53.8170995 Z" id="Shape" fill="#000000"></path>
            </g>
        </g>
    </g>
</svg>