<?xml version="1.0" encoding="UTF-8"?>
<svg width="77px" height="73px" viewBox="0 0 77 73" version="1.1" xmlns="http://www.w3.org/2000/svg" xmlns:xlink="http://www.w3.org/1999/xlink">
    <!-- Generator: sketchtool 47.1 (45422) - http://www.bohemiancoding.com/sketch -->
    <title>083069FC-B4D1-4B8D-B761-7E76C1716C31</title>
    <desc>Created with sketchtool.</desc>
    <defs></defs>
    <g id="Page-1" stroke="none" stroke-width="1" fill="none" fill-rule="evenodd">
        <g id="Click-to-call" transform="translate(-783.000000, -2429.000000)" fill-rule="nonzero">
            <g id="Group-9" transform="translate(59.000000, 2362.000000)">
                <g id="004-incoming-call" transform="translate(726.000000, 68.759846)">
                    <path d="M12.5413017,10.5175289 C12.9259219,10.2588261 13.2693327,9.91770464 13.7066091,9.74142041 C16.2615857,8.68142567 19.1668413,8.58527064 21.8729186,7.95339472 C25.3367891,7.1543922 32.0722201,23.0772075 27.7658483,24.4600084 C26.1655539,24.9613882 21.1174147,25.7191814 19.7849807,26.7242304 C18.5967793,27.619388 19.1622624,29.8149279 20.3344381,31.1954394 C23.4251355,34.8287259 27.9627372,38.8763948 31.5548144,42.4249734 L31.5593932,42.422684 C31.6509695,42.5165496 31.7562821,42.6241517 31.8547265,42.7225961 C31.953171,42.8210405 32.0584836,42.9217744 32.1569281,43.0179294 L32.1523493,43.0179294 C35.6986384,46.6077172 39.7440179,51.1521872 43.3795939,54.2405952 C44.7623948,55.4150602 46.9556452,55.9759645 47.8508028,54.7877631 C48.8535624,53.4576185 49.613645,48.40719 50.1127354,46.8068955 C51.4955364,42.5005238 67.4229304,49.2382442 66.6216385,52.7044041 C65.9874732,55.408192 65.8913182,58.3088688 64.8336128,60.8684241 C64.6527498,61.3011217 64.309339,61.6445326 64.0552149,62.0383103 C58.2859131,71.1295396 44.2999349,72.2994258 33.8808504,63.4302689 C29.9018637,60.0442381 26.0350578,56.5185537 22.2758539,52.8898459 L22.2552493,52.9081612 C22.1568048,52.8074273 22.067518,52.7021147 21.9644948,52.6036702 C21.8706292,52.5052258 21.7630271,52.4113602 21.6600038,52.3129157 L21.6783191,52.2923111 C18.047322,48.5308179 14.5285057,44.6708802 11.1378962,40.6873146 C2.27560745,30.272809 3.45007247,16.2845413 12.5413017,10.5175289 Z M39.9294598,9.25148764 L37.3813514,34.6753357 C37.2302507,36.2161057 38.3657958,37.3516508 39.9042763,37.1982606 L65.3304138,34.6524417 C66.8734731,34.5036303 67.2351992,33.4779767 66.1408634,32.3836408 L59.245174,25.4902409 L73.6089041,11.1219319 C74.7055293,10.0253067 74.7055293,8.237281 73.6089041,7.14065576 L67.2993025,0.824185981 C66.2026773,-0.270149849 64.4077834,-0.270149849 63.3180264,0.824185981 L48.9520068,15.1924949 L42.20055,8.44103809 C41.1016354,7.34441285 40.0805605,7.71071773 39.9294598,9.25148764 Z" id="Shape-Copy-2" fill="#23BDFF"></path>
                    <path d="M7.54130173,10.5175289 C7.92592185,10.2588261 8.26933268,9.91770464 8.70660913,9.74142041 C11.2615857,8.68142567 14.1668413,8.58527064 16.8729186,7.95339472 C20.3367891,7.1543922 27.0722201,23.0772075 22.7658483,24.4600084 C21.1655539,24.9613882 16.1174147,25.7191814 14.7849807,26.7242304 C13.5967793,27.619388 14.1622624,29.8149279 15.3344381,31.1954394 C18.4251355,34.8287259 22.9627372,38.8763948 26.5548144,42.4249734 L26.5593932,42.422684 C26.6509695,42.5165496 26.7562821,42.6241517 26.8547265,42.7225961 C26.953171,42.8210405 27.0584836,42.9217744 27.1569281,43.0179294 L27.1523493,43.0179294 C30.6986384,46.6077172 34.7440179,51.1521872 38.3795939,54.2405952 C39.7623948,55.4150602 41.9556452,55.9759645 42.8508028,54.7877631 C43.8535624,53.4576185 44.613645,48.40719 45.1127354,46.8068955 C46.4955364,42.5005238 62.4229304,49.2382442 61.6216385,52.7044041 C60.9874732,55.408192 60.8913182,58.3088688 59.8336128,60.8684241 C59.6527498,61.3011217 59.309339,61.6445326 59.0552149,62.0383103 C53.2859131,71.1295396 39.2999349,72.2994258 28.8808504,63.4302689 C24.9018637,60.0442381 21.0350578,56.5185537 17.2758539,52.8898459 L17.2552493,52.9081612 C17.1568048,52.8074273 17.067518,52.7021147 16.9644948,52.6036702 C16.8706292,52.5052258 16.7630271,52.4113602 16.6600038,52.3129157 L16.6783191,52.2923111 C13.047322,48.5308179 9.5285057,44.6708802 6.13789615,40.6873146 C-2.72439255,30.272809 -1.54992753,16.2845413 7.54130173,10.5175289 Z M34.9294598,9.25148764 L32.3813514,34.6753357 C32.2302507,36.2161057 33.3657958,37.3516508 34.9042763,37.1982606 L60.3304138,34.6524417 C61.8734731,34.5036303 62.2351992,33.4779767 61.1408634,32.3836408 L54.245174,25.4902409 L68.6089041,11.1219319 C69.7055293,10.0253067 69.7055293,8.237281 68.6089041,7.14065576 L62.2993025,0.824185981 C61.2026773,-0.270149849 59.4077834,-0.270149849 58.3180264,0.824185981 L43.9520068,15.1924949 L37.20055,8.44103809 C36.1016354,7.34441285 35.0805605,7.71071773 34.9294598,9.25148764 Z" id="Shape" stroke="#000000" stroke-width="3"></path>
                </g>
            </g>
        </g>
    </g>
</svg>