<?xml version="1.0" encoding="UTF-8"?>
<svg width="76px" height="80px" viewBox="0 0 76 80" version="1.1" xmlns="http://www.w3.org/2000/svg" xmlns:xlink="http://www.w3.org/1999/xlink">
    <!-- Generator: sketchtool 47.1 (45422) - http://www.bohemiancoding.com/sketch -->
    <title>0A1329F1-A690-4E9B-B9CF-48214D01E6FF</title>
    <desc>Created with sketchtool.</desc>
    <defs></defs>
    <g id="Page-1" stroke="none" stroke-width="1" fill="none" fill-rule="evenodd">
        <g id="Click-to-call" transform="translate(-466.000000, -2427.000000)" fill-rule="nonzero">
            <g id="Group-9" transform="translate(59.000000, 2362.000000)">
                <g id="003-interface" transform="translate(409.000000, 65.000000)">
                    <path d="M71.792171,0.0157813648 L7.04657466,0.0157813648 C6.4683934,0.0157813648 6,0.571068798 6,1.25616569 L6,54.1772706 C6,54.8623675 6.4683934,55.4176549 7.04657466,55.4176549 L71.7923015,55.4176549 C72.3703522,55.4176549 72.8388762,54.8625222 72.8388762,54.1772706 L72.8388762,1.25616569 C72.8387456,0.571068798 72.3703522,0.0157813648 71.792171,0.0157813648 Z" id="Shape-Copy-4" fill="#23BDFF"></path>
                    <path d="M65.792171,6.01578136 L1.04657466,6.01578136 C0.468393397,6.01578136 0,6.5710688 0,7.25616569 L0,60.1772706 C0,60.8623675 0.468393397,61.4176549 1.04657466,61.4176549 L65.7923015,61.4176549 C66.3703522,61.4176549 66.8388762,60.8625222 66.8388762,60.1772706 L66.8388762,7.25616569 C66.8387456,6.5710688 66.3703522,6.01578136 65.792171,6.01578136 Z" id="Shape" stroke="#000000" stroke-width="3" fill="#F1F4FB"></path>
                    <path d="M55.4844936,27.1843162 L35.5563432,27.1843162 L35.5563432,25.7785369 C35.5563432,25.09344 35.0012105,24.5381526 34.3159589,24.5381526 C33.6307072,24.5381526 33.0755745,25.0932853 33.0755745,25.7785369 L33.0755745,27.1843162 L11.8245744,27.1843162 C11.1394775,27.1843162 10.58419,27.7394489 10.58419,28.4247005 L10.58419,33.7168729 C10.58419,34.4019698 11.1393228,34.9572572 11.8245744,34.9572572 C12.509826,34.9572572 13.0649587,34.4021245 13.0649587,33.7168729 L13.0649587,29.6650848 L33.0757292,29.6650848 L33.0757292,33.7168729 C33.0757292,34.4019698 33.630862,34.9572572 34.3161136,34.9572572 C35.0013652,34.9572572 35.5564979,34.4021245 35.5564979,33.7168729 L35.5564979,29.6650848 L54.244264,29.6650848 L54.244264,33.7168729 C54.244264,34.4019698 54.7993968,34.9572572 55.4846484,34.9572572 C56.1697453,34.9572572 56.7250327,34.4021245 56.7250327,33.7168729 L56.7250327,28.4247005 C56.7247233,27.7394489 56.1695905,27.1843162 55.4844936,27.1843162 Z" id="Shape" fill="#365558"></path>
                    <path d="M18.4397512,32.4763338 L6.53255671,32.4763338 C5.84745981,32.4763338 5.29217238,33.0314665 5.29217238,33.7167181 L5.29217238,45.6239126 C5.29217238,46.3090095 5.84730509,46.8642969 6.53255671,46.8642969 L18.4397512,46.8642969 C19.1248481,46.8642969 19.6801355,46.3091642 19.6801355,45.6239126 L19.6801355,33.7167181 C19.6799808,33.0316213 19.1248481,32.4763338 18.4397512,32.4763338 Z" id="Shape" fill="#F1AD2B"></path>
                    <path d="M39.6081312,32.4763338 L27.7009368,32.4763338 C27.0158399,32.4763338 26.4605525,33.0314665 26.4605525,33.7167181 L26.4605525,45.6239126 C26.4605525,46.3090095 27.0156852,46.8642969 27.7009368,46.8642969 L39.6081312,46.8642969 C40.2932281,46.8642969 40.8485156,46.3091642 40.8485156,45.6239126 L40.8485156,33.7167181 C40.8485156,33.0316213 40.2932281,32.4763338 39.6081312,32.4763338 Z" id="Shape" fill="#30CC7B"></path>
                    <path d="M60.7765113,32.4763338 L48.8693169,32.4763338 C48.18422,32.4763338 47.6289325,33.0314665 47.6289325,33.7167181 L47.6289325,45.6239126 C47.6289325,46.3090095 48.1840652,46.8642969 48.8693169,46.8642969 L60.7765113,46.8642969 C61.4616082,46.8642969 62.0168956,46.3091642 62.0168956,45.6239126 L62.0168956,33.7167181 C62.0168956,33.0316213 61.4617629,32.4763338 60.7765113,32.4763338 Z" id="Shape" fill="#F1AD2B"></path>
                    <path d="M42.9157196,10.6463742 L26.3779324,10.6463742 C25.6928355,10.6463742 25.137548,11.2015069 25.137548,11.8867585 L25.137548,25.1169574 C25.137548,25.8020543 25.6926808,26.3573417 26.3779324,26.3573417 L42.9157196,26.3573417 C43.6008165,26.3573417 44.156104,25.802209 44.156104,25.1169574 L44.156104,11.8867585 C44.156104,11.2016616 43.6008165,10.6463742 42.9157196,10.6463742 Z" id="Shape" fill="#23BDFF"></path>
                    <path d="M45.4435229,44.8221574 C45.3794692,44.4285516 45.1305259,44.0897164 44.773898,43.9114798 L33.547623,38.2984197 C33.0698499,38.0596878 32.4933659,38.1531383 32.1158509,38.5306533 C31.7384907,38.9081683 31.6447308,39.4851164 31.8836173,39.9624253 L37.4966775,51.1887003 C37.674914,51.5453282 38.0137492,51.7942715 38.407355,51.8583253 C38.4735749,51.8688462 38.5399494,51.8744161 38.6060146,51.8744161 C38.9323175,51.8744161 39.2487184,51.7455349 39.4831181,51.51129 L45.0960235,45.8983846 C45.3782314,45.6160219 45.507422,45.2157632 45.4435229,44.8221574 Z" id="Shape" fill="#FFD1A9"></path>
                    <path d="M33.5477777,38.2984197 C33.0700046,38.0596878 32.4935207,38.1531383 32.1160057,38.5306533 C31.7386454,38.9081683 31.6448855,39.4851164 31.883772,39.9624253 L33.0381325,42.2713009 L35.8566533,39.4527801 L33.5477777,38.2984197 Z" id="Shape" fill="#365558"></path>
                    <path d="M45.0961782,44.1438681 L37.7289111,51.5111353 L65.7945212,79.5767453 C66.0272189,79.8092884 66.3425368,79.9398715 66.6716247,79.9398715 C67.0005578,79.9398715 67.3158757,79.8092884 67.5487282,79.5767453 L73.1617883,73.9636852 C73.3943313,73.7309874 73.5249144,73.4156696 73.5249144,73.0865817 C73.5249144,72.7576486 73.3943313,72.4423307 73.1617883,72.2094782 L45.0961782,44.1438681 Z" id="Shape" fill="#687F82"></path>
                    <path d="M41.446815,47.7933861 L37.7290658,51.5111353 L65.7946759,79.5767453 C66.0273736,79.8092884 66.3426915,79.9398715 66.6717794,79.9398715 C67.0007125,79.9398715 67.3160304,79.8092884 67.5488829,79.5767453 L70.3895285,76.7360997 L41.446815,47.7933861 Z" id="Shape" fill="#365558"></path>
                </g>
            </g>
        </g>
    </g>
</svg>