<?xml version="1.0" encoding="UTF-8"?>
<svg width="62px" height="58px" viewBox="0 0 62 58" version="1.1" xmlns="http://www.w3.org/2000/svg" xmlns:xlink="http://www.w3.org/1999/xlink">
    <!-- Generator: sketchtool 47.1 (45422) - http://www.bohemiancoding.com/sketch -->
    <title>BC2698BC-2689-46E2-B1DF-86ED030942F8</title>
    <desc>Created with sketchtool.</desc>
    <defs></defs>
    <g id="Page-1" stroke="none" stroke-width="1" fill="none" fill-rule="evenodd">
        <g id="Click-to-call" transform="translate(-177.000000, -2068.000000)">
            <g id="001-settings" transform="translate(179.000000, 2068.000000)">
                <path d="M58.2355085,0 L7.84476667,0 C7.38701386,0 7.01599316,0.371123221 7.01599316,0.828773512 L7.01599316,43.2631256 C7.01599316,43.7208784 7.38711638,44.0918991 7.84476667,44.0918991 L58.2355085,44.0918991 C58.6933638,44.0918991 59.064282,43.7207759 59.064282,43.2631256 L59.064282,0.828773512 C59.064282,0.371123221 58.6933638,0 58.2355085,0 Z" id="Shape-Copy-3" fill="#23BDFF" fill-rule="nonzero"></path>
                <path d="M29.5210068,52.7386461 L29.5210068,48.2631256 C29.5211094,47.8053728 29.1500887,47.4343521 28.6922333,47.4343521 L23.3879393,47.4343521 C22.9301865,47.4343521 22.5591658,47.8054753 22.5591658,48.2631256 L22.5591658,52.7386461 L19.8518117,52.7386461 C18.1761185,52.7386461 16.8129071,54.1018575 16.8129071,55.7775506 L16.8129071,56.6615825 C16.8129071,57.1193354 17.1840303,57.4903561 17.6416806,57.4903561 L34.4385945,57.4903561 C34.8964499,57.4903561 35.2673681,57.1192328 35.2673681,56.6615825 L35.2673681,55.7775506 C35.2673681,54.101755 33.9040541,52.7386461 32.2284635,52.7386461 L29.5210068,52.7386461 Z" id="Combined-Shape" fill="#000000" fill-rule="nonzero"></path>
                <path d="M51.2355085,5 L0.844766668,5 C0.387013856,5 0.0159931554,5.37112322 0.0159931554,5.82877351 L0.0159931554,48.2631256 C0.0159931554,48.7208784 0.387116376,49.0918991 0.844766668,49.0918991 L51.2355085,49.0918991 C51.6933638,49.0918991 52.064282,48.7207759 52.064282,48.2631256 L52.064282,5.82877351 C52.064282,5.37112322 51.6933638,5 51.2355085,5 Z" id="Shape" stroke="#000000" stroke-width="4" fill="#E6EAEA" fill-rule="nonzero"></path>
                <g id="Group" transform="translate(16.710797, 47.340854)"></g>
                <g id="Group" transform="translate(2.000000, 39.779559)" fill-rule="nonzero" fill="#687F82">
                    <path d="M48.064282,0.0243998139 L0.0159931554,0.0243998139 L0.0159931554,7.31233998 C0.0159931554,7.7148616 48.064282,7.31233998 48.064282,7.31233998 C48.064282,7.31233998 48.064282,4.88302659 48.064282,0.0243998139 Z" id="Shape"></path>
                </g>
                <path d="M27.3662367,45.1137042 L24.714141,45.1137042 C24.2563882,45.1137042 23.8853675,44.742786 23.8853675,44.2849307 C23.8853675,43.8270754 24.2564907,43.4561572 24.714141,43.4561572 L27.3662367,43.4561572 C27.8239895,43.4561572 28.1950102,43.8270754 28.1950102,44.2849307 C28.1950102,44.742786 27.823887,45.1137042 27.3662367,45.1137042 Z" id="Shape" fill="#365558" fill-rule="nonzero"></path>
                <g id="Group" transform="translate(31.371189, 43.445085)" fill-rule="nonzero" fill="#FFFFFF">
                    <path d="M9.69779832,1.66861921 L0.857274135,1.66861921 C0.399521323,1.66861921 0.028500623,1.29770103 0.028500623,0.839845697 C0.028500623,0.381990365 0.399623844,0.0110721845 0.857274135,0.0110721845 L9.69779832,0.0110721845 C10.1555511,0.0110721845 10.5265718,0.381990365 10.5265718,0.839845697 C10.5265718,1.29770103 10.1554486,1.66861921 9.69779832,1.66861921 Z" id="Shape"></path>
                    <path d="M16.3280889,1.66861921 L13.233926,1.66861921 C12.7761732,1.66861921 12.4051525,1.29770103 12.4051525,0.839845697 C12.4051525,0.381990365 12.7762757,0.0110721845 13.233926,0.0110721845 L16.3280889,0.0110721845 C16.7858418,0.0110721845 17.1568625,0.381990365 17.1568625,0.839845697 C17.1568625,1.29770103 16.7858418,1.66861921 16.3280889,1.66861921 Z" id="Shape"></path>
                </g>
                <g id="Group" transform="translate(11.302427, 8.895769)" fill-rule="nonzero" fill="#000000">
                    <path d="M14.7377104,29.1454752 C13.727632,29.1454752 12.9089369,28.7745571 12.9089369,28.3167017 L12.9089369,0.911199775 C12.9089369,0.453344442 13.7278582,0.0824262622 14.7377104,0.0824262622 C15.7477888,0.0824262622 16.5664839,0.453344442 16.5664839,0.911199775 L16.5664839,28.3167017 C16.5664839,28.7745571 15.7477888,29.1454752 14.7377104,29.1454752 Z" id="Shape"></path>
                    <path d="M27.5564294,29.1454752 C26.546351,29.1454752 25.7276559,28.7745571 25.7276559,28.3167017 L25.7276559,0.911199775 C25.7276559,0.453344442 26.5465773,0.0824262622 27.5564294,0.0824262622 C28.5662816,0.0824262622 29.3852029,0.453344442 29.3852029,0.911199775 L29.3852029,28.3167017 C29.3852029,28.7745571 28.5662816,29.1454752 27.5564294,29.1454752 Z" id="Shape"></path>
                    <path d="M1.91899131,29.1454752 C0.908912918,29.1454752 0.0902177995,28.7745571 0.0902177995,28.3167017 L0.0902177995,0.911199775 C0.0902177995,0.453344442 0.90913914,0.0824262622 1.91899131,0.0824262622 C2.92906971,0.0824262622 3.74776482,0.453344442 3.74776482,0.911199775 L3.74776482,28.3167017 C3.74776482,28.7745571 2.92906971,29.1454752 1.91899131,29.1454752 Z" id="Shape"></path>
                </g>
                <path d="M13.2214185,24.4490097 C10.32717,24.4490097 7.97238291,26.8037968 7.97238291,29.6980453 C7.97238291,32.5922938 10.32717,34.9470809 13.2214185,34.9470809 C16.115667,34.9470809 18.4704541,32.5922938 18.4704541,29.6980453 C18.4704541,26.8037968 16.115667,24.4490097 13.2214185,24.4490097 Z" id="Shape" fill="#EDC951" fill-rule="nonzero"></path>
                <path d="M7.97238291,29.6980453 C7.97238291,32.5922938 10.32717,34.9470809 13.2214185,34.9470809 L13.2214185,24.4490097 C10.32717,24.4490097 7.97238291,26.8037968 7.97238291,29.6980453 Z" id="Shape" fill="#EDC951" fill-rule="nonzero"></path>
                <path d="M26.0401376,12.0723578 C23.1458891,12.0723578 20.791102,14.4271449 20.791102,17.3213934 C20.791102,20.215642 23.1458891,22.570429 26.0401376,22.570429 C28.9343861,22.570429 31.2891732,20.215642 31.2891732,17.3213934 C31.2891732,14.4271449 28.9343861,12.0723578 26.0401376,12.0723578 Z" id="Shape" fill="#30CC7B" fill-rule="nonzero"></path>
                <path d="M26.0401376,22.570429 L26.0401376,12.0723578 C23.1458891,12.0723578 20.791102,14.4271449 20.791102,17.3213934 C20.791102,20.215642 23.1458891,22.570429 26.0401376,22.570429 Z" id="Shape" fill="#30CC7B" fill-rule="nonzero"></path>
                <path d="M38.8588566,22.2389812 C35.9646081,22.2389812 33.609821,24.5937682 33.609821,27.4880168 C33.609821,30.3822653 35.9646081,32.7370524 38.8588566,32.7370524 C41.7531052,32.7370524 44.1078922,30.3822653 44.1078922,27.4880168 C44.1078922,24.5937682 41.7531052,22.2389812 38.8588566,22.2389812 Z" id="SVGCleanerId_0" fill="#FF8C29" fill-rule="nonzero"></path>
                <path d="M38.8588566,22.2389812 C35.9646081,22.2389812 33.609821,24.5937682 33.609821,27.4880168 C33.609821,30.3822653 35.9646081,32.7370524 38.8588566,32.7370524 C41.7531052,32.7370524 44.1078922,30.3822653 44.1078922,27.4880168 C44.1078922,24.5937682 41.7531052,22.2389812 38.8588566,22.2389812 Z" id="SVGCleanerId_0_1_" fill="#23BDFF" fill-rule="nonzero"></path>
                <path d="M33.609821,27.4880168 C33.609821,30.3822653 35.9646081,32.7370524 38.8588566,32.7370524 L38.8588566,22.2389812 C35.9646081,22.2389812 33.609821,24.5936657 33.609821,27.4880168 Z" id="Shape" fill="#23BDFF" fill-rule="nonzero"></path>
            </g>
        </g>
    </g>
</svg>