<?xml version="1.0" encoding="UTF-8"?>
<svg width="60px" height="56px" viewBox="0 0 60 56" version="1.1" xmlns="http://www.w3.org/2000/svg" xmlns:xlink="http://www.w3.org/1999/xlink">
    <!-- Generator: sketchtool 47.1 (45422) - http://www.bohemiancoding.com/sketch -->
    <title>530CB1AF-910A-497B-863D-DB95BB0F1C2B</title>
    <desc>Created with sketchtool.</desc>
    <defs></defs>
    <g id="Page-1" stroke="none" stroke-width="1" fill="none" fill-rule="evenodd">
        <g id="Click-to-call" transform="translate(-483.000000, -1526.000000)">
            <g id="023-shopping" transform="translate(483.500000, 1526.367188)">
                <g id="Group" transform="translate(6.080424, 1.080424)" fill-rule="nonzero">
                    <path d="M26.1040078,51.242441 C35.0975623,42.2488865 44.0912249,33.255548 53.0846714,24.2619935 L53.0846714,6.38843701 C53.0846714,2.91455084 50.2422928,0.0722803423 46.7682986,0.0720642576 L28.8949582,0.0720642576 C19.9015117,9.06551074 10.9078491,18.0591733 1.91451071,27.0526198 C-0.541940504,29.509071 -0.541940504,33.5287872 1.91451071,35.9850223 C7.00006484,41.0705765 12.0860511,46.1566708 17.1717133,51.242333 C19.6281645,53.6985681 23.6477727,53.6985681 26.1040078,51.242441 L26.1040078,51.242441 Z M40.9896527,8.70951114 C42.8991935,8.70951114 44.4471164,10.2577582 44.4471164,12.167191 C44.4471164,14.0761915 42.8991935,15.6242225 40.9896527,15.6242225 C39.0806522,15.6242225 37.5324051,14.0762995 37.5324051,12.1669749 C37.5324051,10.2575422 39.0804361,8.70951114 40.9896527,8.70951114 Z" id="Shape" fill="#23BDFF"></path>
                    <path d="M35.9896527,4.09977559 C40.4452118,4.09977559 44.05696,7.71141577 44.05696,12.1670829 C44.05696,16.6223179 40.4453199,20.2341742 35.9896527,20.2341742 C31.5342017,20.2341742 27.9225615,16.6224259 27.9225615,12.1670829 C27.9226695,7.71141577 31.5342017,4.09977559 35.9896527,4.09977559 L35.9896527,4.09977559 Z M35.9894366,8.70951114 C34.08022,8.70951114 32.532189,10.2574341 32.5324051,12.1669749 C32.5324051,14.0761915 34.080328,15.6240064 35.9896527,15.6240064 C37.8989774,15.6240064 39.4469004,14.0762995 39.4471164,12.167191 C39.4471164,10.2575422 37.8989774,8.70951114 35.9894366,8.70951114 Z" id="Shape" fill="#FF9600"></path>
                </g>
                <g id="Group" fill-rule="nonzero" fill="#000003">
                    <path d="M47.8488303,0 L29.9753818,0 C29.66973,0 29.3767191,0.121439618 29.1605263,0.337524349 L25.6667604,3.83129031 C25.0693941,3.78159082 24.4666258,3.74139906 23.8592116,3.71201154 C16.1724295,3.33948147 9.61339357,4.6805033 7.14905526,7.12755483 C6.16176413,8.1080393 5.98684354,9.09381784 6.01385413,9.7481224 C6.11174051,12.1079837 8.93521164,14.230368 13.8270458,15.6710049 L2.1799708,27.3181879 C0.774339631,28.7239271 0.00021608473,30.5994345 0.00021608473,32.5994068 C0.00021608473,34.599379 0.774339631,36.4748864 2.1799708,37.8804095 L17.3123845,53.0128232 L16.1345066,53.0128232 C15.4981371,53.0128232 14.9820187,53.5287255 14.9820187,54.1653111 C14.9820187,54.8017887 15.4981371,55.317799 16.1345066,55.317799 L39.1834005,55.317799 C39.81977,55.317799 40.3358884,54.8018967 40.3358884,54.1653111 C40.3358884,53.5288335 39.81977,53.0128232 39.1834005,53.0128232 L28.1244,53.0128232 L54.9799505,26.1572727 C55.1960353,25.9410799 55.3174749,25.647961 55.3174749,25.3424172 L55.3174749,7.46886066 C55.3174749,3.35071787 51.9670812,0.00021608473 47.8488303,0 Z M8.31677715,9.65272099 C8.31256349,9.54900032 8.29949037,9.23340857 8.7731481,8.76299211 C10.3627754,7.18470924 15.6376198,5.66152798 23.4942445,6.00380619 L15.7047141,13.7933366 C10.3610467,12.4488574 8.35556435,10.5870714 8.31677715,9.65272099 Z M53.0126071,24.8648699 L26.3695759,51.5079011 C25.3993555,52.4781215 24.1027391,53.0124991 22.7183923,53.0124991 C21.3340454,53.0124991 20.037321,52.4781215 19.0669925,51.5079011 L3.80978988,36.2505905 C2.8394614,35.28037 2.30508386,33.9836455 2.30508386,32.5994068 C2.30508386,31.215168 2.8394614,29.9183355 3.80978988,28.948007 L26.5298028,6.22777801 C29.8644223,6.57664681 32.9434137,7.24737381 35.395003,8.17470144 C37.0210406,8.78978662 38.1175625,9.42496769 38.8054683,9.99661984 C37.9747305,10.8308149 37.4605569,11.9801696 37.4605569,13.2476146 C37.4605569,13.6052348 37.5028015,13.9529152 37.5802678,14.2873063 C37.5853458,14.3151812 37.5922605,14.3428401 37.5994994,14.3704989 C37.6026326,14.3829238 37.6054417,14.3954567 37.6085749,14.4078816 C37.608791,14.4085298 37.6090071,14.4092861 37.6092232,14.4100424 C38.1257737,16.3907831 39.9298652,17.857026 42.0702925,17.857026 C44.6119891,17.857026 46.67992,15.7893112 46.67992,13.2476146 C46.67992,10.7057019 44.6120971,8.63766297 42.0702925,8.63766297 C41.6613521,8.63766297 41.2651608,8.6917922 40.8874446,8.79216355 C39.9113899,7.76079113 38.3395896,6.82427991 36.2103987,6.01893212 C34.0401517,5.19791819 31.4271471,4.56619448 28.5957889,4.16179191 L30.4524969,2.30497582 L47.8487223,2.30497582 C50.6961788,2.30508386 53.0127152,4.62162021 53.0127152,7.46886066 L53.0127152,24.8648699 L53.0126071,24.8648699 Z M42.0618652,11.2863216 C42.0571113,11.1717966 42.0452266,11.05792 42.028264,10.9445836 C42.0424175,10.9443675 42.0562469,10.9424227 42.0704005,10.9424227 C43.3411948,10.9424227 44.3750522,11.9763881 44.3750522,13.2473985 C44.3750522,14.5180848 43.3411948,15.5519422 42.0704005,15.5519422 C41.2776937,15.5519422 40.5774711,15.1497004 40.1624804,14.538937 C41.7698266,13.3970372 42.0985996,12.1695679 42.0618652,11.2863216 Z" id="Shape"></path>
                    <path d="M49.4243041,9.73785838 C48.8168899,9.92801294 48.4787173,10.5746465 48.6688719,11.1820607 C48.878258,11.8507349 48.9844636,12.5456634 48.9844636,13.2475066 C48.9844636,17.0599975 45.8826754,20.1618938 42.0700764,20.1618938 C38.2574774,20.1618938 35.1556891,17.0601055 35.1556891,13.2475066 C35.1556891,12.611029 34.6395707,12.0950187 34.0032012,12.0950187 C33.3668317,12.0950187 32.8507133,12.610921 32.8507133,13.2475066 C32.8507133,18.3310079 36.986467,22.4667616 42.0699683,22.4667616 C47.1534697,22.4667616 51.2892234,18.3310079 51.2892234,13.2475066 C51.2892234,12.3117516 51.1475798,11.3850723 50.8683983,10.4932906 C50.6782438,9.88576837 50.0313941,9.54759577 49.4243041,9.73785838 Z" id="Shape"></path>
                    <path d="M47.8884819,8.81215139 C48.1754424,8.81215139 48.462727,8.70562162 48.6861586,8.49126557 C49.1454467,8.0506688 49.1604646,7.32116675 48.7199759,6.86177061 C48.5334948,6.6674024 48.3349129,6.47800413 48.1299566,6.29876185 C47.6506806,5.88009768 46.922367,5.92904087 46.5038109,6.40864093 C46.0850387,6.88791687 46.134198,7.61601436 46.6134739,8.03478657 C46.7678665,8.16962344 46.917073,8.3118072 47.0567717,8.45755635 C47.2832285,8.69341283 47.5855311,8.81215139 47.8884819,8.81215139 Z" id="Shape"></path>
                    <path d="M14.7499437,39.2985736 C14.3000553,38.8485772 13.5702291,38.8485772 13.1201246,39.2986817 C12.6701282,39.7487862 12.6701282,40.4783962 13.1202327,40.9285007 L13.5920537,41.4002137 C13.8169979,41.625266 14.1119535,41.7377381 14.4068011,41.7377381 C14.7016488,41.7377381 14.9967125,41.6251579 15.2216567,41.4002137 C15.6716531,40.9501092 15.6716531,40.2204991 15.2215486,39.7703946 L14.7499437,39.2985736 Z" id="Shape"></path>
                    <path d="M25.163499,44.8227798 L22.7188244,47.2677785 L17.828935,42.3778891 C17.3788305,41.9278926 16.6493285,41.9278926 16.1990079,42.3778891 C15.7490114,42.8278855 15.7490114,43.5576037 16.1990079,44.0078162 L21.0888973,48.8977056 C21.5381375,49.3469458 22.1283729,49.5716739 22.7186083,49.5716739 C23.3088438,49.5716739 23.8990792,49.3470538 24.3484274,48.8977056 L26.7934261,46.4527069 C27.2434226,46.0027104 27.2434226,45.2729923 26.7934261,44.8227798 C26.3431056,44.3726753 25.6136035,44.3726753 25.163499,44.8227798 Z" id="Shape"></path>
                </g>
                <text id="0" font-family="Raleway-Medium, Raleway" font-size="24" font-weight="400" fill="#000003">
                    <tspan x="19.2908455" y="35.6328125">0</tspan>
                </text>
            </g>
        </g>
    </g>
</svg>