<?xml version="1.0" encoding="UTF-8"?>
<svg width="59px" height="53px" viewBox="0 0 59 53" version="1.1" xmlns="http://www.w3.org/2000/svg" xmlns:xlink="http://www.w3.org/1999/xlink">
    <!-- Generator: sketchtool 47.1 (45422) - http://www.bohemiancoding.com/sketch -->
    <title>EF31D8C0-C925-49B8-A18C-68E9ACF45CA4</title>
    <desc>Created with sketchtool.</desc>
    <defs></defs>
    <g id="Page-1" stroke="none" stroke-width="1" fill="none" fill-rule="evenodd">
        <g id="Click-to-call" transform="translate(-482.000000, -1799.000000)" fill-rule="nonzero">
            <g id="005-sorting" transform="translate(482.500000, 1799.000000)">
                <path d="M31.2593527,15.7907192 L31.2593527,5.77794446 C31.2593527,4.75204192 30.4481739,3.86161986 29.4214193,3.86161986 L18.2728239,3.86161986 C17.2469214,3.86161986 16.7740178,4.75204192 16.7740178,5.77794446 L16.7740178,23.4594259 L11.187791,23.4594259 C7.63803188,23.4594259 5.52317298,29.0345757 7.49403061,31.9861757 L19.3242888,50.5103627 C21.0548603,53.1015335 24.8457576,53.5565435 26.6461996,51.012237 L33.3776199,40.6577788 L33.3776199,40.6577788" id="path-1_9_" fill="#30CC7B"></path>
                <path d="M57.1080067,24.0763307 L45.2768965,5.43796513 C43.546325,2.84679434 39.7545756,2.33469515 37.9558378,4.87900162 L25.4294314,24.209255 C23.3486557,27.1514821 25.4524376,32.8322896 29.0567297,32.8322896 L32.9635097,32.8322896 L32.9635097,50.372326 C32.9635097,51.3982286 33.9698145,52.4300957 34.995717,52.4300957 L46.1443124,52.4300957 C47.171067,52.4300957 48.3009231,51.3982286 48.3009231,50.372326 L48.3009231,32.8322896 L53.4133943,32.8322896 C56.9631534,32.8322896 59.0788644,27.0279307 57.1080067,24.0763307 Z" id="path-2_9_" fill="#23BDFF"></path>
                <path d="M40.6910099,51.5780171 L29.5424145,51.5780171 C27.9021633,51.5780171 26.1468815,50.3561365 26.1468815,48.5360968 L26.1468815,31.9802111 L23.6025751,31.9802111 C21.6462028,31.9802111 19.8397963,30.7489576 18.772994,28.6886318 C17.5229948,26.2738412 17.5869007,23.3725139 18.9323327,21.4706746 L31.4323246,2.30828072 C32.4573751,0.855486837 34.0354245,0.0460122402 35.787298,0.0460122402 C37.7905346,0.0460122402 39.7443506,1.10855416 40.8861358,2.81952783 L52.7317315,21.4067687 C54.2228689,23.6383624 53.7925692,26.7143658 52.6976483,28.7610585 C51.6044316,30.806899 49.8772684,31.9802111 47.9600917,31.9802111 L44.0405305,31.9802111 L44.0405305,48.5360968 C44.0405305,50.3561365 42.3082549,51.5780171 40.6910099,51.5780171 Z M35.787298,2.60224781 C34.8627928,2.60224781 34.0669514,3.00783719 33.5454794,3.74488511 L21.0454874,22.9064269 C20.2240837,24.0712183 20.2334566,25.9491993 21.0429312,27.5136155 C21.3403066,28.0879164 22.1847164,29.4239755 23.6025751,29.4239755 L28.7031171,29.4239755 L28.7031171,48.5360968 C28.7031171,48.7192937 29.1095586,49.0217816 29.5424145,49.0217816 L40.6910099,49.0217816 C41.1000075,49.0217816 41.484295,48.7482644 41.484295,48.5360968 L41.484295,29.4239755 L47.9600917,29.4239755 C49.3004112,29.4239755 50.1431169,28.1177392 50.4430485,27.5562194 C51.2993875,25.9551639 51.3615892,23.9561877 50.5913102,22.8033254 L38.7457146,4.21608453 C38.0862058,3.2293776 36.9478289,2.60224781 35.787298,2.60224781 Z" id="path-3_9_" fill="#000000"></path>
                <path d="M17.9200634,52.4300957 C17.8945011,52.4300957 17.8697908,52.4300957 17.8442284,52.4300957 C15.8657021,52.4300957 13.9365963,51.1690194 12.8084444,49.4793477 L0.961996652,30.7736679 C-0.536809469,28.5301452 -0.0971369516,25.3851233 1.00971305,23.3145725 C2.10463395,21.2670278 3.82583257,20.0511118 5.73534054,20.0511118 L9.95738962,20.0511118 L9.95738962,3.94256732 C9.95738962,2.22733326 11.0284523,0.453305774 12.8203735,0.453305774 L23.9681168,0.453305774 C25.7813399,0.453305774 26.9989601,2.25715601 26.9989601,3.94256732 L26.9989601,14.0865621 L24.4427245,14.0865621 L24.4427245,3.94256732 C24.4427245,3.45347425 24.101041,3.00954134 23.9681168,3.00954134 L12.8203735,3.00954134 C12.739426,3.05555358 12.5136252,3.43643268 12.5136252,3.94256732 L12.5136252,22.6073474 L5.73534054,22.6073474 C4.40695012,22.6073474 3.56509654,23.9152879 3.26346074,24.4785118 C2.39434065,26.1051297 2.32702645,28.1305203 3.10326998,29.2936075 L14.9497177,47.9149316 C15.6024098,48.8914136 16.7297097,49.5219517 17.8783116,49.5372891 C18.4355709,49.5449578 19.4376153,49.4069211 20.1491008,48.4023205 L26.8106507,38.1722657 L28.9527761,39.5671183 L22.2631076,50.0059323 C21.2380572,51.457022 19.6685285,52.4300957 17.9200634,52.4300957 Z" id="path-4_9_" fill="#000000"></path>
            </g>
        </g>
    </g>
</svg>