<?xml version="1.0" encoding="UTF-8"?>
<svg width="63px" height="47px" viewBox="0 0 63 47" version="1.1" xmlns="http://www.w3.org/2000/svg" xmlns:xlink="http://www.w3.org/1999/xlink">
    <!-- Generator: sketchtool 47.1 (45422) - http://www.bohemiancoding.com/sketch -->
    <title>DB1FE6C5-25AB-492A-BBE7-9B186318D6E1</title>
    <desc>Created with sketchtool.</desc>
    <defs></defs>
    <g id="Page-1" stroke="none" stroke-width="1" fill="none" fill-rule="evenodd">
        <g id="Click-to-call" transform="translate(-786.000000, -1533.000000)" fill-rule="nonzero">
            <g id="003-stairs" transform="translate(786.000000, 1533.000000)">
                <path d="M7.633,42.111 L1.5,42.111 C0.672,42.111 0,41.439 0,40.61 C0,39.781 0.672,39.109 1.5,39.109 L7.633,39.109 C8.235,39.109 8.441,39.005 8.479,38.982 C8.476,38.974 8.5,38.895 8.5,38.725 L8.5,34.84 C8.5,32.694 10.422,30.103 12.809,30.103 L17.984,30.103 C18.237,30.103 18.387,30.081 18.469,30.063 C18.483,29.99 18.5,29.863 18.5,29.661 L18.5,27.071 C18.5,24.945 20.804,22.097 23.16,22.097 L28.336,22.097 C29.09,22.097 29.5,22.004 29.5,21.956 C29.5,21.941 29.5,21.919 29.5,21.892 L29.5,19.302 C29.5,16.98 31.3,15.092 33.512,15.092 L39.981,15.092 C40.225,15.092 40.5,15.092 40.5,14.123 L40.5,12.828 C40.5,10.568 42.937,8.087 45.157,8.087 L50.333,8.087 C50.865,8.087 51.5,8.011 51.5,7.648 L51.5,4.521 C51.5,2.667 52.821,0.081 54.973,0.081 L61.5,0.081 C62.328,0.081 63,0.753 63,1.582 C63,2.411 62.328,3.083 61.5,3.083 L55.085,3.083 C54.851,3.283 54.5,3.999 54.5,4.521 L54.5,7.648 C54.5,9.739 52.864,11.089 50.333,11.089 L45.157,11.089 C44.568,11.089 43.5,12.21 43.5,12.828 L43.5,14.123 C43.5,16.535 42.119,18.094 39.981,18.094 L33.512,18.094 C32.906,18.094 32.5,18.718 32.5,19.302 L32.5,21.892 C32.5,23.089 31.959,25.099 28.336,25.099 L23.16,25.099 C22.664,25.099 21.5,26.372 21.5,27.071 L21.5,29.661 C21.5,31.882 20.251,33.105 17.984,33.105 L12.809,33.105 C12.335,33.105 11.5,34.108 11.5,34.84 L11.5,38.725 C11.5,39.743 11.123,42.111 7.633,42.111 Z" id="path-1_33_" fill="#000000"></path>
                <path d="M47.575,29.626 C47.502,29.441 47.391,29.334 47.242,29.184 L42.547,24.518 C42.074,24.047 41.31,24.063 40.838,24.535 L36.143,29.242 C35.993,29.392 35.882,29.437 35.81,29.622 C35.504,30.397 36.118,31.103 36.95,31.103 L39.937,31.103 L39.937,45.71 C39.937,46.377 40.77,46.919 41.437,46.919 C42.104,46.919 42.937,46.377 42.937,45.71 L42.937,31.103 L46.434,31.103 C47.266,31.103 47.881,30.401 47.575,29.626 Z" id="path-2_33_" fill="#23BDFF"></path>
            </g>
        </g>
    </g>
</svg>