<?xml version="1.0" encoding="UTF-8"?>
<svg width="63px" height="49px" viewBox="0 0 63 49" version="1.1" xmlns="http://www.w3.org/2000/svg" xmlns:xlink="http://www.w3.org/1999/xlink">
    <!-- Generator: sketchtool 47.1 (45422) - http://www.bohemiancoding.com/sketch -->
    <title>2BC23694-AFA5-4813-97E4-7A6C2A05B588</title>
    <desc>Created with sketchtool.</desc>
    <defs></defs>
    <g id="Page-1" stroke="none" stroke-width="1" fill="none" fill-rule="evenodd">
        <g id="Click-to-call" transform="translate(-786.000000, -1795.000000)" fill-rule="nonzero">
            <g id="002-stairs-1" transform="translate(786.000000, 1795.000000)">
                <path d="M7.545,48.68 L1.5,48.68 C0.672,48.68 0,48.007 0,47.179 C0,46.35 0.672,45.678 1.5,45.678 L7.545,45.678 C8.065,45.678 8.348,45.651 8.5,45.623 C8.5,45.618 8.5,45.612 8.5,45.606 L8.5,41.721 C8.5,39.688 10.272,36.671 12.721,36.671 L17.896,36.671 C18.184,36.671 18.373,36.661 18.498,36.649 C18.499,36.618 18.5,36.582 18.5,36.542 L18.5,33.952 C18.5,31.538 20.958,29.666 23.072,29.666 L28.248,29.666 C28.851,29.666 29.5,29.325 29.5,28.773 L29.5,26.183 C29.5,23.999 31.077,21.661 33.424,21.661 L39.894,21.661 C40.287,21.661 40.403,21.577 40.404,21.576 C40.404,21.576 40.5,21.448 40.5,21.003 L40.5,19.709 C40.5,17.502 42.716,14.656 45.069,14.656 L50.245,14.656 C51.014,14.656 51.353,14.581 51.494,14.531 L51.5,11.402 C51.5,9.334 53.018,7.651 54.885,7.651 L61.5,7.651 C62.328,7.651 63,8.323 63,9.152 C63,9.98 62.328,10.653 61.5,10.653 L54.885,10.653 C54.732,10.653 54.5,10.988 54.5,11.402 L54.5,14.529 C54.5,15.956 53.762,17.658 50.245,17.658 L45.069,17.658 C44.584,17.681 43.5,18.993 43.5,19.709 L43.5,21.003 C43.5,23.295 42.151,24.663 39.894,24.663 L33.424,24.663 C32.983,24.663 32.5,25.458 32.5,26.183 L32.5,28.773 C32.5,30.957 30.632,32.668 28.248,32.668 L23.072,32.668 C22.358,32.668 21.5,33.457 21.5,33.952 L21.5,36.542 C21.5,39.673 18.882,39.673 17.896,39.673 L12.721,39.673 C12.34,39.711 11.5,40.893 11.5,41.721 L11.5,45.606 C11.5,48.68 8.523,48.68 7.545,48.68 Z" id="path-1_34_" fill="#000000"></path>
                <path d="M16.234,17.373 C16.307,17.558 16.418,17.785 16.567,17.935 L21.263,22.66 C21.734,23.133 22.5,23.146 22.972,22.674 L27.667,17.982 C27.816,17.833 27.927,17.555 28,17.37 C28.306,16.596 27.691,15.656 26.859,15.656 L23.5,15.656 L23.5,1.53 C23.5,0.862 22.667,0.32 22,0.32 C21.333,0.32 20.5,0.862 20.5,1.53 L20.5,15.656 L17.375,15.656 C16.543,15.656 15.929,16.599 16.234,17.373 Z" id="path-2_34_" fill="#30CC7B"></path>
            </g>
        </g>
    </g>
</svg>