<?xml version="1.0" encoding="UTF-8"?>
<svg width="47px" height="26px" viewBox="0 0 47 26" version="1.1" xmlns="http://www.w3.org/2000/svg" xmlns:xlink="http://www.w3.org/1999/xlink">
    <!-- Generator: sketchtool 47.1 (45422) - http://www.bohemiancoding.com/sketch -->
    <title>F7E7DEF2-DF65-451F-A51C-A61E17F22410</title>
    <desc>Created with sketchtool.</desc>
    <defs></defs>
    <g id="Page-1" stroke="none" stroke-width="1" fill="none" fill-rule="evenodd">
        <g id="Click-to-call" transform="translate(-795.000000, -2085.000000)">
            <g id="Group-2" transform="translate(792.000000, 2056.000000)">
                <path d="M20.3318027,29.776 C21.6208379,29.776 22.754283,29.9649075 23.7321717,30.3427282 C24.7100605,30.7205488 25.5657004,31.2205981 26.299117,31.842891 C27.0325336,32.4651839 27.6881537,33.1985894 28.2659971,34.0431298 C28.8438405,34.8876701 29.3772264,35.7766466 29.8661708,36.7100859 C30.3551152,35.7766466 30.8885011,34.8876701 31.4663445,34.0431298 C32.0441878,33.1985894 32.7109202,32.4651839 33.4665615,31.842891 C34.2222029,31.2205981 35.0778427,30.7205488 36.0335068,30.3427282 C36.9891708,29.9649075 38.1115036,29.776 39.4005389,29.776 C41.0007205,29.776 42.4453073,30.0649174 43.7343425,30.6427607 C45.0233778,31.2206041 46.112374,32.0095707 47.0013638,33.0096843 C47.8903536,34.0097978 48.5793103,35.1876917 49.0682547,36.5434011 C49.5571991,37.8991106 49.8016677,39.3325852 49.8016677,40.8438678 C49.8016677,42.3551505 49.5349747,43.7775129 49.0015808,45.1109976 C48.468187,46.4444823 47.7347814,47.611264 46.8013421,48.6113775 C45.8679028,49.611491 44.7677944,50.4004577 43.5009839,50.978301 C42.2341734,51.5561444 40.8451476,51.8450618 39.333865,51.8450618 C38.1337287,51.8450618 37.0558447,51.6672665 36.1001807,51.3116705 C35.1445166,50.9560746 34.299989,50.4782498 33.5665724,49.8781816 C32.8331558,49.2781135 32.1775356,48.5891567 31.5996923,47.8112907 C31.0218489,47.0334246 30.488463,46.2000091 29.9995186,45.3110193 C29.5550237,46.2000091 29.0549744,47.0334246 28.4993558,47.8112907 C27.9437372,48.5891567 27.2770048,49.2781135 26.4991387,49.8781816 C25.7212726,50.4782498 24.8322961,50.9560746 23.8321826,51.3116705 C22.8320691,51.6672665 21.6652874,51.8450618 20.3318027,51.8450618 C18.9538685,51.8450618 17.631516,51.5561444 16.3647055,50.978301 C15.097895,50.4004577 13.9866744,49.611491 13.0310104,48.6113775 C12.0753463,47.611264 11.3086041,46.4333701 10.7307607,45.0776607 C10.1529174,43.7219512 9.864,42.2884766 9.864,40.7771939 C9.864,39.2659113 10.1306929,37.8435489 10.6640868,36.5100642 C11.1974807,35.1765794 11.9308863,34.0097978 12.8643256,33.0096843 C13.7977649,32.0095707 14.9089855,31.2206041 16.1980207,30.6427607 C17.487056,30.0649174 18.8649695,29.776 20.3318027,29.776 Z" id="∞-copy" fill="#23BDFF"></path>
                <text id="∞" font-family="Raleway-Regular, Raleway" font-size="72" font-weight="normal" fill="#000003">
                    <tspan x="0.624" y="68">∞</tspan>
                </text>
            </g>
        </g>
    </g>
</svg>