<?xml version="1.0" encoding="UTF-8"?>
<svg width="230px" height="69px" viewBox="0 0 230 69" version="1.1" xmlns="http://www.w3.org/2000/svg" xmlns:xlink="http://www.w3.org/1999/xlink">
    <!-- Generator: Sketch 39.1 (31720) - http://www.bohemiancoding.com/sketch -->
    <title>Amount charged icon</title>
    <desc>Created with Sketch.</desc>
    <defs></defs>
    <g id="Page-1" stroke="none" stroke-width="1" fill="none" fill-rule="evenodd">
        <g id="Amount-Recharged" transform="translate(-367.000000, -339.000000)">
            <g id="Email" transform="translate(107.000000, 104.000000)">
                <g id="Header" transform="translate(45.000000, 100.000000)">
                    <g id="Amount-charged-icon" transform="translate(215.000000, 135.000000)">
                        <g id="Balance-icon-Copy-3" transform="translate(34.783084, 33.310345)">
                            <path d="M26.5995764,9.79447294 C28.1936097,10.413642 30.2407697,11.2270677 30.555693,11.1421362 C30.7791953,11.0818601 30.9946369,10.959361 31.1581996,10.7939445 C31.3217623,10.628528 31.4428885,10.4106444 31.5024891,10.1846089 C31.5616295,9.96031889 31.5373902,9.71765399 31.5024891,9.4882254 C31.4789956,9.33378656 31.4160481,9.18299841 31.3303444,9.0529857 C30.9865968,8.53152021 29.2380287,7.90755388 29.3506798,7.83431455 C29.7501698,7.57458872 30.2345273,7.47209125 30.6417654,7.22497897 C30.9336023,7.04789217 31.7346905,5.97632376 32.1049957,6.09335576 C33.6400765,6.57850569 37.0933351,10.8251189 37.7857725,11.9255677 C38.1957952,12.577192 38.5899102,13.7174343 38.818641,14.4499579 C38.8882964,14.6730336 38.6933373,15.0513317 38.9047133,15.1463415 C39.1392141,15.2517453 39.3879977,14.9538658 39.5932923,14.7981497 C39.8529717,14.6011827 40.0932019,14.3688973 40.2818713,14.1017662 C40.5280922,13.7531499 40.717508,13.3639192 40.884378,12.970143 C41.0567828,12.5633055 40.9315289,10.754582 41.1425951,10.9680404 C42.5968617,12.43879 42.5793187,15.1731486 41.1425951,16.6261564 C40.8827889,16.8889073 40.604429,17.1446053 40.2818713,17.3225399 C39.9632716,17.4982913 39.3944652,17.3344778 39.2490028,17.6707317 C38.9261878,18.4169578 39.2209304,19.3066949 39.0768581,20.108074 C38.8193917,21.5401893 38.3242846,22.7838202 37.6136277,24.0252313 C37.581484,24.0813816 37.1890538,24.7128344 37.0111211,24.9827586 C36.4433422,25.84408 34.6644704,26.8750802 34.4289499,27.7682927 C33.7797708,30.2303064 35.6972986,33.534706 33.2239366,35.2544155 C33.0438813,35.3796065 32.8395961,35.5033016 32.62143,35.5155593 C30.8932924,35.6126551 27.7480688,36.2947817 26.8545809,34.0357443 C26.7667134,33.8135859 26.7095551,33.5770557 26.6824361,33.3393608 C26.623149,32.8197155 27.0300325,32.0575775 26.5963638,31.7724979 C26.123746,31.4618145 25.5151639,32.1034666 24.9609886,32.2077376 C24.2787577,32.3361029 23.5884514,32.436525 22.8952517,32.4688814 C21.7201801,32.5237302 20.5390517,32.5613017 19.3662843,32.4688814 C18.3223332,32.3866126 17.2997393,31.7676638 16.2676788,31.9465938 C15.9271632,32.0056295 16.3537512,32.6417704 16.3537512,32.991169 C16.3537512,33.6623587 16.1484404,34.163056 15.7512446,34.7321278 C14.6701047,36.2811024 10.8527281,35.4788027 10.1565402,35.4285114 C9.79238295,35.4022053 9.17658553,34.7688742 9.03759934,34.558032 C7.87850138,32.7996788 8.74526875,30.251502 8.60723746,28.4646762 C8.59143604,28.2601255 8.34196139,28.1486914 8.17687559,28.0294365 C6.93674555,27.1335894 5.38685067,25.6069148 4.64790823,24.1122792 C4.26879875,23.3454664 4.17823065,22.4027559 3.61503974,21.7619849 C3.38630624,21.5017431 2.92516641,21.7921486 2.58217124,21.7619849 C2.26260436,21.7338815 1.9319867,21.7114075 1.63537512,21.587889 C-0.532022835,20.6853157 0.0455078401,17.5486884 0.172144749,15.755677 C0.192277137,15.470629 0.342952112,15.1978221 0.516434248,14.9722456 C0.848873022,14.5399798 1.46695207,13.997544 2.06573699,13.9276703 C2.57876739,13.8678036 3.22293362,14.2675706 3.61503974,13.9276703 C4.18141523,13.4367032 4.15296316,12.5186427 4.47576348,11.8385198 C5.13481031,10.4499435 6.81374881,8.73948923 7.83258609,7.74726661 C7.85466792,7.72576161 8.60367185,7.26644827 8.60723746,7.22497897 C8.71659824,5.95307551 8.30695321,4.63492794 8.60723746,3.39486964 C8.73416942,2.87068954 10.223828,2.8195593 10.5008297,2.95962994 L10.9311915,2.95962994 C11.0622448,2.85654435 11.2241495,2.91794154 11.3615535,2.95962994 C11.8055193,3.09432929 12.264692,3.22538486 12.6526391,3.48191758 C13.0261987,3.72893648 13.1532122,4.4298432 13.5994352,4.43944491 C14.6711691,4.46250621 15.6304666,3.47081332 16.6980407,3.56896552 C17.1587659,3.61132435 17.1025953,4.41832354 17.3866197,4.78763667 C17.7104573,5.20871842 18.1601019,5.5161358 18.5055605,5.91925988 C18.5431415,5.963114 18.5579965,6.06978675 18.5055605,6.09335576 C17.7888049,6.41552445 16.8740131,6.54537023 17.1284026,7.66021867 C17.1775349,7.87553878 17.2467377,8.09979339 17.3866197,8.26955425 C17.544622,8.46130604 17.7650351,8.60019497 17.9891263,8.70479394 C18.1475827,8.77875659 18.3310413,8.79184188 18.5055605,8.79184188 C19.092559,8.79184188 19.6797257,8.75247477 20.2666588,8.72249158 C19.4395512,7.79637639 18.9359224,6.56910739 18.9359224,5.22287637 C18.9359224,2.3383614 21.2480773,0 24.1002649,0 C26.9524525,0 29.2646074,2.3383614 29.2646074,5.22287637 C29.2646074,7.19046961 28.1887815,8.90394227 26.5995764,9.79447294 Z M26.5995764,9.79447294 C25.7717793,9.47293245 25.0661827,9.2037796 24.7888439,9.14003364 C23.8550546,8.92540338 22.9046234,8.75778053 21.9484555,8.70479394 C21.388304,8.67375283 20.8275881,8.69383678 20.2666588,8.72249158 C21.2117613,9.78072608 22.5792208,10.4457527 24.1002649,10.4457527 C25.0069105,10.4457527 25.858988,10.2094708 26.5995764,9.79447294 Z M8.72428264,14.8478591 C9.40789043,15.1812768 10.3720921,14.6108833 10.8778874,13.5738493 C11.3836826,12.5368154 11.2395371,11.4258447 10.5559293,11.0924269 C9.87232149,10.7590091 8.90811981,11.3294027 8.40232455,12.3664366 C7.8965293,13.4034706 8.04067485,14.5144413 8.72428264,14.8478591 Z" id="Shape" fill="#FAD939"></path>
                            <text id="COINS" font-family="Acme-Regular, Acme" font-size="7.84014499" font-weight="normal" fill="#FFFFFF">
                                <tspan x="11.2619527" y="22.2827263">COINS</tspan>
                            </text>
                        </g>
                        <g id="Balance-icon-Copy-3" transform="translate(147.014891, 0.000000)">
                            <path d="M51.7213985,18.935981 C54.8209078,20.1330411 58.8014966,21.7056641 59.4138475,21.5414634 C59.8484353,21.4249296 60.2673496,21.188098 60.5853882,20.8682927 C60.9034267,20.5484874 61.1389499,20.1272459 61.25484,19.6902439 C61.3698351,19.2566165 61.3227033,18.7874644 61.25484,18.3439024 C61.2091581,18.0453207 61.0867602,17.7537969 60.9201141,17.502439 C60.251716,16.4942724 56.8517225,15.2879375 57.0707662,15.1463415 C57.8475524,14.6442049 58.7893587,14.4460431 59.5812104,13.9682927 C60.1486711,13.6259249 61.7063426,11.5542259 62.4263806,11.7804878 C65.4112599,12.7184443 72.1259294,20.9285632 73.4723354,23.0560976 C74.2696018,24.3159046 75.0359365,26.5203729 75.4806908,27.9365854 C75.616132,28.3678651 75.2370447,29.0992414 75.6480537,29.2829268 C76.1040273,29.4867076 76.5877734,28.9108072 76.9869573,28.6097561 C77.4918895,28.2289532 77.9590036,27.779868 78.3258609,27.2634146 C78.8046238,26.5894232 79.1729323,25.8369105 79.4974016,25.0756098 C79.8326332,24.2890574 79.589084,20.7921918 79.9994904,21.204878 C82.827231,24.0483273 82.7931197,29.334754 79.9994904,32.1439024 C79.4943118,32.6518875 78.9530563,33.1462369 78.3258609,33.4902439 C77.7063615,33.8300298 76.600349,33.5133238 76.3175055,34.1634146 C75.6898096,35.6061184 76.2629203,37.3262768 75.9827796,38.8756098 C75.4821505,41.6443661 74.5194423,44.0487191 73.1376095,46.4487805 C73.0751077,46.5573378 72.3120491,47.7781465 71.9660688,48.3 C70.8620542,49.9652214 67.4031369,51.9584884 66.9451803,53.6853659 C65.6828877,58.4452591 69.4114139,64.8337649 64.602099,68.1585366 C64.2519915,68.4005726 63.8547703,68.6397164 63.4305583,68.6634146 C60.0702907,68.8511332 53.9545783,70.1699113 52.2172406,65.802439 C52.0463873,65.3729328 51.935246,64.9156409 51.8825147,64.4560976 C51.7672343,63.45145 52.5583965,61.9779832 51.7151518,61.4268293 C50.7961728,60.8261746 49.6128188,62.0667021 48.5352557,62.2682927 C47.2086955,62.5164656 45.8664333,62.7106149 44.5185449,62.7731707 C42.2336835,62.8792117 39.937045,62.9518499 37.6566639,62.7731707 C35.626759,62.6141176 33.6383819,61.4174834 31.6315977,61.7634146 C30.969484,61.8775504 31.7989606,63.1074227 31.7989606,63.7829268 C31.7989606,65.0805602 31.3997453,66.0485749 30.62742,67.1487805 C28.5252035,70.1434646 21.1025268,68.5923519 19.7488282,68.495122 C19.0407446,68.4442636 17.8433607,67.2198234 17.5731098,66.8121951 C15.3193082,63.4127123 17.0046892,58.4862372 16.7362951,55.0317073 C16.7055701,54.6362427 16.2204805,54.4208035 15.8994803,54.1902439 C13.4881163,52.4582728 10.4744319,49.5067019 9.03759934,46.6170732 C8.30044201,45.1345684 8.12433737,43.3119947 7.02924393,42.0731707 C6.58448436,41.5700367 5.68782358,42.1314873 5.02088852,42.0731707 C4.39950847,42.0188375 3.75664081,41.9753878 3.17989606,41.7365854 C-1.03448885,39.9916103 0.0884874669,33.9274643 0.334725901,30.4609756 C0.373872211,29.9098828 0.666851328,29.3824561 1.0041777,28.9463415 C1.65058643,28.1106276 2.85240681,27.0619183 4.01671082,26.9268293 C5.01426992,26.8110869 6.26681538,27.5839698 7.02924393,26.9268293 C8.13052962,25.9776262 8.07520615,24.2027092 8.70287344,22.8878049 C9.98435338,20.203224 13.248956,16.8963458 15.2300285,14.9780488 C15.2729654,14.9364725 16.7293619,14.0484667 16.7362951,13.9682927 C16.948941,11.5092793 16.152409,8.96086068 16.7362951,6.56341463 C16.9831072,5.54999979 19.8796655,5.45114799 20.4182799,5.72195122 L21.2550946,5.72195122 C21.5099204,5.52265241 21.8247351,5.64135364 22.0919095,5.72195122 C22.9551764,5.98236996 23.8480122,6.23574407 24.6023538,6.73170732 C25.3287196,7.2092772 25.5756904,8.56436351 26.4433462,8.58292683 C28.5272732,8.62751201 30.392574,6.71023908 32.4684124,6.9 C33.364267,6.98189375 33.2550465,8.54209218 33.807316,9.25609756 C34.4370002,10.070189 35.3113092,10.6645292 35.9830344,11.4439024 C36.0561085,11.5286871 36.0849932,11.7349211 35.9830344,11.7804878 C34.5893428,12.4033473 32.8105811,12.6543824 33.3052272,14.8097561 C33.4007624,15.2260416 33.5353234,15.6596005 33.807316,15.9878049 C34.1145428,16.358525 34.5431238,16.6270436 34.9788567,16.8292683 C35.2869664,16.9722627 35.6436914,16.997561 35.9830344,16.997561 C37.1244202,16.997561 38.2661334,16.9214512 39.4073921,16.8634837 C37.7991273,15.0729944 36.8198492,12.7002743 36.8198492,10.097561 C36.8198492,4.52083204 41.3157059,0 46.8616262,0 C52.4075465,0 56.9034032,4.52083204 56.9034032,10.097561 C56.9034032,13.9015746 54.8115197,17.2142884 51.7213985,18.935981 Z M51.7213985,18.935981 C50.1117932,18.3143361 48.7397997,17.7939739 48.2005298,17.6707317 C46.3848283,17.2557799 44.5367677,16.931709 42.6775524,16.8292683 C41.5883689,16.7692555 40.498088,16.8080844 39.4073921,16.8634837 C41.2450914,18.9094038 43.9040405,20.195122 46.8616262,20.195122 C48.6245482,20.195122 50.2813655,19.7383102 51.7213985,18.935981 Z M16.9740587,28.7058608 C18.3032961,29.3541732 20.1735768,28.2544155 21.1514477,26.2494832 C22.1293185,24.2445509 21.8444796,22.0936711 20.5152422,21.4453587 C19.1860049,20.7970463 17.3157241,21.896804 16.3378533,23.9017363 C15.3599825,25.9066686 15.6448213,28.0575484 16.9740587,28.7058608 Z" id="Shape" fill="#0E9947"></path>
                            <text id="COINS" font-family="Acme-Regular, Acme" font-size="15.1576136" font-weight="normal" fill="#FFFFFF">
                                <tspan x="21.8982413" y="42.6132708">COINS</tspan>
                            </text>
                        </g>
                        <g id="Balance-icon-Copy-3" transform="translate(83.717687, 21.413793)">
                            <path d="M35.4661018,13.0592973 C37.5914796,13.8848559 40.3210262,14.9694235 40.740924,14.8561817 C41.038927,14.7758135 41.3261826,14.6124814 41.5442662,14.391926 C41.7623497,14.1713706 41.9238514,13.8808592 42.0033188,13.5794786 C42.0821726,13.2804252 42.0498537,12.956872 42.0033188,12.6509672 C41.9719941,12.4450487 41.8880642,12.2439979 41.7737925,12.0706476 C41.3154624,11.3753603 38.9840383,10.5434052 39.1342397,10.4457527 C39.6668931,10.0994516 40.3127031,9.96278833 40.8556872,9.6333053 C41.2448031,9.39718956 42.3129206,7.96843169 42.806661,8.12447435 C44.8534354,8.77134092 49.4577801,14.4334918 50.38103,15.9007569 C50.9277269,16.7695894 51.4532136,18.2899123 51.758188,19.2666106 C51.8510619,19.5640449 51.5911163,20.0684423 51.8729511,20.195122 C52.1856187,20.3356604 52.5173303,19.9384877 52.7910564,19.7308663 C53.1372957,19.4682436 53.4576025,19.1585297 53.7091618,18.8023549 C54.0374563,18.3375332 54.2900107,17.818559 54.5125039,17.293524 C54.742377,16.751074 54.5753719,14.3394426 54.8567934,14.6240538 C56.7958156,16.5850533 56.772425,20.2308648 54.8567934,22.1682086 C54.5103852,22.5185431 54.1392386,22.8594737 53.7091618,23.0967199 C53.2843622,23.3310551 52.5259536,23.1126371 52.3320038,23.5609756 C51.9015837,24.5559437 52.2945739,25.7422598 52.1024775,26.8107653 C51.7591889,28.7202525 51.0990462,30.378427 50.1515036,32.0336417 C50.1086453,32.1085088 49.5854051,32.9504459 49.3481615,33.3103448 C48.5911229,34.4587734 46.2192939,35.8334403 45.9052665,37.0243902 C45.0396944,40.3070752 47.5963981,44.7129413 44.2985822,47.0058873 C44.0585085,47.1728087 43.7861282,47.3377354 43.49524,47.3540791 C41.1910565,47.4835402 36.9974251,48.3930423 35.8061079,45.3809924 C35.6889513,45.0847813 35.6127401,44.7694075 35.5765815,44.4524811 C35.4975321,43.7596207 36.0400433,42.7434367 35.4618184,42.3633305 C34.8316613,41.9490859 34.0202186,42.8046222 33.2813182,42.9436501 C32.3716769,43.1148039 31.4512685,43.2486999 30.5270022,43.2918419 C28.9602401,43.3649736 27.3854023,43.4150689 25.8217124,43.2918419 C24.4297776,43.1821501 23.066319,42.3568851 21.6902384,42.5954584 C21.2362176,42.6741727 21.8050016,43.5223605 21.8050016,43.9882254 C21.8050016,44.883145 21.5312539,45.5507413 21.0016594,46.3095038 C19.5601396,48.3748032 14.4703041,47.3050702 13.5420536,47.2380151 C13.0565106,47.2029404 12.2354474,46.3584989 12.0501325,46.0773759 C10.5046685,43.7329051 11.6603583,40.335336 11.4763166,37.9529016 C11.4552481,37.6801674 11.1226152,37.5315886 10.9025008,37.372582 C9.24899406,36.1781192 7.18246756,34.1425531 6.19721097,32.1497056 C5.69173166,31.1272886 5.5709742,29.8703412 4.82005298,29.0159798 C4.51507499,28.6689908 3.90022188,29.0561981 3.44289499,29.0159798 C3.01680581,28.9785086 2.57598227,28.9485433 2.18050016,28.783852 C-0.709363781,27.5804209 0.0606771201,23.3982512 0.229526332,21.0075694 C0.256369516,20.6275054 0.457269482,20.2637628 0.688578997,19.9629941 C1.1318307,19.3866397 1.9559361,18.663392 2.75431599,18.5702271 C3.43835652,18.4904047 4.29724483,19.0234275 4.82005298,18.5702271 C5.57522031,17.9156043 5.53728422,16.6915236 5.96768464,15.784693 C6.84641374,13.933258 9.08499842,11.6526523 10.4434481,10.3296888 C10.4728906,10.3010155 11.4715625,9.6885977 11.4763166,9.6333053 C11.622131,7.93743402 11.0759376,6.17990392 11.4763166,4.52649285 C11.6455592,3.82758606 13.6317707,3.7594124 14.0011062,3.94617325 L14.574922,3.94617325 C14.7496597,3.8087258 14.9655326,3.89058872 15.1487379,3.94617325 C15.7406924,4.12577239 16.3529227,4.30051315 16.8701854,4.64255677 C17.3682649,4.97191531 17.5376163,5.9064576 18.1325803,5.91925988 C19.5615588,5.95000828 20.8406222,4.62775109 22.2640542,4.75862069 C22.8783545,4.81509914 22.8034604,5.89109805 23.1821596,6.38351556 C23.613943,6.9449579 24.2134691,7.35484774 24.6740807,7.89234651 C24.7241887,7.95081867 24.7439953,8.093049 24.6740807,8.12447435 C23.7184065,8.5540326 22.4986842,8.7271603 22.8378701,10.2136249 C22.9033799,10.5007184 22.9956503,10.7997245 23.1821596,11.0260723 C23.3928293,11.2817414 23.6867135,11.4669266 23.9855017,11.6063919 C24.1967769,11.7050088 24.4413884,11.7224558 24.6740807,11.7224558 C25.4567453,11.7224558 26.2396343,11.6699664 27.0222117,11.6299888 C25.9194016,10.3951685 25.2478966,8.75880986 25.2478966,6.96383516 C25.2478966,3.1178152 28.3307697,0 32.1336865,0 C35.9366033,0 39.0194765,3.1178152 39.0194765,6.96383516 C39.0194765,9.58729281 37.585042,11.871923 35.4661018,13.0592973 Z M35.4661018,13.0592973 C34.3623725,12.6305766 33.4215769,12.2717061 33.0517919,12.1867115 C31.8067394,11.9005378 30.5394978,11.6770407 29.2646074,11.6063919 C28.5177387,11.5650038 27.7701175,11.5917824 27.0222117,11.6299888 C28.2823484,13.0409681 30.1056278,13.9276703 32.1336865,13.9276703 C33.3425473,13.9276703 34.4786506,13.6126277 35.4661018,13.0592973 Z M11.6323769,19.7971454 C12.5438539,20.2417025 13.8294562,19.4811777 14.5038498,18.0984657 C15.1782435,16.7157538 14.9860494,15.2344596 14.0745724,14.7899025 C13.1630953,14.3453455 11.8774931,15.1058703 11.2030994,16.4885822 C10.5287057,17.8712941 10.7208998,19.3525883 11.6323769,19.7971454 Z" id="Shape" fill="#95BD39"></path>
                            <text id="COINS" font-family="Acme-Regular, Acme" font-size="10.4535267" font-weight="normal" fill="#FFFFFF">
                                <tspan x="15.0159369" y="29.0436351">COINS</tspan>
                            </text>
                        </g>
                        <g id="Balance-icon-Copy-3" transform="translate(0.148999, 45.206897)">
                            <path d="M17.7330509,6.52964863 C18.7957398,6.94242797 20.1605131,7.48471177 20.370462,7.42809083 C20.5194635,7.38790674 20.6630913,7.30624068 20.7721331,7.19596299 C20.8811749,7.0856853 20.9619257,6.94042961 21.0016594,6.78973928 C21.0410863,6.64021259 21.0249268,6.47843599 21.0016594,6.3254836 C20.9859971,6.22252437 20.9440321,6.12199894 20.8868962,6.0353238 C20.6577312,5.68768014 19.4920191,5.27170259 19.5671198,5.22287637 C19.8334465,5.04972581 20.1563515,4.98139417 20.4278436,4.81665265 C20.6224015,4.69859478 21.1564603,3.98421584 21.4033305,4.06223717 C22.4267177,4.38567046 24.7288901,7.21674592 25.190515,7.95037847 C25.4638635,8.38479468 25.7266068,9.14495617 25.879094,9.6333053 C25.925531,9.78202243 25.7955582,10.0342212 25.9364756,10.097561 C26.0928094,10.1678302 26.2586652,9.96924386 26.3955282,9.86543314 C26.5686478,9.7341218 26.7288012,9.57926484 26.8545809,9.40117746 C27.0187282,9.16876661 27.1450054,8.90927949 27.256252,8.64676198 C27.3711885,8.37553702 27.287686,7.1697213 27.4283967,7.31202691 C28.3979078,8.29252664 28.3862125,10.1154324 27.4283967,11.0841043 C27.2551926,11.2592715 27.0696193,11.4297368 26.8545809,11.54836 C26.6421811,11.6655275 26.2629768,11.5563186 26.1660019,11.7804878 C25.9507919,12.2779718 26.147287,12.8711299 26.0512387,13.4053827 C25.8795944,14.3601262 25.5495231,15.1892135 25.0757518,16.0168209 C25.0543226,16.0542544 24.7927026,16.4752229 24.6740807,16.6551724 C24.2955614,17.2293867 23.1096469,17.9167202 22.9526332,18.5121951 C22.5198472,20.1535376 23.7981991,22.3564706 22.1492911,23.5029437 C22.0292542,23.5864043 21.8930641,23.6688677 21.74762,23.6770395 C20.5955282,23.7417701 18.4987126,24.1965211 17.9030539,22.6904962 C17.8444756,22.5423906 17.8063701,22.3847038 17.7882908,22.2262405 C17.748766,21.8798104 18.0200216,21.3717183 17.7309092,21.1816653 C17.4158307,20.974543 17.0101093,21.4023111 16.6406591,21.4718251 C16.1858384,21.5574019 15.7256343,21.62435 15.2635011,21.6459209 C14.4801201,21.6824868 13.6927011,21.7075344 12.9108562,21.6459209 C12.2148888,21.591075 11.5331595,21.1784425 10.8451192,21.2977292 C10.6181088,21.3370863 10.9025008,21.7611803 10.9025008,21.9941127 C10.9025008,22.4415725 10.7656269,22.7753707 10.5008297,23.1547519 C9.78006978,24.1874016 7.23515206,23.6525351 6.77102681,23.6190076 C6.5282553,23.6014702 6.11772368,23.1792495 6.02506623,23.038688 C5.25233426,21.8664525 5.83017917,20.167668 5.73815831,18.9764508 C5.72762403,18.8400837 5.56130759,18.7657943 5.45125039,18.686291 C4.62449703,18.0890596 3.59123378,17.0712765 3.09860549,16.0748528 C2.84586583,15.5636443 2.7854871,14.9351706 2.41002649,14.5079899 C2.25753749,14.3344954 1.95011094,14.5280991 1.72144749,14.5079899 C1.5084029,14.4892543 1.28799113,14.4742716 1.09025008,14.391926 C-0.35468189,13.7902104 0.0303385601,11.6991256 0.114763166,10.5037847 C0.128184758,10.3137527 0.228634741,10.1318814 0.344289499,9.98149706 C0.565915348,9.69331987 0.977968048,9.33169598 1.37715799,9.28511354 C1.71917826,9.24520237 2.14862242,9.51171373 2.41002649,9.28511354 C2.78761015,8.95780215 2.76864211,8.34576181 2.98384232,7.89234651 C3.42320687,6.96662898 4.54249921,5.82632615 5.22172406,5.16484441 C5.23644528,5.15050774 5.73578123,4.84429885 5.73815831,4.81665265 C5.8110655,3.96871701 5.53796881,3.08995196 5.73815831,2.26324643 C5.82277962,1.91379303 6.81588533,1.8797062 7.00055311,1.97308663 L7.28746102,1.97308663 C7.37482984,1.9043629 7.48276632,1.94529436 7.57436897,1.97308663 C7.87034618,2.06288619 8.17646134,2.15025657 8.43509272,2.32127839 C8.68413245,2.48595765 8.76880814,2.9532288 9.06629013,2.95962994 C9.78077938,2.97500414 10.4203111,2.31387555 11.1320271,2.37931034 C11.4391773,2.40754957 11.4017302,2.94554903 11.5910798,3.19175778 C11.8069715,3.47247895 12.1067346,3.67742387 12.3370404,3.94617325 C12.3620943,3.97540933 12.3719977,4.0465245 12.3370404,4.06223717 C11.8592033,4.2770163 11.2493421,4.36358015 11.418935,5.10681245 C11.45169,5.25035919 11.4978252,5.39986226 11.5910798,5.51303616 C11.6964147,5.64087069 11.8433567,5.73346331 11.9927509,5.80319596 C12.0983885,5.85250439 12.2206942,5.86122792 12.3370404,5.86122792 C12.7283727,5.86122792 13.1198172,5.83498318 13.5111059,5.81499439 C12.9597008,5.19758426 12.6239483,4.37940493 12.6239483,3.48191758 C12.6239483,1.5589076 14.1653849,-5.63993297e-14 16.0668433,-5.63993297e-14 C17.9683017,-5.63993297e-14 19.5097383,1.5589076 19.5097383,3.48191758 C19.5097383,4.7936464 18.792521,5.93596152 17.7330509,6.52964863 Z M17.7330509,6.52964863 C17.1811862,6.3152883 16.7107885,6.13585307 16.5258959,6.09335576 C15.9033697,5.95026892 15.2697489,5.83852036 14.6323037,5.80319596 C14.2588693,5.78250188 13.8850587,5.79589119 13.5111059,5.81499439 C14.1411742,6.52048405 15.0528139,6.96383516 16.0668433,6.96383516 C16.6712737,6.96383516 17.2393253,6.80631385 17.7330509,6.52964863 Z M5.81618843,9.8985727 C6.27192696,10.1208512 6.91472808,9.74058884 7.25192491,9.04923287 C7.58912175,8.3578769 7.49302472,7.6172298 7.03728619,7.39495127 C6.58154766,7.17267274 5.93874654,7.55293513 5.6015497,8.2442911 C5.26435287,8.93564707 5.3604499,9.67629417 5.81618843,9.8985727 Z" id="Shape" fill="#F1963B"></path>
                            <text id="COINS" font-family="Acme-Regular, Acme" font-size="5.22676333" font-weight="normal" fill="#FFFFFF">
                                <tspan x="7.50796844" y="14.5218175">COINS</tspan>
                            </text>
                        </g>
                    </g>
                </g>
            </g>
        </g>
    </g>
</svg>