<?xml version="1.0" encoding="UTF-8"?>
<svg width="101px" height="105px" viewBox="0 0 101 105" version="1.1" xmlns="http://www.w3.org/2000/svg" xmlns:xlink="http://www.w3.org/1999/xlink">
    <!-- Generator: Sketch 39.1 (31720) - http://www.bohemiancoding.com/sketch -->
    <title>callburn icon copy</title>
    <desc>Created with Sketch.</desc>
    <defs></defs>
    <g id="Page-1" stroke="none" stroke-width="1" fill="none" fill-rule="evenodd">
        <g id="Registration" transform="translate(-432.000000, -318.000000)">
            <g id="Email" transform="translate(107.000000, 104.000000)">
                <g id="Header" transform="translate(45.000000, 90.000000)">
                    <g id="callburn-icon-copy" transform="translate(280.000000, 124.000000)">
                        <path d="M79.1930102,47.360766 C76.9217412,47.4087773 74.7341505,47.6418081 72.6302381,48.0633712 C70.5263257,48.4849344 68.4941376,49.0950299 66.5336739,49.8901448 C64.5732101,50.6864308 62.8159651,51.7696139 61.2619389,53.1396941 C59.7079127,54.5097743 58.512508,56.0964911 57.6757246,57.8998446 C57.8191732,54.8083815 58.3092892,52.0155257 59.1472679,49.5212771 C59.9828558,47.0270285 61.2200997,44.7669816 62.8578042,42.7411365 C64.4955088,40.7152914 66.6950535,39.0992993 69.4576339,37.8931603 C72.2178235,36.6870213 75.4633474,35.9914421 79.1930102,35.8029097 L79.1930102,26.2826087 L100.710296,42.1966174 L79.1930102,57.9349749 L79.1930102,47.360766 Z" id="Fill-97-Copy-3" fill="#23BEFF"></path>
                        <path d="M8.37716057,10.9519885 L12.1026016,9.10059169 C14.3830067,7.96756594 17.0905382,8.96692011 18.2864919,11.2329716 L21.9139187,18.1084192 C23.1098725,20.3744707 22.0847692,23.228859 19.8043641,24.3618848 L16.0789231,26.2132816 C13.7994172,27.345398 11.0909865,26.3478625 9.89503275,24.0809017 L6.267606,17.2063634 C5.07165222,14.9384932 6.09585625,12.0859236 8.37716057,10.9519885 L8.37716057,10.9519885 L8.37716057,10.9519885 Z" id="Shape" fill="#23BEFF"></path>
                        <path d="M61.339929,80.9804365 C56.2593735,82.299875 47.6592968,84.1503624 42.7280106,84.7559765 C28.6724064,86.4873417 25.1313041,81.1768518 22.4777255,59.1337722 C19.6793735,35.8849203 23.0739039,30.944528 35.5810627,29.4050315 C40.4592953,28.8039641 49.2814777,28.5284369 55.0355441,28.6102767 L53.4106655,15.1149033 C47.8427363,14.5820357 38.8533002,14.0882693 31.4293946,15.001237 C7.36734396,17.9629263 1.82189509,30.1370425 5.56352193,61.2152296 C9.01470286,89.883691 16.6238464,102.88257 41.638164,99.803577 C48.229398,98.9915449 57.3276389,96.6063711 62.9989777,94.7667955 L61.339929,80.9804365 L61.339929,80.9804365 Z" id="Shape" fill="#23BEFF"></path>
                        <path d="M31.915869,34.004425 L48.8660411,31.9175116 C50.3830141,31.7301895 51.7740972,32.832298 51.9593351,34.3663385 L54.09137,52.0791865 C54.2757088,53.613227 53.1858621,55.0199612 51.6697884,55.2072833 L34.7196163,57.2932873 C33.2026434,57.4806094 31.8115603,56.3785009 31.6272215,54.8444604 L29.4942874,37.1316124 C29.3099487,35.5984813 30.3988961,34.1908377 31.915869,34.004425 L31.915869,34.004425 L31.915869,34.004425 Z" id="Shape" fill="#23BEFF"></path>
                        <path d="M33.8590691,60.4604853 L36.5423218,60.1303984 C37.3642029,60.0294627 38.1177437,60.6259835 38.2184556,61.4571115 L38.5592574,64.2878572 C38.6590701,65.1180759 38.0691861,65.8810042 37.2473051,65.9819399 L34.5640524,66.3120268 C33.7421714,66.4129625 32.9886306,65.8164417 32.8888179,64.9853137 L32.548016,62.154568 C32.4473041,61.3243493 33.0371881,60.561421 33.8590691,60.4604853 L33.8590691,60.4604853 L33.8590691,60.4604853 Z" id="Shape" fill="#23BEFF"></path>
                        <path d="M42.2163582,59.4320326 L44.8996109,59.1019456 C45.7214919,59.0010099 46.4750327,59.5975307 46.5748454,60.4286588 L46.9156473,63.2594045 C47.01546,64.0905325 46.425576,64.8525514 45.603695,64.9534871 L42.9204423,65.2835741 C42.0985613,65.3845098 41.3450205,64.787989 41.2452078,63.9568609 L40.9044059,61.1261152 C40.803694,60.2958965 41.3944772,59.5329683 42.2163582,59.4320326 L42.2163582,59.4320326 L42.2163582,59.4320326 Z" id="Shape" fill="#23BEFF"></path>
                        <path d="M50.5736473,58.4026705 L53.2569,58.0725835 C54.078781,57.9716479 54.8323218,58.5681686 54.9321345,59.3992967 L55.338579,62.773822 C55.4024231,63.304871 55.0247535,63.7931815 54.4987137,63.8586533 L51.2777314,64.2551213 C50.4558503,64.356057 49.7023095,63.7595362 49.6024969,62.9284082 L49.261695,60.0976625 C49.1609831,59.2665344 49.7517663,58.5045155 50.5736473,58.4026705 L50.5736473,58.4026705 L50.5736473,58.4026705 Z" id="Shape" fill="#23BEFF"></path>
                        <path d="M34.8257235,68.486236 L37.508077,68.1552397 C38.329958,68.0552133 39.0834988,68.6517341 39.1842107,69.4828621 L39.5250126,72.3117892 C39.6248253,73.1447359 39.0349413,73.9067548 38.2130603,74.0076905 L35.5298076,74.3377775 C34.7079266,74.4387131 33.9543857,73.8421924 33.8545731,73.0110643 L33.5137712,70.1803186 C33.4130593,69.3491906 34.0029433,68.5862623 34.8257235,68.486236 L34.8257235,68.486236 L34.8257235,68.486236 Z" id="Shape" fill="#23BEFF"></path>
                        <path d="M43.1821134,67.4559645 L45.8653661,67.1258776 C46.6872471,67.0258512 47.4407879,67.622372 47.5406006,68.4525907 L47.8814025,71.2833364 C47.9812151,72.1144645 47.3913312,72.8764834 46.5694502,72.9774191 L43.8870967,73.307506 C43.0643164,73.4084417 42.3116748,72.8119209 42.2109629,71.9807929 L41.8701611,69.1509565 C41.7703484,68.3198285 42.3602324,67.5569002 43.1821134,67.4559645 L43.1821134,67.4559645 L43.1821134,67.4559645 Z" id="Shape" fill="#23BEFF"></path>
                        <path d="M51.5394025,66.4275118 L54.2226552,66.0974248 C55.0445362,65.9964892 55.798077,66.5930099 55.8978897,67.424138 L56.2386915,70.2548837 C56.3394034,71.0860117 55.7486203,71.8480307 54.9267392,71.9489663 L52.2443857,72.2790533 C51.4225047,72.379989 50.6689639,71.7834682 50.568252,70.9523402 L50.2274502,68.1215944 C50.1276375,67.2904664 50.7175214,66.5284475 51.5394025,66.4275118 L51.5394025,66.4275118 L51.5394025,66.4275118 Z" id="Shape" fill="#23BEFF"></path>
                        <path d="M35.7914787,76.5101679 L38.4747314,76.180081 C39.2966124,76.0791453 40.0501532,76.6756661 40.1499659,77.5067941 L40.4907678,80.3375398 C40.5905804,81.1686679 40.0006965,81.9306868 39.1788154,82.0316225 L36.4955627,82.3617094 C35.6736817,82.4626451 34.9201409,81.8661243 34.8203282,81.0349963 L34.4795264,78.2042506 C34.3788145,77.3731225 34.9695976,76.6111036 35.7914787,76.5101679 L35.7914787,76.5101679 L35.7914787,76.5101679 Z" id="Shape" fill="#23BEFF"></path>
                        <path d="M44.1478685,75.4798965 L46.8311212,75.1498096 C47.6530023,75.0488739 48.4065431,75.6472133 48.5063558,76.4783414 L48.8471576,79.3072684 C48.9469703,80.1383965 48.3570863,80.902234 47.5352053,81.0013511 L44.8528518,81.331438 C44.0309708,81.4323737 43.27743,80.8358529 43.1767181,80.0047249 L42.8359162,77.1757978 C42.7361035,76.3446698 43.3259875,75.5808322 44.1478685,75.4798965 L44.1478685,75.4798965 L44.1478685,75.4798965 Z" id="Shape" fill="#23BEFF"></path>
                        <path d="M52.5051576,74.4514438 L55.1884103,74.1213568 C56.0102914,74.0204211 56.7638322,74.6169419 56.8636448,75.4480699 L57.2044467,78.2788157 C57.3042594,79.1099437 56.7143754,79.8719626 55.8924944,79.9728983 L53.2092417,80.3029853 C52.3873607,80.4039209 51.6338199,79.8074002 51.533108,78.9762721 L51.1923061,76.1455264 C51.0933926,75.3143984 51.6841758,74.5532888 52.5051576,74.4514438 L52.5051576,74.4514438 L52.5051576,74.4514438 Z" id="Shape" fill="#23BEFF"></path>
                        <path d="M47.744722,3.15357049 C54.0266267,1.08757169 63.5223199,6.9127426 63.2030991,14.7338939 C59.8274521,6.51627452 54.4996129,4.35206803 47.744722,3.15357049 L47.744722,3.15357049 L47.744722,3.15357049 Z" id="Shape" fill="#23BEFF"></path>
                        <path d="M53.349519,0.474682956 C57.9912584,-1.05208288 64.9511699,3.25177818 64.715576,9.03057324 C62.2211581,2.9598831 58.3410524,1.35855216 53.349519,0.474682956 L53.349519,0.474682956 L53.349519,0.474682956 Z" id="Shape" fill="#23BEFF"></path>
                        <path d="M14.6554683,102.336972 C9.27097867,104.109257 1.13219843,99.1152138 1.40645851,92.412539 C4.29922793,99.4562127 8.86453422,101.310338 14.6554683,102.336972 L14.6554683,102.336972 L14.6554683,102.336972 Z" id="Shape" fill="#23BEFF"></path>
                        <path d="M9.85097129,104.63394 C5.87285133,105.942467 -0.0925301825,102.254223 0.109792826,97.3029182 C2.24812223,102.504288 5.57341328,103.877377 9.85097129,104.63394 L9.85097129,104.63394 L9.85097129,104.63394 Z" id="Shape" fill="#23BEFF"></path>
                        <path d="M1.77063993,7.0709661 C1.77063993,7.0709661 2.12043393,4.20111918 5.21552636,2.17513091 C8.18742655,0.229163732 12.4874649,1.06847575 12.4874649,1.06847575" id="Shape" stroke="#23BEFF" stroke-width="1.5"></path>
                        <path d="M4.18143098,7.68203617 C4.18143098,7.68203617 4.74973383,5.65241059 6.72620482,4.51029153 C9.08663993,3.14629584 11.9344487,3.91468008 11.9344487,3.91468008" id="Shape" stroke="#23BEFF" stroke-width="1.5"></path>
                        <path d="M6.73339853,8.45951371 C6.73339853,8.45951371 6.98787591,7.50289807 8.03725792,6.70723392 C9.08663993,5.91156977 11.0280416,6.33440843 11.0280416,6.33440843" id="Shape" stroke="#23BEFF" stroke-width="1.5"></path>
                    </g>
                </g>
            </g>
        </g>
    </g>
</svg>