<?xml version="1.0" encoding="UTF-8"?>
<svg width="171px" height="47px" viewBox="0 0 171 47" version="1.1" xmlns="http://www.w3.org/2000/svg" xmlns:xlink="http://www.w3.org/1999/xlink">
    <!-- Generator: Sketch 39.1 (31720) - http://www.bohemiancoding.com/sketch -->
    <title>Call_Burn LOGO</title>
    <desc>Created with Sketch.</desc>
    <defs>
        <linearGradient x1="4.24998921%" y1="50.0619108%" x2="103.198466%" y2="49.5635078%" id="linearGradient-1">
            <stop stop-color="#F0BAA2" offset="0%"></stop>
            <stop stop-color="#F5CFAC" offset="39.85%"></stop>
            <stop stop-color="#F8DDB2" offset="75.52%"></stop>
            <stop stop-color="#F9E2B5" offset="100%"></stop>
        </linearGradient>
        <linearGradient x1="65.6957268%" y1="104.494064%" x2="36.002619%" y2="-4.66733375%" id="linearGradient-2">
            <stop stop-color="#F0BAA2" offset="0%"></stop>
            <stop stop-color="#F5CFAC" offset="39.85%"></stop>
            <stop stop-color="#F8DDB2" offset="75.52%"></stop>
            <stop stop-color="#F9E2B5" offset="100%"></stop>
        </linearGradient>
        <linearGradient x1="49.999845%" y1="100.000325%" x2="49.999845%" y2="0.00113782286%" id="linearGradient-3">
            <stop stop-color="#F0BAA2" offset="0%"></stop>
            <stop stop-color="#F1C0A4" offset="8.45%"></stop>
            <stop stop-color="#F6D6AB" offset="46.27%"></stop>
            <stop stop-color="#F9E3AE" offset="78.14%"></stop>
            <stop stop-color="#FAE7AF" offset="100%"></stop>
        </linearGradient>
        <linearGradient x1="5.53421183%" y1="92.6961048%" x2="99.9681373%" y2="0.043853771%" id="linearGradient-4">
            <stop stop-color="#F0BAA2" offset="0%"></stop>
            <stop stop-color="#F5CFAC" offset="39.85%"></stop>
            <stop stop-color="#F8DDB2" offset="75.52%"></stop>
            <stop stop-color="#F9E2B5" offset="100%"></stop>
        </linearGradient>
        <linearGradient x1="49.9999972%" y1="-0.000522115834%" x2="49.9999972%" y2="99.9994882%" id="linearGradient-5">
            <stop stop-color="#D11A1C" offset="0%"></stop>
            <stop stop-color="#FFE500" offset="100%"></stop>
        </linearGradient>
        <linearGradient x1="50.0001804%" y1="99.9998541%" x2="50.0001804%" y2="0.000583600817%" id="linearGradient-6">
            <stop stop-color="#FFE900" offset="0%"></stop>
            <stop stop-color="#DC5F13" offset="100%"></stop>
        </linearGradient>
        <linearGradient x1="50.0032353%" y1="99.9993339%" x2="50.0032353%" y2="-0.00049960864%" id="linearGradient-7">
            <stop stop-color="#EC9500" offset="0%"></stop>
            <stop stop-color="#E8810B" offset="6.37%"></stop>
            <stop stop-color="#E26614" offset="16.27%"></stop>
            <stop stop-color="#DE4F18" offset="27.14%"></stop>
            <stop stop-color="#DC3A1A" offset="39.14%"></stop>
            <stop stop-color="#DA281B" offset="52.88%"></stop>
            <stop stop-color="#D9191B" offset="69.89%"></stop>
            <stop stop-color="#D9121B" offset="100%"></stop>
        </linearGradient>
        <linearGradient x1="50.0002741%" y1="100.000359%" x2="50.0002741%" y2="0.000449155587%" id="linearGradient-8">
            <stop stop-color="#E42E18" offset="0%"></stop>
            <stop stop-color="#FDD403" offset="100%"></stop>
        </linearGradient>
        <linearGradient x1="-0.000954889317%" y1="49.999905%" x2="99.9994483%" y2="49.999905%" id="linearGradient-9">
            <stop stop-color="#E42E18" offset="0%"></stop>
            <stop stop-color="#FDD403" offset="100%"></stop>
        </linearGradient>
        <linearGradient x1="100.000657%" y1="49.9998465%" x2="-0.00347230841%" y2="49.9998465%" id="linearGradient-10">
            <stop stop-color="#CB2F21" offset="0%"></stop>
            <stop stop-color="#CC3721" offset="9.55%"></stop>
            <stop stop-color="#CF4C21" offset="23.88%"></stop>
            <stop stop-color="#D56920" offset="41.2%"></stop>
            <stop stop-color="#DE8F1C" offset="60.85%"></stop>
            <stop stop-color="#EABA0F" offset="82.18%"></stop>
            <stop stop-color="#F5DE00" offset="100%"></stop>
        </linearGradient>
        <linearGradient x1="-14.0292303%" y1="40.4436359%" x2="128.839768%" y2="57.5183851%" id="linearGradient-11">
            <stop stop-color="#EEAB0C" offset="0%"></stop>
            <stop stop-color="#EA8912" offset="21.99%"></stop>
            <stop stop-color="#E66415" offset="46.63%"></stop>
            <stop stop-color="#E54517" offset="68.74%"></stop>
            <stop stop-color="#E42D18" offset="87.28%"></stop>
            <stop stop-color="#E32119" offset="100%"></stop>
        </linearGradient>
    </defs>
    <g id="Page-1" stroke="none" stroke-width="1" fill="none" fill-rule="evenodd">
        <g id="Amount-Recharged" transform="translate(-397.000000, -126.000000)">
            <g id="Email" transform="translate(107.000000, 104.000000)">
                <g id="Call_Burn-LOGO" transform="translate(290.000000, 22.000000)">
                    <path d="M104.756416,17.0884231 C104.709504,15.234669 104.425387,13.3162802 103.70469,11.779198 C103.70469,11.779198 104.007345,14.3630566 103.865097,17.4387509 L104.756416,17.0884231 L104.756416,17.0884231 Z" id="Shape" fill="url(#linearGradient-1)"></path>
                    <path d="M108.88879,17.4708771 C108.753352,14.6789635 107.39254,11.7856997 104.432954,10.4111603 C103.61919,10.0321485 104.003562,10.3427011 104.003562,10.3427011 C105.282657,13.4268094 105.485436,15.2124867 105.282279,16.8623929 L108.88879,17.4708771 L108.88879,17.4708771 Z" id="Shape" fill="url(#linearGradient-2)"></path>
                    <path d="M102.76873,7.00885035 C102.76873,7.00885035 108.574407,10.8769892 108.136314,17.6617216 C108.136314,17.6617216 107.474257,22.8248493 105.37421,25.3157716 C103.300268,27.7760976 100.21508,30.5377973 100.21508,30.5377973 C100.21508,30.5377973 98.3756947,27.478931 101.82142,20.6127359 C105.267146,13.7465409 102.76873,7.00885035 102.76873,7.00885035 L102.76873,7.00885035 Z" id="Shape" fill="url(#linearGradient-3)" opacity="0.6"></path>
                    <path d="M102.736951,6.75413605 C102.736951,6.75413605 108.542628,10.6222749 108.104535,17.4070072 C108.104535,17.4070072 107.631637,22.8252318 105.342431,25.0610573 C103.043011,27.3072092 100.183301,30.2827006 100.183301,30.2827006 C100.183301,30.2827006 98.3439159,27.2238342 101.789642,20.3576392 C105.235367,13.4914441 102.736951,6.75413605 102.736951,6.75413605 L102.736951,6.75413605 Z" id="Shape"></path>
                    <path d="M107.886246,2.95598627 C109.549712,5.61251113 112.738938,8.00476033 108.622454,18.127168 L106.671086,17.6487181 C110.431195,7.18363179 107.886246,2.95598627 107.886246,2.95598627 L107.886246,2.95598627 L107.886246,2.95598627 Z" id="Shape" fill="#FDF3DA"></path>
                    <path d="M107.91008,3.89261589 C109.387035,6.65928748 112.053046,8.19598729 107.465177,17.6093254 L105.551263,16.9958693 C110.019584,6.81915321 107.91008,3.89261589 107.91008,3.89261589 L107.91008,3.89261589 L107.91008,3.89261589 Z" id="Shape" fill="#FACCB0"></path>
                    <path d="M124.023803,28.9800626 C123.763898,26.7480615 122.490856,26.0481709 119.522569,23.798577 C118.736044,23.2015664 118.011942,22.4064448 117.42744,21.4854957 L120.914403,20.064297 C121.610131,20.8334118 122.074706,21.433482 122.971699,22.5739596 C125.733046,26.088711 124.023803,28.9800626 124.023803,28.9800626 L124.023803,28.9800626 L124.023803,28.9800626 Z" id="Shape" fill="#FEF5DD"></path>
                    <path d="M116.45781,19.6554538 C115.486666,17.4724069 115.342148,14.8617765 116.816077,12.4783237 C117.291246,11.7103563 117.137648,12.1830693 117.137648,12.1830693 C117.677131,15.1099891 118.438308,17.189391 119.337192,18.3971804 L116.45781,19.6554538 L116.45781,19.6554538 Z" id="Shape" fill="#FDF3DA"></path>
                    <path d="M122.102701,21.2315463 C120.116529,18.7455959 119.519164,17.9504743 118.602876,14.3156323 C117.685832,10.6811728 119.424584,5.40369129 124.154323,4.12285315 C125.019538,3.88764399 124.588633,4.12858996 124.588633,4.12858996 C121.186792,9.5426075 122.481777,10.9209714 122.451889,15.5490462 C122.423137,20.0375252 122.134102,21.5822566 122.134102,21.5822566 L122.102701,21.2315463 L122.102701,21.2315463 Z" id="Shape" fill="url(#linearGradient-4)"></path>
                    <g id="Group" transform="translate(0.000000, 1.912270)" fill="#23BEFF">
                        <path d="M48.0555398,24.4973203 C48.0555398,18.5260674 45.4303872,15.9230861 38.8669381,15.9230861 C34.0202987,15.9230861 28.6182876,17.4031827 28.6182876,17.4031827 L28.8203097,22.1498182 C28.8203097,22.1498182 34.9797146,21.7413574 38.3115664,21.7413574 C40.331031,21.7413574 41.2904469,22.3027997 41.2904469,24.4973203 L41.2904469,26.0795321 L35.8884358,26.4876104 C30.3350973,26.8956887 27.0531836,28.5291494 27.0531836,34.2961719 C27.0531836,39.7063649 29.5773252,42.6661757 34.8787035,42.6661757 C38.6649159,42.6661757 42.3001792,40.880116 42.3001792,40.880116 C44.4202765,42.3089638 46.1370863,42.6661757 49.5196327,42.6661757 L49.7216549,37.5118444 C48.358573,37.2563652 48.1565509,36.643674 48.0555398,35.112711 L48.0555398,24.4973203 L48.0555398,24.4973203 L48.0555398,24.4973203 Z M41.2904469,30.8257851 L41.2904469,36.2868445 C41.2904469,36.2868445 38.5135885,37.1033836 36.3427965,37.1033836 C34.525354,37.1033836 33.8689712,35.8783837 33.8689712,34.092324 C33.8689712,32.2546329 34.9290199,31.3876099 36.696146,31.2342459 L41.2904469,30.8257851 L41.2904469,30.8257851 Z" id="Shape"></path>
                        <polygon id="Shape" points="52.137219 42.6669406 58.9023119 42.6669406 58.9023119 6.9403911 52.137219 6.9403911"></polygon>
                        <path d="M69.253865,42.6669406 L69.253865,6.9403911 L62.4887721,6.9403911 L62.4887721,19.254436 L62.4887721,42.6669406 L69.253865,42.6669406 Z" id="Shape"></path>
                        <path d="M3.83161062,4.75428455 L5.39898451,3.97560839 C6.35840044,3.49907082 7.4975177,3.91938767 8.00068142,4.87246281 L9.52681858,7.76419682 C10.0299823,8.71727196 9.59869912,9.91779479 8.63928319,10.3943324 L7.07190929,11.1730085 C6.11287168,11.6491636 4.97337611,11.2296117 4.47021239,10.2761541 L2.94407522,7.38480254 C2.4409115,6.43096249 2.87181637,5.23120458 3.83161062,4.75428455 L3.83161062,4.75428455 L3.83161062,4.75428455 Z" id="Shape"></path>
                        <path d="M26.1141969,34.2074426 C23.9766969,34.7623832 20.358458,35.5406769 18.2837588,35.7953912 C12.3702611,36.5235835 10.8804425,34.2900526 9.76402434,25.0189874 C8.5866969,15.2407883 10.0148496,13.1629162 15.2768827,12.5154217 C17.3292611,12.2626197 21.0409447,12.1467362 23.4618053,12.181157 L22.7781836,6.50515855 C20.435635,6.28104056 16.6535841,6.07336809 13.5301858,6.45735181 C3.40675885,7.7030042 1.07366814,12.8232971 2.64785177,25.8944244 C4.0998385,37.9520488 7.30117035,43.4192275 17.8252367,42.1242385 C20.5983119,41.7827072 24.4261394,40.7795306 26.8121947,40.0058263 L26.1141969,34.2074426 L26.1141969,34.2074426 Z" id="Shape"></path>
                        <path d="M13.7348562,14.4498736 L20.8661615,13.5721419 C21.504385,13.4933564 22.0896438,13.9568905 22.1675774,14.6020903 L23.0645708,22.05191 C23.1421261,22.6971097 22.683604,23.2887659 22.0457588,23.3675514 L14.9144535,24.2449007 C14.2762301,24.3236862 13.6909712,23.8601521 13.6134159,23.2149523 L12.7160442,15.7651326 C12.6384889,15.1203153 13.0966327,14.5282767 13.7348562,14.4498736 L13.7348562,14.4498736 L13.7348562,14.4498736 Z" id="Shape"></path>
                        <path d="M14.5524027,25.5769877 L15.6813053,25.4381569 C16.0270885,25.3957045 16.3441195,25.6465943 16.3864912,25.9961572 L16.5298739,27.1867362 C16.5718673,27.5359166 16.3236903,27.8567954 15.9779071,27.8992478 L14.8490044,28.0380786 C14.5032212,28.080531 14.1861903,27.8296412 14.1441969,27.4800783 L14.0008142,26.2894993 C13.9584425,25.9403189 14.2066195,25.6194401 14.5524027,25.5769877 L14.5524027,25.5769877 L14.5524027,25.5769877 Z" id="Shape"></path>
                        <path d="M18.0684956,25.1444323 L19.1973982,25.0056015 C19.5431814,24.9631491 19.8602124,25.2140389 19.9022058,25.5636018 L20.0455885,26.7541808 C20.0875819,27.1037437 19.8394049,27.4242401 19.4936217,27.4666924 L18.364719,27.6055232 C18.0189358,27.6479756 17.7019049,27.3970858 17.6599115,27.0475229 L17.5165288,25.8569439 C17.4741571,25.5077635 17.7227124,25.1868847 18.0684956,25.1444323 L18.0684956,25.1444323 L18.0684956,25.1444323 Z" id="Shape"></path>
                        <path d="M21.5845885,24.7114945 L22.7134912,24.5726637 C23.0592743,24.5302113 23.3763053,24.7811011 23.4182987,25.130664 L23.5892987,26.5499504 C23.6161593,26.7733035 23.4572655,26.9786812 23.2359491,27.0062179 L21.8808119,27.1729678 C21.5350288,27.2154202 21.2179978,26.9645305 21.1760044,26.6149676 L21.0326217,25.4243886 C20.99025,25.0748257 21.2388053,24.7543293 21.5845885,24.7114945 L21.5845885,24.7114945 L21.5845885,24.7114945 Z" id="Shape"></path>
                        <path d="M14.9590951,28.9525259 L16.0876195,28.8133127 C16.4334027,28.7712427 16.7504336,29.0221325 16.7928053,29.3716954 L16.9361881,30.5615095 C16.9781814,30.9118373 16.7300044,31.2323336 16.3842212,31.274786 L15.2553186,31.4136168 C14.9095354,31.4560692 14.5925044,31.2051794 14.5505111,30.8556165 L14.4071283,29.6650375 C14.3647566,29.3154746 14.6129336,28.9945958 14.9590951,28.9525259 L14.9590951,28.9525259 L14.9590951,28.9525259 Z" id="Shape"></path>
                        <path d="M18.4748097,28.5192056 L19.6037124,28.3803748 C19.9494956,28.3383049 20.2665265,28.5891947 20.3085199,28.9383751 L20.4519027,30.1289541 C20.493896,30.478517 20.245719,30.7990134 19.8999358,30.8414657 L18.7714115,30.9802965 C18.42525,31.0227489 18.1085973,30.7718591 18.0662257,30.4222962 L17.9228429,29.2320997 C17.8808496,28.8825368 18.1290265,28.561658 18.4748097,28.5192056 L18.4748097,28.5192056 L18.4748097,28.5192056 Z" id="Shape"></path>
                        <path d="M21.9909027,28.0866502 L23.1198053,27.9478195 C23.4655885,27.9053671 23.7826195,28.1562568 23.8246128,28.5058197 L23.9679956,29.6963987 C24.0103673,30.0459616 23.7618119,30.366458 23.4160288,30.4089104 L22.2875044,30.5477411 C21.9417212,30.5901935 21.6246903,30.3393038 21.5823186,29.9897409 L21.4389358,28.7991619 C21.3969425,28.449599 21.6451195,28.1291026 21.9909027,28.0866502 L21.9909027,28.0866502 L21.9909027,28.0866502 Z" id="Shape"></path>
                        <path d="M15.3654093,32.3272992 L16.4943119,32.1884684 C16.8400951,32.146016 17.1571261,32.3969058 17.1991195,32.7464687 L17.3425022,33.9370477 C17.3844956,34.2866106 17.1363186,34.6071069 16.7905354,34.6495593 L15.6616327,34.7883901 C15.3158496,34.8308425 14.9988186,34.5799527 14.9568252,34.2303898 L14.8134425,33.0398108 C14.7710708,32.6902479 15.0196261,32.3697516 15.3654093,32.3272992 L15.3654093,32.3272992 L15.3654093,32.3272992 Z" id="Shape"></path>
                        <path d="M18.8811239,31.8939789 L20.0100265,31.7551481 C20.3558097,31.7126957 20.6728407,31.9643504 20.7148341,32.3139133 L20.8582168,33.5037274 C20.9002102,33.8532903 20.6520332,34.1745516 20.30625,34.216239 L19.1777257,34.3550698 C18.8319425,34.3975222 18.5149115,34.1466324 18.4725398,33.7970695 L18.3291571,32.6072554 C18.2871637,32.2576926 18.5353407,31.9364313 18.8811239,31.8939789 L18.8811239,31.8939789 L18.8811239,31.8939789 Z" id="Shape"></path>
                        <path d="M22.3972168,31.4614235 L23.5261195,31.3225928 C23.8719027,31.2801404 24.1889336,31.5310301 24.230927,31.880593 L24.3743097,33.071172 C24.4163031,33.4207349 24.1681261,33.7412313 23.8223429,33.7836837 L22.6934403,33.9225144 C22.3476571,33.9649668 22.0306261,33.7140771 21.9882544,33.3645142 L21.8448717,32.1739352 C21.8032566,31.8243723 22.0518119,31.5042584 22.3972168,31.4614235 L22.3972168,31.4614235 L22.3972168,31.4614235 Z" id="Shape"></path>
                        <path d="M20.3943982,1.47435982 C23.0373319,0.605424539 27.0323761,3.05542428 26.898073,6.34491036 C25.477865,2.88867438 23.2363274,1.97843408 20.3943982,1.47435982 L20.3943982,1.47435982 L20.3943982,1.47435982 Z" id="Shape"></path>
                        <path d="M22.752458,0.347650604 C24.7053385,-0.29448951 27.6335243,1.51566484 27.5344049,3.94615944 C26.4849491,1.39289714 24.8525044,0.719395804 22.752458,0.347650604 L22.752458,0.347650604 L22.752458,0.347650604 Z" id="Shape"></path>
                        <path d="M6.47303097,43.1897551 C4.20765929,43.9351578 0.783497788,41.8347209 0.898884956,39.0156531 C2.11593584,41.9781411 4.03665929,42.7579647 6.47303097,43.1897551 L6.47303097,43.1897551 L6.47303097,43.1897551 Z" id="Shape"></path>
                        <path d="M4.45167478,44.1558337 C2.77799336,44.7061849 0.268227876,43.1549518 0.353349558,41.0724903 C1.25299115,43.2601266 2.65201327,43.837632 4.45167478,44.1558337 L4.45167478,44.1558337 L4.45167478,44.1558337 Z" id="Shape"></path>
                    </g>
                    <path d="M75.9115155,8.52566256 L71.0834137,42.9966159 L84.6726173,44.9417765 C91.4918097,45.9174164 96.1727456,43.5366408 97.1385929,36.6429091 C97.7628186,32.1819667 96.5571173,29.8375242 93.8260354,28.1543446 C96.7750288,26.8180506 98.1051969,24.9914507 98.6518673,21.0885086 C99.5745863,14.4988277 96.1693407,11.4254281 89.2994535,10.4421391 L75.9115155,8.52566256 L75.9115155,8.52566256 Z M86.3379757,30.49458 C89.0959181,30.8892725 90.5656858,32.4439476 90.168073,35.2832854 C89.6929049,38.6790937 88.0177102,39.3185566 85.1595133,38.9097134 L78.8415929,38.0052099 L80.0200553,29.590459 L86.3379757,30.49458 L86.3379757,30.49458 Z M88.1107765,16.3732343 C90.7185265,16.7468918 91.9015288,18.1569994 91.5039159,20.9955723 C91.1210575,23.7331774 89.7186305,24.9799771 87.0110044,24.5925513 L80.8432765,23.7098477 L81.993365,15.4974149 L88.1107765,16.3732343 L88.1107765,16.3732343 Z" id="Shape" fill="url(#linearGradient-5)"></path>
                    <path d="M128.726303,44.6285467 L135.51296,44.6285467 L135.51296,27.4770187 C135.51296,27.4770187 139.1085,26.1969455 143.564715,25.3264804 L143.564715,18.4151558 C139.715701,19.1831232 135.461887,21.7428872 135.461887,21.7428872 L135.461887,19.0293767 L128.725925,19.0293767 L128.725925,44.6285467 L128.726303,44.6285467 L128.726303,44.6285467 Z M155.466239,44.6285467 L155.466239,25.4806093 C155.466239,25.4806093 157.694914,24.5588954 160.074916,24.5588954 C163.366666,24.5588954 163.873613,27.067793 163.873613,30.9584966 L163.873613,44.6285467 L170.659892,44.6285467 L170.659892,30.7538838 C170.659892,22.9208453 168.837153,18.4151558 161.746327,18.4151558 C158.859378,18.4151558 155.416301,20.462814 155.416301,20.462814 L155.416301,19.0293767 L148.680338,19.0293767 L148.680338,44.6285467 L155.466239,44.6285467 L155.466239,44.6285467 L155.466239,44.6285467 Z" id="Shape" fill="url(#linearGradient-6)"></path>
                    <path d="M107.365679,20.8467977 C104.464732,26.0699708 104.936117,33.4616575 114.608967,36.2245045 C115.907735,36.5954848 119.965201,36.2849322 121.661204,33.3671914 C124.256847,28.9024244 121.253376,25.1975934 119.253962,22.4473673 L121.61921,21.4399837 C122.247219,21.9712122 122.888469,22.4691672 123.521774,23.0795636 C126.874055,26.3147413 128.806507,31.8905368 125.711861,38.058371 C122.617215,44.2269701 116.308752,44.7080971 114.165577,44.7080971 C112.023538,44.7080971 105.297412,43.4777429 102.858013,38.0897322 C99.6438186,30.9902403 101.977288,24.2904127 103.76333,22.4856127 C103.936221,22.3104488 104.118571,22.1012465 104.306595,21.8671847 L105.643195,21.2609953 L106.003732,21.4243031 C105.431715,22.487525 105.012916,23.0275499 105.012916,23.0275499 C105.388208,22.4936442 106.471712,21.1091611 106.804254,20.5959079 L107.365679,20.8467977 L107.365679,20.8467977 Z" id="Shape" fill="#FCE1D2"></path>
                    <path d="M106.685841,21.5876109 C103.784894,26.810784 106.500086,33.5389132 114.419429,35.5406769 C115.72879,35.8714996 119.775664,35.6011046 121.471666,32.6833638 C124.06731,28.2185968 121.063838,24.5137658 119.064425,21.7635397 L120.665469,21.0858314 C121.293478,21.6170599 121.934728,22.1150149 122.568033,22.7254113 C125.920314,25.9605889 128.616591,31.2067092 125.522323,37.3745434 C122.427677,43.5431425 116.119215,44.0242695 113.97604,44.0242695 C111.834,44.0242695 105.107874,42.7939153 102.668476,37.4059046 C99.454281,30.3064127 101.78775,23.6065851 103.573792,21.8017851 C103.746684,21.6266212 103.929033,21.4174189 104.117058,21.1833572 L105.453657,20.5771677 L105.814195,20.7404755 C105.242177,21.8036974 104.823378,22.3437223 104.823378,22.3437223 C105.19867,21.8098167 105.551263,21.2854723 105.883805,20.7722192 L106.685841,21.5876109 L106.685841,21.5876109 Z" id="Shape" fill="#FACCB0"></path>
                    <path d="M102.970374,26.2554609 C103.96119,25.5165599 104.974327,24.7462978 105.781281,23.7974296 C106.164139,23.3480463 106.431989,22.5005284 106.739184,21.8450024 C106.848139,21.612088 106.720268,21.3527842 106.782312,21.1466416 C106.74902,20.9485305 106.717998,20.7469772 106.690002,20.5415995 L105.028049,19.7885477 L102.569735,20.9030184 C102.308316,22.4534866 102.24665,24.4303908 102.631779,26.4994665 C102.744896,26.4180038 102.85877,26.3388359 102.970374,26.2554609 L102.970374,26.2554609 L102.970374,26.2554609 Z M106.582181,18.226606 C106.642712,17.3496392 106.846626,16.484146 107.293799,15.7016453 C111.464004,8.39677559 108.445779,5.07975283 105.97498,3.53425658 C105.97498,3.53425658 108.763188,10.3966271 105.025022,17.4884699 L105.042803,17.4586385 L105.057936,17.5355118 L106.582181,18.226606 L106.582181,18.226606 Z M104.978489,17.5446907 C105.614821,15.8263252 106.815226,9.79082009 105.249743,5.91503217 C105.249743,5.91503217 105.738153,13.7606917 103.394469,18.2633216 L104.978489,17.5446907 L104.978489,17.5446907 Z" id="Shape" fill="url(#linearGradient-7)"></path>
                    <path d="M110.192476,0.0229472346 C111.355427,2.9640178 115.323989,9.07907336 107.687628,18.7283855 L105.772958,17.8598327 C111.606631,7.75157584 110.192476,0.0229472346 110.192476,0.0229472346 L110.192476,0.0229472346 L110.192476,0.0229472346 Z M106.40702,20.4134774 C103.314644,25.3245681 105.443442,32.1406617 113.252316,34.1141238 C114.561677,34.4449465 118.608551,34.1745516 120.30531,31.2560458 C122.677746,27.1737327 120.369624,23.7262932 118.428471,21.064414 L120.155117,20.3335446 C120.521708,20.6387428 120.933319,20.9489129 121.40092,21.2988582 C124.753958,24.5328885 127.450235,29.7797737 124.35521,35.9479903 C121.259808,42.1158245 114.952102,42.5977165 112.808927,42.5977165 C110.666887,42.5977165 103.940004,41.3673622 101.501363,35.9793516 C98.6219801,29.6179957 100.276367,23.6597462 101.934916,21.1910062 L104.365235,20.0891565 C103.997887,20.7052898 103.75652,21.0173722 103.75652,21.0173722 C103.978971,20.7010828 104.192343,20.3867057 104.40004,20.0734759 L105.028049,19.7881653 L106.40702,20.4134774 L106.40702,20.4134774 Z M117.193261,19.3215715 C115.510878,16.5556648 117.049122,13.3572028 117.049122,13.3572028 C117.504239,16.0917483 117.961626,17.6055008 118.660002,18.7004664 L117.193261,19.3215715 L117.193261,19.3215715 Z M104.496889,17.7634543 C105.827814,15.6339509 107.029732,13.2566174 107.029732,13.2566174 C106.596558,15.0698314 106.059723,16.5728753 105.545967,17.7577175 L105.057558,17.5362767 L105.024644,17.5125645 L104.99854,17.5362767 L104.496889,17.7634543 L104.496889,17.7634543 Z" id="Shape" fill="url(#linearGradient-8)"></path>
                    <path d="M110.369529,2.96363535 C111.524535,5.88290604 114.508712,9.53801805 108.378816,19.0416153 L106.546241,18.2109254 C112.13552,8.61668659 110.369529,2.96363535 110.369529,2.96363535 L110.369529,2.96363535 L110.369529,2.96363535 Z M105.458197,19.9832168 L107.256723,20.7986085 C104.355777,26.0217816 106.074478,32.7499107 113.994199,34.7516745 C115.30356,35.0824971 119.350434,34.8121022 121.046436,31.8943613 C123.64208,27.4295944 120.638608,23.7247634 118.639195,20.9745373 L120.240239,20.296829 C120.868248,20.8280575 121.509498,21.3260125 122.142803,21.9364089 C125.495084,25.1715865 128.191361,30.4177068 125.097093,36.585541 C122.002447,42.7541401 115.693985,43.2352671 113.55081,43.2352671 C111.40877,43.2352671 104.682644,42.0049129 102.243246,36.6169022 C99.0290509,29.5174103 101.36252,22.8175827 103.148562,21.0127827 C103.321454,20.8376188 103.503803,20.6284165 103.691827,20.3943547 L105.028427,19.7881653 L105.388965,19.9514731 L105.458197,19.9832168 L105.458197,19.9832168 Z M117.495538,19.193067 C116.195635,16.6352153 116.288323,13.9947535 116.288323,13.9947535 C116.940166,16.2535263 117.744093,17.6647812 118.623305,18.7157645 L117.495538,19.193067 L117.495538,19.193067 Z M105.488462,17.7305633 C106.672978,15.7685747 107.671739,13.7932003 107.671739,13.7932003 C107.263912,15.5031517 106.763018,16.9365889 106.276122,18.0877752 L105.488462,17.7305633 L105.488462,17.7305633 Z" id="Shape" fill="url(#linearGradient-9)"></path>
                    <path d="M123.613706,29.4095583 C123.534637,27.1634065 122.322126,26.3610182 119.544511,23.8743029 C118.808681,23.2145699 118.150785,22.3624626 117.642704,21.396384 L121.094104,19.93541 C121.725896,20.7592158 122.457564,21.628916 123.259221,22.839765 C125.728507,26.5702205 123.613706,29.4095583 123.613706,29.4095583 L123.613706,29.4095583 L123.613706,29.4095583 Z M116.876608,19.4554304 C116.247843,17.1477035 116.501316,14.5454871 118.319515,12.4190434 C118.905531,11.733686 118.681566,12.17695 118.681566,12.17695 C118.77085,15.1528239 119.214996,16.8344737 119.919803,18.1669432 L116.876608,19.4554304 L116.876608,19.4554304 Z" id="Shape" fill="url(#linearGradient-10)"></path>
                    <path d="M121.937754,21.7551257 C122.389845,19.554486 121.402055,18.4832325 119.291794,15.3983593 C117.180777,12.3138685 116.810403,6.84401271 120.803555,3.97866802 C121.534467,3.45394126 121.212896,3.83104081 121.212896,3.83104081 C119.888024,10.1032849 121.57646,10.9400941 123.142321,15.2893599 C124.660892,19.5074441 121.937754,21.7551257 121.937754,21.7551257 L121.937754,21.7551257 L121.937754,21.7551257 Z" id="Shape" fill="url(#linearGradient-11)"></path>
                    <path d="M1.05210398,5.03424081 C1.05210398,5.03424081 1.19926991,3.82721627 2.50144248,2.97510896 C3.7517854,2.1566576 5.56090487,2.50966256 5.56090487,2.50966256" id="Shape" stroke="#23BEFF" stroke-width="1.5"></path>
                    <path d="M2.06637611,5.29124984 C2.06637611,5.29124984 2.30547345,4.43761271 3.1370177,3.9572506 C4.13010398,3.38356974 5.32823894,3.70674329 5.32823894,3.70674329" id="Shape" stroke="#23BEFF" stroke-width="1.5"></path>
                    <path d="M3.14004425,5.61824793 C3.14004425,5.61824793 3.24710841,5.21590642 3.68860619,4.88125925 C4.13010398,4.54661208 4.94689381,4.72445315 4.94689381,4.72445315" id="Shape" stroke="#23BEFF" stroke-width="1.5"></path>
                    <polygon id="Shape" fill="#FFFFFF" points="108.009956 18.8729531 105.024644 17.5125645 105.028049 19.7885477 107.521168 20.9206113"></polygon>
                </g>
            </g>
        </g>
    </g>
</svg>