<?xml version="1.0" encoding="UTF-8"?>
<svg width="83px" height="85px" viewBox="0 0 83 85" version="1.1" xmlns="http://www.w3.org/2000/svg" xmlns:xlink="http://www.w3.org/1999/xlink">
    <!-- Generator: Sketch 39.1 (31720) - http://www.bohemiancoding.com/sketch -->
    <title>Discount code icon</title>
    <desc>Created with Sketch.</desc>
    <defs></defs>
    <g id="Page-1" stroke="none" stroke-width="1" fill="none" fill-rule="evenodd">
        <g id="Coupon-discount" transform="translate(-441.000000, -333.000000)" stroke="#777777" fill="#979797">
            <g id="Email" transform="translate(107.000000, 104.000000)">
                <g id="Header" transform="translate(45.000000, 100.000000)">
                    <path d="M290,130 L296.75,130 L296.75,199.166667 L290,199.166667 L290,199.166667 L290,130 L290,130 Z M296.75,213 L317,213 L317,206.083333 L296.75,206.083333 L296.75,206.083333 L296.75,213 L296.75,213 Z M303.5,199.166667 L310.25,199.166667 L310.25,130 L303.5,130 L303.5,130 L303.5,199.166667 L303.5,199.166667 Z M323.75,199.166667 L337.25,199.166667 L337.25,130 L323.75,130 L323.75,130 L323.75,199.166667 L323.75,199.166667 Z M323.75,213 L330.5,213 L330.5,206.705833 L323.75,206.705833 L323.75,206.705833 L323.75,213 L323.75,213 Z M337.25,213 L344,213 L344,206.705833 L337.25,206.705833 L337.25,206.705833 L337.25,213 L337.25,213 Z M344,199.166667 L350.75,199.166667 L350.75,130 L344,130 L344,130 L344,199.166667 L344,199.166667 Z M350.75,213 L364.25,213 L364.25,206.705833 L350.75,206.705833 L350.75,206.705833 L350.75,213 L350.75,213 Z M357.5,199.166667 L371,199.166667 L371,130 L357.5,130 L357.5,130 L357.5,199.166667 L357.5,199.166667 Z" id="Discount-code-icon"></path>
                </g>
            </g>
        </g>
    </g>
</svg>