<?xml version="1.0" encoding="UTF-8"?>
<svg width="81px" height="83px" viewBox="0 0 81 83" version="1.1" xmlns="http://www.w3.org/2000/svg" xmlns:xlink="http://www.w3.org/1999/xlink">
    <!-- Generator: Sketch 39.1 (31720) - http://www.bohemiancoding.com/sketch -->
    <title>Fill 113</title>
    <desc>Created with Sketch.</desc>
    <defs></defs>
    <g id="Page-1" stroke="none" stroke-width="1" fill="none" fill-rule="evenodd">
        <g id="Pending-Order-Bank-Transfer" transform="translate(-446.000000, -288.000000)" fill="#005B82">
            <g id="Email" transform="translate(107.000000, 54.000000)">
                <g id="Header" transform="translate(45.000000, 100.000000)">
                    <path d="M371.466065,134 C372.380031,134 373.184047,134.332143 373.868948,134.996429 C374.556141,135.660715 374.902028,136.473893 374.902028,137.435963 C374.902028,138.395741 374.556141,139.21121 373.868948,139.873205 C373.184047,140.539782 372.380031,140.871925 371.466065,140.871925 L367.755226,140.871925 L353.940366,206.911124 C353.84874,207.094376 353.713592,207.334893 353.530341,207.632676 C353.344799,207.93046 352.911868,208.331322 352.222385,208.832973 C351.535192,209.339204 350.77928,209.591175 349.954649,209.591175 L347.824353,209.591175 L347.824353,213.027138 C347.824353,213.943394 347.49221,214.745119 346.827923,215.430021 C346.165928,216.117213 345.35046,216.4631 344.38839,216.4631 C343.426321,216.4631 342.613143,216.117213 341.951147,215.430021 C341.284571,214.745119 340.952428,213.943394 340.952428,213.027138 L340.952428,209.591175 L320.336653,209.591175 L320.336653,213.027138 C320.336653,213.943394 320.00451,214.745119 319.340223,215.430021 C318.678228,216.117213 317.86276,216.4631 316.90069,216.4631 C315.938621,216.4631 315.125443,216.117213 314.463447,215.430021 C313.796871,214.745119 313.464728,213.943394 313.464728,213.027138 L313.464728,209.591175 L310.028765,209.591175 C309.066696,209.591175 308.253518,209.245288 307.591522,208.558096 C306.924946,207.873194 306.592803,207.071469 306.592803,206.155213 C306.592803,205.193143 306.924946,204.379965 307.591522,203.715679 C308.253518,203.051393 309.066696,202.71925 310.028765,202.71925 L346.793564,202.71925 L350.094379,188.9754 L306.592803,188.9754 C305.126792,188.9754 303.878392,188.494365 302.849894,187.532296 C301.816815,186.570226 301.186888,185.58525 300.957824,184.577368 L294.085899,151.935724 C293.856835,150.836216 294.085899,149.874147 294.773092,149.047225 C295.412181,148.179072 296.307821,147.74385 297.453142,147.74385 L359.027881,147.74385 L361.636922,136.611332 C361.865986,135.832513 362.289755,135.200296 362.908228,134.719261 C363.528992,134.240517 364.227638,134 365.004165,134 L371.466065,134 Z" id="Fill-113"></path>
                </g>
            </g>
        </g>
    </g>
</svg>