<?xml version="1.0" encoding="UTF-8"?>
<svg width="70px" height="70px" viewBox="0 0 70 70" version="1.1" xmlns="http://www.w3.org/2000/svg" xmlns:xlink="http://www.w3.org/1999/xlink">
    <!-- Generator: Sketch 39.1 (31720) - http://www.bohemiancoding.com/sketch -->
    <title>Fill 101</title>
    <desc>Created with Sketch.</desc>
    <defs></defs>
    <g id="Page-1" stroke="none" stroke-width="1" fill="none" fill-rule="evenodd">
        <g id="Credit-Gift-for-not-registered" transform="translate(-447.000000, -339.000000)" fill="#E4654F">
            <g id="Email" transform="translate(107.000000, 104.000000)">
                <g id="Header" transform="translate(45.000000, 100.000000)">
                    <path d="M365,158.333333 L359.166667,158.333333 L359.166667,170 L335.833333,170 L335.833333,152.5 L324.166667,152.5 L324.166667,170 L300.833333,170 L300.833333,158.333333 L295,158.333333 L295,152.5 L301.475,152.5 L301.475,152.15 C301.475,151.955556 301.494444,151.663889 301.535278,151.275 C301.572222,150.886111 301.6325,150.536111 301.710278,150.225 L303.75,139.9 C304.138889,138.422222 304.926389,137.236111 306.1125,136.341667 C307.300556,135.447222 308.65,135 310.166667,135 C311.294444,135 312.5,135.35 313.783333,136.05 L327.666667,144.45 C328.483333,144.916667 329.261111,145.616667 330,146.55 C330.701944,145.696389 331.477778,145.013889 332.335278,144.508333 L346.275,136.108333 C347.404722,135.447222 348.588889,135.116667 349.835278,135.116667 C351.351944,135.116667 352.701389,135.583333 353.8875,136.516667 C355.073611,137.45 355.880556,138.675 356.310278,140.191667 L358.291667,150.225 C358.369444,150.536111 358.427778,150.886111 358.466667,151.275 C358.5075,151.663889 358.525,151.955556 358.525,152.15 L358.525,152.5 L365,152.5 L365,158.333333 L365,158.333333 L365,158.333333 L365,158.333333 Z M300.833333,181.666667 L324.166667,181.666667 L324.166667,205 L300.833333,205 L300.833333,205 L300.833333,181.666667 L300.833333,181.666667 Z M310.575,141.358333 L309.525,144.1 C308.826944,145.966667 308.144444,147.833333 307.483333,149.7 C306.822222,151.566667 306.551944,152.5 306.666667,152.5 L323.058333,152.5 L310.575,141.358333 L310.575,141.358333 L310.575,141.358333 L310.575,141.358333 Z M335.833333,205 L359.166667,205 L359.166667,181.666667 L335.833333,181.666667 L335.833333,181.666667 L335.833333,205 L335.833333,205 Z M353.333333,152.5 C353.411111,152.5 353.275,151.945833 352.925,150.8375 C352.576944,149.729167 352.088889,148.329167 351.466667,146.6375 C350.844444,144.945833 350.397222,143.701389 350.125,142.904167 C349.852778,142.106944 349.619444,141.475 349.426944,141.008333 L337.641667,152.5 L353.333333,152.5 L353.333333,152.5 Z" id="Fill-101"></path>
                </g>
            </g>
        </g>
    </g>
</svg>