<?xml version="1.0" encoding="UTF-8"?>
<svg width="50px" height="50px" viewBox="0 0 50 50" version="1.1" xmlns="http://www.w3.org/2000/svg" xmlns:xlink="http://www.w3.org/1999/xlink">
    <!-- Generator: Sketch 39.1 (31720) - http://www.bohemiancoding.com/sketch -->
    <title>google plus icon</title>
    <desc>Created with Sketch.</desc>
    <defs>
        <linearGradient x1="50%" y1="0%" x2="50%" y2="100%" id="linearGradient-1">
            <stop stop-color="#F49F87" offset="0%"></stop>
            <stop stop-color="#E4654F" offset="100%"></stop>
        </linearGradient>
    </defs>
    <g id="Page-1" stroke="none" stroke-width="1" fill="none" fill-rule="evenodd">
        <g id="Pending-Order-Bank-Transfer" transform="translate(-492.000000, -861.000000)">
            <g id="Email" transform="translate(107.000000, 54.000000)">
                <g id="Footer-group" transform="translate(80.000000, 807.000000)">
                    <g id="Social-icons" transform="translate(235.000000, 0.000000)">
                        <g id="google-plus-icon" transform="translate(70.000000, 0.000000)">
                            <path d="M25,50 C38.8071187,50 50,38.8071187 50,25 C50,11.1928813 38.8071187,0 25,0 C11.1928813,0 0,11.1928813 0,25 C0,38.8071187 11.1928813,50 25,50 Z" id="Oval-31" fill="url(#linearGradient-1)"></path>
                            <path d="M20.7517436,14 L26.2985641,14 L26.2985641,14.099 C26.2985641,14.7422105 25.1889744,14.8417895 24.4172821,14.99 C24.1764103,14.99 23.6455897,15.0392105 23.5011795,15.1382105 C24.8995897,15.881 25.1410256,17.1182105 25.1410256,18.9002105 C25.1410256,20.9792105 24.3693333,22.0682105 23.5011795,22.8104211 C23.0188718,23.3054211 22.5850769,23.6516316 22.5850769,24.1466316 C22.5850769,24.6416316 23.1632821,25.1366316 23.79,25.7306316 C24.8510769,26.6714211 26.2985641,27.9578421 26.2985641,30.1358421 C26.2985641,32.4128421 25.3339487,34.0460526 23.5011795,34.9376316 C22.0542564,35.6798421 20.5108718,35.7788421 19.8835897,35.7788421 C19.7876923,35.7788421 19.7391795,35.7290526 19.6912308,35.7290526 C19.6912308,35.7290526 19.6427179,35.7788421 19.5947692,35.7788421 C18.6781026,35.7788421 14,35.5310526 14,31.1750526 C14,26.9186316 19.0639487,26.5724211 20.6073333,26.5724211 L20.6558462,26.5724211 C19.7876923,25.3346316 19.9321026,24.0974211 19.9321026,24.0974211 L19.5947692,24.0974211 C19.0154359,24.0974211 17.9069744,23.9984211 16.942359,23.3552105 C15.7363077,22.6124211 15.1575385,21.2762105 15.1575385,19.3952105 C15.1575385,14.198 20.7037949,14 20.7517436,14 L20.7517436,14 Z M20.5593846,27.7106316 L20.1729744,27.7106316 C19.1118974,27.7604211 18.1472821,28.2056316 17.4241026,28.8488421 C16.7494359,29.4926316 16.3630256,30.3338421 16.4115385,31.1750526 C16.5559487,32.9078421 18.3407692,33.8978421 20.5593846,33.7490526 C22.7289231,33.6008421 24.224359,32.3138421 24.0799487,30.5810526 C23.9834872,28.8986316 22.6330256,27.7106316 20.5593846,27.7106316 L20.5593846,27.7106316 Z M19.6912308,15.5342105 C19.5462564,15.5342105 19.4018462,15.5342105 19.208359,15.584 C18.581641,15.7814211 18.0993333,16.3262105 17.8105128,17.1182105 C17.5690769,17.9102105 17.5205641,18.7514211 17.762,19.7414211 C18.1957949,21.4244211 19.4018462,22.6616316 20.6073333,22.6616316 C20.7517436,22.6616316 20.8967179,22.6616316 21.0411282,22.6124211 C22.3915897,22.2164211 23.2117949,20.1872105 22.6330256,18.2072105 C22.0542564,16.1282105 21.1375897,15.5342105 19.6912308,15.5342105 L19.6912308,15.5342105 Z M35.6062564,22.5134211 L35.6062564,24.8396316 L31.9892308,24.8396316 L31.9892308,28.5524211 L29.7226667,28.5524211 L29.7226667,24.8396316 L26.105641,24.8396316 L26.105641,22.5134211 L29.7226667,22.5134211 L29.7226667,18.8012105 L31.9892308,18.8012105 L31.9892308,22.5134211 L35.6062564,22.5134211 L35.6062564,22.5134211 Z" id="Imported-Layers" fill="#FFFFFF"></path>
                        </g>
                    </g>
                </g>
            </g>
        </g>
    </g>
</svg>