<?xml version="1.0" encoding="UTF-8"?>
<svg width="84px" height="70px" viewBox="0 0 84 70" version="1.1" xmlns="http://www.w3.org/2000/svg" xmlns:xlink="http://www.w3.org/1999/xlink">
    <!-- Generator: Sketch 39.1 (31720) - http://www.bohemiancoding.com/sketch -->
    <title>recharge icon with plus and pig copy</title>
    <desc>Created with Sketch.</desc>
    <defs></defs>
    <g id="Page-1" stroke="none" stroke-width="1" fill="none" fill-rule="evenodd">
        <g id="Low-Balance" transform="translate(-440.000000, -334.000000)">
            <g id="Email" transform="translate(107.000000, 104.000000)">
                <g id="Header" transform="translate(45.000000, 100.000000)">
                    <g id="recharge-icon-with-plus-and-pig-copy" transform="translate(288.000000, 130.000000)">
                        <path d="M52.5188031,19.2104155 C55.6398742,20.4248243 59.648154,22.020239 60.2647648,21.8536585 C60.7023758,21.7354358 61.1242043,21.4951719 61.4444553,21.1707317 C61.7647063,20.8462915 62.0018679,20.4189451 62.1185642,19.9756098 C62.2343593,19.5356979 62.1868996,19.0597465 62.1185642,18.6097561 C62.0725645,18.3068471 61.9493152,18.0110983 61.7815098,17.7560976 C61.108462,16.7333198 57.6848163,15.5095018 57.9053838,15.3658537 C58.6875737,14.8564397 59.6359317,14.655406 60.433292,14.1707317 C61.0047003,13.823402 62.5732077,11.7216785 63.2982547,11.9512195 C66.3038984,12.9027696 73.0652786,21.2318757 74.4210509,23.3902439 C75.2238635,24.668309 75.9955292,26.9047261 76.4433774,28.3414634 C76.5797608,28.7789935 76.1980364,29.5209695 76.6119046,29.7073171 C77.0710502,29.9140511 77.5581615,29.3298044 77.9601224,29.0243902 C78.4685671,28.6380685 78.9389307,28.1824748 79.3083401,27.6585366 C79.7904335,26.9747771 80.1613041,26.2113585 80.4880306,25.4390244 C80.8255942,24.6410727 80.5803508,21.0935279 80.9936122,21.5121951 C83.8410241,24.3968537 83.8066755,29.7598954 80.9936122,32.6097561 C80.4849193,33.1251032 79.9398986,33.6266171 79.3083401,33.9756098 C78.6845311,34.3203201 77.5708246,33.9990242 77.2860135,34.6585366 C76.653951,36.1221491 77.2310486,37.8672373 76.9489591,39.4390244 C76.4448473,42.2479076 75.475442,44.6871064 74.0839964,47.1219512 C74.0210599,47.2320818 73.2526931,48.4705834 72.9043059,49 C71.7926112,50.689355 68.3096319,52.71151 67.8484895,54.4634146 C66.5774157,59.2922918 70.3318795,65.7733847 65.4891085,69.1463415 C65.1365655,69.3918852 64.736581,69.6344949 64.309418,69.6585366 C60.9257746,69.8489757 54.7675181,71.1868665 53.0180946,66.7560976 C52.8460527,66.3203666 52.7341383,65.8564473 52.6810402,65.3902439 C52.5649577,64.3710363 53.3616237,62.8762148 52.5125129,62.3170732 C51.5871411,61.7077134 50.395555,62.9662196 49.3104959,63.1707317 C47.9747074,63.4225014 46.6231077,63.6194644 45.2658427,63.6829268 C42.9650866,63.7905046 40.6524715,63.8641955 38.3562269,63.6829268 C36.312201,63.5215686 34.3099917,62.3075918 32.2892472,62.6585366 C31.6225275,62.7743265 32.4577744,64.0220231 32.4577744,64.7073171 C32.4577744,66.0237567 32.0557819,67.0058006 31.2780839,68.1219512 C29.1612433,71.1600365 21.6869306,69.5864439 20.3238149,69.4878049 C19.6108056,69.4362094 18.4050921,68.1940238 18.1329611,67.7804878 C15.8634809,64.3317371 17.5605863,59.3338638 17.2903251,55.8292683 C17.2593863,55.4280723 16.7709222,55.2095108 16.447689,54.9756098 C14.0195503,53.2185376 10.9849011,50.2241904 9.53807319,47.2926829 C8.79578781,45.7886926 8.6184581,43.9397048 7.51574662,42.6829268 C7.06789307,42.172501 6.16499465,42.7420885 5.49342004,42.6829268 C4.86771734,42.6278062 4.22037756,42.5837267 3.63962068,42.3414634 C-0.604081691,40.5711989 0.526706631,34.4191667 0.774658029,30.902439 C0.81407666,30.3433593 1.10909389,29.8082888 1.44876689,29.3658537 C2.09967237,28.518028 3.30985324,27.4541201 4.48225675,27.3170732 C5.4867554,27.1996534 6.74801421,27.9837375 7.51574662,27.3170732 C8.62469342,26.3541136 8.5689851,24.5534731 9.20101876,23.2195122 C10.4914133,20.4960244 13.7787263,17.1412204 15.7735801,15.195122 C15.8168157,15.1529431 17.2833437,14.2520676 17.2903251,14.1707317 C17.5044503,11.6760805 16.7023772,9.09072823 17.2903251,6.65853659 C17.5388542,5.63043457 20.4555625,5.53015013 20.9979237,5.80487805 L21.8405598,5.80487805 C22.0971582,5.60269085 22.4141629,5.72311239 22.6831959,5.80487805 C23.5524681,6.06907098 24.451515,6.32611717 25.2111042,6.82926829 C25.942523,7.31375947 26.1912119,8.68848473 27.0649035,8.70731707 C29.1633274,8.75254842 31.0416042,6.80748892 33.1318833,7 C34.0339699,7.08308061 33.9239895,8.66589061 34.480101,9.3902439 C35.1141656,10.2161337 35.9945567,10.8190876 36.6709548,11.6097561 C36.7445372,11.6957695 36.7736228,11.9049924 36.6709548,11.9512195 C35.2675679,12.5831059 33.4764322,12.8377793 33.9745193,15.0243902 C34.0707191,15.4467089 34.2062162,15.8865513 34.480101,16.2195122 C34.7894649,16.5956051 35.2210274,16.8680153 35.6597915,17.0731707 C35.9700445,17.2182376 36.3292511,17.2439024 36.6709548,17.2439024 C37.8202807,17.2439024 38.9699361,17.1666896 40.1191341,17.107882 C38.4996813,15.2914435 37.5135908,12.8843362 37.5135908,10.2439024 C37.5135908,4.58635134 42.0407231,1.77635684e-15 47.6252237,1.77635684e-15 C53.2097244,1.77635684e-15 57.7368566,4.58635134 57.7368566,10.2439024 C57.7368566,14.1030467 55.6304208,17.4637708 52.5188031,19.2104155 Z M52.5188031,19.2104155 C50.8980006,18.5797612 49.5164628,18.0518576 48.9734414,17.9268293 C47.145109,17.5058636 45.2841923,17.1770961 43.4120433,17.0731707 C42.3152829,17.0122882 41.2174174,17.0516799 40.1191341,17.107882 C41.9696174,19.1834531 44.6470635,20.4878049 47.6252237,20.4878049 C49.4004095,20.4878049 51.0687525,20.0243726 52.5188031,19.2104155 Z M17.5163991,29.1218878 C18.8548834,29.7747102 20.7441489,28.6550532 21.7361918,26.6210639 C22.7282346,24.5870746 22.4473884,22.4089834 21.1089042,21.756161 C19.7704199,21.1033386 17.8811544,22.2229956 16.8891115,24.2569849 C15.8970687,26.2909742 16.1779149,28.4690654 17.5163991,29.1218878 Z" id="Shape" fill="#F3973C"></path>
                        <text id="COINS" font-family="Acme-Regular, Acme" font-size="15.3772892" font-weight="normal" fill="#FFFFFF">
                            <tspan x="22.4881805" y="43.0134632">COINS</tspan>
                        </text>
                        <path d="M14.4755646,31.1718559 C14.6986695,31.1718559 14.9045427,31.2289925 15.0932749,31.3432657 C15.2818257,31.457539 15.4310158,31.6112636 15.5407543,31.8044398 C15.6504929,31.997616 15.7054529,32.2057565 15.7054529,32.4288614 C15.7054529,32.6519663 15.6391563,32.8986513 15.5067445,33.1689166 C15.3743326,33.3756967 15.223238,33.5906392 15.0537327,33.8137441 C14.8841367,34.0368489 14.7476437,34.2082588 14.6442537,34.3279736 L14.4892593,34.5075458 C14.47103,34.4912211 14.4465428,34.4676409 14.4157072,34.4368052 C14.3848716,34.4059696 14.3245607,34.342031 14.2348653,34.2449895 C14.1450792,34.1479479 14.0579232,34.0490925 13.9735787,33.9484232 C13.8892341,33.847754 13.7948227,33.7248649 13.6907071,33.579756 C13.5864101,33.4346472 13.4951729,33.294073 13.4171769,33.1580334 C13.3029943,32.9059975 13.245767,32.668291 13.245767,32.4451861 C13.245767,32.2203581 13.3006363,32.010313 13.4103749,31.815323 C13.5201135,31.620333 13.6698477,31.4643409 13.8593054,31.3473469 C14.0488539,31.2303529 14.2542736,31.1718559 14.4755646,31.1718559 C14.4755646,31.1718559 14.2542736,31.1718559 14.4755646,31.1718559 L14.4755646,31.1718559 L14.4755646,31.1718559 Z" id="Address-Icon" fill="#FFFFFF" transform="translate(14.475610, 32.839701) rotate(-189.000000) translate(-14.475610, -32.839701) "></path>
                        <path d="M16.4755646,36.1718559 C16.6986695,36.1718559 16.9045427,36.2289925 17.0932749,36.3432657 C17.2818257,36.457539 17.4310158,36.6112636 17.5407543,36.8044398 C17.6504929,36.997616 17.7054529,37.2057565 17.7054529,37.4288614 C17.7054529,37.6519663 17.6391563,37.8986513 17.5067445,38.1689166 C17.3743326,38.3756967 17.223238,38.5906392 17.0537327,38.8137441 C16.8841367,39.0368489 16.7476437,39.2082588 16.6442537,39.3279736 L16.4892593,39.5075458 C16.47103,39.4912211 16.4465428,39.4676409 16.4157072,39.4368052 C16.3848716,39.4059696 16.3245607,39.342031 16.2348653,39.2449895 C16.1450792,39.1479479 16.0579232,39.0490925 15.9735787,38.9484232 C15.8892341,38.847754 15.7948227,38.7248649 15.6907071,38.579756 C15.5864101,38.4346472 15.4951729,38.294073 15.4171769,38.1580334 C15.3029943,37.9059975 15.245767,37.668291 15.245767,37.4451861 C15.245767,37.2203581 15.3006363,37.010313 15.4103749,36.815323 C15.5201135,36.620333 15.6698477,36.4643409 15.8593054,36.3473469 C16.0488539,36.2303529 16.2542736,36.1718559 16.4755646,36.1718559 C16.4755646,36.1718559 16.2542736,36.1718559 16.4755646,36.1718559 L16.4755646,36.1718559 L16.4755646,36.1718559 Z" id="Address-Icon" fill="#FFFFFF" transform="translate(16.475610, 37.839701) rotate(-189.000000) translate(-16.475610, -37.839701) "></path>
                        <path d="M12.7650309,38.3392612 C12.9881358,38.3392612 13.194009,38.3963978 13.3827412,38.5106711 C13.571292,38.6249443 13.720482,38.778669 13.8302206,38.9718452 C13.9399592,39.1650213 13.9949192,39.3731619 13.9949192,39.5962667 C13.9949192,39.8193716 13.9286226,40.0660567 13.7962107,40.3363219 C13.6637989,40.543102 13.5127043,40.7580445 13.343199,40.9811494 C13.173603,41.2042543 13.03711,41.3756641 12.9337199,41.4953789 L12.7787255,41.6749512 C12.7604962,41.6586264 12.7360091,41.6350462 12.7051735,41.6042106 C12.6743378,41.5733749 12.614027,41.5094364 12.5243316,41.4123948 C12.4345455,41.3153533 12.3473894,41.2164978 12.2630449,41.1158286 C12.1787004,41.0151593 12.0842889,40.8922702 11.9801733,40.7471614 C11.8758763,40.6020525 11.7846392,40.4614783 11.7066431,40.3254388 C11.5924606,40.0734028 11.5352333,39.8356964 11.5352333,39.6125915 C11.5352333,39.3877634 11.5901026,39.1777184 11.6998412,38.9827283 C11.8095797,38.7877383 11.9593139,38.6317463 12.1487717,38.5147523 C12.3383201,38.3977582 12.5437399,38.3392612 12.7650309,38.3392612 C12.7650309,38.3392612 12.5437399,38.3392612 12.7650309,38.3392612 L12.7650309,38.3392612 L12.7650309,38.3392612 Z" id="Address-Icon-Copy" fill="#FFFFFF" transform="translate(12.765076, 40.007106) rotate(-158.000000) translate(-12.765076, -40.007106) "></path>
                    </g>
                </g>
            </g>
        </g>
    </g>
</svg>