<?xml version="1.0" encoding="UTF-8"?>
<svg width="73px" height="85px" viewBox="0 0 73 85" version="1.1" xmlns="http://www.w3.org/2000/svg" xmlns:xlink="http://www.w3.org/1999/xlink">
    <!-- Generator: Sketch 39.1 (31720) - http://www.bohemiancoding.com/sketch -->
    <title>RefundIcon</title>
    <desc>Created with Sketch.</desc>
    <defs></defs>
    <g id="Page-1" stroke="none" stroke-width="1" fill="none" fill-rule="evenodd">
        <g id="Amount-Refunded" transform="translate(-436.000000, -348.000000)">
            <g id="Email" transform="translate(107.000000, 104.000000)">
                <g id="Header" transform="translate(35.000000, 100.000000)">
                    <g id="RefundIcon" transform="translate(294.000000, 137.000000)">
                        <path d="M69.8996418,18 C70.7243371,18 71.4498209,18.2980556 72.0678256,18.8941667 C72.6878973,19.4902778 73,20.22 73,21.0833333 C73,21.9446111 72.6878973,22.6763889 72.0678256,23.2704444 C71.4498209,23.8686111 70.7243371,24.1666667 69.8996418,24.1666667 L66.551255,24.1666667 L54.0857483,83.4283333 C54.003072,83.5927778 53.8811246,83.8086111 53.7157722,84.0758333 C53.5483528,84.3430556 53.1577077,84.7027778 52.5355692,85.1529444 C51.9154975,85.6072222 51.2334187,85.8333333 50.4893328,85.8333333 L48.5671107,85.8333333 L48.5671107,88.9166667 C48.5671107,89.7388889 48.2674094,90.4583333 47.6680069,91.0729444 C47.0706712,91.6896111 46.3348528,92 45.4667526,92 C44.5986523,92 43.8649008,91.6896111 43.2675652,91.0729444 C42.6660957,90.4583333 42.3663944,89.7388889 42.3663944,88.9166667 L42.3663944,85.8333333 L23.7642454,85.8333333 L23.7642454,88.9166667 C23.7642454,89.7388889 23.4645441,90.4583333 22.8651415,91.0729444 C22.2678058,91.6896111 21.5319875,92 20.6638872,92 C19.7957869,92 19.0620355,91.6896111 18.4646998,91.0729444 C17.8632303,90.4583333 17.563529,89.7388889 17.563529,88.9166667 L17.563529,85.8333333 L14.4631709,85.8333333 C13.5950706,85.8333333 12.8613191,85.5229444 12.2639835,84.9062778 C11.662514,84.2916667 11.3628127,83.5722222 11.3628127,82.75 C11.3628127,81.8866667 11.662514,81.1569444 12.2639835,80.5608333 C12.8613191,79.9647222 13.5950706,79.6666667 14.4631709,79.6666667 L47.6370033,79.6666667 L50.615414,67.3333333 L11.3628127,67.3333333 C10.0399932,67.3333333 8.91352974,66.9016667 7.98548919,66.0383333 C7.05331484,65.175 6.48491584,64.2911111 6.27822529,63.3866667 L0.0775089542,34.095 C-0.12918159,33.1083333 0.0775089542,32.245 0.697580588,31.5029444 C1.27424721,30.7238889 2.08240724,30.3333333 3.11585996,30.3333333 L58.6763453,30.3333333 L61.0305506,20.3433333 C61.2372411,19.6444444 61.6196186,19.0771111 62.1776831,18.6454444 C62.7378145,18.2158333 63.3682206,18 64.0689016,18 L69.8996418,18 Z" id="Fill-113" fill="#005B82" transform="translate(36.500000, 55.000000) scale(-1, 1) translate(-36.500000, -55.000000) "></path>
                        <path d="M40.5,25.6481687 C38.6527778,25.6860895 36.8736111,25.8701443 35.1625,26.2031077 C33.4513889,26.536071 31.7986111,27.017943 30.2041667,27.6459489 C28.6097222,28.2748798 27.1805556,29.1304107 25.9166667,30.2125416 C24.6527778,31.2946726 23.6805556,32.5479097 23,33.9722531 C23.1166667,31.5305216 23.5152778,29.3246393 24.1968056,27.354606 C24.8763889,25.3845727 25.8826389,23.5995191 27.2145833,21.9994451 C28.5465278,20.3993711 30.3354167,19.1230115 32.5822222,18.1703663 C34.8270833,17.2177211 37.4666667,16.6683315 40.5,16.5194229 L40.5,9 L58,21.5693674 L40.5,34 L40.5,25.6481687 Z" id="Fill-97" stroke="#005B82" stroke-width="0.5" fill="#DF635D" transform="translate(40.500000, 21.500000) rotate(-53.000000) translate(-40.500000, -21.500000) "></path>
                    </g>
                </g>
            </g>
        </g>
    </g>
</svg>