<?xml version="1.0" encoding="UTF-8"?>
<svg width="64px" height="85px" viewBox="0 0 64 85" version="1.1" xmlns="http://www.w3.org/2000/svg" xmlns:xlink="http://www.w3.org/1999/xlink">
    <!-- Generator: Sketch 39.1 (31720) - http://www.bohemiancoding.com/sketch -->
    <title>Send Icon</title>
    <desc>Created with Sketch.</desc>
    <defs></defs>
    <g id="Page-1" stroke="none" stroke-width="1" fill="none" fill-rule="evenodd">
        <g id="Callburn-Statistics" transform="translate(-450.000000, -350.000000)" fill="#E84815">
            <g id="Email" transform="translate(107.000000, 104.000000)">
                <g id="Header" transform="translate(45.000000, 100.000000)">
                    <g id="Send-Icon" transform="translate(298.000000, 146.000000)">
                        <path d="M7.3409327,51.3877219 C9.69157493,49.94153 12.0951717,48.4339572 14.0096122,46.5768131 C14.9179169,45.6972709 16.7632474,44.0369946 16.3620495,42.7345236 C16.2112638,42.2464712 16.2372923,41.7913549 16.3844879,41.3878883 C16.3055049,41.0001412 16.2319071,40.6056572 16.1654895,40.2036876 L12.2226215,38.7297995 L6.39044392,40.9110642 C5.77024775,43.9456719 5.62394967,47.8149092 6.53763954,51.8645461 C6.80600229,51.7058542 7.0761601,51.5509051 7.3409327,51.3877219 L7.3409327,51.3877219 L7.3409327,51.3877219 Z M15.9096923,35.6734838 C16.0532978,33.9570665 16.5370687,32.2631056 17.5979542,30.7315794 C27.4914744,16.4343399 20.330946,9.94219552 14.4691498,6.91731884 C14.4691498,6.91731884 21.0391006,20.4914623 12.1705646,34.3717613 L12.2235191,34.527459 L12.2935267,34.3216087 L15.9096923,35.6734838 L15.9096923,35.6734838 Z M12.1050446,34.3388253 C13.6146972,30.9756056 16.4625734,19.1627922 12.7485766,11.5770212 C12.7485766,11.5770212 13.9072933,26.9327055 8.34706861,35.7453443 L12.1050446,34.3388253 L12.1050446,34.3388253 Z" id="Shape"></path>
                        <path d="M24.4748617,0.0449127941 C27.233882,5.80123591 36.6490164,17.769747 18.5322874,36.6555769 L13.9898665,34.9556277 C27.8298448,15.1715419 24.4748617,0.0449127941 24.4748617,0.0449127941 L24.4748617,0.0449127941 L24.4748617,0.0449127941 Z M15.4941339,39.9536731 C8.15768888,49.5657596 13.2081142,62.9063565 31.7341188,66.7688568 C34.8404849,67.4163496 44.4414088,66.8871272 48.46685,61.1749683 C54.0952873,53.1849822 48.6194308,46.4375835 44.0141825,41.2276994 L48.1105289,39.7972269 C48.9802396,40.394567 49.9567569,41.0016383 51.0661092,41.6865584 C59.0209553,48.0162682 65.417682,58.2855786 58.0749542,70.3581376 C50.7313289,82.4299481 35.7667402,83.3731168 30.6822086,83.3731168 C25.6003697,83.3731168 9.64131301,80.9650425 3.85580718,70.4195184 C-2.97532607,57.9689434 0.949591246,46.3073364 4.88438144,41.4754683 L10.6501415,39.3189056 C9.77863575,40.5248141 9.20600889,41.1356281 9.20600889,41.1356281 C9.73375904,40.5165801 10.2399684,39.9012748 10.7327147,39.2882152 L12.2226215,38.7297995 L15.4941339,39.9536731 L15.4941339,39.9536731 Z M41.0837332,37.8165726 C37.0923983,32.4030839 40.7417726,26.1429889 40.7417726,26.1429889 C41.8215063,31.4950969 42.9066253,34.4578442 44.5634735,36.600933 L41.0837332,37.8165726 L41.0837332,37.8165726 Z M10.9624834,34.7669939 C14.120009,30.5990866 16.9714753,25.9461212 16.9714753,25.9461212 C15.9437986,29.4949804 14.6701975,32.4367685 13.4513459,34.7557657 L12.2926292,34.3223573 L12.2226215,34.5289561 L12.1526139,34.3223573 L10.9624834,34.7669939 L10.9624834,34.7669939 Z" id="Shape"></path>
                        <path d="M24.8949077,5.80048736 C27.6350798,11.5141433 34.7148301,18.6680029 20.1720825,37.2686366 L15.8244265,35.6427934 C29.0845977,16.8647542 24.8949077,5.80048736 24.8949077,5.80048736 L24.8949077,5.80048736 L24.8949077,5.80048736 Z M33.4941835,68.0166839 C36.6005495,68.6641767 46.2014735,68.1349543 50.2251196,62.4242925 C56.3831021,53.6857599 49.2575777,46.4345893 44.5141091,41.0517909 L48.3124741,39.7253664 C49.802381,40.7650976 51.3237015,41.7397052 52.8261739,42.9343855 C60.779225,49.266341 67.1759516,59.5341542 59.8350189,71.6059647 C52.4931887,83.6792723 37.5268049,84.6209439 32.4422733,84.6209439 C27.3604344,84.6209439 11.4031728,82.2128696 5.61587186,71.6673456 C-2.00957921,57.7720756 3.5264121,44.6590368 7.76367134,41.1266456 C8.1738445,40.7838112 8.60645601,40.3743563 9.05253054,39.9162458 L12.2235191,38.7297995 L13.0788692,39.0494288 C11.7217974,41.1303883 10.728227,42.1873361 10.728227,42.1873361 C11.618581,41.142365 12.4550829,40.1161077 13.2440155,39.1115582 L17.5099959,40.7074595 C10.6277032,50.93036 14.7052013,64.0987912 33.4941835,68.0166839 Z M41.800863,37.565061 C38.7169353,32.5587815 38.9368312,27.390816 38.9368312,27.390816 C40.4832828,31.8117321 42.3905431,34.5738689 44.4764127,36.6308749 L41.800863,37.565061 L41.800863,37.565061 Z M13.3149207,34.7026189 C16.1251005,30.862575 18.4945909,26.996332 18.4945909,26.996332 C17.527049,30.3430837 16.3387137,33.1486362 15.1835871,35.4017614 L13.3149207,34.7026189 L13.3149207,34.7026189 Z" id="Shape"></path>
                        <path d="M56.3157871,57.5609855 C56.1282024,53.1647715 53.2516051,51.5943208 46.6619086,46.727271 C44.9162045,45.4360282 43.3553924,43.7682664 42.1500039,41.8774378 L50.3382089,39.0179899 C51.8370911,40.6303592 53.5729224,42.3325541 55.4747975,44.7024525 C61.3330036,52.0037758 56.3157871,57.5609855 56.3157871,57.5609855 L56.3157871,57.5609855 L56.3157871,57.5609855 Z M40.332497,38.0785639 C38.8407951,33.5618339 39.442143,28.4687231 43.7556927,24.3068042 C45.1459732,22.9654087 44.6146329,23.8329742 44.6146329,23.8329742 C44.826451,29.657415 45.8801563,32.9487743 47.5522626,35.5567106 L40.332497,38.0785639 L40.332497,38.0785639 Z" id="Shape"></path>
                        <path d="M52.3397103,42.5795745 C53.4122638,38.2724375 51.0688018,36.1757586 46.0623557,30.1379819 C41.0541145,24.1009539 40.1754285,13.3952408 49.6489026,7.78712995 C51.3829388,6.76012406 50.6200347,7.49819098 50.6200347,7.49819098 C47.4768697,19.7743547 51.4825651,21.4121746 55.1974594,29.9246462 C58.8001619,38.1803663 52.3397103,42.5795745 52.3397103,42.5795745 L52.3397103,42.5795745 L52.3397103,42.5795745 Z" id="Shape"></path>
                    </g>
                </g>
            </g>
        </g>
    </g>
</svg>