<?xml version="1.0" encoding="UTF-8"?>
<svg width="119px" height="100px" viewBox="0 0 119 100" version="1.1" xmlns="http://www.w3.org/2000/svg" xmlns:xlink="http://www.w3.org/1999/xlink">
    <!-- Generator: Sketch 39.1 (31720) - http://www.bohemiancoding.com/sketch -->
    <title>Send Verification code icon</title>
    <desc>Created with Sketch.</desc>
    <defs></defs>
    <g id="Page-1" stroke="none" stroke-width="1" fill="none" fill-rule="evenodd">
        <g id="Caller-ID-Verificated" transform="translate(-422.000000, -314.000000)">
            <g id="Email" transform="translate(107.000000, 104.000000)">
                <g id="Header" transform="translate(45.000000, 100.000000)">
                    <g id="Send-Verification-code-icon" transform="translate(270.000000, 110.000000)">
                        <text id="ID" font-family="Helvetica" font-size="20.3783934" font-weight="normal" fill="#23BEFF">
                            <tspan x="98.940133" y="95.7576114">ID</tspan>
                        </text>
                        <path d="M41.2353056,10.8436785 L44.7580837,9.09510023 C46.9144354,8.02499782 49.474678,8.9688522 50.6055722,11.109057 L54.035668,17.602672 C55.1665623,19.7428768 54.1972243,22.4387448 52.0408726,23.5088472 L48.5180945,25.2574255 C46.362593,26.326669 43.8015002,25.3845323 42.6706059,23.2434687 L39.2405101,16.7507125 C38.1096159,14.60879 39.0781035,11.9146397 41.2353056,10.8436785 L41.2353056,10.8436785 L41.2353056,10.8436785 Z" id="Shape" fill="#23BEFF"></path>
                        <path d="M91.316915,76.9830498 C86.5127402,78.2292124 78.3805051,79.9769318 73.7174795,80.5489127 C60.426496,82.1841254 57.0780287,77.1685571 54.5688039,56.3496546 C51.9226814,34.3919433 55.1325504,29.7259189 66.9593235,28.2719194 C71.5721816,27.7042327 79.9144399,27.4440071 85.3554867,27.5213018 L83.8190011,14.7754031 C78.5539656,14.2721286 70.0535522,13.8057838 63.0335048,14.6680493 C40.2804227,17.4652592 35.0366446,28.9632777 38.574728,58.3155169 C41.8381657,85.3918561 49.0333741,97.6688336 72.6869202,94.7608346 C78.919593,93.9938992 87.5228923,91.7411876 92.8857119,90.0037742 L91.316915,76.9830498 L91.316915,76.9830498 Z" id="Shape" fill="#23BEFF"></path>
                        <path d="M79.5216029,30.6448672 C80.956053,30.4679482 82.2714616,31.5088504 82.4466226,32.9576969 L84.4626755,49.68685 C84.6369862,51.1356966 83.606427,52.4643068 82.1728272,52.6412259 L66.1447395,54.6113823 C64.7102894,54.7883013 63.3948808,53.7473991 63.2205701,52.2985526 L61.2036669,35.5693995 C61.0293562,34.1214118 62.0590651,32.7919427 63.4935152,32.6158825 L79.5216029,30.6448672 Z" id="Shape" fill="#23BEFF"></path>
                        <path d="M79.7172616,45.8317403 L79.9121018,47.3375977 L66.5959138,48.8891728 L66.4010736,47.3833154 L70.4896357,44.1597926 L70.3533838,43.1067455 C70.0796622,43.138639 69.7928187,42.9066122 69.4921137,42.4107514 C69.1910388,41.9149336 69.0175234,41.4879852 68.9711978,41.1299492 L68.6986941,39.0238549 C68.5861046,38.153687 68.8152814,37.3712553 69.3867305,36.6775698 C69.9578097,35.9839273 70.7016481,35.5837061 71.6189855,35.4768198 C72.5363229,35.3699335 73.3604656,35.5874568 74.0914137,36.1293897 C74.8223617,36.6713225 75.2441986,37.3778994 75.3567881,38.2480674 L75.6292918,40.3541616 C75.6756174,40.7121976 75.6164693,41.1662555 75.4507379,41.7164646 C75.2853764,42.2666306 75.0662047,42.5576172 74.7921132,42.5895538 L74.928365,43.6426009 L79.7172616,45.8317403" id="Account-icon-Copy-2" fill="#FFFFFF"></path>
                        <path d="M65.3310058,57.6026878 L67.8682903,57.2909325 C68.6454613,57.1956023 69.3580097,57.7589949 69.4532429,58.5439657 L69.7755052,61.2175041 C69.8698881,62.001616 69.3120937,62.7221746 68.5349227,62.8175047 L65.9976382,63.1292601 C65.2204673,63.2245902 64.5079189,62.6611976 64.413536,61.8762268 L64.0912736,59.2026885 C63.9960404,58.4185765 64.5538349,57.698018 65.3310058,57.6026878 L65.3310058,57.6026878 L65.3310058,57.6026878 Z" id="Shape" fill="#23BEFF"></path>
                        <path d="M73.2336608,56.6313509 L75.7709454,56.3195955 C76.5481163,56.2242654 77.2606647,56.787658 77.3550476,57.5726288 L77.67731,60.2461671 C77.7716929,61.0311379 77.2138984,61.7508376 76.4367275,61.8461678 L73.8994429,62.1579231 C73.122272,62.2532533 72.4097236,61.6898607 72.3153407,60.9048899 L71.9930783,58.2313515 C71.8978451,57.4472396 72.4564899,56.726681 73.2336608,56.6313509 L73.2336608,56.6313509 L73.2336608,56.6313509 Z" id="Shape" fill="#23BEFF"></path>
                        <path d="M81.1363158,55.6591551 L83.6736004,55.3473998 C84.4507713,55.2520696 85.1633197,55.8154622 85.2577026,56.600433 L85.6420366,59.7875518 C85.7024077,60.2891087 85.3452832,60.7503005 84.8478598,60.8121362 L81.8020979,61.1865862 C81.024927,61.2819163 80.3123786,60.7185237 80.2179957,59.933553 L79.8957334,57.2600146 C79.8005002,56.4750438 80.3591449,55.7553441 81.1363158,55.6591551 L81.1363158,55.6591551 L81.1363158,55.6591551 Z" id="Shape" fill="#23BEFF"></path>
                        <path d="M68.7815087,64.8701088 C69.5586797,64.7756375 70.2712281,65.3390301 70.3664613,66.1240009 L70.6887236,68.7958216 C70.7831065,69.5825101 70.2253121,70.3022098 69.4481411,70.3975399 L66.9108566,70.7092953 C66.1336856,70.8046254 65.4211372,70.2412328 65.3267543,69.456262 L65.004492,66.7827237 C64.9092588,65.9977529 65.4670532,65.2771944 66.2450745,65.182723 L68.7815087,64.8701088 Z" id="Shape" fill="#23BEFF"></path>
                        <path d="M76.6841637,63.8979131 C77.4613347,63.8034418 78.1738831,64.3668344 78.268266,65.1509463 L78.5905283,67.8244847 C78.6849112,68.6094555 78.1271168,69.3291552 77.3499458,69.4244853 L74.8135116,69.7362407 C74.0354904,69.8315708 73.3237922,69.2681782 73.228559,68.4832074 L72.9062967,65.8105279 C72.8119138,65.0255571 73.3697083,64.3049986 74.1468792,64.2096684 L76.6841637,63.8979131 Z" id="Shape" fill="#23BEFF"></path>
                        <path d="M84.5868188,62.9265761 C85.3639897,62.831246 86.0765381,63.3946386 86.170921,64.1796094 L86.4931834,66.8531477 C86.5884166,67.6381185 86.0297718,68.3578182 85.2526009,68.4531484 L82.7161666,68.7649037 C81.9389957,68.8602339 81.2264473,68.2968413 81.1312141,67.5118705 L80.8089517,64.8383321 C80.7145688,64.0533613 81.2723633,63.3336617 82.0495342,63.2383315 L84.5868188,62.9265761 Z" id="Shape" fill="#23BEFF"></path>
                        <path d="M67.1582928,72.7610406 L69.6955774,72.4492852 C70.4727483,72.3539551 71.1852967,72.9173477 71.2796796,73.7023185 L71.601942,76.3758568 C71.6963249,77.1608276 71.1385304,77.8805273 70.3613595,77.9758575 L67.8240749,78.2876128 C67.046904,78.382943 66.3343556,77.8195504 66.2399727,77.0345796 L65.9177103,74.3610412 C65.8224771,73.5760704 66.3811219,72.8563707 67.1582928,72.7610406 L67.1582928,72.7610406 L67.1582928,72.7610406 Z" id="Shape" fill="#23BEFF"></path>
                        <path d="M75.0600976,71.787986 L77.5973821,71.4762306 C78.374553,71.3809005 79.0871014,71.9460107 79.1814843,72.7309815 L79.5037467,75.4028022 C79.5981296,76.187773 79.0403351,76.9091904 78.2631642,77.0028029 L75.72673,77.3145582 C74.949559,77.4098884 74.2370106,76.8464958 74.1417774,76.061525 L73.8195151,73.3897043 C73.7251322,72.6047335 74.2829266,71.8833161 75.0600976,71.787986 L75.0600976,71.787986 L75.0600976,71.787986 Z" id="Shape" fill="#23BEFF"></path>
                        <path d="M82.9627526,70.816649 L85.5000371,70.5048937 C86.2772081,70.4095635 86.9897565,70.9729561 87.0841394,71.7579269 L87.4064017,74.4314653 C87.5007846,75.2164361 86.9429902,75.9361358 86.1658192,76.0314659 L83.6285347,76.3432213 C82.8513637,76.4385514 82.1388153,75.8751588 82.0435821,75.090188 L81.7213198,72.4166497 C81.6277872,71.6316789 82.1864319,70.912838 82.9627526,70.816649 L82.9627526,70.816649 L82.9627526,70.816649 Z" id="Shape" fill="#23BEFF"></path>
                        <path d="M78.4612833,3.47835083 C84.4014541,1.52708865 93.3805844,7.02875481 93.0787292,14.4155532 C89.8867164,6.65430485 84.8487101,4.61028901 78.4612833,3.47835083 L78.4612833,3.47835083 L78.4612833,3.47835083 Z" id="Shape" fill="#23BEFF"></path>
                        <path d="M83.7611809,0.948237111 C88.1504111,-0.493738768 94.7317055,3.57110449 94.5089278,9.02897031 C92.1502055,3.29542 88.4811764,1.78302005 83.7611809,0.948237111 L83.7611809,0.948237111 L83.7611809,0.948237111 Z" id="Shape" fill="#23BEFF"></path>
                        <path d="M47.1720752,97.1535355 C42.0805002,98.8273955 34.3844672,94.1107001 34.6438076,87.7802628 C37.3792113,94.4327614 41.6961662,96.1839162 47.1720752,97.1535355 L47.1720752,97.1535355 L47.1720752,97.1535355 Z" id="Shape" fill="#23BEFF"></path>
                        <path d="M42.6289414,99.3229405 C38.86723,100.558797 33.2263635,97.0753819 33.4176802,92.3990516 C35.4396851,97.3115602 38.5840813,98.6083938 42.6289414,99.3229405 L42.6289414,99.3229405 L42.6289414,99.3229405 Z" id="Shape" fill="#23BEFF"></path>
                        <path d="M28.8779719,57.2110855 C28.8779719,56.1328685 27.9960452,55.2580886 26.9090193,55.2580886 L18.3768912,55.2580886 L18.3768912,46.7951021 C18.3768912,45.7168851 17.4949645,44.8421053 16.4079386,44.8421053 L12.4700333,44.8421053 C11.3830074,44.8421053 10.5010807,45.7168851 10.5010807,46.7951021 L10.5010807,55.2580886 L1.96895263,55.2580886 C0.8819267,55.2580886 0,56.1328685 0,57.2110855 L0,61.1170793 C0,62.1952963 0.8819267,63.0700762 1.96895263,63.0700762 L10.5010807,63.0700762 L10.5010807,71.5330627 C10.5010807,72.6112797 11.3830074,73.4860596 12.4700333,73.4860596 L16.4079386,73.4860596 C17.4949645,73.4860596 18.3768912,72.6112797 18.3768912,71.5330627 L18.3768912,63.0700762 L26.9090193,63.0700762 C27.9960452,63.0700762 28.8779719,62.1952963 28.8779719,61.1170793 L28.8779719,57.2110855 Z" id="Path" fill="#23BEFF"></path>
                    </g>
                </g>
            </g>
        </g>
    </g>
</svg>