<?xml version="1.0" encoding="UTF-8"?>
<svg width="215px" height="151px" viewBox="0 0 215 151" version="1.1" xmlns="http://www.w3.org/2000/svg" xmlns:xlink="http://www.w3.org/1999/xlink">
    <!-- Generator: sketchtool 47.1 (45422) - http://www.bohemiancoding.com/sketch -->
    <title>143FA413-F56A-427A-9DE5-90AB4CA67754</title>
    <desc>Created with sketchtool.</desc>
    <defs></defs>
    <g id="Page-1" stroke="none" stroke-width="1" fill="none" fill-rule="evenodd">
        <g id="Homepage-New" transform="translate(-405.000000, -1113.000000)">
            <g id="693" transform="translate(405.000000, 1113.000000)">
                <path d="M0,147 L215,147" id="Stroke-1" stroke="#6C6976" stroke-width="7"></path>
                <polygon id="Fill-2" fill="#161B36" points="31 75 49 75 49 36 31 36"></polygon>
                <path d="M11,62 L69,62 L69,24.3828595 C69,23.0666813 67.93778,22 66.6277179,22 L13.3722821,22 C12.0619464,22 11,23.0666813 11,24.3828595 L11,62" id="Fill-3" fill="#6E6C76"></path>
                <path d="M17.0097986,68 L64.990475,68 C67.7570966,68 70,65.7340257 70,62.9389464 L70,61 L12,61 L12,62.9389464 C12,65.7340257 14.2429034,68 17.0097986,68" id="Fill-4" fill="#6E6C76"></path>
                <path d="M71,24.3796112 L71,62 L56.7673914,61.771931 L41.8700656,61.5328708 L37.165071,61.4559319 L22.1090883,61.2141238 L13,61.0684894 L13,24.3796112 C13,23.0661537 14.0613592,22 15.3716455,22 L68.625619,22 C69.9386408,22 71,23.0661537 71,24.3796112" id="Fill-5" fill="#27282F"></path>
                <path d="M15,25.222796 L15,58.777204 C15,58.9002696 15.0988104,59 15.2204655,59 L68.7795345,59 C68.9014649,59 69,58.9002696 69,58.777204 L69,25.222796 C69,25.0997304 68.9014649,25 68.7795345,25 L15.2204655,25 C15.0988104,25 15,25.0997304 15,25.222796" id="Fill-6" fill="#FFFFFE"></path>
                <path d="M18.0095486,68 L65.9904514,68 C68.757086,68 71,65.7340257 71,62.9389464 L71,61 L13,61 L13,62.9389464 C13,65.7340257 15.2426404,68 18.0095486,68" id="Fill-7" fill="#9997A2"></path>
                <path d="M30.3500685,76 L54.6499315,76 C55.3957045,76 56,75.3285946 56,74.5 C56,73.67171 55.3957045,73 54.6499315,73 L30.3500685,73 C29.6045697,73 29,73.67171 29,74.5 C29,75.3285946 29.6045697,76 30.3500685,76" id="Fill-8" fill="#9997A2"></path>
                <path d="M66.282815,31 L18.7169121,31 C18.3209321,31 18,30.6950207 18,30.3184647 L18,27.6817946 C18,27.3052386 18.3209321,27 18.7169121,27 L66.282815,27 C66.678795,27 67,27.3052386 67,27.6817946 L67,30.3184647 C67,30.6950207 66.678795,31 66.282815,31" id="Fill-9" fill="#6980B1"></path>
                <path d="M22,29 C22,29.5522255 21.5524476,30 21,30 C20.4478565,30 20,29.5522255 20,29 C20,28.4477745 20.4478565,28 21,28 C21.5524476,28 22,28.4477745 22,29" id="Fill-10" fill="#DA4F43"></path>
                <path d="M25,29 C25,29.5522255 24.5523795,30 23.999848,30 C23.4476205,30 23,29.5522255 23,29 C23,28.4477745 23.4476205,28 23.999848,28 C24.5523795,28 25,28.4477745 25,29" id="Fill-11" fill="#F7C04B"></path>
                <path d="M29,29 C29,29.5522255 28.5521435,30 28,30 C27.4478565,30 27,29.5522255 27,29 C27,28.4477745 27.4478565,28 28,28 C28.5521435,28 29,28.4477745 29,29" id="Fill-12" fill="#99C53E"></path>
                <path d="M34.5620797,39 L18.4381971,39 C18.1962614,39 18,38.7967802 18,38.5462667 L18,33.4534467 C18,33.2029332 18.1962614,33 18.4381971,33 L34.5620797,33 C34.8040154,33 35,33.2029332 35,33.4534467 L35,38.5462667 C35,38.7967802 34.8040154,39 34.5620797,39" id="Fill-13" fill="#2F365B"></path>
                <path d="M54.5620797,46 L38.4381971,46 C38.1962614,46 38,45.7967802 38,45.5462667 L38,40.4537333 C38,40.2032198 38.1962614,40 38.4381971,40 L54.5620797,40 C54.8040154,40 55,40.2032198 55,40.4537333 L55,45.5462667 C55,45.7967802 54.8040154,46 54.5620797,46" id="Fill-14" fill="#638566"></path>
                <path d="M67.5464656,39 L57.4532479,39 C57.2028442,39 57,38.7970571 57,38.5465316 L57,33.4534684 C57,33.2029429 57.2028442,33 57.4532479,33 L67.5464656,33 C67.7968693,33 68,33.2029429 68,33.4534684 L68,38.5465316 C68,38.7970571 67.7968693,39 67.5464656,39" id="Fill-15" fill="#638566"></path>
                <path d="M67.5464656,46 L57.4532479,46 C57.2028442,46 57,45.7967802 57,45.5462667 L57,40.4537333 C57,40.2032198 57.2028442,40 57.4532479,40 L67.5464656,40 C67.7968693,40 68,40.2032198 68,40.4537333 L68,45.5462667 C68,45.7967802 67.7968693,46 67.5464656,46" id="Fill-16" fill="#DA4F43"></path>
                <polygon id="Fill-17" fill="#161B36" points="38 37.5 55 37.5 55 37 38 37"></polygon>
                <polygon id="Fill-18" fill="#161B36" points="38 36.5 55 36.5 55 36 38 36"></polygon>
                <polygon id="Fill-19" fill="#161B36" points="38 34.5 55 34.5 55 34 38 34"></polygon>
                <polygon id="Fill-20" fill="#161B36" points="38 33.5 55 33.5 55 33 38 33"></polygon>
                <path d="M34.5620797,53 L18.4381971,53 C18.1962614,53 18,52.7967802 18,52.5462667 L18,47.4537333 C18,47.2032198 18.1962614,47 18.4381971,47 L34.5620797,47 C34.8040154,47 35,47.2032198 35,47.4537333 L35,52.5462667 C35,52.7967802 34.8040154,53 34.5620797,53" id="Fill-21" fill="#DA4F43"></path>
                <polygon id="Fill-22" fill="#161B36" points="38 52.5 55 52.5 55 52 38 52"></polygon>
                <polygon id="Fill-23" fill="#161B36" points="38 50.5 55 50.5 55 50 38 50"></polygon>
                <polygon id="Fill-24" fill="#161B36" points="38 49.5 55 49.5 55 49 38 49"></polygon>
                <polygon id="Fill-25" fill="#161B36" points="38 47.5 55 47.5 55 47 38 47"></polygon>
                <polygon id="Fill-26" fill="#161B36" points="18 44.5 35 44.5 35 44 18 44"></polygon>
                <polygon id="Fill-27" fill="#161B36" points="18 43.5 35 43.5 35 43 18 43"></polygon>
                <polygon id="Fill-28" fill="#161B36" points="18 41.5 35 41.5 35 41 18 41"></polygon>
                <polygon id="Fill-29" fill="#161B36" points="18 40.5 35 40.5 35 40 18 40"></polygon>
                <path d="M42.1309739,61 L22,61 L22.9463564,58.9647453 L43.0851331,58.9647453 L42.1309739,61 M54,25.2349113 L38.6311829,25.2349113 L40.1354326,22 L52.2572105,22 C52.7574195,23.2357593 53.364637,24.3122257 54,25.2349113" id="Fill-30" fill="#333444"></path>
                <path d="M43.0149723,59 L23,59 L25.7529311,52.9953428 L34.2075315,52.9953428 C34.44959,52.9953428 34.645674,52.7983822 34.645674,52.5555846 L34.645674,47.6199036 C34.645674,47.377106 34.44959,47.1801454 34.2075315,47.1801454 L28.4191753,47.1801454 L29.5134239,44.7932838 L34.5822514,44.7932838 L34.5822514,44.3763053 L29.7047997,44.3763053 L30.193902,43.3092736 L34.5822514,43.3092736 L34.5822514,42.8922951 L30.3850008,42.8922951 L30.874103,41.8255413 L34.5822514,41.8255413 L34.5822514,41.4085628 L31.0654788,41.4085628 L31.5545811,40.341809 L34.5822514,40.341809 L34.5822514,39.9248305 L31.7456799,39.9248305 L32.4358514,38.4194297 L34.2075315,38.4194297 C34.44959,38.4194297 34.645674,38.2224692 34.645674,37.9796715 L34.645674,33.5993137 L35.8822774,30.9018711 L56,30.9018711 L54.4329895,34.2927037 L37.565055,34.2927037 L37.565055,34.7096822 L54.2402289,34.7096822 L53.7472493,35.776436 L37.565055,35.776436 L37.565055,36.1934145 L53.5544888,36.1934145 L53.0615092,37.2604461 L37.565055,37.2604461 L37.565055,37.6774246 L52.8687486,37.6774246 L51.8188128,39.9495547 L37.8766292,39.9495547 C37.6345707,39.9495547 37.4382097,40.1465152 37.4382097,40.3893129 L37.4382097,45.3249939 C37.4382097,45.5677915 37.6345707,45.764752 37.8766292,45.764752 L49.131243,45.764752 L48.3826341,47.3848844 L37.565055,47.3848844 L37.565055,47.8018629 L48.1898735,47.8018629 L47.6968939,48.8686167 L37.565055,48.8686167 L37.565055,49.285873 L47.5041333,49.285873 L47.0111537,50.3526268 L37.565055,50.3526268 L37.565055,50.7696054 L46.8183932,50.7696054 L46.3254135,51.8363592 L37.565055,51.8363592 L37.565055,52.2533377 L46.132653,52.2533377 L43.0149723,59 L43.0149723,59 Z M37.565055,33.2259498 L54.5736826,33.2259498 L54.5736826,32.8089713 L37.565055,32.8089713 L37.565055,33.2259498 Z M55.1059898,26.6170766 L37.846995,26.6170766 L38.5884031,25 L53.8627395,25 C54.2723557,25.6036604 54.693881,26.1420377 55.1059898,26.6170766 L55.1059898,26.6170766 Z" id="Fill-31" fill="#FFFFFE"></path>
                <polyline id="Fill-32" fill="#B8B7C8" points="41.9748379 61.0985 22 61.0985 22.0251621 61 42 61 41.9748379 61.0985"></polyline>
                <path d="M55.9250111,31 L36,31 L37.9458972,27 L55.0395648,27 C55.7612529,27.7842324 56.4533164,28.3835581 57,28.8075726 L55.9250111,31" id="Fill-33" fill="#8BA6CB"></path>
                <path d="M34.6034591,39 L33,39 L35,34 L35,38.5438303 C35,38.795689 34.8225342,39 34.6034591,39" id="Fill-34" fill="#38498C"></path>
                <path d="M49.3835606,46 L38.4268161,46 C38.191164,46 38,45.7967802 38,45.5462667 L38,40.4537333 C38,40.2032198 38.191164,40 38.4268161,40 L52,40 L49.3835606,46" id="Fill-35" fill="#80AA96"></path>
                <polyline id="Fill-36" fill="#272E5B" points="52.8134148 37.5 38 37.5 38 37 53 37 52.8134148 37.5"></polyline>
                <polyline id="Fill-37" fill="#272E5B" points="53.8094097 36.5 38 36.5 38 36 54 36 53.8094097 36.5"></polyline>
                <polyline id="Fill-38" fill="#272E5B" points="54.8057302 34.5 38 34.5 38 34 55 34 54.8057302 34.5"></polyline>
                <polygon id="Fill-39" fill="#272E5B" points="38 33.5 55 33.5 55 33 38 33"></polygon>
                <path d="M34.5565729,53 L26,53 L28.6984023,47 L34.5565729,47 C34.801551,47 35,47.2032198 35,47.4537333 L35,52.5462667 C35,52.7967802 34.801551,53 34.5565729,53" id="Fill-40" fill="#E3695E"></path>
                <polyline id="Fill-41" fill="#272E5B" points="46.8019664 52.5 38 52.5 38 52 47 52 46.8019664 52.5"></polyline>
                <polyline id="Fill-42" fill="#272E5B" points="46.8163427 50.5 38 50.5 38 50 47 50 46.8163427 50.5"></polyline>
                <polyline id="Fill-43" fill="#272E5B" points="47.8097477 49.5 38 49.5 38 49 48 49 47.8097477 49.5"></polyline>
                <polyline id="Fill-44" fill="#272E5B" points="48.8039888 47.5 38 47.5 38 47 49 47 48.8039888 47.5"></polyline>
                <polyline id="Fill-45" fill="#272E5B" points="35 44.5 30 44.5 30.1887772 44 35 44 35 44.5"></polyline>
                <polyline id="Fill-46" fill="#272E5B" points="34 43.5 30 43.5 30.1741874 43 34 43 34 43.5"></polyline>
                <polyline id="Fill-47" fill="#272E5B" points="35 41.5 31 41.5 31.2064381 41 35 41 35 41.5"></polyline>
                <polyline id="Fill-48" fill="#272E5B" points="35 40.5 32 40.5 32.1893524 40 35 40 35 40.5"></polyline>
                <path d="M73.1940155,2 L77.0274453,4.27375826 C79.804945,5.9213464 80.796768,9.33617992 79.3135521,12.1256555 C79.0184339,12.6803561 78.8343027,13.0377035 78.8712984,12.9968251 C79.016457,12.836831 73,2.04656345 73,2.04656345" id="Fill-49" fill="#6D4536"></path>
                <path d="M62.9224707,39 L61.077792,39 C59.3849539,39 58,37.5055101 58,35.6790688 L58,26.3209312 C58,24.4944899 59.3849539,23 61.077792,23 L62.9224707,23 C64.6150461,23 66,24.4944899 66,26.3209312 L66,35.6790688 C66,37.5055101 64.6150461,39 62.9224707,39" id="Fill-50" fill="#F2B59D"></path>
                <path d="M77.9984018,13.4657616 C78.0841134,14.2091112 74.6940143,15.4657327 74.6542877,16.2498981 L75.2055631,17.8240996 C71.0432431,16.2736607 74.7155103,18.6365005 74.7155103,18.6423712 C73.4793581,22.4108379 73.9090047,24.4960748 70.3776855,25.9296577 C68.6180121,26.6439331 66.6869155,26.9712977 64.6766376,26.8250879 C63.6853758,26.7543592 62.7349291,26.8262061 61.8320999,26.898053 C60.2754134,27.021898 58.859675,27.145743 57.6197134,26.538539 C57.2153722,26.3453632 56.8338874,26.0702763 56.4692729,25.7015368 C55.7800425,24.9936913 55.1650956,24.2153967 54.6464722,23.3725238 C54.4472947,23.0390089 54.2535592,22.705494 54.076966,22.3546464 C53.011965,20.2420127 50.8335291,14.0391388 51.0101223,11.4937465 C51.499903,4.30794022 58.2006478,-0.502166452 65.9125177,0.0418570044 C66.1116952,0.0558349966 66.3054307,0.0594692746 66.5048803,0.071210788 C70.6682887,0.369501142 74.2281784,2.64008619 76.4036212,5.9344194 C76.5176313,6.11026254 76.6313693,6.29141732 76.7396653,6.47285166 L76.7396653,6.47872241 C77.3660404,7.52623315 77.7023565,12.0086957 77.7023565,12.0086957 C77.8449371,12.4825496 77.9415328,12.9684246 77.9984018,13.4657616" id="Fill-51" fill="#6D4536"></path>
                <path d="M78.9773107,15.1285302 L78.8780284,17.0365594 L78.7087465,20.2015509 L78.44325,21.3235391 C78.4198239,21.8217798 78.1599051,24.442277 78.0664793,24.9177966 C77.1673609,29.3962825 74.1356253,30.3475922 69.4303136,30.9137256 C69.2905933,30.9364467 69.1444586,30.9478073 69.0041806,30.953217 C68.5021914,31.0043395 67.9943457,31.0100197 67.4747869,30.9872987 C66.9727978,30.9645776 66.4825217,30.9023651 65.9978233,30.8117513 C65.0582669,30.6475645 64.153292,30.3586823 63.3185956,29.9737765 L63.3068825,29.9683667 C61.2286474,29.017057 59.5182588,27.4601224 58.4091416,25.5520932 C57.563011,24.1082231 57.0607429,22.466355 57.008313,20.7279224 C57.0021775,20.6091778 57.0021775,20.4904331 57.0021775,20.3657377 C56.9965999,20.2299522 57.0021775,20.0828062 57.0138906,19.9353897 L57.0138906,19.8618167 L57.0256037,19.5164023 L57.0783126,18.616215 L57.2358814,15.5077557 L57.241459,15.4796249 L57.241459,15.4739446 L57.2710206,14.8964507 L57.2941679,14.4490619 L57.3175941,14.0360252 L57.3234506,13.9281001 C57.3703029,13.2091404 57.5161587,12.5183116 57.7378705,11.8558841 C57.8778697,11.3860448 58.0588647,10.9332462 58.2632859,10.497218 C58.2925686,10.4293253 58.3157158,10.3671128 58.3508551,10.2989496 C58.5142804,9.94244512 58.7069885,9.58567017 58.9169873,9.25161629 L58.9169873,9.24593602 C59.7109668,7.96084291 60.7735105,6.85102666 62.03434,5.99601102 C62.2853345,5.82046367 62.5477633,5.65627687 62.8107499,5.5034506 C64.6438469,4.46179756 66.8035159,3.90107392 69.074459,4.0144088 C70.9658426,4.11070288 72.3636036,4.65979549 73.8871407,5.54862226 C74.8091274,6.08662482 75.6441027,6.74905232 76.3622261,7.51345415 C77.383774,8.5891888 78.0491886,9.85751159 78.5394646,11.2559396 C78.5687473,11.3351928 78.5921735,11.4144461 78.6155997,11.4936994 C78.7614554,11.9521782 78.8607377,12.422288 78.9187453,12.9034879 C79.0065934,13.6227181 79.0183065,14.3698086 78.9773107,15.1285302" id="Fill-52" fill="#F4C2AA"></path>
                <path d="M74.488073,6.50893106 C76.7515223,12.8685042 70.7923274,12.3503229 70.5150029,15.2708794 C70.4838244,15.5994142 70.3692297,16.0827339 70.2841726,18.4745113 L69.8288025,19.9707666 C69.6969776,20.4376317 69.273333,20.7586363 68.7982712,20.7586363 C68.2028713,20.7586363 67.7220661,20.2683443 67.7220661,19.6614754 L67.7220661,19.6321918 L67.7737568,17.2504545 L66.6114006,20.3910568 C65.7755981,22.6559383 64.5046642,24.7049574 62.9017067,26.432972 C61.5678688,27.8631299 60.0051151,29.0774254 58.2706062,30 C58.2706062,30 51,25.5923916 51,15.5282967 C51,14.7284346 51.0459473,13.893711 51.1430382,13.023847 C51.2346592,12.2415551 51.3604672,11.5116949 51.5324959,10.8289674 C54.5434086,-1.6754321 69.6113735,2.59189362 71.0595325,3.14633082 C72.5823559,3.73033056 74.488073,6.50893106 74.488073,6.50893106" id="Fill-53" fill="#6D4536"></path>
                <path d="M80,21.7351503 L79.9976026,21.888543 C79.978423,22.5288471 79.4091636,23.0373009 78,22.9978497 L78.1971231,18 C79.3415024,19.7002967 79.8963772,20.6886542 80,21.7351503" id="Fill-54" fill="#F4C2AA"></path>
                <path d="M79.2577332,16 L75.7422668,16 C75.3341096,16 75,15.7750956 75,15.4998994 C75,15.2249044 75.3341096,15 75.7422668,15 L79.2577332,15 C79.6658904,15 80,15.2249044 80,15.4998994 C80,15.7750956 79.6658904,16 79.2577332,16" id="Fill-55" fill="#6D4536"></path>
                <path d="M77.5,19 L77.5,19 C77.2249437,19 77,18.7408789 77,18.4240311 L77,17.5759689 C77,17.2594454 77.2249437,17 77.5,17 C77.7747748,17 78,17.2594454 78,17.5759689 L78,18.4240311 C78,18.7408789 77.7747748,19 77.5,19" id="Fill-56" fill="#11132B"></path>
                <path d="M58.3306524,29 C58.3306524,29 57.8726245,28.7271894 57.1859963,28.16222 C56.636418,27.7102997 55.9406898,27.0715304 55.2151803,26.2356852 C53.2189949,23.9357288 51,20.1448502 51,14.6574047 C51,13.8646785 51.0463267,13.0374018 51.1442195,12.1752982 C51.2365972,11.3999855 51.3634442,10.6766366 51.5368936,10 C51.8600777,11.8975124 52.7143645,14.7729415 54.8961325,18.3252837 C58.2151113,23.7292552 61.817014,25.1350451 63,25.4647949 C62.0453386,26.4711813 60.9740331,27.3694937 59.8073167,28.1331976 C59.396167,28.4024149 58.9734357,28.6544952 58.5391226,28.8888857 C58.4699083,28.9264766 58.4004182,28.9635147 58.3306524,29" id="Fill-57" fill="#583B35"></path>
                <path d="M77,25.2052278 L76.9063501,28.8724042 C76.9063501,31.9985128 73.2766809,33.2548351 70.5827108,32.9576288 L66.2889541,32.4840585 L66.7211846,28.6884194 L67.8930096,21.42483 L66,16 L69.8986126,17.6509642 L69.898079,17.6569519 C69.6035219,21.9672586 72.6310032,25.4512666 76.8623266,25.2520405 L77,25.2052278" id="Fill-58" fill="#6D4536"></path>
                <path d="M67.1980741,16.0028613 C67.6436998,16.0053431 68.0029959,16.3715469 67.9999812,16.819926 L67.9810708,19.5849301 L67.9621605,22 L67.0185631,21.9944849 C66.9494993,21.9931061 66.8804355,21.9920031 66.8154827,21.9818001 C65.2377044,21.8615706 63.99209,20.4734155 64.0000378,18.8864405 C64.0027784,18.0627577 64.351386,17.3623378 64.9047184,16.8174442 C65.4002235,16.3315623 66.0689362,16.0547034 66.808083,16.0133401 L66.812468,16.0130643 C66.8979755,16.0006553 66.9708762,15.9973462 67.05748,16.0020341 L67.1980741,16.0028613" id="Fill-59" fill="#F2B59D"></path>
                <polygon id="Fill-60" fill="#11132B" points="39 102 64 102 64 97 39 97"></polygon>
                <path d="M30,141 L30,143" id="Fill-61" fill="#2F365B"></path>
                <polygon id="Fill-62" fill="#6C6976" points="136 102 159 102 159 97 136 97"></polygon>
                <polygon id="Fill-63" fill="#6C6976" points="156 147 161 147 161 81 156 81"></polygon>
                <polygon id="Fill-64" fill="#AAA7B4" points="135 148 140 148 140 81 135 81"></polygon>
                <polygon id="Fill-65" fill="#6C6976" points="135 106 140 106 140 78 135 78"></polygon>
                <polygon id="Fill-66" fill="#6C6976" points="9 102 32 102 32 97 9 97"></polygon>
                <polygon id="Fill-67" fill="#6C6976" points="29 147 34 147 34 81 29 81"></polygon>
                <polygon id="Fill-68" fill="#6C6976" points="7 148 12 148 12 81 7 81"></polygon>
                <polygon id="Fill-69" fill="#52505B" points="106 75 124 75 124 37 106 37"></polygon>
                <path d="M142,62 L84,62 L84,26.3301637 C84,25.0432861 85.0361003,24 86.3138372,24 L139.685886,24 C140.9639,24 142,25.0432861 142,26.3301637 L142,62" id="Fill-70" fill="#DADAD5"></path>
                <path d="M137.113149,68 L88.886851,68 C86.1880098,68 84,65.7339348 84,62.9388148 L84,61 L142,61 L142,62.9388148 C142,65.7339348 139.812267,68 137.113149,68" id="Fill-71" fill="#DADAD5"></path>
                <path d="M140,26.3270431 L140,62 L82,62 L82,26.3270431 C82,25.0407519 83.0363576,24 84.3137929,24 L137.686207,24 C138.963642,24 140,25.0407519 140,26.3270431" id="Fill-72" fill="#706F78"></path>
                <path d="M137,26.2090616 L137,57.7909384 C137,57.904972 136.904416,58 136.786984,58 L84.2102849,58 C84.0955841,58 84,57.904972 84,57.7909384 L84,26.2090616 C84,26.0923129 84.0955841,26 84.2102849,26 L136.786984,26 C136.904416,26 137,26.0923129 137,26.2090616" id="Fill-73" fill="#222D53"></path>
                <path d="M140,61 L140,62.9372694 C140,64.9692497 138.844213,66.7228372 137.175667,67.5264453 C136.549269,67.8306683 135.848036,68 135.110771,68 L86.886457,68 C84.1868489,68 82,65.7326773 82,62.9372694 L82,61 L140,61" id="Fill-74" fill="#A5A2B6"></path>
                <polygon id="Fill-75" fill="#6980B1" points="87 31 105 31 105 30 87 30"></polygon>
                <polygon id="Fill-76" fill="#DADAD5" points="113 31 121 31 121 30 113 30"></polygon>
                <polygon id="Fill-77" fill="#F7C04B" points="125 31 133 31 133 30 125 30"></polygon>
                <polygon id="Fill-78" fill="#6980B1" points="122 31 124 31 124 30 122 30"></polygon>
                <polygon id="Fill-79" fill="#DA4F43" points="106 31 112 31 112 30 106 30"></polygon>
                <polygon id="Fill-80" fill="#6980B1" points="87 47 105 47 105 46 87 46"></polygon>
                <polygon id="Fill-81" fill="#DADAD5" points="113 47 121 47 121 46 113 46"></polygon>
                <polygon id="Fill-82" fill="#F7C04B" points="125 47 133 47 133 46 125 46"></polygon>
                <polygon id="Fill-83" fill="#6980B1" points="122 47 124 47 124 46 122 46"></polygon>
                <polygon id="Fill-84" fill="#9997A2" points="106 47 112 47 112 46 106 46"></polygon>
                <polygon id="Fill-85" fill="#6980B1" points="116 42 134 42 134 41 116 41"></polygon>
                <polygon id="Fill-86" fill="#DADAD5" points="100 42 108 42 108 41 100 41"></polygon>
                <polygon id="Fill-87" fill="#F7C04B" points="87 42 95 42 95 41 87 41"></polygon>
                <polygon id="Fill-88" fill="#6980B1" points="97 42 99 42 99 41 97 41"></polygon>
                <polygon id="Fill-89" fill="#9997A2" points="109 42 115 42 115 41 109 41"></polygon>
                <polygon id="Fill-90" fill="#DA4F43" points="87 34 94 34 94 33 87 33"></polygon>
                <polygon id="Fill-91" fill="#6980B1" points="107 34 110 34 110 33 107 33"></polygon>
                <polygon id="Fill-92" fill="#DADAD5" points="120 34 134 34 134 33 120 33"></polygon>
                <polygon id="Fill-93" fill="#6980B1" points="111 34 119 34 119 33 111 33"></polygon>
                <polygon id="Fill-94" fill="#6980B1" points="95 34 107 34 107 33 95 33"></polygon>
                <polygon id="Fill-95" fill="#6980B1" points="87 50 94 50 94 49 87 49"></polygon>
                <polygon id="Fill-96" fill="#6980B1" points="107 50 110 50 110 49 107 49"></polygon>
                <polygon id="Fill-97" fill="#6980B1" points="120 50 134 50 134 49 120 49"></polygon>
                <polygon id="Fill-98" fill="#6980B1" points="111 50 119 50 119 49 111 49"></polygon>
                <polygon id="Fill-99" fill="#6980B1" points="95 50 107 50 107 49 95 49"></polygon>
                <polygon id="Fill-100" fill="#DA4F43" points="87 45 94 45 94 44 87 44"></polygon>
                <polygon id="Fill-101" fill="#6980B1" points="107 45 110 45 110 44 107 44"></polygon>
                <polygon id="Fill-102" fill="#DADAD5" points="120 45 134 45 134 44 120 44"></polygon>
                <polygon id="Fill-103" fill="#6980B1" points="111 45 119 45 119 44 111 44"></polygon>
                <polygon id="Fill-104" fill="#6980B1" points="95 45 107 45 107 44 95 44"></polygon>
                <polygon id="Fill-105" fill="#DADAD5" points="87 37 94 37 94 36 87 36"></polygon>
                <polygon id="Fill-106" fill="#6980B1" points="95 37 107 37 107 36 95 36"></polygon>
                <polygon id="Fill-107" fill="#DADAD5" points="100 39 107 39 107 38 100 38"></polygon>
                <polygon id="Fill-108" fill="#6980B1" points="87 39 99 39 99 38 87 38"></polygon>
                <path d="M122.69989,76 L99.3001097,76 C98.5820609,76 98,75.3284479 98,74.5 C98,73.6715521 98.5820609,73 99.3001097,73 L122.69989,73 C123.417939,73 124,73.6715521 124,74.5 C124,75.3284479 123.417939,76 122.69989,76" id="Fill-109" fill="#434251"></path>
                <path d="M166,81 L92,81 L92,77.12417 C92,75.9511957 92.9385119,75 94.0961841,75 L163.903541,75 C165.061213,75 166,75.9511957 166,77.12417 L166,81" id="Fill-110" fill="#DC8B6B"></path>
                <path d="M145,77.1253482 L145,81 L2,81 L2,77.1253482 C2,75.9526462 2.94117079,75 4.10314412,75 L142.896856,75 C144.058829,75 145,75.9526462 145,77.1253482" id="Fill-111" fill="#96443C"></path>
                <path d="M104,75 C102.854744,76.8662953 101.489354,79.091922 100.321806,81 L65,81 L65.4820663,75 L104,75" id="Fill-112" fill="#72322E"></path>
                <polygon id="Fill-113" fill="#6F3649" points="173 147 210 147 210 101 173 101"></polygon>
                <polygon id="Fill-114" fill="#5F3449" points="160 147 196 147 196 101 160 101"></polygon>
                <polygon id="Fill-115" fill="#D17551" points="160 117 194 117 194 105 160 105"></polygon>
                <polygon id="Fill-116" fill="#D17551" points="160 131 194 131 194 119 160 119"></polygon>
                <polygon id="Fill-117" fill="#D17551" points="160 147 194 147 194 134 160 134"></polygon>
                <path d="M170.674157,111 L179.325843,111 C179.696657,111 180,110.775021 180,110.5 C180,110.224979 179.696657,110 179.325843,110 L170.674157,110 C170.303343,110 170,110.224979 170,110.5 C170,110.775021 170.303343,111 170.674157,111" id="Fill-118" fill="#FFFFFE"></path>
                <path d="M170.674157,126 L179.325843,126 C179.696657,126 180,125.775021 180,125.5 C180,125.224979 179.696657,125 179.325843,125 L170.674157,125 C170.303343,125 170,125.224979 170,125.5 C170,125.775021 170.303343,126 170.674157,126" id="Fill-119" fill="#FFFFFE"></path>
                <path d="M170.674157,140 L179.325843,140 C179.696657,140 180,139.775021 180,139.5 C180,139.224979 179.696657,139 179.325843,139 L170.674157,139 C170.303343,139 170,139.224979 170,139.5 C170,139.775021 170.303343,140 170.674157,140" id="Fill-120" fill="#FFFFFE"></path>
                <path d="M77,150.807555 L94.1306963,150.99989 C95.152335,151.011221 95.9891477,150.147166 95.9998902,149.069567 C96.0084291,148.239795 95.5181307,147.495151 94.7782759,147.213621 L86.3338496,144 L77.0672094,144.134228 L77,150.807555" id="Fill-121" fill="#6F3649"></path>
                <path d="M94.7257883,150.999994 L77,150.95694 L77.0039414,150 L96,150.046235 C95.9977477,150.574758 95.4270833,151.001902 94.7257883,150.999994" id="Fill-122" fill="#11132B"></path>
                <path d="M86,146.377272 L87.958683,144 M87.4281896,147.072247 L89.3868726,144.694669 M88.7949115,148 L91,145.304109" id="Stroke-123" stroke="#11132B" stroke-width="1.493" stroke-linecap="round"></path>
                <path d="M76.8018902,145 C77.7996112,128.137551 77.5303454,112.547861 76.2238258,109.390564 C74.8841318,107.429866 64.4391632,103.181038 54,102.72269 L58.885211,92 C72.5774033,92.6918313 82.3646889,97.8568005 85.7880134,103.760575 C87.2333127,106.252169 88.4884119,111.27816 87.8113771,128.47221 C87.4566872,137.477968 87.0193376,144.533035 87.0193376,144.533035 L76.8018902,145" id="Fill-124" fill="#4563A0"></path>
                <path d="M92,150.874467 L109.137019,150.999951 C110.159002,151.007538 110.993066,150.136156 110.999954,149.053785 C111.005465,148.22034 110.512522,147.474441 109.771315,147.194583 L101.313022,144 L92.0435355,144.1713 L92,150.874467" id="Fill-125" fill="#914D3A"></path>
                <path d="M109.748594,150.993179 L92.0008324,151 L92,150.007261 L111,150 C111.000277,150.548295 110.440058,150.992959 109.748594,150.993179" id="Fill-126" fill="#11132B"></path>
                <path d="M101,146.387832 L102.952289,144 M102.43159,147.07697 L104.383879,144.689139 M103.802471,148 L106,145.292364" id="Stroke-127" stroke="#11132B" stroke-width="1.493" stroke-linecap="round"></path>
                <path d="M91.8017992,145 C92.7995282,128.137551 92.5302602,112.547861 91.2240065,109.390564 C89.8840252,107.429866 79.439248,103.181038 69,102.72269 L73.8849743,92 C87.5772779,92.6918313 97.3649195,97.8568005 100.787995,103.760575 C102.233306,106.252169 103.488416,111.27816 102.811376,128.47221 C102.456683,137.477968 102.019606,144.533035 102.019606,144.533035 L91.8017992,145" id="Fill-128" fill="#4563A0"></path>
                <path d="M76,95.3317779 C76,97.1875128 75.3447362,98.8883755 74.2568736,100.214213 C72.8653522,101.914802 70.7538262,103 68.3914633,103 L55.6047443,103 C55.2246967,103 54.8525047,102.971593 54.4884391,102.914233 C53.5498326,102.779573 52.6681114,102.465732 51.8752394,102.01286 C51.7335681,101.935561 51.5962309,101.849794 51.4624151,101.75993 C49.3793317,100.393668 48,98.0236041 48,95.3317779 L48.2345839,91.2406392 L75.7778767,91 L76,95.3317779" id="Fill-129" fill="#243B70"></path>
                <path d="M85.9815377,72.9882011 L92.286124,71.8698216 C92.7465756,71.7881502 93.062958,71.3032986 92.9893687,70.7922777 C92.9157793,70.2812568 92.4789073,69.9301276 92.0184557,70.0117989 L85.7138694,71.1301784 C85.2536768,71.2118498 84.9370353,71.6967014 85.0106247,72.2077223 C85.084214,72.7187432 85.521086,73.0698724 85.9815377,72.9882011" id="Fill-130" fill="#F2B59D"></path>
                <path d="M88.0167564,74.9872657 L93.2605093,74.0182817 C93.7374825,73.9301358 94.065217,73.4068471 93.9889872,72.8553146 C93.9127574,72.303782 93.4602099,71.9248168 92.9832367,72.0126523 L87.7394839,72.9819467 C87.2627791,73.0700926 86.9347761,73.5933812 87.0110059,74.1449138 C87.0872357,74.6964464 87.5397832,75.0754116 88.0167564,74.9872657" id="Fill-131" fill="#F2B59D"></path>
                <path d="M87.0217673,76.9879787 L93.2572661,75.9050666 C93.7361939,75.8218558 94.0657263,75.327865 93.9888714,74.8072117 C93.9125558,74.2865583 93.4576284,73.9288105 92.978431,74.0120213 L86.7429321,75.0949334 C86.2640044,75.1781442 85.9344719,75.672135 86.0110572,76.1927883 C86.0879122,76.7134417 86.5425699,77.0711895 87.0217673,76.9879787" id="Fill-132" fill="#F2B59D"></path>
                <path d="M89,71.0188561 C88.9270452,71.0273431 88.0926766,71.0161183 87.1889869,71.0013345 C85.6281446,70.9758735 84.083235,71.3150802 82.6822784,71.9896608 L80,73.2821507 C80,73.2821507 81.5362445,77.7471408 81.748121,77.7846479 C86.9195292,78.7001502 88.6936456,76.4004435 88.6936456,76.4004435 L89,71.0188561" id="Fill-133" fill="#F2B59D"></path>
                <polygon id="Fill-134" fill="#FFFFFE" points="82 78 84 78 84 71 82 71"></polygon>
                <path d="M67.2548071,79 C61.9996967,79 57.1950863,75.9190092 54.9873646,71.1207537 L54.8782676,70.8838802 L48,49.7868752 L56.4732007,47 L63.1758818,67.5589288 C63.9713129,69.0930185 65.5708596,70.0639545 67.3001285,70.0446012 L81.9115283,69.8993151 L82,78.8541688 L67.3883288,78.9994548 C67.344093,78.9997274 67.299043,79 67.2548071,79" id="Fill-135" fill="#171921"></path>
                <path d="M115.155742,70.1637456 C114.620756,69.2142815 113.817347,68.4370863 112.836673,67.9560033 L112.813551,67.9446246 C111.47994,67.2957712 110.009991,66.9729322 108.526222,67.001776 L105.684392,67.0565528 C105.684392,67.0565528 104.964433,73.195521 105.001374,72.9952021 C105.074726,72.5966812 111.94875,72.69909 115.098603,72.7670978 C115.780823,72.7816521 116.219602,72.0523535 115.8858,71.4596 L115.155742,70.1637456" id="Fill-136" fill="#F2B59D"></path>
                <polygon id="Fill-137" fill="#FFFFFE" points="104 75 107 75 107 67 104 67"></polygon>
                <path d="M90.2219772,76 C84.9553414,76 80.139945,72.8412582 77.9269951,67.9219155 L68,45.8512448 L76.1117017,42 L86.0384248,64.0703912 C86.7978343,65.7583324 88.4406831,66.8412418 90.2674003,66.818885 L104.911602,66.6699325 L105,75.8504886 L90.3557986,75.9994411 C90.3114635,75.9997205 90.2665843,76 90.2219772,76" id="Fill-138" fill="#2B4687"></path>
                <path d="M79,49.6395364 L78.6175034,93.0839137 C78.6175034,93.0839137 78.0922635,93.6708763 76.5287392,94.4928457 C75.1719849,95.2081197 73.0380418,96.1013116 69.787652,96.94462 C65.9998268,97.9284336 60.6653847,98.0803012 56.1078543,97.9686176 C51.0796868,97.8452945 47,97.4032712 47,97.4032712 L47.1044936,49.6395364 C47.1044936,42.9182881 51.9707931,37.3280098 58.3748398,36.2017511 C59.1445449,36.0687284 59.9358695,36 60.7460416,36 L65.358452,36 C72.8908637,36 79,42.1082354 79,49.6395364" id="Fill-139" fill="#2B4687"></path>
                <polygon id="Fill-140" fill="#AAA7B4" points="58 138 63 138 63 112 58 112"></polygon>
                <path d="M58,114 L58,120 L63,118.25812 L63,114.196033 C61.7486457,114.142857 59.3404358,114.052889 58,114" id="Fill-141" fill="#6C6976"></path>
                <path d="M73.4863999,114 L46.5136001,114 C45.1312556,114 44,112.874865 44,111.5 C44,110.124865 45.1312556,109 46.5136001,109 L73.4863999,109 C74.8690155,109 76,110.124865 76,111.5 C76,112.874865 74.8690155,114 73.4863999,114" id="Fill-142" fill="#27282F"></path>
                <path d="M80,147 L77.1363482,147 C77.1363482,143.604474 74.3531531,140.841983 70.9320908,140.841983 L50.0681847,140.841983 C46.6468469,140.841983 43.8636518,143.604474 43.8636518,147 L41,147 C41,142.037264 45.0680222,138 50.0681847,138 L70.9320908,138 C75.9322533,138 80,142.037264 80,147" id="Fill-143" fill="#27282F"></path>
                <polygon id="Fill-144" fill="#27282F" points="57 138 64 138 64 134 57 134"></polygon>
                <path d="M45,149.000123 C45,150.104639 43.8807483,151 42.5,151 C41.1192517,151 40,150.104639 40,149.000123 C40,147.895361 41.1192517,147 42.5,147 C43.8807483,147 45,147.895361 45,149.000123" id="Fill-145" fill="#11132B"></path>
                <path d="M46,150 L39,150 L39,149.346939 C39,147.498521 40.4629873,146 42.2678715,146 L42.7321285,146 C44.5370127,146 46,147.498521 46,149.346939 L46,150" id="Fill-146" fill="#161B36"></path>
                <path d="M81,149.000123 C81,150.104639 79.8807483,151 78.5,151 C77.1195413,151 76,150.104639 76,149.000123 C76,147.895361 77.1195413,147 78.5,147 C79.8807483,147 81,147.895361 81,149.000123" id="Fill-147" fill="#11132B"></path>
                <path d="M82,150 L75,150 L75,149.346939 C75,147.498521 76.4629873,146 78.2678715,146 L78.7324248,146 C80.5370127,146 82,147.498521 82,149.346939 L82,150" id="Fill-148" fill="#161B36"></path>
                <polygon id="Fill-149" fill="#27282F" points="59 147 63 147 63 139 59 139"></polygon>
                <path d="M63,149.000123 C63,150.104639 61.8807483,151 60.5,151 C59.1192517,151 58,150.104639 58,149.000123 C58,147.895361 59.1192517,147 60.5,147 C61.8807483,147 63,147.895361 63,149.000123" id="Fill-150" fill="#11132B"></path>
                <path d="M64,150 L57,150 L57,149.346939 C57,147.498521 58.4630492,146 60.2677135,146 L60.7322865,146 C62.5369508,146 64,147.498521 64,149.346939 L64,150" id="Fill-151" fill="#161B36"></path>
                <path d="M24.053859,62.3780088 L30.2017442,106.906193 C30.5756077,109.614037 32.8411706,111.657049 35.5643226,111.742163 L58,112 L45.5246205,56.0088787 L29.5993625,56.0000069 C26.2039195,55.9947393 23.5879804,59.0031156 24.053859,62.3780088" id="Fill-152" fill="#F1AD2B"></path>
                <path d="M84.14871,112 L52.8515673,112 C50.1833023,112 48,109.750121 48,107.000143 C48,104.250164 50.1833023,102 52.8515673,102 L84.14871,102 C86.8169749,102 89,104.250164 89,107.000143 C89,109.750121 86.8169749,112 84.14871,112" id="Fill-153" fill="#F1AD2B"></path>
                <path d="M54.2289773,48.8513191 C53.6430469,57.5163406 55.2952314,88.7695352 55.8077195,98 C50.9452472,97.878208 47,97.4416726 47,97.4416726 L47.1010502,50.2709485 C47.1010502,43.6331479 51.8069885,38.1122757 58,37 C58,37 54.9183703,38.6448762 54.2289773,48.8513191" id="Fill-154" fill="#2B4687"></path>
                <polyline id="Fill-155" fill="#FFFFFE" points="70 37 56 37 56 33 70 34.6918088 70 37"></polyline>
                <path d="M47.3660419,105.403458 L41.0345135,60.1897608 C40.7523665,58.1754807 42.2315576,56.3050386 44.321217,56.0332837 C46.4114133,55.7612543 48.3520798,57.1870067 48.6339583,59.2012867 L54.9654867,104.414984 C55.2476337,106.429264 53.7684426,108.299707 51.6785147,108.571461 C49.5888553,108.843491 48.5072472,110.354064 47.3660419,105.403458" id="Fill-156" fill="#DE9E28"></path>
                <path d="M79,68.7304658 L78.7687,92.6169332 C78.7687,92.6169332 78.2002,93.1931203 76.5079,94 L73,58 C73,58 76.2145,65.2858568 79,68.7304658" id="Fill-157" fill="#2B4687"></path>
                <polygon id="Fill-158" fill="#767386" points="120 67.5 120.5 67.5 120.5 67 120 67"></polygon>
                <path d="M133.455732,61 L126,61 C126.613579,60.3431786 127.237651,59.6728551 127.861448,59 L134,59 L133.455732,61" id="Fill-160" fill="#4F5057"></path>
                <path d="M134.294677,59 L128,59 C131.590769,55.1314121 135.184936,51.1720461 136.924962,49 L137,49.0668588 L134.294677,59" id="Fill-161" fill="#161E36"></path>
                <path d="M132.135801,68 L130.424654,68 L130.424654,63.6846248 C130.424654,63.1401804 129.998591,62.697048 129.475457,62.697048 L125,62.697048 C125.506036,62.1457155 126.026413,61.5780238 126.554235,61 L134,61 L132.135801,68" id="Fill-162" fill="#767386"></path>
                <path d="M131,75 L160.871777,75 C161.037792,74.7631436 161.169232,74.4952508 161.24881,74.2069393 L167.932229,50.2700103 C168.254107,49.1298324 167.388906,48 166.194694,48 L139.911866,48 C139.102095,48 138.392483,48.5393248 138.174605,49.3119668 L131,75" id="Fill-163" fill="#DADAD5"></path>
                <path d="M166.933833,49.2624891 L160.303286,73.1204773 C159.995459,74.2313512 158.982081,75 157.824323,75 L130,75 L137.420546,48.3064313 C137.635753,47.5350664 138.33858,47 139.1422,47 L165.209455,47 C166.394454,47 167.249833,48.1244544 166.933833,49.2624891" id="Fill-164" fill="#9997A2"></path>
                <path d="M165.937124,50.1243839 L159.232667,74 L131,74 L132.159063,69.8653339 L137.955774,49.2261785 C138.158331,48.5007791 138.828972,48 139.590164,48 L164.302733,48 C165.423904,48 166.237478,49.057231 165.937124,50.1243839" id="Fill-165" fill="#222D53"></path>
                <polyline id="Fill-166" fill="#EDEFED" points="149.804096 51 141 51 141.196186 50 150 50 149.804096 51"></polyline>
                <polyline id="Fill-167" fill="#DA4F43" points="156.820204 51 153 51 153.179796 50 157 50 156.820204 51"></polyline>
                <polyline id="Fill-168" fill="#9997A2" points="162.820463 51 159 51 159.179796 50 163 50 162.820463 51"></polyline>
                <polyline id="Fill-169" fill="#6980B1" points="157.834249 51 157 51 157.165751 50 158 50 157.834249 51"></polyline>
                <polyline id="Fill-170" fill="#9997A2" points="152.811481 51 150 51 150.188519 50 153 50 152.811481 51"></polyline>
                <polyline id="Fill-171" fill="#DADAD5" points="143 62 146.820204 62 147 61 143.179796 61 143 62"></polyline>
                <polyline id="Fill-172" fill="#F7C04B" points="137 62 140.820451 62 141 61 137.179549 61 137 62"></polyline>
                <polyline id="Fill-173" fill="#6980B1" points="142 62 142.83405 62 143 61 142.16595 61 142 62"></polyline>
                <polyline id="Fill-174" fill="#DA4F43" points="142.831961 54 140 54 140.168039 53 143 53 142.831961 54"></polyline>
                <polyline id="Fill-175" fill="#6980B1" points="150.75713 54 149 54 149.24287 53 151 53 150.75713 54"></polyline>
                <polyline id="Fill-176" fill="#DA4F43" points="161.807283 54 155 54 155.192994 53 162 53 161.807283 54"></polyline>
                <polyline id="Fill-177" fill="#6980B1" points="154.800502 54 151 54 151.199498 53 155 53 154.800502 54"></polyline>
                <polyline id="Fill-178" fill="#6980B1" points="148.799721 54 143 54 143.200279 53 149 53 148.799721 54"></polyline>
                <polyline id="Fill-179" fill="#2F365B" points="137.831961 69 135 69 135.168281 68 138 68 137.831961 69"></polyline>
                <polyline id="Fill-180" fill="#DADAD5" points="141.831733 56 139 56 139.168267 55 142 55 141.831733 56"></polyline>
                <polyline id="Fill-181" fill="#DADAD5" points="146.831961 56 144 56 144.168039 55 147 55 146.831961 56"></polyline>
                <polyline id="Fill-182" fill="#6980B1" points="160.799442 56 155 56 155.200269 55 161 55 160.799442 56"></polyline>
                <polyline id="Fill-183" fill="#6980B1" points="138 59 143.799442 59 144 58 138.200269 58 138 59"></polyline>
                <polyline id="Fill-184" fill="#9997A2" points="161 70 159.81307 74 131 74 132.183324 70 161 70"></polyline>
                <path d="M144.55075,75 L110.44925,75 C109.652272,75 109,74.3251702 109,73.5 C109,72.6751135 109.652272,72 110.44925,72 L144.55075,72 C145.348002,72 146,72.6751135 146,73.5 C146,74.3251702 145.348002,75 144.55075,75" id="Fill-185" fill="#9997A2"></path>
                <polyline id="Fill-186" fill="#BBBDCD" points="157.452404 48 147 48 147.547596 47 158 47 157.452404 48"></polyline>
                <path d="M147.905218,70 L137,70 L137.000557,69.9988908 L137.52199,68.8622172 L137.854191,68.8622172 L138.047603,68.2540871 L137.80124,68.2540871 L141.093428,61.079095 L141.187069,61.079095 L141.380481,60.4709649 L141.372399,60.4709649 L142.284,58.4846285 L143.497983,58.4846285 L143.691674,57.8764984 L142.562971,57.8764984 L144.664866,53.2959728 L148.816262,53.2959728 L149.009675,52.6878427 L144.943837,52.6878427 L145.85516,50.7017836 L149.06597,50.7017836 L149.259383,50.0933762 L146.13413,50.0933762 L147.094782,48.0002773 L147.094782,48 L158,48 L158,48.0002773 L157.039349,50.0933762 L153.028135,50.0933762 L152.834444,50.7017836 L156.760378,50.7017836 L155.849055,52.6878427 L155.427951,52.6878427 L155.234261,53.2959728 L155.570084,53.2959728 L147.905776,69.9988908 L147.905218,70 M143.20675,60.4709649 L143.013059,61.079095 L147.128504,61.079095 L147.322195,60.4709649 L143.20675,60.4709649 M141.867077,60.4709649 L141.673386,61.079095 L142.646857,61.079095 L142.840548,60.4709649 L141.867077,60.4709649 M144.235681,55.2823092 L144.042268,55.8904393 L147.30185,55.8904393 L147.495262,55.2823092 L144.235681,55.2823092 M151.251752,52.6878427 L151.058061,53.2959728 L154.747943,53.2959728 L154.941634,52.6878427 L151.251752,52.6878427 M149.486238,52.6878427 L149.292826,53.2959728 L150.692138,53.2959728 L150.88555,52.6878427 L149.486238,52.6878427 M149.66683,50.0933762 L149.473418,50.7017836 L152.35788,50.7017836 L152.551293,50.0933762 L149.66683,50.0933762" id="Fill-187" fill="#2A4085"></path>
                <polyline id="Fill-188" fill="#F6F7F7" points="148.829554 51 146 51 146.245845 50 149 50 148.829554 51"></polyline>
                <polyline id="Fill-189" fill="#E36C61" points="156.734624 51 153 51 153.184252 50 157 50 156.734624 51"></polyline>
                <polyline id="Fill-190" fill="#BBBDCD" points="152.811481 51 150 51 150.188519 50 153 50 152.811481 51"></polyline>
                <polyline id="Fill-191" fill="#E9EAEB" points="146.820204 62 143 62 143.179796 61 147 61 146.820204 62"></polyline>
                <polyline id="Fill-192" fill="#FBD768" points="141.163107 62 141 62 141.485922 61 141.5 61 141.163107 62"></polyline>
                <polyline id="Fill-193" fill="#8FADCF" points="142.83405 62 142 62 142.16595 61 143 61 142.83405 62"></polyline>
                <polyline id="Fill-194" fill="#8FADCF" points="150.75713 54 149 54 149.24287 53 151 53 150.75713 54"></polyline>
                <polyline id="Fill-195" fill="#E36C61" points="155.546238 54 155 54 155.31505 53 156 53 155.546238 54"></polyline>
                <polyline id="Fill-196" fill="#8FADCF" points="154.800502 54 151 54 151.199498 53 155 53 154.800502 54"></polyline>
                <polyline id="Fill-197" fill="#8FADCF" points="148.821937 54 145 54 145.256831 53 149 53 148.821937 54"></polyline>
                <polyline id="Fill-198" fill="#3B4D8F" points="138.632025 69 138 69 138.531283 68 139 68 138.632025 69"></polyline>
                <polyline id="Fill-199" fill="#E9EAEB" points="146.831961 56 144 56 144.168039 55 147 55 146.831961 56"></polyline>
                <polyline id="Fill-200" fill="#8FADCF" points="142.862403 59 142 59 142.198179 58 143 58 142.862403 59"></polyline>
                <polyline id="Fill-201" fill="#BBBDCD" points="146.953625 72 136 72 137.046375 70 148 70 146.953625 72"></polyline>
                <path d="M112.019032,58 L96,58 L100.323413,48.7649075 L106.431574,48.7649075 L106.431574,48.1534702 L100.609785,48.1534702 L101.544322,46.1570677 L105.232373,46.1570677 L105.232373,45.5459019 L101.830416,45.5459019 L102.764952,43.5494994 L106.431574,43.5494994 L106.431574,42.9383336 L103.051046,42.9383336 L103.98586,40.9419311 L108.075222,40.9419311 L108.075222,40.3307653 L104.271954,40.3307653 L105.206491,38.3343628 L106.431574,38.3343628 L106.431574,37.723197 L105.492585,37.723197 L106.427399,35.7267945 L106.431574,35.7267945 L106.431574,35.7175632 L107.648029,33.1192262 L110.337535,33.1192262 L110.337535,32.5080604 L107.934123,32.5080604 L108.86866,30.5116579 L112.086938,30.5116579 L112.086938,29.9004921 L109.155032,29.9004921 L110.980968,26 L127,26 L123.953434,32.5080604 L119.795053,32.5080604 L119.795053,33.1192262 L123.667062,33.1192262 L120.290987,40.3307653 L115.92221,40.3307653 L115.92221,40.9419311 L120.004893,40.9419311 L117.849448,45.5459019 L113.079361,45.5459019 L113.079361,46.1570677 L117.563354,46.1570677 L116.628818,48.1534702 L111.099802,48.1534702 L111.099802,48.7649075 L116.342445,48.7649075 L112.019032,58 L112.019032,58 Z M107.423997,48.7649075 L110.337535,48.7649075 L110.337535,48.1534702 L107.423997,48.1534702 L107.423997,48.7649075 Z M106.080914,46.1570677 L112.086938,46.1570677 L112.086938,45.5459019 L106.080914,45.5459019 L106.080914,46.1570677 Z M111.099802,43.5494994 L118.782314,43.5494994 L118.782314,42.9383336 L111.099802,42.9383336 L111.099802,43.5494994 Z M107.423997,43.5494994 L110.337535,43.5494994 L110.337535,42.9383336 L107.423997,42.9383336 L107.423997,43.5494994 Z M109.067645,40.9419311 L115.073669,40.9419311 L115.073669,40.3307653 L109.067645,40.3307653 L109.067645,40.9419311 Z M111.099802,33.1192262 L118.782314,33.1192262 L118.782314,32.5080604 L111.099802,32.5080604 L111.099802,33.1192262 Z M122.410531,30.5116579 L124.437678,30.5116579 L124.437678,29.9004921 L122.410531,29.9004921 L122.410531,30.5116579 Z M113.079361,30.5116579 L121.647985,30.5116579 L121.647985,29.9004921 L113.079361,29.9004921 L113.079361,30.5116579 Z" id="Fill-202" fill="#2A4085"></path>
                <polygon id="Fill-203" fill="#E9EAEB" points="113 31 121 31 121 30 113 30"></polygon>
                <polygon id="Fill-204" fill="#8FADCF" points="122 31 124 31 124 30 122 30"></polygon>
                <polyline id="Fill-205" fill="#E36C61" points="112 31 109 31 109.266949 30 112 30 112 31"></polyline>
                <polyline id="Fill-206" fill="#8FADCF" points="106 47 102 47 102.310293 46 106 46 106 47"></polyline>
                <polyline id="Fill-207" fill="#E9EAEB" points="117.700117 47 113 47 113 46 118 46 117.700117 47"></polyline>
                <polygon id="Fill-208" fill="#BBBDCD" points="106 47 112 47 112 46 106 46"></polygon>
                <polyline id="Fill-209" fill="#8FADCF" points="119.738056 42 116 42 116 41 120 41 119.738056 42"></polyline>
                <polyline id="Fill-210" fill="#E9EAEB" points="108 42 104 42 104.279842 41 108 41 108 42"></polyline>
                <polygon id="Fill-211" fill="#BBBDCD" points="109 42 115 42 115 41 109 41"></polygon>
                <polyline id="Fill-212" fill="#8FADCF" points="111 34 108 34 108.319123 33 111 33 111 34"></polyline>
                <polyline id="Fill-213" fill="#E9EAEB" points="123.724535 34 120 34 120 33 124 33 123.724535 34"></polyline>
                <polygon id="Fill-214" fill="#8FADCF" points="111 34 119 34 119 33 111 33"></polygon>
                <polygon id="Fill-215" fill="#8FADCF" points="107 50 110 50 110 49 107 49"></polygon>
                <polyline id="Fill-216" fill="#8FADCF" points="115.741028 50 111 50 111 49 116 49 115.741028 50"></polyline>
                <polyline id="Fill-217" fill="#8FADCF" points="106 50 100 50 100.281301 49 106 49 106 50"></polyline>
                <polygon id="Fill-218" fill="#8FADCF" points="107 45 110 45 110 44 107 44"></polygon>
                <polygon id="Fill-219" fill="#8FADCF" points="111 45 119 45 119 44 111 44"></polygon>
                <polyline id="Fill-220" fill="#8FADCF" points="107 45 103 45 103.312106 44 107 44 107 45"></polyline>
                <polyline id="Fill-221" fill="#8FADCF" points="106.0075 36.017 106 36.017 106.0075 36 106.0075 36.017"></polyline>
                <polyline id="Fill-222" fill="#E9EAEB" points="106 39 105 39 105.23353 38 106 38 106 39"></polyline>
                <path d="M158.527448,75 L138.472552,75 C137.662482,75 137,74.3248865 137,73.5 C137,72.6748298 137.662482,72 138.472552,72 L158.527448,72 C159.33724,72 160,72.6748298 160,73.5 C160,74.3248865 159.33724,75 158.527448,75" id="Fill-223" fill="#DADAD5"></path>
                <polygon id="Fill-224" fill="#11132B" points="148 74 151 74 151 73 148 73"></polygon>
                <polygon id="Fill-225" fill="#11132B" points="145 74 147 74 147 73 145 73"></polygon>
                <path d="M130,63.9614624 L130,76 L120,76 L120,63.9614624 C120,63.4314147 120.42925,63 120.956297,63 L129.043703,63 C129.57075,63 130,63.4314147 130,63.9614624" id="Fill-226" fill="#DF4D45"></path>
                <path d="M120.308686,73 C120.184861,72.9291792 117.274177,71.2252683 117.014407,68.2410546 C116.915347,67.1031833 117.346101,66.3981349 117.724953,66.0071726 C118.76693,64.9319606 120.498376,64.99383 120.692281,65.0040977 L120.616669,66.388657 C120.264952,66.372334 119.229826,66.4439446 118.719244,66.9747055 C118.458684,67.2453514 118.353301,67.620254 118.396771,68.1210016 C118.594365,70.391742 120.976025,71.7839362 121,71.7976265 L120.308686,73" id="Fill-227" fill="#DA4F43"></path>
                <path d="M125,76 L120,76 L120,63.9614624 C120,63.4314147 120.40291,63 120.897616,63 L121.199864,63 C121.213425,63.6281219 121.373807,68.4304045 122.632869,71.8892662 C123.727116,74.9010661 124.702446,75.7890427 125,76" id="Fill-228" fill="#DA4F43"></path>
                <path d="M125,75.001 L120,75.001 L120,75 L124.999218,75 C124.999478,75.0005 124.999739,75.0005 125,75.001" id="Fill-229" fill="#B54244"></path>
                <path d="M118.884384,73 C118.077959,72.0946234 117.147907,70.6595808 117.011644,68.7677049 C117.005698,68.6836215 117.001734,68.6019067 117,68.5222643 C117.001982,68.6024988 117.005946,68.6851018 117.01214,68.7697774 C117.149641,70.660469 118.078702,72.0940313 118.884384,73 M120,72.1026172 C119.324635,71.411594 118.42679,70.2116296 118.312082,68.6347703 C118.294987,68.3988039 118.30242,68.1880033 118.334875,68 L118.335123,68 C118.303163,68.1874112 118.295978,68.3976196 118.31233,68.6324017 C118.429763,70.2128138 119.325873,71.4133704 120,72.0996566 L120,72.1026172" id="Fill-230" fill="#A53537"></path>
                <path d="M118.0005,67.461 L118,67.461 C118.0335,67.297 118.081,67.1435 118.1415,67 C118.081,67.144 118.034,67.2975 118.0005,67.461" id="Fill-231" fill="#B74447"></path>
                <path d="M117.0005,68.005 C117.0005,68.0035 117.0005,68.0015 117,68 C117.0005,68.002 117.0005,68.0035 117.0005,68.005" id="Fill-232" fill="#A53537"></path>
                <path d="M119,67 C119.515118,66.6252374 120.377413,66.482768 121,66.4382632 L121,66.4390773 C120.380328,66.4808684 119.516211,66.6276798 119,67 M119.744627,65.1503392 C120.214208,65.0599729 120.654645,65.0187246 121,65 L121,65.0029851 C120.655009,65.0200814 120.214572,65.0605156 119.744627,65.1503392" id="Fill-233" fill="#B74447"></path>
                <path d="M120,73 C119.801898,72.8674871 119.365332,72.5516381 118.884935,72.0665558 C118.079651,71.25232 117.151049,69.9639115 117.013616,68.2646599 C117.007425,68.1885581 117.003463,68.114319 117.001482,68.0422085 C117.001482,68.0416764 117.001482,68.0411442 117.001482,68.040612 C117.001482,68.0398137 117.001482,68.0390155 117.001235,68.0379511 C116.975729,67.0198902 117.350141,66.3767504 117.682705,66.0063529 C118.106147,65.537236 118.650432,65.2825877 119.146677,65.1444869 C119.466116,65.0564111 119.765497,65.0167637 120,65 L120,66.4073507 C119.576805,66.4509895 118.990672,66.5906868 118.640527,66.9581573 C118.632603,66.96614 118.625174,66.9743888 118.617497,66.9826376 C118.526866,67.0834858 118.45654,67.1981706 118.405776,67.3274904 C118.375813,67.4038583 118.352289,67.485548 118.335698,67.5728255 C118.303258,67.7417928 118.29583,67.931249 118.312916,68.1433228 C118.427567,69.5605189 119.324968,70.6389822 120,71.2600366 L120,73" id="Fill-234" fill="#C23531"></path>
                <path d="M125,76 L120,76 L120,63.9614831 C120,63.4317034 120.402973,63 120.897496,63 L121.199791,63 C121.213615,63.6281354 121.373761,68.4308006 122.63302,71.8894573 C123.726917,74.8996454 124.701617,75.7884793 125,76" id="Fill-235" fill="#C23531"></path>
                <polyline id="Fill-236" fill="#5D6C9D" points="15.1619523 69 14 68.7972764 16.8380477 53 18 53.2027236 15.1619523 69"></polyline>
                <polyline id="Fill-237" fill="#5D6C9D" points="18.0355417 58 16 57.6900987 16.9644583 53 19 53.3101785 18.0355417 58"></polyline>
                <polyline id="Fill-238" fill="#6A3C54" points="12.9269663 71 12 70.9034535 13.072809 55.0162498 13.6339326 54 14 55.1127963 12.9269663 71"></polyline>
                <polyline id="Fill-239" fill="#1A2341" points="12 71.7765979 10.9149646 72 8 56.1804772 8.37618476 55 9.08503538 55.9570751 12 71.7765979"></polyline>
                <polyline id="Fill-240" fill="#E6815C" points="14.4158362 75 9.58416382 75 8 62 16 62 14.4158362 75"></polyline>
                <polyline id="Fill-241" fill="#F5B863" points="16.4444444 75 11.7000268 75 11 62 18 62 16.4444444 75"></polyline>
                <path d="M167,95 L167,102 L191.491635,102 C193.012008,102 194.310949,101.030682 194.796522,99.6768938 C194.926824,99.3103448 195,98.9133858 195,98.4985067 C195,97.5351616 194.608277,96.6597882 193.974177,96.0238936 C193.336811,95.3907141 192.459788,95 191.491635,95 L167,95" id="Fill-242" fill="#DE4345"></path>
                <path d="M191.593517,101 L172,101 L172,99 L195,99 C194.4995,100.165498 193.160628,101 191.593517,101" id="Fill-243" fill="#C33331"></path>
                <path d="M161.000278,95 L161,102 L177.414599,102 C179.393883,102 181,100.431928 181,98.4998643 C181,97.5360037 180.598471,96.6600876 179.95113,96.0241188 C179.299618,95.3919501 178.402294,95 177.414599,95 L161.000278,95" id="Fill-244" fill="#8D2A38"></path>
                <path d="M161.000282,96 L161,101 L176.668631,101 C177.957004,101 179,99.8813959 179,98.5 C179,97.809302 178.738264,97.1854361 178.318301,96.7309181 C177.89439,96.2806338 177.312535,96 176.668631,96 L161.000282,96" id="Fill-245" fill="#FFFFFE"></path>
                <path d="M166,80 L166,87 L190.492315,86.9997286 C192.428696,86.9997286 194,85.4319283 194,83.4998643 C194,82.5357323 193.607174,81.6598162 192.973865,81.0238474 C192.336475,80.3919501 191.458601,80 190.492315,80 L166,80" id="Fill-246" fill="#F0A847"></path>
                <path d="M172,83 L172,81 L191.593797,81 C193.160908,81 194.499781,81.8345021 195,83 L172,83" id="Fill-247" fill="#FAD33B"></path>
                <path d="M161,80 L161,87 L177.414549,86.9997286 C179.39386,86.9997286 181,85.4319283 181,83.4998643 C181,82.5357323 180.598465,81.6598162 179.951115,81.0238474 C179.299594,80.3919501 178.402258,80 177.414549,80 L161,80" id="Fill-248" fill="#E57A53"></path>
                <path d="M161,82 L161,87 L176.668594,86.9996976 C177.956988,86.9996976 179,85.8813959 179,84.5 C179,83.809302 178.73826,83.1854361 178.318291,82.7309181 C177.894373,82.2806338 177.312509,82 176.668594,82 L161,82" id="Fill-249" fill="#FFFFFE"></path>
                <path d="M165,88 L165,95 L189.494491,95 C191.430751,95 193,93.4316287 193,91.4998643 C193,90.9066026 192.851182,90.3464506 192.590276,89.8560462 C192.426223,89.550188 192.217008,89.2687551 191.974057,89.0234172 C191.336618,88.3905323 190.459492,88 189.494491,88 L165,88" id="Fill-250" fill="#99C53E"></path>
                <path d="M166,88 L166,90 L193,90 C192.835595,89.6704197 192.625932,89.3671589 192.38246,89.1027928 C191.743653,88.4208218 190.864647,88 189.897576,88 L166,88" id="Fill-251" fill="#6A9440"></path>
                <path d="M166,95 L166,93 L193,93 C192.835595,93.3295803 192.625932,93.6328411 192.38246,93.8972072 C191.743653,94.5791782 190.864647,95 189.897576,95 L166,95" id="Fill-252" fill="#6A9440"></path>
                <path d="M158,88.0002714 L158,95 L172.532006,95 C174.446208,95 176,93.4319283 176,91.5001357 C176,90.5360037 175.611619,89.6600876 174.985207,89.0241188 C174.35503,88.3919501 173.48709,88 172.532006,88 L158,88.0002714" id="Fill-253" fill="#4A7D3C"></path>
                <path d="M158,89.0003024 L158,94 L171.751203,94 C172.993795,94 174,92.8816983 174,91.5 C174,90.809302 173.747293,90.1854361 173.342525,89.7309181 C172.933678,89.2806338 172.372499,89 171.751203,89 L158,89.0003024" id="Fill-254" fill="#FFFFFE"></path>
                <path d="M168.882355,46.031503 L168.882355,46.031503 C167.616079,44.8273581 167.725742,42.9692426 169.127555,41.8812135 L169.286317,41.7580207 C170.687835,40.6702538 172.851119,40.7643522 174.117395,41.968497 L174.117395,41.9687591 C175.383966,43.172904 175.274302,45.0307574 173.87249,46.1187865 L173.713727,46.2419793 C172.311915,47.3297462 170.148926,47.2356478 168.882355,46.031503" id="Fill-255" fill="#11132B"></path>
                <path d="M170.845121,52.2458826 L167.760026,55 L159,45.4195021 L162.085095,42.6653847 C164.22269,40.7572705 167.288726,40.5037488 169.668369,41.828037 C170.269542,42.1614125 170.825246,42.5941864 171.313154,43.1277548 C172.52149,44.4495301 173.074471,46.1309266 172.991973,47.782727 C172.904847,49.4342481 172.182786,51.051985 170.845121,52.2458826" id="Fill-256" fill="#D17551"></path>
                <path d="M167.885925,49.23371 L164.859401,52 L159,45.4390354 L162.026525,42.6727454 C164.123537,40.7561977 167.131364,40.5015554 169.46583,41.8316967 C169.866749,42.7599631 170.041433,43.760023 169.991752,44.7508282 C169.906814,46.4096487 169.198194,48.0345356 167.885925,49.23371" id="Fill-257" fill="#F7C04B"></path>
                <path d="M168.676242,54.7520826 C167.700311,55.6075687 164.81592,54.1783015 162.234187,51.5538203 C159.652169,48.9290588 158.347026,46.1069637 159.32467,45.2489548 C160.09445,44.5706205 162.059445,45.3229549 164.126373,46.9652528 C164.670587,47.401405 165.225651,47.8975421 165.764154,48.4458157 C166.393741,49.0865893 166.948519,49.7385752 167.411358,50.3715003 C168.848985,52.3305411 169.413757,54.1040211 168.676242,54.7520826" id="Fill-258" fill="#9997A2"></path>
                <path d="M167,50.2476362 C166.303484,51.0183886 165.11922,51.2383363 164.159415,50.713455 C163.06318,50.1137434 162.675163,48.7627887 163.295884,47.6991291 C163.461303,47.4155756 163.682838,47.1785238 163.940275,47 C164.447171,47.4158428 164.964172,47.8888774 165.465749,48.4116207 C166.052163,49.0225569 166.568899,49.6441831 167,50.2476362" id="Fill-259" fill="#FFFFFE"></path>
                <polyline id="Stroke-260" stroke="#11132B" stroke-width="4.594" points="184.836803 76 193 49.9051328 176.469331 39 173 41.9210816"></polyline>
                <path d="M178,40.0001419 C178,41.10452 177.104608,42 176,42 C174.895392,42 174,41.10452 174,40.0001419 C174,38.89548 174.895392,38 176,38 C177.104608,38 178,38.89548 178,40.0001419" id="Fill-261" fill="#11132B"></path>
                <path d="M177,40.0001419 C177,40.5521499 176.552031,41 175.999863,41 C175.447422,41 175,40.5521499 175,40.0001419 C175,39.4478501 175.447422,39 175.999863,39 C176.552031,39 177,39.4478501 177,40.0001419" id="Fill-262" fill="#2F365B"></path>
                <path d="M193,80 L172,80 C172,77.7907271 173.868067,76 176.172136,76 L188.828142,76 C191.132211,76 193,77.7907271 193,80" id="Fill-263" fill="#2F365B"></path>
                <polygon id="Fill-264" fill="#11132B" points="176 76 180 76 180 75 176 75"></polygon>
                <path d="M196,50.5 C196,51.8806386 194.656834,53 192.999853,53 C191.343166,53 190,51.8806386 190,50.5 C190,49.119108 191.343166,48 192.999853,48 C194.656834,48 196,49.119108 196,50.5" id="Fill-265" fill="#11132B"></path>
                <path d="M194,50.5 C194,51.3282992 193.328677,52 192.5,52 C191.671616,52 191,51.3282992 191,50.5 C191,49.6717008 191.671616,49 192.5,49 C193.328677,49 194,49.6717008 194,50.5" id="Fill-266" fill="#2F365B"></path>
                <path d="M210.808395,82.1703881 C207.62271,86.3126005 201.23182,87 201.23182,87 C201.23182,87 200.006115,80.9718243 203.191513,76.829886 C206.377198,72.6876736 212.768088,72 212.768088,72 C212.768088,72 213.99408,78.0284498 210.808395,82.1703881" id="Fill-267" fill="#4F783A"></path>
                <path d="M197.388696,79.5424186 C200.149142,82.3015906 199.998542,86.9957878 199.998542,86.9957878 C199.998542,86.9957878 195.372021,87.2167527 192.611575,84.4578559 C189.850858,81.6986839 190.001457,77.0042114 190.001457,77.0042114 C190.001457,77.0042114 194.627979,76.7832465 197.388696,79.5424186" id="Fill-268" fill="#396036"></path>
                <path d="M204.945816,77.9891383 C205.507521,83.2359932 201.516885,88 201.516885,88 C201.516885,88 196.61589,84.2577165 196.054184,79.0108617 C195.492479,73.7640068 199.483115,69 199.483115,69 C199.483115,69 204.38411,72.742565 204.945816,77.9891383" id="Fill-269" fill="#5EA958"></path>
                <polyline id="Fill-270" fill="#532D3E" points="204.435582 102 193.564418 102 190 86 208 86 204.435582 102"></polyline>
                <polyline id="Fill-271" fill="#914D3A" points="208.444663 102 197.600056 102 196 86 212 86 208.444663 102"></polyline>
            </g>
        </g>
    </g>
</svg>