<?xml version="1.0" encoding="UTF-8"?>
<svg width="42px" height="20px" viewBox="0 0 42 20" version="1.1" xmlns="http://www.w3.org/2000/svg" xmlns:xlink="http://www.w3.org/1999/xlink">
    <!-- Generator: sketchtool 47.1 (45422) - http://www.bohemiancoding.com/sketch -->
    <title>304E3490-9BC9-4280-B609-B15E481D75AA</title>
    <desc>Created with sketchtool.</desc>
    <defs></defs>
    <g id="Page-1" stroke="none" stroke-width="1" fill="none" fill-rule="evenodd">
        <g id="Homepage-New" transform="translate(-796.000000, -2173.000000)" fill-rule="nonzero" fill="#F9F9F9">
            <g id="apple-pay" transform="translate(796.000000, 2173.000000)">
                <path d="M10.9609496,8.02875089 C10.9828433,10.3154749 13.0318637,11.0762827 13.0545394,11.0860567 C13.0373372,11.1400092 12.727306,12.1705792 11.9754903,13.2355538 C11.3249331,14.1558732 10.6501365,15.073065 9.58711674,15.092222 C8.5424721,15.1109881 8.20702857,14.4924896 7.01225536,14.4924896 C5.81826406,14.4924896 5.44489743,15.073065 4.45616004,15.1109881 C3.43028147,15.1485202 2.64875279,14.1152134 1.99311317,13.1980217 C0.653293862,11.3214145 -0.370629911,7.89660647 1.00437578,5.58447009 C1.68738259,4.43622109 2.90756819,3.70903583 4.23253103,3.69066071 C5.24003449,3.67189464 6.19123973,4.34708225 6.80739241,4.34708225 C7.42276317,4.34708225 8.57883136,3.53505871 9.79432545,3.65430145 C10.3025732,3.67502232 11.7303585,3.8533 12.6471593,5.15324141 C12.5728769,5.19781083 10.9429654,6.11695737 10.9609496,8.02875089 L10.9609496,8.02875089 Z M8.99754933,2.41300402 C9.54215636,1.77417567 9.90926763,0.885133036 9.80918192,0 C9.02374364,0.0304948661 8.07410223,0.506683929 7.51112009,1.14512132 C7.006,1.71044922 6.5642154,2.61513025 6.68345815,3.48267009 C7.55920815,3.54835134 8.4529423,3.05183237 8.99794029,2.41261306 L8.99754933,2.41300402 Z M16.882818,1.3194894 C17.3264769,1.24596166 17.77208,1.18468798 18.2191186,1.13573828 C18.7530795,1.07894115 19.2897788,1.05179294 19.8267454,1.05441864 C20.6618356,1.05441864 21.3815926,1.15294051 21.9867984,1.34998426 C22.5927862,1.54702801 23.0896961,1.829301 23.4790921,2.19641228 C23.8162633,2.52657264 24.0827027,2.92190869 24.2621846,3.35834487 C24.4498453,3.80677578 24.5428938,4.32362467 24.5428938,4.9081096 C24.5428938,5.61496496 24.4150499,6.23346339 24.1574074,6.76360491 C23.9098245,7.28166628 23.5497268,7.73793242 23.1033797,8.09912366 C22.6576855,8.4588067 22.1291078,8.72739609 21.5168647,8.90450089 C20.9042307,9.08082377 20.2364713,9.16918069 19.5124137,9.16918069 C18.8587289,9.16918069 18.3090394,9.12187455 17.8641271,9.02687132 L17.8641271,14.8990878 L16.882818,14.8990878 L16.882818,1.3194894 Z M17.8641271,8.17066931 C18.1006578,8.23830536 18.3649467,8.28600246 18.6573846,8.31297868 C18.9498225,8.34034587 19.2625904,8.3536385 19.5964701,8.3536385 C20.8487144,8.3536385 21.8194676,8.06823783 22.5083388,7.4974365 C23.1968191,6.92663516 23.5416456,6.0903721 23.5416456,4.98942924 C23.5416456,4.45928772 23.4513339,3.99678225 23.2703195,3.60269475 C23.0985366,3.22005528 22.8329519,2.886965 22.4981739,2.63428728 C22.1642942,2.38250915 21.7678609,2.19250268 21.3084831,2.06309498 C20.8487144,1.93407824 20.3408576,1.86956987 19.7837398,1.86956987 C19.3388276,1.86956987 18.9560779,1.88638114 18.6358818,1.92039464 C18.3160767,1.95440815 18.0584342,1.99194029 17.8637362,2.03260011 L17.8637362,8.17066931 L17.8641271,8.17066931 Z M32.3472337,12.5752227 C32.3472337,12.9693102 32.35388,13.3637886 32.3679546,13.7578761 C32.3816382,14.1519636 32.4230799,14.5319766 32.4930617,14.8994788 L31.5746971,14.8994788 L31.4288691,13.5127443 L31.3862545,13.5127443 C31.2611473,13.7035327 31.1012448,13.8935392 30.9065468,14.0835456 C30.7118488,14.2735521 30.485874,14.4471383 30.2286224,14.6035222 C29.9709799,14.7599061 29.6789329,14.8857952 29.3516996,14.9807984 C29.0018386,15.0788101 28.6398749,15.1268525 28.27656,15.1234988 C27.7898151,15.1234988 27.3617141,15.0453068 26.992257,14.8889229 C26.6235819,14.732539 26.320979,14.5288489 26.0844483,14.2774617 C25.8496043,14.0280964 25.6686124,13.733053 25.552743,13.4107038 C25.4367459,13.0974194 25.3766682,12.7661979 25.3752472,12.4321314 C25.3752472,11.2768451 25.8725481,10.3866296 26.8675408,9.76109386 C27.8625336,9.13555815 29.3622555,8.83647388 31.3667065,8.86384107 L31.3667065,8.59877031 C31.3667065,8.33995491 31.342076,8.04399833 31.293597,7.71129152 C31.2447209,7.37803878 31.134851,7.0566461 30.9694913,6.76321395 C30.8025515,6.46452065 30.5523372,6.21313348 30.2184575,6.00944342 C29.8845778,5.80536239 29.4318463,5.70332188 28.8618269,5.70332188 C28.4298163,5.70332188 28.0024972,5.76783025 27.5779148,5.89684699 C27.1533325,6.02586373 26.7674551,6.20570525 26.4195009,6.43715346 L26.1063421,5.72326083 C26.5512544,5.42456752 27.0110231,5.2107125 27.4836935,5.08169576 C27.9668914,4.95135997 28.4653584,4.88627394 28.9658222,4.88817065 C29.6617307,4.88817065 30.2286224,5.00350379 30.6672794,5.23456105 C31.1055453,5.4656183 31.4499809,5.76470257 31.7005862,6.13142288 C31.9532951,6.50359489 32.1273111,6.92346848 32.2119616,7.36529208 C32.3014838,7.81171377 32.3470528,8.26583247 32.3480156,8.72114074 L32.3480156,12.5752227 L32.3472337,12.5752227 Z M31.3659246,9.65944431 C30.8118638,9.6464821 30.2575249,9.66684876 29.7059092,9.72043404 C29.1288525,9.7743865 28.5963652,9.8940202 28.1096202,10.0769894 C27.6220933,10.2607405 27.2190137,10.528939 26.8992086,10.8823666 C26.5794035,11.2357943 26.418719,11.7049461 26.418719,12.289822 C26.418719,12.9822118 26.6204542,13.4924144 27.0247067,13.8184749 C27.4273953,14.1445354 27.8797358,14.3079566 28.3809463,14.3079566 C28.7844169,14.3079566 29.1464456,14.2540041 29.4662508,14.1445354 C29.7864469,14.0358485 30.0640283,13.8896296 30.30095,13.7066604 C30.5378717,13.5236912 30.7356973,13.3157006 30.8959908,13.0850343 C31.0562844,12.8531951 31.1778729,12.6158825 31.2619292,12.3707507 C31.3315201,12.0986426 31.3667065,11.9015989 31.3667065,11.7788375 L31.3667065,9.65944431 L31.3659246,9.65944431 Z M34.2660645,5.11179967 L36.8119949,11.4734979 C36.9539495,11.8335416 37.0864004,12.1972602 37.20921,12.5642758 C37.3343172,12.9380334 37.4457407,13.2816871 37.5430897,13.594064 L37.5849224,13.594064 C37.6826624,13.2953706 37.793695,12.9587542 37.9188021,12.5846057 C38.0443002,12.2112391 38.1834819,11.8269256 38.3363472,11.4320561 L40.7165106,5.11140871 L41.7595914,5.11140871 L38.8586695,12.289431 C38.5930547,12.9829091 38.3180544,13.6727559 38.0337443,14.3587814 C37.7994746,14.9281142 37.5382794,15.4859916 37.2510427,16.0305256 C37.0116844,16.4859693 36.743053,16.9254174 36.4468384,17.3461054 C36.1861521,17.7148868 35.8812795,18.0503517 35.5390297,18.3450077 C35.1500247,18.6843608 34.7911235,18.9330113 34.4638902,19.0893952 C34.1370478,19.2457791 33.9181103,19.344301 33.8066867,19.3849608 L33.4720251,18.5897485 C33.7582956,18.462764 34.0372265,18.3198397 34.3075063,18.1616475 C34.6343705,17.968976 34.935803,17.7361046 35.204759,17.4684758 C35.4557552,17.2237349 35.7306,16.901584 36.0296843,16.4996773 C36.3287685,16.0989435 36.596576,15.6129805 36.8334977,15.0417882 C36.9167721,14.8244145 36.9586048,14.6813232 36.9586048,14.6132962 C36.9586048,14.5186839 36.9171631,14.3755926 36.8334977,14.1851952 L33.2218108,5.11101775 L34.2660645,5.11101775 L34.2660645,5.11179967 Z" id="Shape"></path>
            </g>
        </g>
    </g>
</svg>