<?xml version="1.0" encoding="UTF-8"?>
<svg width="34px" height="25px" viewBox="0 0 34 25" version="1.1" xmlns="http://www.w3.org/2000/svg" xmlns:xlink="http://www.w3.org/1999/xlink">
    <!-- Generator: sketchtool 47.1 (45422) - http://www.bohemiancoding.com/sketch -->
    <title>9EB9A46D-CE33-453C-86F6-DEE728A331EB</title>
    <desc>Created with sketchtool.</desc>
    <defs></defs>
    <g id="Page-1" stroke="none" stroke-width="1" fill="none" fill-rule="evenodd">
        <g id="Voice-message" transform="translate(-330.000000, -1967.000000)">
            <g id="Group-12" transform="translate(330.000000, 1967.000000)">
                <path d="M26.7636184,13.3093302 L3.85527179,13.3093302 L3.85527179,13.3093302 C2.83063347,13.3093302 2,12.4786968 2,11.4540585 C2,10.4294201 2.83063347,9.59878667 3.85527179,9.59878667 L3.85527179,9.59878667 L27.5209777,9.59878667 L21.4644661,3.54227507 C20.7399374,2.81774637 20.7399374,1.64305325 21.4644661,0.918524548 C22.1889948,0.193995848 23.3636879,0.193995848 24.0882166,0.918524548 L24.0882166,0.918524548 L32.7781746,9.60848253 L32.7781746,9.60848253 C33.1799016,10.0102096 33.3588844,10.5503321 33.3151229,11.0753788 C33.3588844,11.6004255 33.1799016,12.140548 32.7781746,12.5422751 L24.0882166,21.232233 C23.3636879,21.9567617 22.1889948,21.9567617 21.4644661,21.232233 L21.4644661,21.232233 C20.7399374,20.5077043 20.7399374,19.3330112 21.4644661,18.6084825 L21.4644661,18.6084825 L26.7636184,13.3093302 Z" id="Combined-Shape-Copy" fill="#23BDFF"></path>
                <path d="M24.7636184,16.3093302 L1.85527179,16.3093302 L1.85527179,16.3093302 C0.830633472,16.3093302 1.25482003e-16,15.4786968 0,14.4540585 C-1.25482003e-16,13.4294201 0.830633472,12.5987867 1.85527179,12.5987867 L1.85527179,12.5987867 L25.5209777,12.5987867 L19.4644661,6.54227507 C18.7399374,5.81774637 18.7399374,4.64305325 19.4644661,3.91852455 C20.1889948,3.19399585 21.3636879,3.19399585 22.0882166,3.91852455 L22.0882166,3.91852455 L30.7781746,12.6084825 L30.7781746,12.6084825 C31.1799016,13.0102096 31.3588844,13.5503321 31.3151229,14.0753788 C31.3588844,14.6004255 31.1799016,15.140548 30.7781746,15.5422751 L22.0882166,24.232233 C21.3636879,24.9567617 20.1889948,24.9567617 19.4644661,24.232233 L19.4644661,24.232233 C18.7399374,23.5077043 18.7399374,22.3330112 19.4644661,21.6084825 L19.4644661,21.6084825 L24.7636184,16.3093302 Z" id="Combined-Shape" fill="#000000"></path>
            </g>
        </g>
    </g>
</svg>