<?xml version="1.0" encoding="UTF-8"?>
<svg width="52px" height="53px" viewBox="0 0 52 53" version="1.1" xmlns="http://www.w3.org/2000/svg" xmlns:xlink="http://www.w3.org/1999/xlink">
    <!-- Generator: sketchtool 47.1 (45422) - http://www.bohemiancoding.com/sketch -->
    <title>F5F39F12-8FB6-4B24-A31F-2006E4567C10</title>
    <desc>Created with sketchtool.</desc>
    <defs></defs>
    <g id="Page-1" stroke="none" stroke-width="1" fill="none" fill-rule="evenodd">
        <g id="Voice-message" transform="translate(-485.000000, -1247.000000)" fill-rule="nonzero">
            <g id="012-social" transform="translate(485.500000, 1247.500000)">
                <path d="M5.65231746,51.5873016 C5.65231746,38.9818413 15.8715556,28.7634286 28.4761905,28.7634286 C41.0816508,28.7634286 51.3000635,38.9818413 51.3000635,51.5873016 L51.3000635,51.5873016" id="path-1_65_" fill="#23BDFF"></path>
                <path d="M40.7688254,15.3664127 C40.7688254,22.2576508 35.1825397,27.8431111 28.2913016,27.8431111 C21.4008889,27.8431111 15.8137778,22.2576508 15.8137778,15.3664127 C15.8137778,8.4751746 21.4008889,2.88888889 28.2913016,2.88888889 C35.1825397,2.88888889 40.7688254,8.4751746 40.7688254,15.3664127 Z" id="path-2_65_" fill="#F1AD2B"></path>
                <path d="M47.1739048,51.1746032 C46.4904762,51.1746032 45.9358095,50.6199365 45.9358095,49.9365079 C45.9358095,38.0334603 36.252254,28.3507302 24.3492063,28.3507302 C12.4461587,28.3507302 2.76342857,38.0334603 2.76342857,49.9365079 C2.76342857,50.6199365 2.2087619,51.1746032 1.52533333,51.1746032 C0.841904762,51.1746032 0.287238095,50.6199365 0.287238095,49.9365079 C0.287238095,36.668254 11.0817778,25.8745397 24.3492063,25.8745397 C37.6174603,25.8745397 48.412,36.668254 48.412,49.9365079 C48.412,50.6199365 47.8573333,51.1746032 47.1739048,51.1746032 Z" id="path-3_65_" fill="#000000"></path>
                <path d="M24.1643175,27.4304127 C16.6012063,27.4304127 10.4486984,21.2779048 10.4486984,13.7147937 C10.4486984,6.15250794 16.6012063,0 24.1643175,0 C31.7266032,0 37.8799365,6.15250794 37.8799365,13.7147937 C37.8799365,21.2779048 31.7266032,27.4304127 24.1643175,27.4304127 Z M24.1643175,2.47619048 C17.9672381,2.47619048 12.9248889,7.51771429 12.9248889,13.7147937 C12.9248889,19.9126984 17.9672381,24.9542222 24.1643175,24.9542222 C30.3613968,24.9542222 35.403746,19.9126984 35.403746,13.7147937 C35.403746,7.51771429 30.3613968,2.47619048 24.1643175,2.47619048 Z" id="path-4_54_" fill="#000000"></path>
                <path d="M24.743746,45.9506667 L24.743746,45.9506667 C25.423873,45.9506667 25.908381,45.2102857 25.7061587,44.5615238 L25.2488889,43.056 C25.2488889,43.056 25.5724444,42.6515556 25.5724444,42.3857778 C25.5724444,41.9334603 25.2051429,41.5207619 24.752,41.5207619 C24.2988571,41.5207619 23.932381,41.8657778 23.932381,42.3180952 C23.932381,42.5789206 24.227873,43.0328889 24.227873,43.0328889 L23.7805079,44.5664762 C23.5807619,45.2144127 24.0652698,45.9506667 24.743746,45.9506667 Z" id="path-5_38_" fill="#000000"></path>
                <path d="M28.1419048,48.8783492 L21.8573333,48.8783492 C20.1850794,48.8783492 18.8743492,47.6856508 18.8743492,46.163619 L18.8743492,38.9735873 L31.2553016,38.9735873 L31.2553016,46.163619 C31.2553016,47.8622857 29.6721905,48.8783492 28.1419048,48.8783492 Z M21.3505397,41.4497778 L21.3505397,46.163619 C21.3505397,46.2857778 21.5973333,46.4021587 21.8573333,46.4021587 L28.1419048,46.4021587 C28.4893968,46.4021587 28.747746,46.2313016 28.7815873,46.1586667 L28.7799365,41.4497778 L21.3505397,41.4497778 Z" id="path-6_29_" fill="#000000"></path>
                <path d="M30.0172063,41.0370794 C29.3337778,41.0370794 28.7791111,40.4824127 28.7791111,39.7989841 L28.7791111,39.3524444 C28.7791111,37.4986032 26.9310476,36.4973968 25.1919365,36.4973968 C23.3405714,36.4973968 21.3505397,37.5885714 21.3505397,39.3524444 L21.3505397,39.7989841 C21.3505397,40.4824127 20.795873,41.0370794 20.1124444,41.0370794 C19.4290159,41.0370794 18.8743492,40.4824127 18.8743492,39.7989841 L18.8743492,39.3524444 C18.8743492,36.0153651 22.0834921,34.0212063 25.1853333,34.0212063 C28.6486984,34.0212063 31.2553016,36.3133333 31.2553016,39.3524444 L31.2553016,39.7989841 C31.2553016,40.4824127 30.7006349,41.0370794 30.0172063,41.0370794 Z" id="path-7_17_" fill="#000000"></path>
            </g>
        </g>
    </g>
</svg>