<?xml version="1.0" encoding="UTF-8"?>
<svg width="67px" height="44px" viewBox="0 0 67 44" version="1.1" xmlns="http://www.w3.org/2000/svg" xmlns:xlink="http://www.w3.org/1999/xlink">
    <!-- Generator: sketchtool 47.1 (45422) - http://www.bohemiancoding.com/sketch -->
    <title>D2D1D68F-4EDC-4F77-A2F9-F08B1CC34EEF</title>
    <desc>Created with sketchtool.</desc>
    <defs></defs>
    <g id="Page-1" stroke="none" stroke-width="1" fill="none" fill-rule="evenodd">
        <g id="Voice-message" transform="translate(-172.000000, -1026.000000)" fill-rule="nonzero">
            <g id="002-money" transform="translate(172.500000, 1026.000000)">
                <path d="M66,35.328 C66,39.746 62.418,43.328 58,43.328 L14,43.328 C9.582,43.328 6,39.746 6,35.328 L6,13.328 C6,8.91 9.582,5.328 14,5.328 L58,5.328 C62.418,5.328 66,8.91 66,13.328 L66,35.328 Z" id="path-1_6_" fill="#23BDFF"></path>
                <path d="M52.846,5.352 C52.846,5.352 53,19.853 66,18.453 L66,13.28 C66,8.82 62.478,5.221 58.018,5.281 L52.846,5.352 Z" id="path-2_6_" fill="#F1AD2B"></path>
                <path d="M18.654,43.6 C18.654,43.6 18,29.099 5,30.499 L5,35.672 C5,40.133 8.772,43.731 13.232,43.672 L18.654,43.6 Z" id="path-3_6_" fill="#F1AD2B"></path>
                <path d="M53.5,41.328 L9.5,41.328 C4.262,41.328 0,37.066 0,31.828 L0,9.828 C0,4.59 4.262,0.328 9.5,0.328 L53.5,0.328 C58.738,0.328 63,4.59 63,9.828 L63,31.828 C63,37.066 58.738,41.328 53.5,41.328 Z M9.5,3.328 C5.916,3.328 3,6.244 3,9.828 L3,31.828 C3,35.412 5.916,38.328 9.5,38.328 L53.5,38.328 C57.084,38.328 60,35.412 60,31.828 L60,9.828 C60,6.244 57.084,3.328 53.5,3.328 L9.5,3.328 Z" id="path-4_6_" fill="#000000"></path>
                <path d="M59.784,17.048 C59.783,17.048 59.783,17.048 59.784,17.048 C49.676,17.048 46.738,7.462 46.596,2.394 C46.585,1.993 46.735,1.603 47.013,1.313 C47.291,1.024 47.674,0.858 48.076,0.852 L53.502,0.78 C58.739,0.78 63,5.042 63,10.28 L63,15.453 C63,16.22 62.422,16.862 61.661,16.945 C61.02,17.014 60.389,17.048 59.784,17.048 Z M49.745,3.83 C50.212,7.015 52.113,14.048 59.783,14.048 L59.784,14.048 C59.855,14.048 59.927,14.048 60,14.047 L60,10.28 C60,6.696 57.085,3.78 53.502,3.78 L49.745,3.83 Z" id="path-5_6_" fill="#000000"></path>
                <path d="M9.498,41.172 C4.261,41.172 0,36.911 0,31.672 L0,26.499 C0,25.733 0.578,25.09 1.339,25.008 C1.979,24.939 2.611,24.904 3.217,24.904 C13.323,24.904 16.262,34.49 16.404,39.558 C16.415,39.96 16.265,40.349 15.987,40.639 C15.708,40.929 15.326,41.095 14.924,41.1 L9.498,41.172 Z M3,27.906 L3,31.672 C3,35.256 5.915,38.172 9.498,38.172 L13.255,38.122 C12.783,34.907 10.85,27.771 3,27.906 Z" id="path-6_6_" fill="#000000"></path>
                <path d="M34.231,29.328 L27,29.328 C26.171,29.328 25.5,28.657 25.5,27.828 C25.5,26.999 26.171,26.328 27,26.328 L34.231,26.328 C35.207,26.328 36,25.582 36,24.666 C36,23.366 34.413,23.328 34.231,23.328 L30.519,23.328 C27.728,23.328 26,20.682 26,18.23 L26,17.595 C26,15.043 27.816,13.328 30.519,13.328 L37,13.328 C37.829,13.328 38.5,13.999 38.5,14.828 C38.5,15.657 37.829,16.328 37,16.328 L30.519,16.328 C29,16.328 29,17.249 29,17.595 L29,18.23 C29,19.221 29.649,20.328 30.519,20.328 L34.231,20.328 C36.995,20.328 39,22.15 39,24.66 C39,27.237 36.861,29.328 34.231,29.328 Z" id="path-7_4_" fill="#000000"></path>
                <path d="M32.5,32.828 C31.671,32.828 31,32.157 31,31.328 L31,10.328 C31,9.499 31.671,8.828 32.5,8.828 C33.329,8.828 34,9.499 34,10.328 L34,31.328 C34,32.157 33.329,32.828 32.5,32.828 Z" id="path-8_4_" fill="#000000"></path>
            </g>
        </g>
    </g>
</svg>