<?xml version="1.0" encoding="UTF-8"?>
<svg width="67px" height="78px" viewBox="0 0 67 78" version="1.1" xmlns="http://www.w3.org/2000/svg" xmlns:xlink="http://www.w3.org/1999/xlink">
    <!-- Generator: sketchtool 47.1 (45422) - http://www.bohemiancoding.com/sketch -->
    <title>AF8A3B1F-8C06-495B-AFCE-690B4FF5D880</title>
    <desc>Created with sketchtool.</desc>
    <defs></defs>
    <g id="Page-1" stroke="none" stroke-width="1" fill="none" fill-rule="evenodd">
        <g id="Voice-message" transform="translate(-477.000000, -1945.000000)" fill-rule="nonzero">
            <g id="001-choices" transform="translate(477.500000, 1945.000000)">
                <path d="M47.9870672,60.9725859 L3.8205659,60.9725859 C2.385613,60.9725859 1.22258109,59.8095539 1.22258109,58.374601 L1.22258109,3.81585665 C1.22258109,2.38090375 2.385613,1.21787184 3.8205659,1.21787184 L47.9870672,1.21787184 C49.4220201,1.21787184 50.585052,2.38090375 50.585052,3.81585665 L50.585052,58.3744491 C50.585204,59.809402 49.4220201,60.9725859 47.9870672,60.9725859 Z" id="Shape" fill="#F1F4FB"></path>
                <path d="M50.585204,58.3744491 L50.585204,45.6572056 C50.559531,45.6643455 50.5323389,45.666776 50.5068178,45.6742197 C49.4663782,44.8223018 48.1819693,44.2634207 46.7619037,44.1213837 C46.737446,44.1189531 46.7126844,44.1166745 46.6883786,44.1143958 L46.6883786,31.7445731 C46.6883786,27.8052127 43.4835087,24.6001909 39.5441483,24.600039 L39.5439964,24.600039 C39.3054958,24.600039 39.0642609,24.611888 38.8207473,24.6361938 C35.159992,25.0026036 32.3991584,28.138202 32.3991584,31.9299048 L32.3991584,46.3681499 L29.6038409,49.1634673 C27.0407957,51.7265126 26.0061287,55.3635698 26.8363233,58.8920105 L27.325933,60.9725859 L47.9872191,60.9725859 C49.4218682,60.9725859 50.585204,59.8092501 50.585204,58.3744491 Z" id="Shape" fill="#D5DCED"></path>
                <circle id="Oval" fill="#30CC7B" cx="12.9136646" cy="16.8059326" r="3.89697722"></circle>
                <circle id="Oval" fill="#23BDFF" cx="12.9136646" cy="31.0951529" r="3.89697722"></circle>
                <circle id="Oval" fill="#F1AD2B" cx="12.9136646" cy="45.3843732" r="3.89697722"></circle>
                <path d="M63.4866197,50.5973568 C61.5426125,50.4027586 59.9040986,51.9239971 59.9040986,53.8280517 L59.9040986,52.714239 C59.9040986,51.0154164 58.6818213,49.4675935 56.9913538,49.2983644 C55.0473466,49.1037662 53.4088327,50.6250047 53.4088327,52.5290593 L53.4088327,51.4152466 C53.4088327,49.716424 52.1865555,48.1684492 50.496088,47.999372 C48.5520808,47.8047738 46.9135669,49.3260123 46.9135669,51.2300669 L46.9135669,31.7447251 C46.9135669,29.8406705 45.275053,28.319432 43.3310458,28.5140302 C41.6407302,28.6832593 40.418301,30.2312341 40.418301,31.9299048 L40.418301,47.982358 L36.481675,51.918984 C34.8911651,53.509494 34.2368837,55.8097329 34.7520144,57.9993805 L37.4698572,69.55025 C38.436316,73.6577761 42.1014768,76.5606466 46.3214172,76.5606466 L57.3062657,76.5606466 C62.328297,76.5606466 66.3993644,72.4895792 66.3993644,67.4675479 L66.3993644,54.0132314 C66.3993644,52.3144088 65.1770872,50.766434 63.4866197,50.5973568 Z" id="Shape" fill="#F1AD2B"></path>
                <g id="Group" transform="translate(34.505311, 28.559300)">
                    <path d="M9.58477931,25.8365959 C10.3021039,25.8365959 10.8837717,25.254928 10.8837717,24.5376035 L10.8837717,19.5058498 C9.40446076,19.8092164 8.28578691,21.1015247 8.28578691,22.6706152 L8.28578691,24.5376035 C8.28578691,25.254928 8.86745477,25.8365959 9.58477931,25.8365959 Z" id="Shape" fill="#E6AF78"></path>
                    <path d="M16.0798932,27.1355883 C16.7972178,27.1355883 17.3788857,26.5539204 17.3788857,25.8365959 L17.3788857,20.8048422 C15.8995747,21.1082088 14.7809008,22.4005171 14.7809008,23.9696076 L14.7809008,25.8365959 C14.7809008,26.5540723 15.3624168,27.1355883 16.0798932,27.1355883 Z" id="Shape" fill="#E6AF78"></path>
                    <path d="M22.5748553,28.4345807 C23.2921798,28.4345807 23.8738477,27.8529128 23.8738477,27.1355883 L23.8738477,22.1038346 C22.3945367,22.4072012 21.2758629,23.6995095 21.2758629,25.2686 L21.2758629,27.1355883 C21.2758629,27.8530647 21.8575307,28.4345807 22.5748553,28.4345807 Z" id="Shape" fill="#E6AF78"></path>
                    <path d="M6.2063308,40.9909503 L3.19453997,28.1907633 C2.86215833,26.7779894 3.28431947,25.2936654 4.31078324,24.2672016 L5.9139018,22.664083 L5.9139018,25.9181722 C5.9139018,26.6354967 6.49556967,27.2171646 7.21289421,27.2171646 C7.93021875,27.2171646 8.51188662,26.6354967 8.51188662,25.9181722 L8.51188662,0.0192927184 C6.9897367,0.339065729 5.9139018,1.78115846 5.9139018,3.3704531 L5.9139018,19.4230582 L1.97727577,23.3596843 C0.386765836,24.9501942 -0.267515568,27.2504331 0.247615205,29.4400807 L2.96545793,40.9909503 C3.93191678,45.0984764 7.59707756,48.0013469 11.8167141,48.0013469 L15.0578908,48.0013469 C10.8379504,48.0013469 7.17278966,45.0984764 6.2063308,40.9909503 Z" id="Shape" fill="#F1AD2B"></path>
                </g>
                <path d="M16.8107938,15.5882127 C16.138283,15.5882127 15.5929219,16.1334219 15.5929219,16.8060845 C15.5929219,18.2834206 14.3910008,19.4853418 12.9136646,19.4853418 C11.4363285,19.4853418 10.2344074,18.2834206 10.2344074,16.8060845 C10.2344074,15.3287484 11.4363285,14.1268272 12.9136646,14.1268272 C13.5861754,14.1268272 14.1315365,13.5816181 14.1315365,12.9089554 C14.1315365,12.2364447 13.5863273,11.6910836 12.9136646,11.6910836 C10.0932819,11.6910836 7.79881559,13.9857018 7.79881559,16.8059326 C7.79881559,19.6261635 10.0934338,21.9207817 12.9136646,21.9207817 C15.7340474,21.9207817 18.0285137,19.6261635 18.0285137,16.8059326 C18.0285137,16.1334219 17.4833045,15.5882127 16.8107938,15.5882127 Z" id="Shape" fill="#000000"></path>
                <path d="M16.8107938,29.8772811 C16.138283,29.8772811 15.5929219,30.4224902 15.5929219,31.0951529 C15.5929219,32.572489 14.3910008,33.7744102 12.9136646,33.7744102 C11.4363285,33.7744102 10.2344074,32.572489 10.2344074,31.0951529 C10.2344074,29.6178168 11.4363285,28.4158956 12.9136646,28.4158956 C13.5861754,28.4158956 14.1315365,27.8706864 14.1315365,27.1980238 C14.1315365,26.5253611 13.5863273,25.9801519 12.9136646,25.9801519 C10.0932819,25.9801519 7.79881559,28.2747701 7.79881559,31.095001 C7.79881559,33.9152318 10.0934338,36.20985 12.9136646,36.20985 C15.7340474,36.20985 18.0285137,33.9152318 18.0285137,31.095001 C18.0285137,30.4226421 17.4833045,29.8772811 16.8107938,29.8772811 Z" id="Shape" fill="#000000"></path>
                <path d="M31.0998621,32.4754178 L22.0067634,32.4754178 C21.3342526,32.4754178 20.7888916,33.020627 20.7888916,33.6932896 C20.7888916,34.3659523 21.3341007,34.9111615 22.0067634,34.9111615 L31.0998621,34.9111615 C31.7723729,34.9111615 32.317734,34.3659523 32.317734,33.6932896 C32.317734,33.020627 31.7725248,32.4754178 31.0998621,32.4754178 Z" id="Shape" fill="#000000"></path>
                <path d="M31.0998621,27.2792962 L22.0067634,27.2792962 C21.3342526,27.2792962 20.7888916,27.8245054 20.7888916,28.4971681 C20.7888916,29.1698307 21.3341007,29.7150399 22.0067634,29.7150399 L31.0998621,29.7150399 C31.7723729,29.7150399 32.317734,29.1698307 32.317734,28.4971681 C32.317734,27.8245054 31.7725248,27.2792962 31.0998621,27.2792962 Z" id="Shape" fill="#000000"></path>
                <path d="M29.7197492,47.982358 C29.7197492,47.3098472 29.17454,46.7644861 28.5018773,46.7644861 L22.0067634,46.7644861 C21.3342526,46.7644861 20.7888916,47.3096953 20.7888916,47.982358 C20.7888916,48.6548687 21.3341007,49.2002298 22.0067634,49.2002298 L28.5018773,49.2002298 C29.1743881,49.2002298 29.7197492,48.6548687 29.7197492,47.982358 Z" id="Shape" fill="#000000"></path>
                <path d="M31.0998621,41.5685165 L22.0067634,41.5685165 C21.3342526,41.5685165 20.7888916,42.1137257 20.7888916,42.7863884 C20.7888916,43.4588991 21.3341007,44.0042602 22.0067634,44.0042602 L31.0998621,44.0042602 C31.7723729,44.0042602 32.317734,43.459051 32.317734,42.7863884 C32.317734,42.1137257 31.7725248,41.5685165 31.0998621,41.5685165 Z" id="Shape" fill="#000000"></path>
                <path d="M44.0088175,19.4040693 C44.0088175,18.7315586 43.4636084,18.1861975 42.7909457,18.1861975 L22.0067634,18.1861975 C21.3342526,18.1861975 20.7888916,18.7314067 20.7888916,19.4040693 C20.7888916,20.0765801 21.3341007,20.6219412 22.0067634,20.6219412 L42.7909457,20.6219412 C43.4636084,20.6217893 44.0088175,20.0765801 44.0088175,19.4040693 Z" id="Shape" fill="#000000"></path>
                <path d="M22.0067634,15.4258196 L37.5949761,15.4258196 C38.2674868,15.4258196 38.8128479,14.8806105 38.8128479,14.2079478 C38.8128479,13.5354371 38.2676387,12.990076 37.5949761,12.990076 L22.0067634,12.990076 C21.3342526,12.990076 20.7888916,13.5352851 20.7888916,14.2079478 C20.7890435,14.8806105 21.3342526,15.4258196 22.0067634,15.4258196 Z" id="Shape" fill="#000000"></path>
                <path d="M12.9136646,42.7051159 C13.5861754,42.7051159 14.1315365,42.1599067 14.1315365,41.487244 C14.1315365,40.8147333 13.5863273,40.2693722 12.9136646,40.2693722 C10.0932819,40.2693722 7.79881559,42.5639904 7.79881559,45.3842213 C7.79881559,48.204604 10.0934338,50.4990703 12.9136646,50.4990703 C15.7340474,50.4990703 18.0285137,48.2044521 18.0285137,45.3842213 C18.0285137,44.7117105 17.4833045,44.1663494 16.8106419,44.1663494 C16.1381311,44.1663494 15.59277,44.7115586 15.59277,45.3842213 C15.59277,46.8615574 14.3908489,48.0634785 12.9135127,48.0634785 C11.4361766,48.0634785 10.2342554,46.8615574 10.2342554,45.3842213 C10.2345593,43.9070371 11.4364804,42.7051159 12.9136646,42.7051159 Z" id="Shape" fill="#000000"></path>
                <path d="M25.9038925,59.754714 L3.8205659,59.754714 C3.05949094,59.754714 2.44030102,59.1355241 2.44030102,58.3744491 L2.44030102,3.81585665 C2.44030102,3.0547817 3.05949094,2.43559177 3.8205659,2.43559177 L47.9870672,2.43559177 C48.7481422,2.43559177 49.3673321,3.0547817 49.3673321,3.81585665 L49.3673321,44.0855327 C49.3673321,44.7580434 49.9125413,45.3034045 50.585204,45.3034045 C51.2577147,45.3034045 51.8030758,44.7581953 51.8030758,44.0855327 L51.8030758,3.81585665 C51.8029239,1.71173505 50.0911888,0 47.9870672,0 L3.8205659,0 C1.71659621,0 0.00470924624,1.71173505 0.00470924624,3.81585665 L0.00470924624,58.3744491 C0.00470924624,60.4785707 1.7164443,62.1903058 3.8205659,62.1903058 L25.9038925,62.1903058 C26.5764033,62.1903058 27.1217644,61.6450966 27.1217644,60.9724339 C27.1217644,60.2999232 26.5764033,59.754714 25.9038925,59.754714 Z" id="Shape" fill="#000000"></path>
                <path d="M59.4850717,49.3854095 C58.3531816,49.2725395 57.2218991,49.5933759 56.3265347,50.2731784 C55.6133117,49.0764222 54.3971109,48.2273907 52.9899578,48.0864171 C51.8577638,47.973699 50.7266332,48.2945354 49.8314207,48.974186 C49.1181978,47.7774298 47.901997,46.9283983 46.4948438,46.7874247 C45.6304693,46.7011392 44.76731,46.8676338 44.0088175,47.2536401 L44.0088175,31.7447251 C44.0088175,30.4855334 43.4731788,29.2784472 42.5387732,28.4330616 C41.605279,27.5884355 40.3473026,27.1761486 39.0871995,27.3022348 C36.8390661,27.5272153 35.0781118,29.5600905 35.0781118,31.9299048 L35.0781118,47.4780129 L31.4981732,51.0579515 C29.5957897,52.9603351 28.8278787,55.6594927 29.4441823,58.2782894 L32.162025,69.8291589 C33.2632291,74.5096939 37.3905036,77.7785185 42.198796,77.7785185 L53.1830368,77.7785185 C58.8684643,77.7785185 63.4940074,73.1531272 63.4940074,67.4675479 L63.4940074,54.0132314 C63.4941593,51.6432652 61.7332051,49.6105419 59.4850717,49.3854095 Z M61.0584157,67.4675479 C61.0584157,71.8099286 57.5255695,75.3427748 53.1831888,75.3427748 L42.1989479,75.3427748 C38.5264954,75.3427748 35.3740348,72.8461147 34.5329026,69.2711892 L31.8150599,57.7203196 C31.3933545,55.9285274 31.9188153,54.0815914 33.2203901,52.7800165 L35.0781118,50.9222948 L35.0781118,55.1268922 C35.0781118,55.7994029 35.623321,56.344764 36.2959837,56.344764 C36.9684944,56.344764 37.5138555,55.7995548 37.5138555,55.1268922 L37.5138555,31.9299048 C37.5138555,30.7958879 38.3115411,29.8276061 39.3301054,29.7258256 C39.9151154,29.667036 40.4746042,29.8494813 40.9048166,30.2391335 C41.3297122,30.6236206 41.5733777,31.1724757 41.5733777,31.744877 L41.5733777,53.1786314 C41.5733777,53.8511422 42.1185869,54.3965033 42.7912495,54.3965033 C43.4637603,54.3965033 44.0091214,53.8512941 44.0091214,53.1786314 L44.0091214,51.2300669 C44.0091214,50.6576656 44.252635,50.1088105 44.6776824,49.7243234 C45.1081987,49.3348231 45.6673837,49.152074 46.2523936,49.2110155 C47.2708061,49.3129479 48.0686435,50.2812297 48.0686435,51.4152466 L48.0686435,54.47732 C48.0686435,55.1498308 48.6138527,55.6951918 49.2865154,55.6951918 C49.9590261,55.6951918 50.5043872,55.1499827 50.5043872,54.47732 L50.5043872,52.5287554 C50.5043872,51.9563542 50.7479008,51.4074991 51.1729483,51.0230119 C51.6034645,50.6335117 52.1628014,50.4509145 52.7476594,50.5097041 C53.7660719,50.6116365 54.5639094,51.5799183 54.5639094,52.7139352 L54.5639094,55.7761605 C54.5639094,56.4486712 55.1091186,56.9940323 55.7817812,56.9940323 C56.454292,56.9940323 56.9996531,56.4488232 56.9996531,55.7761605 L56.9996531,53.8275959 C56.9996531,53.2551947 57.2431667,52.7063396 57.6682141,52.3218524 C58.0987304,51.9325041 58.6576116,51.7496031 59.2429253,51.8086965 C60.2613378,51.910477 61.0591752,52.8787588 61.0591752,54.0127757 L61.0591752,67.4675479 L61.0584157,67.4675479 Z" id="Shape" fill="#000000"></path>
            </g>
        </g>
    </g>
</svg>