<?xml version="1.0" encoding="UTF-8"?>
<svg width="63px" height="69px" viewBox="0 0 63 69" version="1.1" xmlns="http://www.w3.org/2000/svg" xmlns:xlink="http://www.w3.org/1999/xlink">
    <!-- Generator: sketchtool 47.1 (45422) - http://www.bohemiancoding.com/sketch -->
    <title>3190E8A1-A42D-4DB7-B606-0FF30F8F0F66</title>
    <desc>Created with sketchtool.</desc>
    <defs></defs>
    <g id="Page-1" stroke="none" stroke-width="1" fill="none" fill-rule="evenodd">
        <g id="Voice-message" transform="translate(-153.000000, -1945.000000)" fill-rule="nonzero">
            <g id="014-folder" transform="translate(152.500000, 1945.000000)">
                <path d="M62.99265,61.29165 C62.99265,65.28375 60.8202,68.23425 56.826,68.23425 L17.20425,68.23425 C11.6277,68.23425 6.2916,64.0017 6.2916,58.4262 L6.2916,15.3531 C6.2916,9.77865 11.6277,5.24895 17.20425,5.24895 L22.0206,5.24895 C27.5373,5.24895 31.4916,9.87945 31.4916,15.39405 L31.4916,14.69685 L56.82495,14.69685 C60.81915,14.69685 62.9916,18.43695 62.9916,22.4301 L62.9916,61.29165 L62.99265,61.29165 Z" id="path-1_15_" fill="#30CC7B"></path>
                <path d="M61.94265,59.83635 C61.94265,64.4742 58.18155,68.23425 53.54265,68.23425 L25.19265,68.23425 C20.55375,68.23425 16.79265,64.4742 16.79265,59.83635 L16.79265,34.6416 C16.79265,30.00375 20.55375,26.2437 25.19265,26.2437 L53.54265,26.2437 C58.18155,26.2437 61.94265,30.00375 61.94265,34.6416 L61.94265,59.83635 Z" id="path-2_15_" fill="#23BDFF"></path>
                <path d="M35.0658,56.1834 L28.78155,57.3069 L29.90505,51.02475 L45.36315,35.5698 C46.78905,34.14495 49.09905,34.14495 50.5239,35.5698 L50.5239,35.5698 C51.9498,36.99465 51.9498,39.30465 50.5239,40.7295 L35.0658,56.1834 Z" id="path-3_13_" fill="#8B71B5"></path>
                <path d="M50.91765,66.13425 L22.56765,66.13425 C17.06775,66.13425 12.59265,61.66125 12.59265,56.16135 L12.59265,30.96765 C12.59265,25.4688 17.06775,20.9958 22.56765,20.9958 L50.91765,20.9958 C56.41755,20.9958 60.89265,25.4688 60.89265,30.96765 L60.89265,56.16135 C60.89265,61.66125 56.4165,66.13425 50.91765,66.13425 Z M22.56765,24.14475 C18.80445,24.14475 15.74265,27.2055 15.74265,30.96765 L15.74265,56.16135 C15.74265,59.92455 18.80445,62.9853 22.56765,62.9853 L50.91765,62.9853 C54.68085,62.9853 57.74265,59.92455 57.74265,56.16135 L57.74265,30.96765 C57.74265,27.2055 54.68085,24.14475 50.91765,24.14475 L22.56765,24.14475 Z" id="path-4_12_" fill="#000000"></path>
                <path d="M50.1249,66.13425 L13.00425,66.13425 C6.40815,66.13425 1.0416,61.02285 1.0416,54.7407 L1.0416,12.20415 C1.04265,5.5881 6.6108,0 13.2006,0 L17.82165,0 C23.08425,0 27.79455,4.1706 29.0598,9.4479 L52.626,9.4479 C57.18405,9.4479 60.89265,13.40955 60.89265,18.2784 L60.89265,55.42005 C60.89265,61.52895 56.2632,66.13425 50.1249,66.13425 Z M13.2006,3.15 C8.4021,3.15 4.19265,7.38045 4.19265,12.20415 L4.19265,54.7407 C4.19265,59.28615 8.1459,62.9853 13.0053,62.9853 L50.12595,62.9853 C54.4677,62.9853 57.74265,59.7324 57.74265,55.42005 L57.74265,18.2784 C57.74265,15.14625 55.44735,12.59685 52.626,12.59685 L29.35275,12.59685 C29.19315,13.2972 28.5663,13.81905 27.81765,13.81905 C26.9472,13.81905 26.24265,13.1145 26.24265,12.2451 C26.24265,7.39935 22.30725,3.15 17.82165,3.15 L13.2006,3.15 Z" id="path-5_9_" fill="#000000"></path>
                <path d="M25.6326,57.8319 C25.2189,57.8319 24.8178,57.66915 24.5196,57.37095 C24.15525,57.0066 23.99145,56.48685 24.0828,55.98075 L25.2063,49.6986 C25.26195,49.3815 25.41525,49.0896 25.6431,48.86175 L41.1012,33.4068 C42.0882,32.42085 43.39965,31.87695 44.7951,31.87695 C46.19055,31.87695 47.502,32.42085 48.489,33.4068 C49.476,34.39275 50.01885,35.70525 50.01885,37.1007 C50.01885,38.49405 49.476,39.80655 48.489,40.7925 L33.02985,56.2485 C32.802,56.4753 32.51115,56.6286 32.193,56.68425 L25.9098,57.8067 C25.81635,57.8235 25.725,57.8319 25.6326,57.8319 Z M28.21875,50.73915 L27.58035,54.30915 L31.1514,53.6718 L46.2609,38.5665 C46.65255,38.17485 46.86885,37.65405 46.86885,37.1007 C46.86885,36.54525 46.65255,36.02445 46.2609,35.63385 C45.47655,34.85055 44.11155,34.85055 43.3272,35.63385 L28.21875,50.73915 Z" id="path-6_8_" fill="#000000"></path>
            </g>
        </g>
    </g>
</svg>