<?xml version="1.0" encoding="UTF-8"?>
<svg width="1024px" height="434px" viewBox="0 0 1024 434" version="1.1" xmlns="http://www.w3.org/2000/svg" xmlns:xlink="http://www.w3.org/1999/xlink">
    <!-- Generator: sketchtool 47.1 (45422) - http://www.bohemiancoding.com/sketch -->
    <title>0F984EE5-1B23-4F43-AE4B-0F3BBD87824E</title>
    <desc>Created with sketchtool.</desc>
    <defs>
        <linearGradient x1="12.5770569%" y1="0%" x2="53.168869%" y2="31.7243304%" id="linearGradient-1">
            <stop stop-color="#013FB8" offset="0%"></stop>
            <stop stop-color="#001642" offset="100%"></stop>
        </linearGradient>
        <polygon id="path-2" points="0 0 1024 0 1024 434 0 434"></polygon>
        <path d="M0.367061526,294.76009 C0.367061526,386.205075 42.0531338,467.927716 107.454474,521.971372 L114.155404,420.272463 L122.206528,421.331846 L124.136456,397.902668 L152.260156,401.213005 L153.178855,383.332843 L144.028691,350.234196 C144.028691,350.234196 139.931843,337.251558 142.746479,322.065175 C145.461974,307.427368 155.095564,290.564101 155.095564,290.564101 C155.11256,290.435691 155.122002,290.318611 155.151272,290.193034 L184.651603,228.508977 C184.669543,228.421167 184.691259,228.335246 184.716753,228.251213 L184.716753,94.814237 L404.389607,94.814237 L404.389607,159.627346 C406.42434,160.4639 408.435469,161.39865 410.423937,162.436316 C445.714998,180.866942 459.38312,224.394189 440.953438,259.672975 C432.879653,275.123731 419.985768,286.427596 405.079811,292.705528 C408.937779,299.501821 416.773628,303.941412 416.773628,303.941412 L404.389607,307.582216 L416.773628,303.941412 L419.359769,312.557163 L428.798856,313.973451 C428.905549,314.046153 436.257027,316.116766 436.357112,316.196078 C436.357112,316.196078 451.922115,322.504224 463.806659,331.076543 C476.141581,339.972719 482.052223,351.996058 482.052223,351.996058 L498.05061,381.776815 L510.86235,393.87569 L528.627321,372.410431 L545.936246,387.77621 L550.946129,381.551153 L570.734502,399.496464 C583.119468,366.953002 589.900654,331.647779 589.900654,294.76009 L589.900654,0.115566487 L295.137213,0.115566487 C457.92911,0.115649236 589.900595,132.032385 589.900654,294.75998 L0.367061526,294.76009 Z M295.137162,589.402725 C275.363896,589.402725 256.048562,587.457689 237.366781,583.747015 L245.235676,437.535123 L240.140817,436.863803 L241.93667,411.767182 L211.526137,408.187751 C212.281491,388.321953 215.457752,389.200052 218.881392,384.218495 C220.4733,381.900504 221.803666,379.306809 222.883822,376.555434 L404.389607,376.555434 L404.389607,376.370372 L422.491654,437.342508 L449.876051,429.288551 C450.519046,429.667172 451.162985,430.041072 451.807868,430.410251 C456.796034,433.263599 467.734497,435.030182 473.356215,439.195957 L454.212725,462.32677 L472.556485,478.969096 L469.386833,482.908265 L497.443495,509.050106 C444.653726,558.864726 373.462601,589.402725 295.137162,589.402725 Z M183.303297,320.195675 L183.706467,312.364548 L183.799942,303.052927 L184.716753,304.28793 L184.716753,314.52297 C184.318304,315.846727 183.838654,317.652022 183.392996,319.896366 L183.303297,320.195675 Z M184.716753,297.068639 C184.323969,288.823011 184.531691,270.906026 184.531691,270.906026 C184.561905,270.761564 184.624222,270.567061 184.716753,270.326292 L184.716753,297.068639 Z" id="path-4"></path>
    </defs>
    <g id="Page-1" stroke="none" stroke-width="1" fill="none" fill-rule="evenodd">
        <g id="Voice-message" transform="translate(0.000000, -2156.000000)">
            <g id="ONZFBC1" transform="translate(0.000000, 2156.000000)">
                <mask id="mask-3" fill="white">
                    <use xlink:href="#path-2"></use>
                </mask>
                <use id="Mask" fill="url(#linearGradient-1)" xlink:href="#path-2"></use>
                <g style="mix-blend-mode: soft-light;" mask="url(#mask-3)">
                    <g transform="translate(750.103209, 260.763237) rotate(-28.000000) translate(-750.103209, -260.763237) translate(364.603209, -124.736763)">
                        <path d="M3.03746533,390.050393 C1.83173228,285.755901 42.9588429,181.343384 125.356581,105.047958 C207.755264,28.7515874 315.046622,-4.2649148 418.988931,4.90035594 L421.766743,2.32743303 C414.532345,1.64572648 407.254514,1.14058381 399.934194,0.86110301 C297.162683,-3.06579109 199.009214,33.2468851 123.561673,103.107644 C48.1112981,172.972179 4.3933249,268.024921 0.463598221,370.754888 C0.182229036,378.070487 0.131242674,385.360592 0.255876004,392.627093 L3.03746533,390.050393" id="Fill-3" fill="#FFFFFE"></path>
                        <path d="M715.316004,192.463132 L717.37151,190.555864 C703.412577,166.890639 686.822181,144.544449 667.692853,123.907247 C640.489741,94.5504323 609.45132,70.025992 575.646418,50.7559796 L573.497437,52.7472803 C607.02097,71.6736069 638.221792,95.9950459 665.753483,125.7031 C685.043324,146.514033 701.537412,168.927261 715.316004,192.463132" id="Fill-4" fill="#FFFFFE"></path>
                        <path d="M764.483853,337.840358 C779.156595,455.856792 738.839601,579.063448 645.088899,665.875284 C490.404773,809.106362 247.983504,799.84384 104.693886,645.216365 C77.160306,615.5102 55.2833797,582.551293 38.9658554,547.696449 L36.8130979,549.686806 C53.4554242,584.852289 75.5476262,617.656348 102.752627,647.01033 C172.645488,722.437099 267.736943,766.136189 370.50751,770.054585 C473.281853,773.991865 571.435322,737.680133 646.884752,667.811821 C722.337015,597.952007 766.051212,502.899265 769.97905,400.16741 C770.819381,378.326363 769.818537,356.696815 767.080381,335.443055 L764.483853,337.840358" id="Fill-5" fill="#FFFFFE"></path>
                        <path d="M107.283804,233.170077 C118.969123,211.863443 133.284961,191.574647 150.301187,172.792782 C265.214062,45.9575964 460.248228,33.8445585 589.931097,143.612532 L591.632531,141.734534 C529.565132,89.1326592 451.0924,62.4658475 369.425466,66.507933 C284.195152,70.7275266 205.707312,107.869203 148.425078,171.096069 C131.090659,190.22823 116.345214,211.064657 104.296381,233.170077 L107.283804,233.170077" id="Fill-6" fill="#FFFFFE"></path>
                        <path d="M68.95339,367.199061 L66.252057,367.199061 C65.6288904,378.466103 65.573183,389.827564 66.1396982,401.25323 C70.1836721,482.881452 104.480499,558.31011 162.98074,614.849265 L164.68123,612.970324 C96.2254288,546.724876 63.900075,456.258073 68.95339,367.199061" id="Fill-7" fill="#FFFFFE"></path>
                        <path d="M666.201974,233.170077 C662.990778,227.257548 659.581301,221.443214 655.989595,215.735574 L654.131425,217.78447 C657.28597,222.841562 660.269617,227.975133 663.116355,233.170077 L666.201974,233.170077" id="Fill-8" fill="#FFFFFE"></path>
                        <path d="M704.172651,367.198117 L701.468486,367.198117 C706.208329,449.059554 679.441433,532.692296 620.152791,598.132348 C523.015273,705.34817 368.633289,730.560927 244.865782,669.502869 L243.006668,671.554598 C291.434271,695.704194 345.491145,707.164796 401.027568,704.415309 C486.258827,700.197604 564.74289,663.053094 622.030789,599.830949 C679.31019,536.60786 708.534818,454.866335 704.315224,369.670011 C704.274624,368.845732 704.217973,368.022397 704.172651,367.198117" id="Fill-9" fill="#FFFFFE"></path>
                        <path d="M117.99755,169.081164 L116.043072,167.475093 C112.833764,171.383104 109.67261,175.408194 106.65214,179.437061 L108.67932,180.953433 C111.674297,176.955724 114.811846,172.960848 117.99755,169.081164" id="Fill-25" fill="#FFFFFE"></path>
                        <path d="M158.555313,124.114025 C154.726614,127.38565 150.914912,130.79135 147.223121,134.239539 L148.951937,136.087322 C152.61729,132.664627 156.398778,129.283475 160.197262,126.037344 L158.555313,124.114025" id="Fill-26" fill="#FFFFFE"></path>
                        <path d="M136.347919,144.854144 C132.822307,148.452459 129.322187,152.180129 125.94859,155.939901 L127.830364,157.630949 C131.180357,153.897614 134.652151,150.195438 138.15227,146.625448 L136.347919,144.854144" id="Fill-27" fill="#FFFFFE"></path>
                        <path d="M180.328378,106.998658 C176.952892,109.443171 173.590624,111.947168 170.317111,114.503096 L171.875028,116.49534 C174.764255,114.238722 177.724297,112.027424 180.701334,109.855783 L180.328378,106.998658" id="Fill-28" fill="#FFFFFE"></path>
                        <path d="M321.999651,49.6767683 L321.556825,47.1869342 C317.073802,47.9809996 312.557732,48.8864796 308.088872,49.8608857 L308.419339,52.3762129 C312.920302,51.3895324 317.476972,50.477443 321.999651,49.6767683" id="Fill-29" fill="#FFFFFE"></path>
                        <path d="M97.7956199,191.803142 C94.9460487,195.969861 92.1512407,200.25838 89.4867312,204.547844 L91.6376003,205.881987 C94.2813377,201.623682 97.0553734,197.366321 99.8832282,193.228872 L97.7956199,191.803142" id="Fill-31" fill="#FFFFFE"></path>
                        <path d="M81.7500228,217.650395 C79.2819052,222.048441 76.8732717,226.565455 74.5949366,231.083413 L76.8534436,232.222109 C79.1157274,227.739085 81.5045329,223.255118 83.9547109,218.888231 L81.7500228,217.650395" id="Fill-32" fill="#FFFFFE"></path>
                        <path d="M48.076363,302.307585 C46.8489135,307.211717 45.7168274,312.21499 44.7074863,317.175775 L47.1888226,317.67714 C48.189666,312.754124 49.3132544,307.790507 50.5322061,302.922254 L48.076363,302.307585" id="Fill-33" fill="#FFFFFE"></path>
                        <path d="M68.0384681,244.821405 C65.9640785,249.429062 63.9652242,254.146244 62.0985569,258.840767 L64.4467621,259.774572 C66.3039876,255.114985 68.2867905,250.433682 70.3460731,245.860016 L68.0384681,244.821405" id="Fill-34" fill="#FFFFFE"></path>
                        <path d="M56.7808681,273.113171 C55.1228671,277.88795 53.5470108,282.766589 52.1042856,287.611238 L54.5289704,288.333545 C55.9631979,283.524775 57.5239471,278.682015 59.171562,273.941228 L56.7808681,273.113171" id="Fill-35" fill="#FFFFFE"></path>
                        <path d="M719.233456,333.857757 L721.734621,333.473471 C720.966048,328.462644 720.081341,323.425381 719.106935,318.499532 L716.62371,318.989567 C717.591507,323.878593 718.471493,328.880921 719.233456,333.857757" id="Fill-55" fill="#FFFFFE"></path>
                        <path d="M704.909121,275.281036 L707.307368,274.466198 C705.677693,269.688587 703.91772,264.882651 702.082211,260.18624 L699.727396,261.105883 C701.551575,265.770191 703.295497,270.536472 704.909121,275.281036" id="Fill-57" fill="#FFFFFE"></path>
                        <path d="M713.366248,304.25262 L715.821147,303.653058 C714.627688,298.758367 713.302987,293.815523 711.890476,288.967097 L709.457293,289.675241 C710.865084,294.489676 712.17751,299.392864 713.366248,304.25262" id="Fill-58" fill="#FFFFFE"></path>
                        <g id="Group-65" style="mix-blend-mode: multiply;" stroke-width="1" fill="none" transform="translate(25.723689, 170.193726)">
                            <mask id="mask-5" fill="white">
                                <use xlink:href="#path-4"></use>
                            </mask>
                            <g id="Clip-64"></g>
                        </g>
                        <path d="M643.44695,651.840816 L621.908044,631.772961 C623.634971,630.086634 625.343014,628.3852 627.021787,626.678101 L625.214604,624.905853 C623.522612,626.629003 621.798518,628.346489 620.056484,630.046978 L605.665111,616.638509 C611.293439,611.260392 616.750868,605.657557 622.030789,599.830949 C646.964064,572.309644 666.582484,541.277833 680.440388,507.980906 L729.288156,552.281445 C723.092369,565.088464 716.143116,577.617891 708.447952,589.78758 L643.44695,651.840816 M645.39765,602.47091 C642.216668,606.33832 638.904442,610.18779 635.549729,613.913571 L637.437168,615.604619 C640.809822,611.848624 644.146596,607.974604 647.353071,604.078868 L645.39765,602.47091 M663.538409,578.341142 C660.700168,582.480479 657.739182,586.608486 654.733819,590.606194 L656.75439,592.127287 C659.780525,588.096532 662.769837,583.942088 665.623185,579.772536 L663.538409,578.341142 M679.492419,552.702555 C677.034688,557.069442 674.445714,561.444828 671.7982,565.697468 L673.942459,567.036332 C676.614523,562.748757 679.218604,558.341269 681.69994,553.944167 L679.492419,552.702555 M693.132216,525.745876 C691.0701,530.316709 688.874854,534.902649 686.610682,539.378119 L688.866357,540.517758 C691.150357,536.008298 693.357877,531.390255 695.441709,526.788264 L693.132216,525.745876 M603.803164,614.903084 L587.539459,599.750693 C619.596662,569.500673 644.867958,532.142776 660.830467,490.197051 L678.327287,506.06514 C664.794184,539.030656 645.429753,570.233366 620.152791,598.132348 C614.870038,603.962733 609.409776,609.558958 603.803164,614.903084 M716.33101,582.26237 C721.774277,573.140533 726.831369,563.79681 731.483402,554.271802 L738.748959,560.860373 L716.33101,582.26237" id="Fill-68" fill="#141818"></path>
                        <path d="M605.665111,616.638509 L603.803164,614.903084 C609.409776,609.558958 614.870038,603.962733 620.152791,598.132348 C645.429753,570.233366 664.794184,539.030656 678.327287,506.06514 L680.440388,507.980906 C666.582484,541.277833 646.964064,572.309644 622.030789,599.830949 C616.750868,605.657557 611.293439,611.260392 605.665111,616.638509" id="Fill-70" fill="#FFFFFE"></path>
                        <path d="M250.729214,492.898384 L242.35612,491.913592 L243.274819,474.03343 L234.124655,440.934783 C234.124655,440.934783 230.027807,427.952145 232.842443,412.765762 C235.557939,398.127955 245.191528,381.264688 245.191528,381.264688 C245.208524,381.136278 245.217966,381.019198 245.247236,380.89362 L274.747567,319.209564 C274.765507,319.121754 274.787223,319.035833 274.812717,318.951799 L274.812717,361.026879 C274.720186,361.267648 274.657869,361.462151 274.627655,361.606613 C274.627655,361.606613 274.419933,379.523598 274.812717,387.769226 L274.812717,394.988517 L273.895906,393.753514 L273.802431,403.065135 L273.399261,410.896262 L273.48896,410.596953 C272.105719,417.554703 271.043503,428.731103 273.688184,442.826944 L259.255267,474.704751 C256.066731,481.292377 253.236043,487.341815 250.729214,492.898384" id="Fill-76" fill="#E6B8A1"></path>
                        <path d="M494.485571,467.256021 L312.979786,467.256021 C315.837855,459.972524 316.943503,451.589045 316.516729,444.325376 C316.516729,425.914578 306.20993,409.344011 306.273191,409.175945 L303.841897,362.217505 C304.939992,351.218613 302.798564,343.85014 298.654506,341.57747 C295.821931,340.021442 292.990299,339.208492 290.310682,339.208492 C286.218555,339.208492 282.480499,341.10443 279.632816,345.145571 L275.712532,402.603425 C275.712532,402.603425 275.330134,403.508905 274.812717,405.223557 L274.812717,185.514824 L494.485571,185.514824 L494.485571,250.327932 C485.613,246.682408 476.357086,244.936597 467.209755,244.936597 C456.607424,244.936597 446.153332,247.281025 436.616994,251.730057 L436.616994,225.81199 L426.006165,225.81199 L426.006165,257.821983 C424.95528,258.549955 423.924222,259.306253 422.909216,260.093709 L422.909216,213.646077 L412.296499,213.646077 L412.296499,270.226777 C411.102096,271.627957 409.954903,273.083901 408.858696,274.591776 L408.858696,238.598236 L398.249756,238.598236 L398.249756,287.19957 L401.511939,287.19957 C400.343029,289.763995 399.338409,292.365244 398.491469,294.991042 L330.233004,294.991042 L330.233004,302.226384 L396.570983,302.226384 C396.158371,304.191248 395.829792,306.164609 395.585246,308.13797 L330.233004,308.13797 L330.233004,315.37048 L395.058387,315.37048 C394.752469,329.310529 398.515074,343.06174 405.799514,354.878301 L388.618054,354.878301 L388.618054,362.112699 L410.899095,362.112699 C416.954197,369.666235 424.639919,376.116954 433.773088,380.887011 C444.433014,386.45019 455.842629,389.087318 467.087955,389.087318 C471.333985,389.087318 475.552635,388.711529 479.701414,387.97506 C480.116858,396.411414 475.702761,403.803493 475.702761,403.803493 L494.485571,398.282803 L475.702761,403.803493 L477.251236,409.016376 C476.500604,408.909682 475.770743,408.857752 475.064488,408.857752 C468.795053,408.857752 464.306365,412.950824 462.216869,419.563944 C460.813799,423.996925 464.301644,430.695966 472.562379,437.776461 L474.392223,439.930163 C468.288022,452.315128 465.035281,463.434876 469.903535,465.447893 C471.133817,465.956813 472.329164,466.192861 473.49052,466.192861 C478.773273,466.191916 483.335609,461.300058 487.166195,454.961698 L492.890831,461.698507 L494.485571,467.070959 L494.485571,467.256021 L494.485571,467.256021 Z M344.846262,404.071643 C338.482409,406.474612 334.001274,410.989737 331.640794,417.364921 C327.312619,429.065347 333.291242,442.057427 344.997333,446.383715 C347.580642,447.339237 350.228156,447.791505 352.830349,447.791505 C362.017336,447.791505 370.653859,442.149958 374.028401,433.032841 C377.174449,424.528505 375.275679,415.756018 368.89483,409.311908 L362.86522,415.279201 C366.842157,419.303347 368.023341,424.776827 366.059422,430.082242 L366.058477,430.087907 C363.951041,435.778551 358.557817,439.299443 352.820907,439.299443 C351.195009,439.299443 349.542673,439.017129 347.928105,438.421344 C340.617227,435.718123 336.882948,427.605626 339.587113,420.295693 C341.060053,416.314979 343.859582,413.494678 347.831797,411.993413 L347.841239,411.990581 L344.846262,404.071643 L344.846262,404.071643 Z M388.618054,435.37066 L414.081966,435.37066 L414.081966,428.135318 L388.618054,428.135318 L388.618054,435.37066 Z M388.618054,422.224677 L439.066227,422.224677 L439.066227,414.987446 L388.618054,414.987446 L388.618054,422.224677 Z M352.905884,411.054886 C356.575014,411.054886 360.123287,412.508942 362.854834,415.264094 L362.86522,415.279201 L368.89483,409.311908 C364.522277,404.897811 358.838242,402.56849 352.965368,402.56849 C350.262147,402.56849 347.520214,403.061358 344.846262,404.071643 L347.841239,411.990581 C349.509626,411.361749 351.220502,411.054886 352.905884,411.054886 L352.905884,411.054886 Z M344.845318,347.674117 C338.482409,350.07803 333.999386,354.593155 331.640794,360.968339 C327.312619,372.669709 333.291242,385.660845 344.997333,389.987133 C347.581586,390.942655 350.227212,391.394923 352.830349,391.394923 C362.016392,391.394923 370.653859,385.751488 374.026513,376.637203 C377.173504,368.131923 375.275679,359.358492 368.89483,352.915326 L352.834126,368.802299 L344.845318,347.674117 L344.845318,347.674117 Z M388.618054,375.261516 L414.081966,375.261516 L414.081966,368.023341 L388.618054,368.023341 L388.618054,375.261516 Z M352.966313,346.170963 C350.264035,346.170963 347.519269,346.663832 344.845318,347.674117 L352.834126,368.802299 L368.89483,352.915326 C364.522277,348.499341 358.84013,346.170963 352.966313,346.170963 L352.966313,346.170963 Z M330.233004,327.601541 L380.681177,327.601541 L380.681177,320.366199 L330.233004,320.366199 L330.233004,327.601541 Z M384.706267,287.19957 L395.31804,287.19957 L395.31804,249.223228 L384.706267,249.223228 L384.706267,287.19957 Z M371.532902,287.19957 L382.139954,287.19957 L382.139954,256.928778 L371.532902,256.928778 L371.532902,287.19957 Z M357.822291,287.19957 L368.435008,287.19957 L368.435008,250.930327 L357.822291,250.930327 L357.822291,287.19957 Z M343.775549,287.19957 L354.384489,287.19957 L354.384489,263.234091 L343.775549,263.234091 L343.775549,287.19957 Z M330.233004,287.19957 L340.841944,287.19957 L340.841944,273.803376 L330.233004,273.803376 L330.233004,287.19957 Z" id="Fill-77" fill="#FFFFFE"></path>
                        <path d="M301.622101,498.888338 L250.729214,492.898384 C253.236043,487.341815 256.066731,481.292377 259.255267,474.704751 L273.688184,442.826944 C271.043503,428.731103 272.105719,417.554703 273.48896,410.596953 C273.934618,408.352609 274.414268,406.547314 274.812717,405.223557 C275.330134,403.508905 275.712532,402.603425 275.712532,402.603425 L279.632816,345.145571 C282.480499,341.10443 286.218555,339.208492 290.310682,339.208492 C292.990299,339.208492 295.821931,340.021442 298.654506,341.57747 C302.798564,343.85014 304.939992,351.218613 303.841897,362.217505 L306.273191,409.175945 C306.20993,409.344011 316.516729,425.914578 316.516729,444.325376 C316.943503,451.589045 315.837855,459.972524 312.979786,467.256021 C311.89963,470.007396 310.569264,472.601091 308.977356,474.919082 C305.553716,479.900639 302.377455,479.02254 301.622101,498.888338 M290.216263,342.527327 C284.762611,342.527327 281.816732,345.347628 281.816732,345.347628 L281.816732,356.872434 C281.816732,356.872434 285.508522,357.939371 289.497733,357.939371 C294.170539,357.939371 299.244626,356.872434 299.244626,356.872434 L299.244626,345.347628 C299.244626,345.347628 296.340292,342.737882 290.771448,342.536769 C290.583554,342.53016 290.398492,342.527327 290.216263,342.527327" id="Fill-78" fill="#E6B8A1"></path>
                        <path d="M330.236781,527.56439 L212.302492,512.032433 L214.23242,488.603255 L242.35612,491.913592 L250.729214,492.898384 L332.032634,502.467769 L330.236781,527.56439 M313.285704,509.473673 C311.248138,509.473673 309.440954,510.952277 309.109543,513.0295 C308.740364,515.33616 310.310555,517.504969 312.614383,517.876037 C312.840045,517.911916 313.064763,517.928911 313.286648,517.928911 C315.330824,517.928911 317.136118,516.456916 317.466586,514.374029 C317.835765,512.06548 316.266518,509.899503 313.962689,509.528436 C313.735139,509.491613 313.508533,509.473673 313.285704,509.473673" id="Fill-79" fill="#F3F4F1"></path>
                        <path d="M327.462745,674.447602 C278.765104,664.774356 234.395638,643.118371 197.550438,612.671959 L204.251368,510.97305 L212.302492,512.032433 L330.236781,527.56439 L335.33164,528.23571 L327.462745,674.447602" id="Fill-80" fill="#141818"></path>
                        <path d="M313.286648,517.928911 C313.064763,517.928911 312.840045,517.911916 312.614383,517.876037 C310.310555,517.504969 308.740364,515.33616 309.109543,513.0295 C309.440954,510.952277 311.248138,509.473673 313.285704,509.473673 C313.508533,509.473673 313.735139,509.491613 313.962689,509.528436 C316.266518,509.899503 317.835765,512.06548 317.466586,514.374029 C317.136118,516.456916 315.330824,517.928911 313.286648,517.928911" id="Fill-81" fill="#141818"></path>
                        <path d="M289.497733,357.939371 C285.508522,357.939371 281.816732,356.872434 281.816732,356.872434 L281.816732,345.347628 C281.816732,345.347628 284.762611,342.527327 290.216263,342.527327 C290.398492,342.527327 290.583554,342.53016 290.771448,342.536769 C296.340292,342.737882 299.244626,345.347628 299.244626,345.347628 L299.244626,356.872434 C299.244626,356.872434 294.170539,357.939371 289.497733,357.939371" id="Fill-82" fill="#EFCEBB"></path>
                        <polygon id="Fill-83" fill="#B6B8B5" points="330.233004 327.601541 380.681177 327.601541 380.681177 320.366199 330.233004 320.366199"></polygon>
                        <path d="M396.570983,302.226384 L330.233004,302.226384 L330.233004,294.991042 L398.491469,294.991042 C397.720064,297.386457 397.080846,299.799811 396.570983,302.226384" id="Fill-84" fill="#B6B8B5"></path>
                        <path d="M395.058387,315.37048 L330.233004,315.37048 L330.233004,308.13797 L395.585246,308.13797 C395.285938,310.549436 395.112206,312.961846 395.058387,315.37048" id="Fill-85" fill="#B6B8B5"></path>
                        <polygon id="Fill-86" fill="#F9CD30" points="330.233004 287.19957 340.841944 287.19957 340.841944 273.803376 330.233004 273.803376"></polygon>
                        <polygon id="Fill-87" fill="#E05A38" points="343.775549 287.19957 354.384489 287.19957 354.384489 263.234091 343.775549 263.234091"></polygon>
                        <polygon id="Fill-88" fill="#F9CD30" points="357.822291 287.19957 368.435008 287.19957 368.435008 250.930327 357.822291 250.930327"></polygon>
                        <polygon id="Fill-89" fill="#E05A38" points="371.532902 287.19957 382.139954 287.19957 382.139954 256.928778 371.532902 256.928778"></polygon>
                        <polygon id="Fill-90" fill="#F9CD30" points="384.706267 287.19957 395.31804 287.19957 395.31804 249.223228 384.706267 249.223228"></polygon>
                        <path d="M401.511939,287.19957 L398.249756,287.19957 L398.249756,238.598236 L408.858696,238.598236 L408.858696,274.591776 C406.796581,277.429072 404.917639,280.451431 403.244531,283.652241 C402.63175,284.825872 402.053905,286.008944 401.511939,287.19957" id="Fill-91" fill="#E05A38"></path>
                        <path d="M412.296499,270.226777 L412.296499,213.646077 L422.909216,213.646077 L422.909216,260.093709 C419.076741,263.066025 415.512416,266.453786 412.296499,270.226777" id="Fill-92" fill="#F9CD30"></path>
                        <path d="M426.006165,257.821983 L426.006165,225.81199 L436.616994,225.81199 L436.616994,251.730057 C432.92898,253.450375 429.375042,255.486053 426.006165,257.821983" id="Fill-93" fill="#E05A38"></path>
                        <path d="M410.899095,362.112699 L388.618054,362.112699 L388.618054,354.878301 L405.799514,354.878301 C407.343268,357.383242 409.044702,359.799429 410.899095,362.112699" id="Fill-94" fill="#B6B8B5"></path>
                        <polygon id="Fill-95" fill="#B6B8B5" points="388.618054 375.261516 414.081966 375.261516 414.081966 368.023341 388.618054 368.023341"></polygon>
                        <path d="M352.834126,368.802299 L344.845318,347.674117 C347.519269,346.663832 350.264035,346.170963 352.966313,346.170963 C358.84013,346.170963 364.522277,348.499341 368.89483,352.915326 L352.834126,368.802299" id="Fill-96" fill="#E05A38"></path>
                        <path d="M352.830349,391.394923 C350.227212,391.394923 347.581586,390.942655 344.997333,389.987133 C333.291242,385.660845 327.312619,372.669709 331.640794,360.968339 C333.999386,354.593155 338.482409,350.07803 344.845318,347.674117 L352.834126,368.802299 L374.026513,376.637203 C370.653859,385.751488 362.016392,391.394923 352.830349,391.394923" id="Fill-97" fill="#F9CD30"></path>
                        <path d="M374.026513,376.637203 L374.026513,376.637203 L352.834126,368.802299 L368.89483,352.915326 C375.275679,359.358492 377.173504,368.131923 374.026513,376.637203" id="Fill-98" fill="#B6B8B5"></path>
                        <polygon id="Fill-99" fill="#B6B8B5" points="388.618054 422.224677 439.066227 422.224677 439.066227 414.987446 388.618054 414.987446"></polygon>
                        <polygon id="Fill-100" fill="#B6B8B5" points="388.618054 435.37066 414.081966 435.37066 414.081966 428.135318 388.618054 428.135318"></polygon>
                        <path d="M362.86522,415.279201 L362.854834,415.264094 C360.123287,412.508942 356.575014,411.054886 352.905884,411.054886 C351.220502,411.054886 349.509626,411.361749 347.841239,411.990581 L344.846262,404.071643 C347.520214,403.061358 350.262147,402.56849 352.965368,402.56849 C358.838242,402.56849 364.522277,404.897811 368.89483,409.311908 L362.86522,415.279201" id="Fill-101" fill="#F9CD30"></path>
                        <path d="M352.830349,447.791505 C350.228156,447.791505 347.580642,447.339237 344.997333,446.383715 C333.291242,442.057427 327.312619,429.065347 331.640794,417.364921 C334.001274,410.989737 338.482409,406.474612 344.846262,404.071643 L347.841239,411.990581 L347.831797,411.993413 C343.859582,413.494678 341.060053,416.314979 339.587113,420.295693 C336.882948,427.605626 340.617227,435.718123 347.928105,438.421344 C349.542673,439.017129 351.195009,439.299443 352.820907,439.299443 C358.557817,439.299443 363.951041,435.778551 366.058477,430.087907 L374.028401,433.032841 C370.653859,442.149958 362.017336,447.791505 352.830349,447.791505" id="Fill-102" fill="#E05A38"></path>
                        <path d="M374.028401,433.032841 L374.028401,433.032841 L366.058477,430.087907 L366.059422,430.082242 C368.023341,424.776827 366.842157,419.303347 362.86522,415.279201 L368.89483,409.311908 C375.275679,415.756018 377.174449,424.528505 374.028401,433.032841" id="Fill-103" fill="#B6B8B5"></path>
                        <path d="M595.668007,490.9694 C590.104828,488.715614 583.97419,486.332474 577.226995,483.81337 L545.273653,470.927039 C537.087509,458.3589 528.16584,450.978152 522.457256,447.136236 L510.85597,408.058021 L510.888072,408.029696 L509.455733,403.25775 L518.89482,404.674038 C519.001513,404.74674 526.352991,406.817353 526.453076,406.896665 C526.453076,406.896665 542.018079,413.204811 553.902623,421.77713 C566.237546,430.673306 572.148187,442.696645 572.148187,442.696645 L588.146574,472.477402 L600.958314,484.576277 L595.668007,490.9694 M473.49052,466.192861 C472.329164,466.192861 471.133817,465.956813 469.903535,465.447893 C465.035281,463.434876 468.288022,452.315128 474.392223,439.930163 L487.166195,454.961698 C483.335609,461.300058 478.773273,466.191916 473.49052,466.192861" id="Fill-104" fill="#E6B8A1"></path>
                        <path d="M475.702761,403.803493 C475.702761,403.803493 480.116858,396.411414 479.701414,387.97506 C485.013438,387.032756 490.207437,385.498444 495.175775,383.406115 C499.033743,390.202408 506.869592,394.641999 506.869592,394.641999 L494.485571,398.282803 L475.702761,403.803493" id="Fill-105" fill="#E0E0DB"></path>
                        <path d="M494.485571,374.78942 L494.485571,259.209001 C495.249422,259.568739 496.007608,259.944527 496.763906,260.337311 C528.044983,276.73698 540.148579,315.28267 523.848995,346.612845 C517.11313,359.44819 506.652428,369.051566 494.485571,374.78942" id="Fill-106" fill="#C0D8D8"></path>
                        <path d="M467.071903,380.937053 C457.10879,380.936109 446.99083,378.603955 437.535692,373.687548 C431.578786,370.564161 426.317748,366.639155 421.814897,362.112699 L439.066227,362.112699 L439.066227,354.878301 L415.622887,354.878301 C407.244128,343.461133 402.866854,329.525805 403.214317,315.37048 L438.630011,315.37048 L438.630011,308.13797 L403.804437,308.13797 C404.080141,306.161776 404.450264,304.189359 404.916695,302.226384 L438.630011,302.226384 L438.630011,294.991042 L407.09589,294.991042 C408.035361,292.431337 409.150451,289.899015 410.442106,287.414846 C411.032226,286.290313 411.650671,285.192218 412.296499,284.117728 L412.296499,287.19957 L422.909216,287.19957 L422.909216,270.83578 C423.91478,269.875537 424.947726,268.951173 426.006165,268.063633 L426.006165,287.19957 L436.616994,287.19957 L436.616994,260.852839 C445.9796,255.781585 456.514894,253.089694 467.224862,253.089694 C476.392966,253.089694 485.692312,255.064943 494.485571,259.209001 L494.485571,374.78942 C493.296833,375.35027 492.093933,375.873352 490.874037,376.359611 C489.972334,375.853524 488.95355,375.617476 487.904553,375.617476 C485.325021,375.617476 482.560427,377.047927 480.897705,379.428235 C476.377859,380.425301 471.740932,380.937997 467.071903,380.937053" id="Fill-107" fill="#F2F2EF"></path>
                        <path d="M438.630011,302.226384 L404.916695,302.226384 C405.49454,299.794146 406.218736,297.381736 407.09589,294.991042 L438.630011,294.991042 L438.630011,302.226384" id="Fill-108" fill="#CBCBC7"></path>
                        <path d="M438.630011,315.37048 L403.214317,315.37048 C403.272857,312.963734 403.469249,310.546603 403.804437,308.13797 L438.630011,308.13797 L438.630011,315.37048" id="Fill-109" fill="#CBCBC7"></path>
                        <path d="M422.909216,287.19957 L412.296499,287.19957 L412.296499,284.117728 C415.29242,279.134283 418.876572,274.69186 422.909216,270.83578 L422.909216,287.19957" id="Fill-110" fill="#ECD77D"></path>
                        <path d="M436.616994,287.19957 L426.006165,287.19957 L426.006165,268.063633 C429.312725,265.29243 432.87044,262.882852 436.616994,260.852839 L436.616994,287.19957" id="Fill-111" fill="#E39B83"></path>
                        <path d="M439.066227,362.112699 L421.814897,362.112699 C419.557334,359.843806 417.490498,357.423842 415.622887,354.878301 L439.066227,354.878301 L439.066227,362.112699" id="Fill-112" fill="#CBCBC7"></path>
                        <path d="M480.897705,379.428235 C482.560427,377.047927 485.325021,375.617476 487.904553,375.617476 C488.95355,375.617476 489.972334,375.853524 490.874037,376.359611 C487.637347,377.650321 484.300573,378.676658 480.897705,379.428235" id="Fill-113" fill="#E0E0DB"></path>
                        <path d="M467.087955,389.087318 C455.842629,389.087318 444.433014,386.45019 433.773088,380.887011 C424.639919,376.116954 416.954197,369.666235 410.899095,362.112699 C409.044702,359.799429 407.343268,357.383242 405.799514,354.878301 C398.515074,343.06174 394.752469,329.310529 395.058387,315.37048 C395.112206,312.961846 395.285938,310.549436 395.585246,308.13797 C395.829792,306.164609 396.158371,304.191248 396.570983,302.226384 C397.080846,299.799811 397.720064,297.386457 398.491469,294.991042 C399.338409,292.365244 400.343029,289.763995 401.511939,287.19957 C402.053905,286.008944 402.63175,284.825872 403.244531,283.652241 C404.917639,280.451431 406.796581,277.429072 408.858696,274.591776 C409.954903,273.083901 411.102096,271.627957 412.296499,270.226777 C415.512416,266.453786 419.076741,263.066025 422.909216,260.093709 C423.924222,259.306253 424.95528,258.549955 426.006165,257.821983 C429.375042,255.486053 432.92898,253.450375 436.616994,251.730057 C446.153332,247.281025 456.607424,244.936597 467.209755,244.936597 C476.357086,244.936597 485.613,246.682408 494.485571,250.327932 C496.520304,251.164486 498.531433,252.099236 500.519901,253.136903 C535.810962,271.567529 549.479084,315.094776 531.049402,350.373562 C522.975617,365.824318 510.081733,377.128183 495.175775,383.406115 C490.207437,385.498444 485.013438,387.032756 479.701414,387.97506 C475.552635,388.711529 471.333985,389.087318 467.087955,389.087318 M421.814897,362.112699 C426.317748,366.639155 431.578786,370.564161 437.535692,373.687548 C446.99083,378.603955 457.10879,380.936109 467.071903,380.937053 C471.740932,380.937997 476.377859,380.425301 480.897705,379.428235 C484.300573,378.676658 487.637347,377.650321 490.874037,376.359611 C492.093933,375.873352 493.296833,375.35027 494.485571,374.78942 C506.652428,369.051566 517.11313,359.44819 523.848995,346.612845 C540.148579,315.28267 528.044983,276.73698 496.763906,260.337311 C496.007608,259.944527 495.249422,259.568739 494.485571,259.209001 C485.692312,255.064943 476.392966,253.089694 467.224862,253.089694 C456.514894,253.089694 445.9796,255.781585 436.616994,260.852839 C432.87044,262.882852 429.312725,265.29243 426.006165,268.063633 C424.947726,268.951173 423.91478,269.875537 422.909216,270.83578 C418.876572,274.69186 415.29242,279.134283 412.296499,284.117728 C411.650671,285.192218 411.032226,286.290313 410.442106,287.414846 C409.150451,289.899015 408.035361,292.431337 407.09589,294.991042 C406.218736,297.381736 405.49454,299.794146 404.916695,302.226384 C404.450264,304.189359 404.080141,306.161776 403.804437,308.13797 C403.469249,310.546603 403.272857,312.963734 403.214317,315.37048 C402.866854,329.525805 407.244128,343.461133 415.622887,354.878301 C417.490498,357.423842 419.557334,359.843806 421.814897,362.112699" id="Fill-114" fill="#E0E0DB"></path>
                        <path d="M512.587618,528.043095 L492.890831,461.698507 L499.1952,469.117967 C499.356657,469.198223 503.287328,487.991419 515.807312,501.096802 C521.776493,508.130088 530.775586,514.572309 539.972015,519.989138 L512.587618,528.043095 M522.457256,447.136236 C518.813619,444.683225 516.478633,443.671995 516.478633,443.671995 L478.184098,409.174056 C477.869682,409.112684 477.559043,409.059809 477.251236,409.016376 L475.702761,403.803493 L494.485571,398.282803 L506.869592,394.641999 L510.888072,408.029696 L510.85597,408.058021 L522.457256,447.136236" id="Fill-115" fill="#141818"></path>
                        <path d="M563.452179,529.896544 C557.830461,525.730769 546.891998,523.964186 541.903832,521.110838 C541.258949,520.741659 540.61501,520.367759 539.972015,519.989138 C530.775586,514.572309 521.776493,508.130088 515.807312,501.096802 C503.287328,487.991419 499.356657,469.198223 499.1952,469.117967 L472.562379,437.776461 C464.301644,430.695966 460.813799,423.996925 462.216869,419.563944 C464.306365,412.950824 468.795053,408.857752 475.064488,408.857752 C475.770743,408.857752 476.500604,408.909682 477.251236,409.016376 C477.559043,409.059809 477.869682,409.112684 478.184098,409.174056 L516.478633,443.671995 C516.478633,443.671995 518.813619,444.683225 522.457256,447.136236 C528.16584,450.978152 537.087509,458.3589 545.273653,470.927039 L577.226995,483.81337 C583.97419,486.332474 590.104828,488.715614 595.668007,490.9694 L563.452179,529.896544 M476.714935,411.981139 C476.699828,411.981139 472.855079,411.983971 469.266205,415.652157 C465.827458,419.184379 465.563085,422.627846 465.563085,422.627846 L472.608645,430.002929 C472.608645,430.002929 476.510045,427.584854 479.500301,424.731506 C482.051508,422.297379 483.761439,419.355277 483.761439,419.355277 L476.714935,411.981139" id="Fill-116" fill="#E6B8A1"></path>
                        <path d="M472.608645,430.002929 L465.563085,422.627846 C465.563085,422.627846 465.827458,419.184379 469.266205,415.652157 C472.855079,411.983971 476.699828,411.981139 476.714935,411.981139 L483.761439,419.355277 C483.761439,419.355277 482.051508,422.297379 479.500301,424.731506 C476.510045,427.584854 472.608645,430.002929 472.608645,430.002929" id="Fill-117" fill="#EFCEBB"></path>
                        <path d="M562.652449,569.669683 L544.308689,553.027357 L618.723285,463.111018 L636.032211,478.476797 L562.652449,569.669683 M565.299963,544.122683 C564.037578,544.122683 562.788413,544.693919 561.971687,545.775019 C560.579948,547.60203 560.936852,550.209888 562.769529,551.602571 C563.520161,552.173807 564.402037,552.449511 565.276358,552.449511 C566.536854,552.449511 567.784132,551.877331 568.606523,550.797176 C569.993541,548.965443 569.636636,546.353808 567.804904,544.966791 C567.05616,544.396499 566.174285,544.122683 565.299963,544.122683" id="Fill-118" fill="#F3F4F1"></path>
                        <path d="M587.539459,599.750693 L559.482797,573.608852 L641.042093,472.25174 L660.830467,490.197051 C644.867958,532.142776 619.596662,569.500673 587.539459,599.750693" id="Fill-119" fill="#141818"></path>
                        <path d="M565.276358,552.449511 C564.402037,552.449511 563.520161,552.173807 562.769529,551.602571 C560.936852,550.209888 560.579948,547.60203 561.971687,545.775019 C562.788413,544.693919 564.037578,544.122683 565.299963,544.122683 C566.174285,544.122683 567.05616,544.396499 567.804904,544.966791 C569.636636,546.353808 569.993541,548.965443 568.606523,550.797176 C567.784132,551.877331 566.536854,552.449511 565.276358,552.449511" id="Fill-120" fill="#141818"></path>
                    </g>
                </g>
            </g>
        </g>
    </g>
</svg>