<?xml version="1.0" encoding="UTF-8"?>
<svg width="223px" height="130px" viewBox="0 0 223 130" version="1.1" xmlns="http://www.w3.org/2000/svg" xmlns:xlink="http://www.w3.org/1999/xlink">
    <!-- Generator: sketchtool 47.1 (45422) - http://www.bohemiancoding.com/sketch -->
    <title>DA89296E-BE05-42A3-9595-048E06567B2F</title>
    <desc>Created with sketchtool.</desc>
    <defs></defs>
    <g id="Page-1" stroke="none" stroke-width="1" fill="none" fill-rule="evenodd">
        <g id="Homepage-New" transform="translate(-124.000000, -1549.000000)">
            <g id="Group-12" transform="translate(123.500000, 1549.000000)">
                <path d="M148.589792,151.547615 L148.589792,151.547615 C148.563925,151.547615 148.539136,151.547615 148.513269,151.547615 C148.504647,151.547615 148.499258,151.547615 148.490635,151.547615 C148.472313,151.547615 148.45399,151.547615 148.435668,151.547615 C148.427045,151.547615 148.419501,151.547615 148.410879,151.547615 C148.393634,151.547615 148.375311,151.547615 148.358067,151.547615 C148.348366,151.547615 148.345133,151.547615 148.335433,151.547615 C148.316033,151.547615 148.29771,151.547615 148.27831,151.547615 C148.272921,151.547615 148.264298,151.547615 148.258909,151.547615 C148.238431,151.547615 148.216876,151.547615 148.197475,151.547615 C148.194242,151.547615 148.187775,151.547615 148.184542,151.547615 C148.16083,151.546538 148.137119,151.546538 148.113407,151.546538 C148.110174,151.546538 148.112329,151.546538 148.109096,151.546538 C134.651753,151.476481 121.902521,148.442489 110.454187,143.092317 L81.4701361,114.109344 L135.75757,9.50614803 L205.302264,11.1831964 L236.8644,42.7431767 C238.123264,48.7464924 238.79473,54.965367 238.79473,61.3437553 C238.79473,111.162653 198.40869,151.547615 148.589792,151.547615" id="Fill-3397"></path>
                <polygon id="Fill-3399" fill="#F1AD2B" points="134.942758 104.146211 169.787856 104.146211 169.787856 7.26433534 134.942758 7.26433534"></polygon>
                <polygon id="Fill-3400" fill="#FFFFFE" points="144.209635 61.00425 160.522056 61.00425 160.522056 16.3469101 144.209635 16.3469101"></polygon>
                <path d="M161.262501,84.4678376 C161.262501,89.4838935 157.277894,93.5504123 152.364229,93.5504123 C147.451641,93.5504123 143.465957,89.4838935 143.465957,84.4678376 C143.465957,79.4528595 147.451641,75.384185 152.364229,75.384185 C157.277894,75.384185 161.262501,79.4528595 161.262501,84.4678376" id="Fill-3401" fill="#FFFFFF"></path>
                <path d="M159.037933,84.4678376 C159.037933,88.2293406 156.050286,91.2794992 152.364229,91.2794992 C148.680327,91.2794992 145.691603,88.2293406 145.691603,84.4678376 C145.691603,80.7052568 148.680327,77.656176 152.364229,77.656176 C156.050286,77.656176 159.037933,80.7052568 159.037933,84.4678376" id="Fill-3402" fill="#A1D7E4"></path>
                <polyline id="Fill-3403" fill="#2B4687" points="109.303103 103.011293 75.6953128 93.6118466 100.773437 0.17244713 134.381227 9.5729713 109.303103 103.011293"></polyline>
                <polyline id="Fill-3404" fill="#FFFFFE" points="111.531982 58.9014728 95.8015704 54.5019154 107.359839 11.4310891 123.091329 15.8317243 111.531982 58.9014728"></polyline>
                <path d="M106.175343,81.7313172 C104.876601,86.569537 99.9823355,89.418148 95.2432728,88.0924607 C90.5031323,86.7667734 87.7159556,81.7701178 89.0125424,76.931898 C90.3091293,72.0936782 95.20555,69.246145 99.9435349,70.5729101 C104.682598,71.8975196 107.474085,76.895253 106.175343,81.7313172" id="Fill-3405" fill="#FFFFFF"></path>
                <path d="M104.029454,81.1309856 C103.055128,84.7620755 99.3841595,86.8961087 95.8306708,85.9023821 C92.2750266,84.9075778 90.1830273,81.1600861 91.1573536,77.5322296 C92.1316799,73.9032953 95.8015704,71.7681843 99.3572146,72.7619108 C102.911781,73.7556374 105.004858,77.5031291 104.029454,81.1309856" id="Fill-3406" fill="#A1D7E4"></path>
                <polygon id="Fill-3407" fill="#2B4687" points="170.158617 104.146211 205.005871 104.146211 205.005871 7.26433534 170.158617 7.26433534"></polygon>
                <polygon id="Fill-3408" fill="#FFFFFE" points="179.42765 61.00425 195.738993 61.00425 195.738993 16.3469101 179.42765 16.3469101"></polygon>
                <path d="M196.480516,84.4678376 C196.480516,89.4838935 192.495909,93.5504123 187.582244,93.5504123 C182.668579,93.5504123 178.683972,89.4838935 178.683972,84.4678376 C178.683972,79.4528595 182.668579,75.384185 187.582244,75.384185 C192.495909,75.384185 196.480516,79.4528595 196.480516,84.4678376" id="Fill-3409" fill="#96ACAA"></path>
                <path d="M194.257026,84.4678376 C194.257026,88.2293406 191.268301,91.2794992 187.582244,91.2794992 C183.898342,91.2794992 180.909618,88.2293406 180.909618,84.4678376 C180.909618,80.7052568 183.898342,77.656176 187.582244,77.656176 C191.268301,77.656176 194.257026,80.7052568 194.257026,84.4678376" id="Fill-3410" fill="#404341"></path>
                <polygon id="Fill-3411" fill="#A1D7E4" points="0.75642434 112.363316 197.735102 112.363316 197.735102 104.2001 0.75642434 104.2001"></polygon>
                <polyline id="Fill-3412" fill="#DFA186" points="203.645694 125.767847 183.472613 102.94447 197.85686 90.5271986 218.482614 109.848822 203.645694 125.767847"></polyline>
                <path d="M184.298204,63.7957379 L193.305333,76.7993293 C194.466118,78.4731442 197.200483,85.971361 195.625825,87.2625589 C194.055478,88.5516012 189.556764,84.2695234 188.441246,82.5655302 L182.624389,72.9979479 C179.288615,67.5119735 182.44332,65.00179 184.298204,63.7957379" id="Fill-3413" fill="#B17663"></path>
                <path d="M159.199602,57.4496835 L172.417675,70.2603497 C169.36536,69.7677976 167.338029,73.9528738 169.449428,76.5104803 C166.390647,75.5760324 164.157457,79.3590914 165.620024,82.0492666 C162.658245,81.6515604 160.794738,85.9174713 163.237021,88.2713746 L174.421295,99.0633315 C177.557677,102.090856 183.235499,104.290635 186.131533,104.496494 C194.7097,105.107603 198.715862,94.9407673 197.655312,90.4539086 C196.827566,86.957543 196.626018,84.3719139 194.966215,82.7282772 L164.060456,52.5769743 C160.173928,48.7217032 155.919873,54.3671911 159.199602,57.4496835" id="Fill-3414" fill="#DFA186"></path>
                <path d="M173.772462,81.0533844 C173.772462,81.0533844 173.228176,80.5381986 172.431686,79.785898 L172.446775,79.5067492 C173.228176,80.4110189 173.772462,81.0533844 173.772462,81.0533844 Z M172.919927,70.7701465 C174.69721,72.5711412 177.709646,75.8185362 177.709646,75.8185362 C177.709646,75.8185362 175.07336,73.4786442 172.882204,71.4814909 L172.919927,70.7701465 Z M171.539272,70.2474161 C171.792554,70.2129267 172.057691,70.2129267 172.331451,70.2506495 L172.417675,70.2603497 C172.568566,70.4112409 172.741013,70.5804547 172.919927,70.7701465 L172.882204,71.4814909 C172.402585,71.0449841 171.945601,70.6214108 171.539272,70.2474161 Z M172.431686,79.785898 C171.442271,78.8482167 170.065927,77.5408519 168.851252,76.386534 C169.045255,76.4080898 169.244647,76.449046 169.449428,76.5104803 C169.142257,76.1418746 168.926698,75.7377016 168.784429,75.3173618 C169.904258,76.5632923 171.389459,78.2769856 172.446775,79.5067492 L172.431686,79.785898 Z M169.377216,85.9929169 C169.377216,85.9929169 167.165582,83.4169879 165.31932,81.3185219 C165.39261,81.569648 165.491767,81.8143074 165.620024,82.0492666 C165.449733,82.0277107 165.281597,82.0190883 165.116694,82.0266329 C167.117081,83.8987621 169.377216,85.9929169 169.377216,85.9929169 L169.377216,85.9929169 Z" id="Fill-3415" fill="#B17663"></path>
                <polyline id="Fill-3416" fill="#DEE4E0" points="201.772487 127.773623 186.630551 113.293453 206.885545 92.1083232 221.762343 106.3309 201.772487 127.773623"></polyline>
                <polyline id="Fill-3417" fill="#DF4D45" points="200.524401 129.114399 191.413804 120.399353 213.775885 97.0068995 222.593323 105.436331 200.524401 129.114399"></polyline>
            </g>
        </g>
    </g>
</svg>