<?xml version="1.0" encoding="UTF-8"?>
<svg width="1366px" height="179px" viewBox="0 0 1366 179" version="1.1" xmlns="http://www.w3.org/2000/svg" xmlns:xlink="http://www.w3.org/1999/xlink">
    <!-- Generator: sketchtool 49.3 (51167) - http://www.bohemiancoding.com/sketch -->
    <title>A132632F-105F-4BD5-BF15-AC091ED42011</title>
    <desc>Created with sketchtool.</desc>
    <defs>
        <polygon id="path-1" points="0 0 25 0 25 27 0 27"></polygon>
    </defs>
    <g id="Page-1" stroke="none" stroke-width="1" fill="none" fill-rule="evenodd">
        <g id="SMS" transform="translate(0.000000, -966.000000)">
            <g id="Group-16" transform="translate(0.000000, 966.000000)">
                <polygon id="Page-1" fill="#EDEDED" points="707.085766 0.167804245 707.051807 7.31712666 704.872452 7.30713879 704.29715 127.169654 686.245061 127.083758 686.404867 93.8580865 679.559176 93.8241277 679.595133 86.2553144 653.139244 86.1274696 653.053348 103.792029 649.00626 103.772053 648.762556 155.081775 636.934912 155.025843 637.032793 134.416858 628.958593 134.378904 628.98656 128.490051 621.188025 128.452098 621.158061 134.34095 615.245238 134.312984 615.143362 155.760951 607.674427 155.724995 607.998035 88.0151784 602.083214 87.9852147 602.113177 82.09836 582.814601 82.0044739 582.794626 86.2113678 579.682403 86.1953872 579.712367 79.887044 566.951855 79.8271167 566.588296 155.948723 541.065275 155.826871 541.314972 103.678167 536.335017 103.652199 536.35699 98.8160687 525.62202 98.7661293 522.643635 102.745299 519.531412 102.731316 519.307684 149.414654 511.836752 149.378698 511.794803 158.631467 506.503225 158.605498 506.716966 114.025608 500.180899 113.995644 500.200875 109.78875 492.729943 109.752794 492.757909 103.863942 486.533464 103.835976 486.473537 116.031174 482.116825 116.011198 481.917067 158.068151 472.890024 158.024204 473.32949 66.3394875 464.614069 66.2975384 464.662011 56.2037898 435.715145 56.0659571 435.667203 66.5791966 430.687248 66.5552257 430.60335 83.7982967 427.491127 83.7843136 427.155534 153.599574 401.013265 153.473727 401.101158 134.968189 393.941848 134.93423 393.969814 129.045377 382.453792 128.991443 382.425826 134.878298 378.380736 134.860319 378.266874 158.411734 371.730807 158.379772 371.886618 125.997077 361.926707 125.949136 361.95667 119.640792 350.440648 119.58486 350.468614 113.696008 339.573838 113.644071 339.545872 119.952414 334.565916 119.930441 334.388132 156.939521 319.448266 156.867608 319.544149 136.682108 290.910903 136.542278 290.803034 158.83522 281.464369 158.789275 281.624175 125.563603 252.056064 125.421776 252.004127 136.356503 246.712549 136.330535 246.746508 129.602701 240.831687 129.574735 240.797729 136.304567 235.196527 136.274603 235.356333 103.048931 230.064756 103.02496 230.086729 98.3985754 217.326218 98.3386481 217.296254 104.646991 212.937544 104.627016 212.671867 160.141634 206.1358 160.109673 206.433439 98.2847136 199.58575 98.2527524 199.607724 93.2068769 189.338188 93.1569375 189.310222 99.0437922 184.95351 99.0238165 184.653874 161.268266 147.305206 161.088485 147.510957 117.771062 138.174289 117.725118 138.19826 112.679242 119.97438 112.593346 119.948411 117.639222 112.03202 117.59927 111.818279 162.181158 104.968593 162.1472 104.996559 156.260345 99.3953576 156.232379 99.5411806 125.953131 94.2496033 125.927162 94.2735742 120.459798 84.625285 120.413854 84.5793407 130.505605 81.4651207 130.491622 81.4910891 125.445747 73.7085353 125.407793 73.6885596 129.612689 66.2196251 129.57873 66.097773 154.812103 56.137862 154.764161 56.085925 165.698889 47.3705034 165.65694 47.4164477 155.98468 40.5707567 155.950721 40.5907325 151.324336 27.8302207 151.264409 27.8561892 145.797045 20.6988765 145.763086 20.6689128 151.649941 13.1999784 151.613985 13.1480414 162.548712 0.0739102904 162.48479 0 178.0479 1365.82821 174.070727 1366 131.604272 1359.15431 131.570313 1359.12035 138.719635 1354.14039 138.697662 1354.0565 155.938735 1344.40821 155.892791 1344.47612 141.594146 1335.7627 141.552197 1335.98843 93.818135 1317.62871 93.7302416 1317.66267 86.3691762 1301.16669 86.2912708 1301.14672 90.0746786 1298.34612 90.0626932 1298.12239 137.167519 1282.24965 137.089614 1282.44542 95.8736401 1272.17588 95.8237007 1272.14192 102.553532 1260.6259 102.4976 1260.56597 115.116284 1253.09504 115.080328 1253.17694 98.2567475 1237.61383 98.1828372 1237.6358 93.3447096 1221.45145 93.2688017 1221.23171 139.320905 1215.31889 139.290942 1215.49668 102.281862 1205.22514 102.23392 1205.45486 53.8666266 1186.78153 53.7767357 1186.55381 101.512795 1177.36895 101.466851 1174.39656 105.450017 1169.41461 105.426046 1169.36866 114.680813 1165.01195 114.658839 1164.90608 137.369274 1160.54737 137.349298 1160.47945 151.645946 1154.25301 151.61798 1154.32692 136.056867 1146.85998 136.018913 1146.88995 129.291079 1139.73263 129.25712 1139.70267 135.143975 1111.38105 135.010138 1111.35108 140.477502 1102.95128 140.435552 1102.90733 149.268831 1097.92738 149.24486 1098.00728 132.42128 1090.22672 132.385324 1090.31462 114.301273 1087.51202 114.285293 1087.63986 87.3699615 1070.21102 87.2860633 1069.99927 131.867952 1067.5083 131.853968 1067.45436 143.210185 1064.65376 143.196202 1064.62979 147.822586 1058.09572 147.792623 1058.24954 115.40793 1056.4697 115.39994 1056.52962 103.202744 1053.64113 103.188761 1053.69107 92.4637788 1030.65703 92.3519146 1030.46726 132.097673 1026.42217 132.077697 1026.55001 105.162366 1023.74941 105.148383 1023.77138 100.521998 1015.05796 100.480049 1015.03199 105.527922 1012.54301 105.513939 1012.39919 135.795185 1008.3521 135.777207 1008.30616 145.449467 1006.1268 145.439479 1006.29659 110.112358 1001.62626 110.088387 1001.66022 103.358555 992.011933 103.314608 992.035904 97.845247 983.943726 97.8072931 983.973689 92.1301837 972.453672 92.0742516 972.443684 94.8089324 967.150109 94.7829639 967.128136 99.830837 955.300492 99.7749049 955.264535 107.343718 949.349715 107.313754 949.405647 95.5380474 945.670181 95.5200692 945.688159 91.9464068 937.595981 91.9084529 937.623947 86.2293459 925.7983 86.1714163 925.768337 91.8505232 920.788381 91.8285498 920.76441 97.0841708 915.472833 97.0601999 915.52477 86.1234744 900.584904 86.0515617 900.608874 81.0056862 889.092852 80.9517517 889.056896 88.0990765 878.477736 88.0491372 878.621562 57.7678914 868.663648 57.7199496 868.685622 52.6740741 856.857978 52.618142 847.832932 52.5741953 847.78499 62.6679439 843.116656 62.643973 842.866959 114.796672 838.194631 114.772701 838.266543 100.474056 830.483989 100.436102 830.519946 92.8652915 813.400724 92.7833909 813.368763 99.9347109 805.897831 99.8987545 805.999708 78.4487897 799.775263 78.4188261 799.819209 69.5875451 773.672945 69.4616979 773.541105 96.7985175 755.491013 96.7126217 755.329209 130.357784 731.673921 130.243923 732.281184 3.65157577 722.942519 3.60762911 722.9585 0.243712111"></polygon>
                <g id="Group-3" transform="translate(238.000000, 86.000000)">
                    <mask id="mask-2" fill="white">
                        <use xlink:href="#path-1"></use>
                    </mask>
                    <g id="Clip-2"></g>
                    <path d="M17.5571041,13.2256732 C17.5089179,13.4115616 17.4693644,13.6500586 17.383822,13.8717331 C17.279994,14.1410457 17.4051684,14.2780725 17.6430389,14.3036886 C18.2736978,14.3717432 18.9195031,14.5089229 19.5378408,14.4388802 C20.7435953,14.3023122 21.3970132,13.389463 21.1217082,12.3883722 C20.9559601,11.7853626 20.4757458,11.490281 19.9373,11.2549191 C19.6047836,11.1094811 19.2568068,10.9886651 18.9473633,10.8059882 C18.8188928,10.7301341 18.6890097,10.5086125 18.7109839,10.3773971 C18.7364896,10.2251537 18.9081237,10.0713809 19.0544874,9.97144001 C19.1602773,9.89925625 19.3319899,9.88166911 19.4682298,9.89589176 C19.8645497,9.93718331 20.257809,10.0066908 20.6893662,10.0706927 C20.7682378,9.78646914 20.8548789,9.47410619 20.9529779,9.12091048 C20.0038503,8.80602416 19.0873702,8.69461343 18.201026,9.17573649 C17.1527792,9.74487173 17.1039652,11.0752244 18.0999448,11.7242664 C18.3891407,11.9126783 18.7303683,12.0244713 19.0453053,12.1761795 C19.2546094,12.2769615 19.4832193,12.3577859 19.6612886,12.4980243 C19.9881545,12.7551789 19.9198776,13.2075508 19.5368206,13.3700407 C19.3744471,13.4389364 19.1773858,13.487951 19.0059872,13.4676111 C18.5336209,13.4114087 18.0665126,13.3138383 17.5571041,13.2256732 M7.43823068,9.15983159 C6.63774278,8.77872585 5.46785325,8.77199686 4.77739319,9.12297506 C3.66440109,9.6887458 3.56975516,11.0538904 4.60764267,11.7361186 C4.85312562,11.8973851 5.1423215,11.9956437 5.41134822,12.1228064 C5.64537321,12.2332995 5.89988128,12.3157297 6.10902836,12.4603266 C6.50205223,12.7321627 6.43565882,13.2456308 5.97537828,13.38174 C5.68728111,13.4668464 5.35625582,13.4699051 5.0532476,13.4358778 C4.72543996,13.3990977 4.40775613,13.2762171 4.06299697,13.1849169 C4.00029209,13.4179848 3.95642221,13.642412 3.87841388,13.854987 C3.78761344,14.1024305 3.86106998,14.2301284 4.11604892,14.3056767 C4.85728502,14.5254395 5.60527034,14.5808772 6.35576699,14.382219 C7.32914459,14.1244526 7.84781366,13.3053506 7.61834046,12.4071828 C7.46397186,11.8027968 6.987917,11.4986922 6.44837245,11.2624892 C6.11577758,11.1168218 5.76458313,11.0013584 5.45733703,10.8161581 C5.32156801,10.7343397 5.19129252,10.5033364 5.20973514,10.3583572 C5.22841319,10.2125368 5.41425195,10.0103611 5.5635194,9.97342812 C5.84455344,9.90392067 6.15415391,9.90904388 6.44758766,9.93320709 C6.6852227,9.95278234 6.9165794,10.0456883 7.17100899,10.111296 C7.26345749,9.78188119 7.34892135,9.47777655 7.43823068,9.15983159 M14.1743364,10.2457994 C14.2258188,11.682669 14.2743974,13.0377201 14.3227406,14.3850482 L15.5773877,14.3850482 C15.4752862,12.5620262 15.3750683,10.7740255 15.2730453,8.95429142 C14.8006005,8.95429142 14.3696712,8.9744784 13.941881,8.94718009 C13.6584141,8.92905769 13.5594518,9.04490344 13.4885851,9.28752954 C13.18903,10.3147716 12.8726803,11.3373493 12.560647,12.3610739 C12.5391437,12.4318048 12.5032002,12.4984066 12.471887,12.5717373 C12.1276772,11.3469075 11.7916292,10.1510583 11.462409,8.97960161 L9.7328842,8.97960161 C9.61571474,10.7981887 9.50011487,12.5928419 9.38247454,14.4182344 C9.57576883,14.4182344 9.69199653,14.4176227 9.80822424,14.4183109 C10.5823431,14.4228988 10.573318,14.4226694 10.603611,13.6834742 C10.6492859,12.567914 10.7090086,11.4528892 10.7648073,10.2958081 C11.1392316,11.6705109 11.5014131,13.0007107 11.8579442,14.3098058 C12.8543162,14.3770958 12.8569844,14.3779369 13.1245985,13.5442299 C13.4698286,12.4681261 13.8102714,11.390493 14.1743364,10.2457994 M5.2808373,27 C6.1036133,25.0609028 6.34462294,23.2235816 5.74402158,21.3301345 C5.678256,21.1227592 5.49955885,20.909343 5.31285682,20.7844743 C2.53045503,18.9232193 0.701732564,16.4397618 0.159676685,13.1610595 C-0.407649498,9.72889037 0.542812171,6.67851512 2.91492466,4.10727482 C5.74237351,1.04260046 9.36206995,-0.293563604 13.5384194,0.05366777 C18.3097197,0.450449008 21.9293377,2.70894403 23.988946,6.99225446 C26.119421,11.4228381 24.7906111,16.6948518 20.8717519,19.895406 C18.5982093,21.7523024 15.9668015,22.7189071 13.0071152,22.8284062 C12.6788366,22.8404878 12.5039065,22.944099 12.3402774,23.2234287 C11.3348802,24.9397044 9.72401605,25.8932334 7.85165914,26.4584689 C7.03704498,26.7043831 6.17950269,26.815335 5.2808373,27" id="Fill-1" fill="#EDEDED" mask="url(#mask-2)"></path>
                </g>
                <path d="M900.557104,55.2256732 C900.508918,55.4115616 900.469364,55.6500586 900.383822,55.8717331 C900.279994,56.1410457 900.405168,56.2780725 900.643039,56.3036886 C901.273698,56.3717432 901.919503,56.5089229 902.537841,56.4388802 C903.743595,56.3023122 904.397013,55.389463 904.121708,54.3883722 C903.95596,53.7853626 903.475746,53.490281 902.9373,53.2549191 C902.604784,53.1094811 902.256807,52.9886651 901.947363,52.8059882 C901.818893,52.7301341 901.68901,52.5086125 901.710984,52.3773971 C901.73649,52.2251537 901.908124,52.0713809 902.054487,51.97144 C902.160277,51.8992563 902.33199,51.8816691 902.46823,51.8958918 C902.86455,51.9371833 903.257809,52.0066908 903.689366,52.0706927 C903.768238,51.7864691 903.854879,51.4741062 903.952978,51.1209105 C903.00385,50.8060242 902.08737,50.6946134 901.201026,51.1757365 C900.152779,51.7448717 900.103965,53.0752244 901.099945,53.7242664 C901.389141,53.9126783 901.730368,54.0244713 902.045305,54.1761795 C902.254609,54.2769615 902.483219,54.3577859 902.661289,54.4980243 C902.988154,54.7551789 902.919878,55.2075508 902.536821,55.3700407 C902.374447,55.4389364 902.177386,55.487951 902.005987,55.4676111 C901.533621,55.4114087 901.066513,55.3138383 900.557104,55.2256732 M890.438231,51.1598316 C889.637743,50.7787259 888.467853,50.7719969 887.777393,51.1229751 C886.664401,51.6887458 886.569755,53.0538904 887.607643,53.7361186 C887.853126,53.8973851 888.142322,53.9956437 888.411348,54.1228064 C888.645373,54.2332995 888.899881,54.3157297 889.109028,54.4603266 C889.502052,54.7321627 889.435659,55.2456308 888.975378,55.38174 C888.687281,55.4668464 888.356256,55.4699051 888.053248,55.4358778 C887.72544,55.3990977 887.407756,55.2762171 887.062997,55.1849169 C887.000292,55.4179848 886.956422,55.642412 886.878414,55.854987 C886.787613,56.1024305 886.86107,56.2301284 887.116049,56.3056767 C887.857285,56.5254395 888.60527,56.5808772 889.355767,56.382219 C890.329145,56.1244526 890.847814,55.3053506 890.61834,54.4071828 C890.463972,53.8027968 889.987917,53.4986922 889.448372,53.2624892 C889.115778,53.1168218 888.764583,53.0013584 888.457337,52.8161581 C888.321568,52.7343397 888.191293,52.5033364 888.209735,52.3583572 C888.228413,52.2125368 888.414252,52.0103611 888.563519,51.9734281 C888.844553,51.9039207 889.154154,51.9090439 889.447588,51.9332071 C889.685223,51.9527823 889.916579,52.0456883 890.171009,52.111296 C890.263457,51.7818812 890.348921,51.4777766 890.438231,51.1598316 M897.174336,52.2457994 C897.225819,53.682669 897.274397,55.0377201 897.322741,56.3850482 L898.577388,56.3850482 C898.475286,54.5620262 898.375068,52.7740255 898.273045,50.9542914 C897.8006,50.9542914 897.369671,50.9744784 896.941881,50.9471801 C896.658414,50.9290577 896.559452,51.0449034 896.488585,51.2875295 C896.18903,52.3147716 895.87268,53.3373493 895.560647,54.3610739 C895.539144,54.4318048 895.5032,54.4984066 895.471887,54.5717373 C895.127677,53.3469075 894.791629,52.1510583 894.462409,50.9796016 L892.732884,50.9796016 C892.615715,52.7981887 892.500115,54.5928419 892.382475,56.4182344 C892.575769,56.4182344 892.691997,56.4176227 892.808224,56.4183109 C893.582343,56.4228988 893.573318,56.4226694 893.603611,55.6834742 C893.649286,54.567914 893.709009,53.4528892 893.764807,52.2958081 C894.139232,53.6705109 894.501413,55.0007107 894.857944,56.3098058 C895.854316,56.3770958 895.856984,56.3779369 896.124599,55.5442299 C896.469829,54.4681261 896.810271,53.390493 897.174336,52.2457994 M888.280837,69 C889.103613,67.0609028 889.344623,65.2235816 888.744022,63.3301345 C888.678256,63.1227592 888.499559,62.909343 888.312857,62.7844743 C885.530455,60.9232193 883.701733,58.4397618 883.159677,55.1610595 C882.592351,51.7288904 883.542812,48.6785151 885.914925,46.1072748 C888.742374,43.0426005 892.36207,41.7064364 896.538419,42.0536678 C901.30972,42.450449 904.929338,44.708944 906.988946,48.9922545 C909.119421,53.4228381 907.790611,58.6948518 903.871752,61.895406 C901.598209,63.7523024 898.966801,64.7189071 896.007115,64.8284062 C895.678837,64.8404878 895.503906,64.944099 895.340277,65.2234287 C894.33488,66.9397044 892.724016,67.8932334 890.851659,68.4584689 C890.037045,68.7043831 889.179503,68.815335 888.280837,69" id="Fill-1" fill="#EDEDED"></path>
                <path d="M1231.5571,62.2256732 C1231.50892,62.4115616 1231.46936,62.6500586 1231.38382,62.8717331 C1231.27999,63.1410457 1231.40517,63.2780725 1231.64304,63.3036886 C1232.2737,63.3717432 1232.9195,63.5089229 1233.53784,63.4388802 C1234.7436,63.3023122 1235.39701,62.389463 1235.12171,61.3883722 C1234.95596,60.7853626 1234.47575,60.490281 1233.9373,60.2549191 C1233.60478,60.1094811 1233.25681,59.9886651 1232.94736,59.8059882 C1232.81889,59.7301341 1232.68901,59.5086125 1232.71098,59.3773971 C1232.73649,59.2251537 1232.90812,59.0713809 1233.05449,58.97144 C1233.16028,58.8992563 1233.33199,58.8816691 1233.46823,58.8958918 C1233.86455,58.9371833 1234.25781,59.0066908 1234.68937,59.0706927 C1234.76824,58.7864691 1234.85488,58.4741062 1234.95298,58.1209105 C1234.00385,57.8060242 1233.08737,57.6946134 1232.20103,58.1757365 C1231.15278,58.7448717 1231.10397,60.0752244 1232.09994,60.7242664 C1232.38914,60.9126783 1232.73037,61.0244713 1233.04531,61.1761795 C1233.25461,61.2769615 1233.48322,61.3577859 1233.66129,61.4980243 C1233.98815,61.7551789 1233.91988,62.2075508 1233.53682,62.3700407 C1233.37445,62.4389364 1233.17739,62.487951 1233.00599,62.4676111 C1232.53362,62.4114087 1232.06651,62.3138383 1231.5571,62.2256732 M1221.43823,58.1598316 C1220.63774,57.7787259 1219.46785,57.7719969 1218.77739,58.1229751 C1217.6644,58.6887458 1217.56976,60.0538904 1218.60764,60.7361186 C1218.85313,60.8973851 1219.14232,60.9956437 1219.41135,61.1228064 C1219.64537,61.2332995 1219.89988,61.3157297 1220.10903,61.4603266 C1220.50205,61.7321627 1220.43566,62.2456308 1219.97538,62.38174 C1219.68728,62.4668464 1219.35626,62.4699051 1219.05325,62.4358778 C1218.72544,62.3990977 1218.40776,62.2762171 1218.063,62.1849169 C1218.00029,62.4179848 1217.95642,62.642412 1217.87841,62.854987 C1217.78761,63.1024305 1217.86107,63.2301284 1218.11605,63.3056767 C1218.85729,63.5254395 1219.60527,63.5808772 1220.35577,63.382219 C1221.32914,63.1244526 1221.84781,62.3053506 1221.61834,61.4071828 C1221.46397,60.8027968 1220.98792,60.4986922 1220.44837,60.2624892 C1220.11578,60.1168218 1219.76458,60.0013584 1219.45734,59.8161581 C1219.32157,59.7343397 1219.19129,59.5033364 1219.20974,59.3583572 C1219.22841,59.2125368 1219.41425,59.0103611 1219.56352,58.9734281 C1219.84455,58.9039207 1220.15415,58.9090439 1220.44759,58.9332071 C1220.68522,58.9527823 1220.91658,59.0456883 1221.17101,59.111296 C1221.26346,58.7818812 1221.34892,58.4777766 1221.43823,58.1598316 M1228.17434,59.2457994 C1228.22582,60.682669 1228.2744,62.0377201 1228.32274,63.3850482 L1229.57739,63.3850482 C1229.47529,61.5620262 1229.37507,59.7740255 1229.27305,57.9542914 C1228.8006,57.9542914 1228.36967,57.9744784 1227.94188,57.9471801 C1227.65841,57.9290577 1227.55945,58.0449034 1227.48859,58.2875295 C1227.18903,59.3147716 1226.87268,60.3373493 1226.56065,61.3610739 C1226.53914,61.4318048 1226.5032,61.4984066 1226.47189,61.5717373 C1226.12768,60.3469075 1225.79163,59.1510583 1225.46241,57.9796016 L1223.73288,57.9796016 C1223.61571,59.7981887 1223.50011,61.5928419 1223.38247,63.4182344 C1223.57577,63.4182344 1223.692,63.4176227 1223.80822,63.4183109 C1224.58234,63.4228988 1224.57332,63.4226694 1224.60361,62.6834742 C1224.64929,61.567914 1224.70901,60.4528892 1224.76481,59.2958081 C1225.13923,60.6705109 1225.50141,62.0007107 1225.85794,63.3098058 C1226.85432,63.3770958 1226.85698,63.3779369 1227.1246,62.5442299 C1227.46983,61.4681261 1227.81027,60.390493 1228.17434,59.2457994 M1219.28084,76 C1220.10361,74.0609028 1220.34462,72.2235816 1219.74402,70.3301345 C1219.67826,70.1227592 1219.49956,69.909343 1219.31286,69.7844743 C1216.53046,67.9232193 1214.70173,65.4397618 1214.15968,62.1610595 C1213.59235,58.7288904 1214.54281,55.6785151 1216.91492,53.1072748 C1219.74237,50.0426005 1223.36207,48.7064364 1227.53842,49.0536678 C1232.30972,49.450449 1235.92934,51.708944 1237.98895,55.9922545 C1240.11942,60.4228381 1238.79061,65.6948518 1234.87175,68.895406 C1232.59821,70.7523024 1229.9668,71.7189071 1227.00712,71.8284062 C1226.67884,71.8404878 1226.50391,71.944099 1226.34028,72.2234287 C1225.33488,73.9397044 1223.72402,74.8932334 1221.85166,75.4584689 C1221.03704,75.7043831 1220.1795,75.815335 1219.28084,76" id="Fill-1-Copy" fill="#EDEDED"></path>
                <path d="M1110.5571,100.225673 C1110.50892,100.411562 1110.46936,100.650059 1110.38382,100.871733 C1110.27999,101.141046 1110.40517,101.278073 1110.64304,101.303689 C1111.2737,101.371743 1111.9195,101.508923 1112.53784,101.43888 C1113.7436,101.302312 1114.39701,100.389463 1114.12171,99.3883722 C1113.95596,98.7853626 1113.47575,98.490281 1112.9373,98.2549191 C1112.60478,98.1094811 1112.25681,97.9886651 1111.94736,97.8059882 C1111.81889,97.7301341 1111.68901,97.5086125 1111.71098,97.3773971 C1111.73649,97.2251537 1111.90812,97.0713809 1112.05449,96.97144 C1112.16028,96.8992563 1112.33199,96.8816691 1112.46823,96.8958918 C1112.86455,96.9371833 1113.25781,97.0066908 1113.68937,97.0706927 C1113.76824,96.7864691 1113.85488,96.4741062 1113.95298,96.1209105 C1113.00385,95.8060242 1112.08737,95.6946134 1111.20103,96.1757365 C1110.15278,96.7448717 1110.10397,98.0752244 1111.09994,98.7242664 C1111.38914,98.9126783 1111.73037,99.0244713 1112.04531,99.1761795 C1112.25461,99.2769615 1112.48322,99.3577859 1112.66129,99.4980243 C1112.98815,99.7551789 1112.91988,100.207551 1112.53682,100.370041 C1112.37445,100.438936 1112.17739,100.487951 1112.00599,100.467611 C1111.53362,100.411409 1111.06651,100.313838 1110.5571,100.225673 M1100.43823,96.1598316 C1099.63774,95.7787259 1098.46785,95.7719969 1097.77739,96.1229751 C1096.6644,96.6887458 1096.56976,98.0538904 1097.60764,98.7361186 C1097.85313,98.8973851 1098.14232,98.9956437 1098.41135,99.1228064 C1098.64537,99.2332995 1098.89988,99.3157297 1099.10903,99.4603266 C1099.50205,99.7321627 1099.43566,100.245631 1098.97538,100.38174 C1098.68728,100.466846 1098.35626,100.469905 1098.05325,100.435878 C1097.72544,100.399098 1097.40776,100.276217 1097.063,100.184917 C1097.00029,100.417985 1096.95642,100.642412 1096.87841,100.854987 C1096.78761,101.10243 1096.86107,101.230128 1097.11605,101.305677 C1097.85729,101.52544 1098.60527,101.580877 1099.35577,101.382219 C1100.32914,101.124453 1100.84781,100.305351 1100.61834,99.4071828 C1100.46397,98.8027968 1099.98792,98.4986922 1099.44837,98.2624892 C1099.11578,98.1168218 1098.76458,98.0013584 1098.45734,97.8161581 C1098.32157,97.7343397 1098.19129,97.5033364 1098.20974,97.3583572 C1098.22841,97.2125368 1098.41425,97.0103611 1098.56352,96.9734281 C1098.84455,96.9039207 1099.15415,96.9090439 1099.44759,96.9332071 C1099.68522,96.9527823 1099.91658,97.0456883 1100.17101,97.111296 C1100.26346,96.7818812 1100.34892,96.4777766 1100.43823,96.1598316 M1107.17434,97.2457994 C1107.22582,98.682669 1107.2744,100.03772 1107.32274,101.385048 L1108.57739,101.385048 C1108.47529,99.5620262 1108.37507,97.7740255 1108.27305,95.9542914 C1107.8006,95.9542914 1107.36967,95.9744784 1106.94188,95.9471801 C1106.65841,95.9290577 1106.55945,96.0449034 1106.48859,96.2875295 C1106.18903,97.3147716 1105.87268,98.3373493 1105.56065,99.3610739 C1105.53914,99.4318048 1105.5032,99.4984066 1105.47189,99.5717373 C1105.12768,98.3469075 1104.79163,97.1510583 1104.46241,95.9796016 L1102.73288,95.9796016 C1102.61571,97.7981887 1102.50011,99.5928419 1102.38247,101.418234 C1102.57577,101.418234 1102.692,101.417623 1102.80822,101.418311 C1103.58234,101.422899 1103.57332,101.422669 1103.60361,100.683474 C1103.64929,99.567914 1103.70901,98.4528892 1103.76481,97.2958081 C1104.13923,98.6705109 1104.50141,100.000711 1104.85794,101.309806 C1105.85432,101.377096 1105.85698,101.377937 1106.1246,100.54423 C1106.46983,99.4681261 1106.81027,98.390493 1107.17434,97.2457994 M1098.28084,114 C1099.10361,112.060903 1099.34462,110.223582 1098.74402,108.330135 C1098.67826,108.122759 1098.49956,107.909343 1098.31286,107.784474 C1095.53046,105.923219 1093.70173,103.439762 1093.15968,100.16106 C1092.59235,96.7288904 1093.54281,93.6785151 1095.91492,91.1072748 C1098.74237,88.0426005 1102.36207,86.7064364 1106.53842,87.0536678 C1111.30972,87.450449 1114.92934,89.708944 1116.98895,93.9922545 C1119.11942,98.4228381 1117.79061,103.694852 1113.87175,106.895406 C1111.59821,108.752302 1108.9668,109.718907 1106.00712,109.828406 C1105.67884,109.840488 1105.50391,109.944099 1105.34028,110.223429 C1104.33488,111.939704 1102.72402,112.893233 1100.85166,113.458469 C1100.03704,113.704383 1099.1795,113.815335 1098.28084,114" id="Fill-1-Copy-2" fill="#EDEDED"></path>
                <path d="M499.557104,63.2256732 C499.508918,63.4115616 499.469364,63.6500586 499.383822,63.8717331 C499.279994,64.1410457 499.405168,64.2780725 499.643039,64.3036886 C500.273698,64.3717432 500.919503,64.5089229 501.537841,64.4388802 C502.743595,64.3023122 503.397013,63.389463 503.121708,62.3883722 C502.95596,61.7853626 502.475746,61.490281 501.9373,61.2549191 C501.604784,61.1094811 501.256807,60.9886651 500.947363,60.8059882 C500.818893,60.7301341 500.68901,60.5086125 500.710984,60.3773971 C500.73649,60.2251537 500.908124,60.0713809 501.054487,59.97144 C501.160277,59.8992563 501.33199,59.8816691 501.46823,59.8958918 C501.86455,59.9371833 502.257809,60.0066908 502.689366,60.0706927 C502.768238,59.7864691 502.854879,59.4741062 502.952978,59.1209105 C502.00385,58.8060242 501.08737,58.6946134 500.201026,59.1757365 C499.152779,59.7448717 499.103965,61.0752244 500.099945,61.7242664 C500.389141,61.9126783 500.730368,62.0244713 501.045305,62.1761795 C501.254609,62.2769615 501.483219,62.3577859 501.661289,62.4980243 C501.988154,62.7551789 501.919878,63.2075508 501.536821,63.3700407 C501.374447,63.4389364 501.177386,63.487951 501.005987,63.4676111 C500.533621,63.4114087 500.066513,63.3138383 499.557104,63.2256732 M489.438231,59.1598316 C488.637743,58.7787259 487.467853,58.7719969 486.777393,59.1229751 C485.664401,59.6887458 485.569755,61.0538904 486.607643,61.7361186 C486.853126,61.8973851 487.142322,61.9956437 487.411348,62.1228064 C487.645373,62.2332995 487.899881,62.3157297 488.109028,62.4603266 C488.502052,62.7321627 488.435659,63.2456308 487.975378,63.38174 C487.687281,63.4668464 487.356256,63.4699051 487.053248,63.4358778 C486.72544,63.3990977 486.407756,63.2762171 486.062997,63.1849169 C486.000292,63.4179848 485.956422,63.642412 485.878414,63.854987 C485.787613,64.1024305 485.86107,64.2301284 486.116049,64.3056767 C486.857285,64.5254395 487.60527,64.5808772 488.355767,64.382219 C489.329145,64.1244526 489.847814,63.3053506 489.61834,62.4071828 C489.463972,61.8027968 488.987917,61.4986922 488.448372,61.2624892 C488.115778,61.1168218 487.764583,61.0013584 487.457337,60.8161581 C487.321568,60.7343397 487.191293,60.5033364 487.209735,60.3583572 C487.228413,60.2125368 487.414252,60.0103611 487.563519,59.9734281 C487.844553,59.9039207 488.154154,59.9090439 488.447588,59.9332071 C488.685223,59.9527823 488.916579,60.0456883 489.171009,60.111296 C489.263457,59.7818812 489.348921,59.4777766 489.438231,59.1598316 M496.174336,60.2457994 C496.225819,61.682669 496.274397,63.0377201 496.322741,64.3850482 L497.577388,64.3850482 C497.475286,62.5620262 497.375068,60.7740255 497.273045,58.9542914 C496.8006,58.9542914 496.369671,58.9744784 495.941881,58.9471801 C495.658414,58.9290577 495.559452,59.0449034 495.488585,59.2875295 C495.18903,60.3147716 494.87268,61.3373493 494.560647,62.3610739 C494.539144,62.4318048 494.5032,62.4984066 494.471887,62.5717373 C494.127677,61.3469075 493.791629,60.1510583 493.462409,58.9796016 L491.732884,58.9796016 C491.615715,60.7981887 491.500115,62.5928419 491.382475,64.4182344 C491.575769,64.4182344 491.691997,64.4176227 491.808224,64.4183109 C492.582343,64.4228988 492.573318,64.4226694 492.603611,63.6834742 C492.649286,62.567914 492.709009,61.4528892 492.764807,60.2958081 C493.139232,61.6705109 493.501413,63.0007107 493.857944,64.3098058 C494.854316,64.3770958 494.856984,64.3779369 495.124599,63.5442299 C495.469829,62.4681261 495.810271,61.390493 496.174336,60.2457994 M487.280837,77 C488.103613,75.0609028 488.344623,73.2235816 487.744022,71.3301345 C487.678256,71.1227592 487.499559,70.909343 487.312857,70.7844743 C484.530455,68.9232193 482.701733,66.4397618 482.159677,63.1610595 C481.592351,59.7288904 482.542812,56.6785151 484.914925,54.1072748 C487.742374,51.0426005 491.36207,49.7064364 495.538419,50.0536678 C500.30972,50.450449 503.929338,52.708944 505.988946,56.9922545 C508.119421,61.4228381 506.790611,66.6948518 502.871752,69.895406 C500.598209,71.7523024 497.966801,72.7189071 495.007115,72.8284062 C494.678837,72.8404878 494.503906,72.944099 494.340277,73.2234287 C493.33488,74.9397044 491.724016,75.8932334 489.851659,76.4584689 C489.037045,76.7043831 488.179503,76.815335 487.280837,77" id="Fill-1-Copy-3" fill="#EDEDED"></path>
                <path d="M46.5571041,129.225673 C46.5089179,129.411562 46.4693644,129.650059 46.383822,129.871733 C46.279994,130.141046 46.4051684,130.278073 46.6430389,130.303689 C47.2736978,130.371743 47.9195031,130.508923 48.5378408,130.43888 C49.7435953,130.302312 50.3970132,129.389463 50.1217082,128.388372 C49.9559601,127.785363 49.4757458,127.490281 48.9373,127.254919 C48.6047836,127.109481 48.2568068,126.988665 47.9473633,126.805988 C47.8188928,126.730134 47.6890097,126.508613 47.7109839,126.377397 C47.7364896,126.225154 47.9081237,126.071381 48.0544874,125.97144 C48.1602773,125.899256 48.3319899,125.881669 48.4682298,125.895892 C48.8645497,125.937183 49.257809,126.006691 49.6893662,126.070693 C49.7682378,125.786469 49.8548789,125.474106 49.9529779,125.12091 C49.0038503,124.806024 48.0873702,124.694613 47.201026,125.175736 C46.1527792,125.744872 46.1039652,127.075224 47.0999448,127.724266 C47.3891407,127.912678 47.7303683,128.024471 48.0453053,128.17618 C48.2546094,128.276962 48.4832193,128.357786 48.6612886,128.498024 C48.9881545,128.755179 48.9198776,129.207551 48.5368206,129.370041 C48.3744471,129.438936 48.1773858,129.487951 48.0059872,129.467611 C47.5336209,129.411409 47.0665126,129.313838 46.5571041,129.225673 M36.4382307,125.159832 C35.6377428,124.778726 34.4678532,124.771997 33.7773932,125.122975 C32.6644011,125.688746 32.5697552,127.05389 33.6076427,127.736119 C33.8531256,127.897385 34.1423215,127.995644 34.4113482,128.122806 C34.6453732,128.2333 34.8998813,128.31573 35.1090284,128.460327 C35.5020522,128.732163 35.4356588,129.245631 34.9753783,129.38174 C34.6872811,129.466846 34.3562558,129.469905 34.0532476,129.435878 C33.72544,129.399098 33.4077561,129.276217 33.062997,129.184917 C33.0002921,129.417985 32.9564222,129.642412 32.8784139,129.854987 C32.7876134,130.10243 32.86107,130.230128 33.1160489,130.305677 C33.857285,130.52544 34.6052703,130.580877 35.355767,130.382219 C36.3291446,130.124453 36.8478137,129.305351 36.6183405,128.407183 C36.4639719,127.802797 35.987917,127.498692 35.4483725,127.262489 C35.1157776,127.116822 34.7645831,127.001358 34.457337,126.816158 C34.321568,126.73434 34.1912925,126.503336 34.2097351,126.358357 C34.2284132,126.212537 34.414252,126.010361 34.5635194,125.973428 C34.8445534,125.903921 35.1541539,125.909044 35.4475877,125.933207 C35.6852227,125.952782 35.9165794,126.045688 36.171009,126.111296 C36.2634575,125.781881 36.3489213,125.477777 36.4382307,125.159832 M43.1743364,126.245799 C43.2258188,127.682669 43.2743974,129.03772 43.3227406,130.385048 L44.5773877,130.385048 C44.4752862,128.562026 44.3750683,126.774025 44.2730453,124.954291 C43.8006005,124.954291 43.3696712,124.974478 42.941881,124.94718 C42.6584141,124.929058 42.5594518,125.044903 42.4885851,125.28753 C42.18903,126.314772 41.8726803,127.337349 41.560647,128.361074 C41.5391437,128.431805 41.5032002,128.498407 41.471887,128.571737 C41.1276772,127.346908 40.7916292,126.151058 40.462409,124.979602 L38.7328842,124.979602 C38.6157147,126.798189 38.5001149,128.592842 38.3824745,130.418234 C38.5757688,130.418234 38.6919965,130.417623 38.8082242,130.418311 C39.5823431,130.422899 39.573318,130.422669 39.603611,129.683474 C39.6492859,128.567914 39.7090086,127.452889 39.7648073,126.295808 C40.1392316,127.670511 40.5014131,129.000711 40.8579442,130.309806 C41.8543162,130.377096 41.8569844,130.377937 42.1245985,129.54423 C42.4698286,128.468126 42.8102714,127.390493 43.1743364,126.245799 M34.2808373,143 C35.1036133,141.060903 35.3446229,139.223582 34.7440216,137.330135 C34.678256,137.122759 34.4995588,136.909343 34.3128568,136.784474 C31.530455,134.923219 29.7017326,132.439762 29.1596767,129.16106 C28.5923505,125.72889 29.5428122,122.678515 31.9149247,120.107275 C34.7423735,117.0426 38.3620699,115.706436 42.5384194,116.053668 C47.3097197,116.450449 50.9293377,118.708944 52.988946,122.992254 C55.119421,127.422838 53.7906111,132.694852 49.8717519,135.895406 C47.5982093,137.752302 44.9668015,138.718907 42.0071152,138.828406 C41.6788366,138.840488 41.5039065,138.944099 41.3402774,139.223429 C40.3348802,140.939704 38.724016,141.893233 36.8516591,142.458469 C36.037045,142.704383 35.1795027,142.815335 34.2808373,143" id="Fill-1-Copy-4" fill="#EDEDED"></path>
            </g>
        </g>
    </g>
</svg>