<?xml version="1.0" encoding="UTF-8"?>
<svg width="15px" height="15px" viewBox="0 0 15 15" version="1.1" xmlns="http://www.w3.org/2000/svg" xmlns:xlink="http://www.w3.org/1999/xlink">
    <!-- Generator: sketchtool 47.1 (45422) - http://www.bohemiancoding.com/sketch -->
    <title>5474FAAC-C283-4239-AEA0-0D08EE47A235</title>
    <desc>Created with sketchtool.</desc>
    <defs></defs>
    <g id="Page-1" stroke="none" stroke-width="1" fill="none" fill-rule="evenodd">
        <g id="Homepage-New" transform="translate(-572.000000, -74.000000)" fill-rule="nonzero" fill="#5B82D6">
            <path d="M586.663727,85.8642772 L584.347211,83.5422532 C583.885804,83.0816579 583.121705,83.0956519 582.644224,83.5743877 L581.477153,84.7438437 C581.40342,84.703114 581.3271,84.6605703 581.246859,84.615435 C580.509866,84.2061514 579.501166,83.6451788 578.439718,82.5805488 C577.375125,81.5136729 576.814904,80.5011321 576.405295,79.7619941 C576.362072,79.6836877 576.320659,79.6081888 576.279763,79.5364907 L577.063039,78.7526062 L577.448126,78.3661709 C577.92634,77.8867441 577.939527,77.1211296 577.479197,76.6591954 L575.162681,74.3369122 C574.702351,73.8756258 573.937907,73.8896199 573.459694,74.3690468 L572.80682,75.0271573 L572.824661,75.044909 C572.605744,75.324877 572.42281,75.6477775 572.286676,75.9959882 C572.161186,76.3274406 572.083057,76.6437328 572.047332,76.9606728 C571.741451,79.5022398 572.900248,81.8250412 576.045073,84.9770352 C580.392177,89.3336863 583.895371,89.0045662 584.046502,88.9884989 C584.375653,88.949065 584.691101,88.8702403 585.011677,88.7454597 C585.356084,88.6106155 585.678039,88.4275263 585.957202,88.2085881 L585.971466,88.2212864 L586.632872,87.5721597 C587.110095,87.0928193 587.123842,86.3269457 586.663727,85.8642772 Z" id="Shape"></path>
        </g>
    </g>
</svg>