<svg xmlns="http://www.w3.org/2000/svg" xmlns:xlink="http://www.w3.org/1999/xlink" width="217" height="217" version="1.1" style=""><rect id="backgroundrect" width="100%" height="100%" x="0" y="0" fill="none" stroke="none"/>
    <!-- Generator: sketchtool 47.1 (45422) - http://www.bohemiancoding.com/sketch -->
    <title>B100505C-C841-42B9-835E-16E64902F237</title>
    <desc>Created with sketchtool.</desc>
    <defs/>
    
<g class="currentLayer" style=""><title>Layer 1</title><g id="Page-1" stroke="none" stroke-width="1" fill="#003ab5" fill-rule="evenodd" class="" fill-opacity="1">
        <g id="Voice-message" fill="#003ab5" fill-opacity="1">
            <g id="tag" transform="translate(854.5,2746.5) scale(-1,1) translate(-854.5,-2746.5) translate(746,2638) " fill="#003ab5" fill-opacity="1">
                <path d="M942.430104,-2638 L881.337671,-2638 C870.136463,-2638 854.493146,-2631.52056731 846.573523,-2623.600538 L751.93966046,-2528.967082 C744.02003768,-2521.047459 744.02003768,-2508.086968 751.93966046,-2500.167345 L824.9617287,-2427.14609 C832.8813514999999,-2419.226061 845.8410298,-2419.226061 853.761059,-2427.14609 L948.3949210000001,-2521.779546 C956.3145440000001,-2529.699575 962.794383,-2545.3432996 962.794383,-2556.5432876 L962.794383,-2617.6357203 C962.793977,-2628.83611477 953.630498,-2638 942.430104,-2638 zM915.370546,-2570.2517185 C904.145762,-2570.2517185 895.046102,-2579.350972 895.046102,-2590.5761623 C895.046102,-2601.8009461 904.145762,-2610.9006061 915.370546,-2610.9006061 C926.595329,-2610.9006061 935.694989,-2601.8009461 935.694989,-2590.5761623 C935.694989,-2579.3513784 926.595329,-2570.2517185 915.370546,-2570.2517185 z" id="Shape" fill="#003ab5" fill-rule="nonzero" fill-opacity="1"/>
                <text id="nearly" transform="matrix(-1,0,0,1,991,-2638) " font-family="Raleway-Regular, Raleway" font-size="16" font-weight="normal" letter-spacing="0.699999988" fill="#003ab5" y="0" x="0" fill-opacity="1">
                    <tspan x="97" y="135" id="svg_1">nearly</tspan>
                </text>
            </g>
        </g>
    </g></g></svg>