<?xml version="1.0" encoding="UTF-8"?>
<svg width="53px" height="53px" viewBox="0 0 53 53" version="1.1" xmlns="http://www.w3.org/2000/svg" xmlns:xlink="http://www.w3.org/1999/xlink">
    <!-- Generator: sketchtool 47.1 (45422) - http://www.bohemiancoding.com/sketch -->
    <title>5379D1B3-1E33-4FBB-A80E-A91D831B45EC</title>
    <desc>Created with sketchtool.</desc>
    <defs></defs>
    <g id="Page-1" stroke="none" stroke-width="1" fill="none" fill-rule="evenodd">
        <g id="Voice-message" transform="translate(-485.000000, -1022.000000)" fill-rule="nonzero">
            <g id="013-phone-call" transform="translate(485.000000, 1022.000000)">
                <path d="M42.9717576,32.8768636 L37.7761515,38.0732727 L28.4650152,28.7621364 L19.1538788,19.451803 L24.3502879,14.2553939 C25.5941818,13.0115 25.5941818,10.9950909 24.3502879,9.75119697 L19.5441515,4.94506061 C18.3058788,3.70598485 16.2782273,3.70598485 15.0391515,4.94506061 L6.27809091,13.7061212 C3.79030303,16.1939091 3.79030303,20.2267273 6.27809091,22.7145152 L20.3953636,36.8317879 L33.8918939,50.3283182 C36.3788788,52.815303 40.4125,52.815303 42.9010909,50.3283182 L51.6621515,41.5664545 C52.9060455,40.3225606 52.9060455,38.3061515 51.6621515,37.0622576 L47.4759545,32.8768636 C46.2328636,31.6329697 44.2156515,31.6329697 42.9717576,32.8768636 Z" id="path-1_1_" fill="#23BDFF"></path>
                <path d="M35.1847727,50.9892121 C33.1619394,50.9892121 31.2587576,50.2014394 29.8285606,48.7704394 L2.21556061,21.1574394 C-0.737984848,18.2038939 -0.737984848,13.3985606 2.21556061,10.4450152 L10.9766212,1.68395455 C11.8029394,0.857636364 12.9055,0.402318182 14.0803333,0.402318182 C15.2559697,0.402318182 16.3577273,0.857636364 17.1840455,1.68395455 L21.9901818,6.49009091 C23.7014394,8.20134848 23.7014394,10.9862576 21.9901818,12.6983182 L17.6457879,17.0427121 L34.5640303,33.9601515 L38.9084242,29.6157576 C39.7371515,28.7862273 40.8397121,28.3301061 42.0121364,28.3301061 C43.1845606,28.3301061 44.2871212,28.7862273 45.1158485,29.6157576 L49.3020455,33.8019545 C51.013303,35.5124091 51.013303,38.2973182 49.3020455,40.0093788 L40.5409848,48.7704394 C39.1099848,50.2014394 37.2084091,50.9892121 35.1847727,50.9892121 Z M14.0803333,2.81140909 C13.5487273,2.81140909 13.0516515,3.01618182 12.6798485,3.38798485 L3.91798485,12.1482424 C1.90398485,14.1630455 1.90398485,17.4402121 3.91798485,19.4542121 L31.5309848,47.0672121 C32.5066667,48.0428939 33.8035606,48.5801212 35.1839697,48.5801212 C36.5635758,48.5801212 37.8612727,48.0428939 38.8369545,47.0672121 L47.5980152,38.3061515 C48.3697273,37.5336364 48.3697273,36.2768939 47.5980152,35.5051818 L43.4118182,31.3189848 C42.664197,30.5713636 41.3592727,30.5713636 40.6108485,31.3189848 L35.4144394,36.5153939 C34.9631364,36.9675 34.1633182,36.9675 33.7112121,36.5153939 L15.0905455,17.8947273 C14.6199697,17.4241515 14.6199697,16.6612727 15.0905455,16.190697 L20.2861515,10.9950909 C21.0578636,10.2225758 21.0578636,8.96583333 20.2861515,8.19331818 L15.4800152,3.38718182 C15.1090152,3.01618182 14.6111364,2.81140909 14.0803333,2.81140909 Z" id="path-2_1_" fill="#000000"></path>
                <path d="M45.7365909,43.0753485 C45.4282273,43.0753485 45.1198636,42.9581061 44.8845758,42.7228182 L36.1949848,34.0332273 C35.7244091,33.5626515 35.7244091,32.7997727 36.1949848,32.33 C36.6655606,31.8594242 37.4276364,31.8594242 37.8982121,32.33 L46.587803,41.0195909 C47.0583788,41.4893636 47.0583788,42.2530455 46.587803,42.7228182 C46.3525152,42.9581061 46.0449545,43.0753485 45.7365909,43.0753485 Z" id="path-3_1_" fill="#000000"></path>
                <path d="M18.4247273,15.7642879 C18.1163636,15.7642879 17.808,15.6470455 17.5735152,15.4117576 L8.26318182,6.10062121 C7.79260606,5.63084848 7.79260606,4.86716667 8.26318182,4.39739394 C8.73375758,3.92681818 9.49583333,3.92681818 9.96640909,4.39739394 L19.2775455,13.7085303 C19.7481212,14.178303 19.7481212,14.9411818 19.2775455,15.4117576 C19.0414545,15.6470455 18.7338939,15.7642879 18.4247273,15.7642879 Z" id="path-4_1_" fill="#000000"></path>
                <path d="M40.5538333,20.2227121 L46.4432576,20.2227121 C46.4432576,16.2075606 44.0895758,14.0152879 41.0460909,13.6193939 C42.5276818,13.2556212 43.6310455,11.6993485 43.6310455,10.1053333 C43.6310455,8.23266667 41.8876667,6.95263636 40.015,6.95263636 L40.015,6.95263636" id="path-5_1_" fill="#EDC951"></path>
                <path d="M31.7116667,22.4374697 C31.7116667,18.1725758 35.1695152,14.7155303 39.4336061,14.7155303 C43.6985,14.7155303 47.1555455,18.1725758 47.1555455,22.4374697 L47.1555455,22.4374697" id="path-6_1_" fill="#30CC7B"></path>
                <path d="M43.6551364,9.90377273 C43.6551364,12.2349697 41.7656061,14.125303 39.4336061,14.125303 C37.1024091,14.125303 35.2120758,12.2349697 35.2120758,9.90377273 C35.2120758,7.57257576 37.1024091,5.68224242 39.4336061,5.68224242 C41.7656061,5.68224242 43.6551364,7.57257576 43.6551364,9.90377273 Z" id="path-7_1_" fill="#F1AD2B"></path>
                <path d="M48.8523485,21.0257424 L42.9629242,21.0257424 C42.2980152,21.0257424 41.7583788,20.4869091 41.7583788,19.821197 C41.7583788,19.1562879 42.2980152,18.6166515 42.9629242,18.6166515 L47.5602727,18.6166515 C47.116197,15.741803 45.0580303,14.8416061 43.300197,14.6127424 C42.7252273,14.5380606 42.2843636,14.0642727 42.2522424,13.4852879 C42.2201212,12.906303 42.6047727,12.3867424 43.1685,12.2486212 C44.1184848,12.0157424 44.8355909,11.051303 44.8355909,10.0049545 C44.8355909,8.88713636 43.7081364,7.90663636 42.4240909,7.90663636 C41.7591818,7.90663636 41.2195455,7.367 41.2195455,6.70209091 C41.2195455,6.03637879 41.7591818,5.49754545 42.4240909,5.49754545 C45.0371515,5.49754545 47.2446818,7.56133333 47.2446818,10.0049545 C47.2446818,11.1115303 46.8568182,12.1570758 46.2071667,12.9801818 C48.6572121,14.1807121 50.0568939,16.5970303 50.0568939,19.821197 C50.0568939,20.4869091 49.5172576,21.0257424 48.8523485,21.0257424 Z" id="path-8_1_" fill="#000000"></path>
                <path d="M28.5083788,21.0257424 L23.9062121,21.0257424 C23.241303,21.0257424 22.7016667,20.4869091 22.7016667,19.821197 C22.7016667,16.5970303 24.1005455,14.1807121 26.5513939,12.9801818 C25.9017424,12.1570758 25.5138788,11.1115303 25.5138788,10.0049545 C25.5138788,7.39269697 27.3263182,5.49754545 29.8237424,5.49754545 C30.4894545,5.49754545 31.0282879,6.03637879 31.0282879,6.70209091 C31.0282879,7.367 30.4894545,7.90663636 29.8237424,7.90663636 C28.4208485,7.90663636 27.9229697,9.03730303 27.9229697,10.0049545 C27.9229697,11.051303 28.6400758,12.0157424 29.5900606,12.2486212 C30.1537879,12.3867424 30.5384394,12.906303 30.5063182,13.4852879 C30.474197,14.0642727 30.0333333,14.5380606 29.4583636,14.6127424 C27.7005303,14.8416061 25.6423636,15.741803 25.1982879,18.6166515 L28.5083788,18.6166515 C29.1732879,18.6166515 29.7129242,19.1562879 29.7129242,19.821197 C29.7129242,20.4869091 29.1732879,21.0257424 28.5083788,21.0257424 Z" id="path-9_1_" fill="#000000"></path>
                <path d="M43.9434242,23.6420152 C43.2785152,23.6420152 42.7388788,23.1023788 42.7388788,22.4374697 C42.7388788,18.8439091 39.8158485,15.9200758 36.2214848,15.9200758 C32.6279242,15.9200758 29.7040909,18.8439091 29.7040909,22.4374697 C29.7040909,23.1023788 29.1644545,23.6420152 28.4995455,23.6420152 C27.8346364,23.6420152 27.295,23.1023788 27.295,22.4374697 C27.295,17.5148939 31.2989091,13.5109848 36.2214848,13.5109848 C41.1440606,13.5109848 45.1479697,17.5148939 45.1479697,22.4374697 C45.1479697,23.1023788 44.6083333,23.6420152 43.9434242,23.6420152 Z" id="path-10_1_" fill="#000000"></path>
                <path d="M36.2214848,15.3298485 C33.230197,15.3298485 30.7954091,12.8950606 30.7954091,9.90377273 C30.7954091,6.91168182 33.230197,4.47769697 36.2214848,4.47769697 C39.2135758,4.47769697 41.6475606,6.91168182 41.6475606,9.90377273 C41.6475606,12.8950606 39.2135758,15.3298485 36.2214848,15.3298485 Z M36.2214848,6.88678788 C34.5584091,6.88678788 33.2045,8.24069697 33.2045,9.90377273 C33.2045,11.5668485 34.5584091,12.9207576 36.2214848,12.9207576 C37.8845606,12.9207576 39.2384697,11.5668485 39.2384697,9.90377273 C39.2384697,8.24069697 37.8845606,6.88678788 36.2214848,6.88678788 Z" id="path-11_1_" fill="#000000"></path>
            </g>
        </g>
    </g>
</svg>