<?xml version="1.0" encoding="UTF-8"?>
<svg width="26px" height="51px" viewBox="0 0 26 51" version="1.1" xmlns="http://www.w3.org/2000/svg" xmlns:xlink="http://www.w3.org/1999/xlink">
    <!-- Generator: sketchtool 47.1 (45422) - http://www.bohemiancoding.com/sketch -->
    <title>4CF073F2-69B5-4C5E-93CF-80A94606F0EC</title>
    <desc>Created with sketchtool.</desc>
    <defs></defs>
    <g id="Page-1" stroke="none" stroke-width="1" fill="none" fill-rule="evenodd">
        <g id="Voice-message" transform="translate(-193.000000, -1249.000000)" fill-rule="nonzero">
            <g id="003-hourglass" transform="translate(192.500000, 1249.075472)">
                <path d="M5.50884848,6.32430303 L5.50884848,16.5107879 L16.302,26.7807879 L16.5738182,26.7807879 L25.993697,16.5107879 L25.993697,6.32430303 C25.993697,4.52478788 25.5737576,3.15072727 23.7734545,3.15072727 L9.10236364,3.15072727 C7.30206061,3.15072727 5.50884848,4.52478788 5.50884848,6.32430303 Z" id="path-1_6_" fill="#F1AD2B"></path>
                <path d="M25.993697,47.0670909 L25.993697,36.8813939 L16.5738182,26.7807879 L16.302,26.7807879 L5.50884848,36.8813939 L5.50884848,47.0670909 C5.50884848,48.8673939 7.30206061,50.4116364 9.10236364,50.4116364 L23.7734545,50.4116364 C25.5737576,50.4116364 25.993697,48.8673939 25.993697,47.0670909 Z" id="path-2_6_" fill="#30CC7B"></path>
                <path d="M12.6344242,25.993697 L12.3626061,25.993697 C12.0600606,25.993697 11.7685455,25.8770909 11.5487273,25.6690909 L1.14951515,15.7922424 C0.914727273,15.5684848 0.781575758,15.2588485 0.781575758,14.9350303 L0.781575758,4.26163636 C0.781575758,1.872 2.68509091,0 5.11490909,0 L19.2967273,0 C21.6863636,0 23.6300606,1.91218182 23.6300606,4.26163636 L23.6300606,14.9350303 C23.6300606,15.2470303 23.5063636,15.5464242 23.2865455,15.7678182 L13.4727273,25.6446667 C13.2513333,25.8684242 12.9487879,25.993697 12.6344242,25.993697 Z M3.14521212,14.4284242 L12.4784242,23.2920606 L21.2664242,14.4481212 L21.2664242,4.26163636 C21.2664242,3.19721212 20.4013333,2.36284848 19.2967273,2.36284848 L5.11490909,2.36284848 C4.01030303,2.36284848 3.14521212,3.19721212 3.14521212,4.26163636 L3.14521212,14.4284242 Z" id="path-3_6_" fill="#000000"></path>
                <path d="M19.2967273,49.6237576 L5.11490909,49.6237576 C2.72527273,49.6237576 0.781575758,47.6493333 0.781575758,45.2218788 L0.781575758,35.3064242 C0.781575758,34.9952121 0.904484848,34.6966061 1.12430303,34.4752121 L11.5235152,23.9806667 C11.7449091,23.7569091 12.0474545,23.6300606 12.3626061,23.6300606 L12.6344242,23.6300606 C12.9613939,23.6300606 13.2741818,23.7655758 13.4979394,24.0050909 L23.3117576,34.4996364 C23.5158182,34.7186667 23.6300606,35.0062424 23.6300606,35.3064242 L23.6300606,45.2218788 C23.6300606,47.6493333 21.6863636,49.6237576 19.2967273,49.6237576 Z M3.14521212,35.7925455 L3.14521212,45.2218788 C3.14521212,46.3272727 4.04733333,47.2609091 5.11490909,47.2609091 L19.2967273,47.2609091 C20.364303,47.2609091 21.2664242,46.3272727 21.2664242,45.2218788 L21.2664242,35.7728485 L12.4776364,26.3750303 L3.14521212,35.7925455 Z" id="path-4_6_" fill="#000000"></path>
                <path d="M18.1149091,19.6922424 L6.29672727,19.6922424 C5.64357576,19.6922424 5.11490909,19.1627879 5.11490909,18.5104242 C5.11490909,17.8580606 5.64357576,17.3286061 6.29672727,17.3286061 L18.1149091,17.3286061 C18.7680606,17.3286061 19.2967273,17.8580606 19.2967273,18.5104242 C19.2967273,19.1627879 18.7680606,19.6922424 18.1149091,19.6922424 Z" id="path-5_5_" fill="#000000"></path>
                <path d="M22.054303,42.5352121 L2.35733333,42.5352121 C1.70418182,42.5352121 1.17551515,42.0057576 1.17551515,41.3533939 C1.17551515,40.7010303 1.70418182,40.1715758 2.35733333,40.1715758 L22.054303,40.1715758 C22.7074545,40.1715758 23.2361212,40.7010303 23.2361212,41.3533939 C23.2361212,42.0057576 22.7074545,42.5352121 22.054303,42.5352121 Z" id="path-6_5_" fill="#000000"></path>
                <path d="M22.054303,45.6859394 L2.35733333,45.6859394 C1.70418182,45.6859394 1.17551515,45.1564848 1.17551515,44.5041212 C1.17551515,43.8517576 1.70418182,43.322303 2.35733333,43.322303 L22.054303,43.322303 C22.7074545,43.322303 23.2361212,43.8517576 23.2361212,44.5041212 C23.2361212,45.1564848 22.7074545,45.6859394 22.054303,45.6859394 Z" id="path-7_3_" fill="#000000"></path>
                <path d="M12.2058182,32.6890909 C11.5526667,32.6890909 11.024,32.1596364 11.024,31.5072727 L11.024,29.1444242 C11.024,28.4920606 11.5526667,27.9626061 12.2058182,27.9626061 C12.8589697,27.9626061 13.3876364,28.4920606 13.3876364,29.1444242 L13.3876364,31.5072727 C13.3876364,32.1596364 12.8589697,32.6890909 12.2058182,32.6890909 Z" id="path-8_2_" fill="#000000"></path>
                <path d="M12.2058182,38.9905455 C11.5526667,38.9905455 11.024,38.4610909 11.024,37.8087273 L11.024,35.4458788 C11.024,34.7935152 11.5526667,34.2640606 12.2058182,34.2640606 C12.8589697,34.2640606 13.3876364,34.7935152 13.3876364,35.4458788 L13.3876364,37.8087273 C13.3876364,38.4610909 12.8589697,38.9905455 12.2058182,38.9905455 Z" id="path-9_1_" fill="#000000"></path>
            </g>
        </g>
    </g>
</svg>