<?xml version="1.0" encoding="UTF-8"?>
<svg width="89px" height="65px" viewBox="0 0 89 65" version="1.1" xmlns="http://www.w3.org/2000/svg" xmlns:xlink="http://www.w3.org/1999/xlink">
    <!-- Generator: sketchtool 47.1 (45422) - http://www.bohemiancoding.com/sketch -->
    <title>D7606410-2871-4B5C-91BD-D5144014151F</title>
    <desc>Created with sketchtool.</desc>
    <defs></defs>
    <g id="Page-1" stroke="none" stroke-width="1" fill="none" fill-rule="evenodd">
        <g id="Voice-message" transform="translate(-774.000000, -1946.000000)">
            <g id="Group-9" transform="translate(774.321429, 1946.000000)">
                <path d="M87.7918567,0.553920954 C87.3301078,0.192177979 86.7144427,0.119829385 86.1757357,0.336875169 L15.912949,29.2763131 C14.7585768,29.7104047 14.0659535,30.7956336 14.1429116,32.0255597 C14.2198698,33.2554858 14.9894512,34.2683661 16.2207815,34.7024577 L36.7686063,41.0691341 L36.7686063,58.4327968 C36.7686063,60.0244659 37.8460204,61.3990892 39.4621414,61.8331808 C41.0782625,62.3396209 42.8482998,61.7608322 43.8487557,60.4585575 L52.468068,48.7380851 L70.7071484,63.4971985 C71.2458555,63.93129 71.9384788,64.1483358 72.7080602,64.1483358 C73.0928509,64.1483358 73.4006835,64.0759872 73.7085161,64.0036386 C74.7859301,63.6418956 75.5555116,62.8460611 75.7094279,61.8331808 L88.3305637,2.00089285 C88.4075219,1.49445269 88.1766474,0.915663928 87.7918567,0.553920954 Z" id="Path-Copy" fill="#23BDFF"></path>
                <g id="001-paper" transform="translate(0.000000, 0.193806)" fill-rule="nonzero" fill="#000000">
                    <path d="M79.5012583,0.360115131 C79.0028568,-0.00162784338 78.3383216,-0.0739764382 77.7568533,0.143069346 L1.91676884,29.0825073 C0.670765259,29.5165988 -0.0768368873,30.6018278 0.00623001789,31.8317539 C0.0892969231,33.06168 0.919965975,34.0745603 2.24903646,34.5086519 L24.4279001,40.8753282 L24.4279001,58.238991 C24.4279001,59.8306601 25.5908368,61.2052834 27.3352418,61.639375 C29.0796468,62.1458151 30.9901856,61.5670264 32.0700554,60.2647516 L41.3735488,48.5442793 L61.0604053,63.3033926 C61.6418737,63.7374842 62.3894758,63.95453 63.2201449,63.95453 C63.6354794,63.95453 63.967747,63.8821814 64.3000146,63.8098328 C65.4629513,63.4480898 66.2936203,62.6522553 66.4597542,61.639375 L80.0827266,1.80708703 C80.1657935,1.30064686 79.9165928,0.721858105 79.5012583,0.360115131 Z M39.7122107,45.5056383 L29.3288475,58.600734 C28.9965799,59.0348255 28.5812454,58.9624769 28.3320447,58.8901283 C28.1659109,58.8901283 27.7505763,58.6730826 27.7505763,58.238991 L27.7505763,39.8624479 C27.7505763,39.2113106 27.3352418,38.7048704 26.5876397,38.4878246 L3.24583932,31.6870567 L70.6961663,6.00330553 L37.4694043,29.8059932 C36.7218021,30.3124334 36.6387352,31.2529651 37.2202035,31.8317539 C37.5524712,32.1934969 38.0508726,32.338194 38.4662071,32.338194 C38.7984747,32.338194 39.2138093,32.2658454 39.5460769,31.9764511 L68.370293,11.3571015 L39.7122107,45.5056383 Z M63.2201449,61.0605862 L43.2840876,46.1567757 L75.1817792,8.24611197 L63.2201449,61.0605862 Z" id="Shape"></path>
                    <path d="M32.9837914,32.9893314 L30.3256504,34.8703949 C29.5780483,35.376835 29.4949814,36.3173668 30.0764497,36.8961555 C30.4087173,37.2578985 30.9071187,37.4025957 31.4055202,37.4025957 C31.7377878,37.4025957 32.1531223,37.3302471 32.4853899,37.1132013 L35.1435309,35.2321378 C35.8911331,34.7256977 35.9742,33.7851659 35.3927316,33.2063772 C34.8112633,32.6275884 33.7313935,32.5552398 32.9837914,32.9893314 Z" id="Shape"></path>
                </g>
            </g>
        </g>
    </g>
</svg>