<?xml version="1.0" encoding="UTF-8"?>
<svg width="65px" height="54px" viewBox="0 0 65 54" version="1.1" xmlns="http://www.w3.org/2000/svg" xmlns:xlink="http://www.w3.org/1999/xlink">
    <!-- Generator: sketchtool 47.1 (45422) - http://www.bohemiancoding.com/sketch -->
    <title>296CCE48-ED6F-402D-84E0-E53CA47CC2DD</title>
    <desc>Created with sketchtool.</desc>
    <defs></defs>
    <g id="Page-1" stroke="none" stroke-width="1" fill="none" fill-rule="evenodd">
        <g id="Voice-message" transform="translate(-785.000000, -1017.000000)" fill-rule="nonzero">
            <g id="004-settings" transform="translate(785.500000, 1017.000000)">
                <path d="M39.9860667,20.4217165 L37.7725205,19.6334926 C37.7053536,19.6107744 37.6421376,19.5811419 37.5779339,19.5524972 C37.2322217,18.2476803 36.7087145,17.0149692 36.0360573,15.881033 C36.0637142,15.8069519 36.092359,15.7338584 36.1259425,15.660765 L37.1344345,13.541055 C38.3049174,11.0776083 35.7367692,8.51044786 33.2743103,9.68093077 L31.1526248,10.688435 C31.0785436,10.7230063 31.0034746,10.7526387 30.9284057,10.7812835 C29.796445,10.1106017 28.5657094,9.59005783 27.2628681,9.24533333 C27.2332356,9.17915413 27.2036031,9.11198718 27.1779217,9.04284473 L26.3906855,6.82929858 C25.4780051,4.26213818 21.8440755,4.26213818 20.9313952,6.82929858 L20.144159,9.04284473 C20.1273672,9.09124444 20.104649,9.13668091 20.084894,9.18508063 C18.7267387,9.51696439 17.4436524,10.0414593 16.2652675,10.727945 C16.2336595,10.7131288 16.2020516,10.7032513 16.1704436,10.688435 L14.0487581,9.68093077 C11.5862991,8.51044786 8.69219373,11.0776083 9.86267664,13.541055 L10.5452114,15.660765 L10.5452114,15.6627405 C10.5452114,16.8845863 9.53671937,18.2259499 9.17026439,19.6542353 L7.17402308,20.4217165 C4.60488718,21.3343969 4.68687037,24.966351 7.25501852,25.8800191 L9.39448348,26.6257698 C9.74612222,28.110357 10.3427228,29.5070345 11.1111917,30.7753046 L10.1777687,32.7606806 C9.00728575,35.2221519 11.5813604,37.7912877 14.0438194,36.6208048 L16.0282077,35.678492 C17.2984533,36.4499242 18.6990818,37.0277575 20.1866322,37.3813718 L20.9304074,39.4714493 C21.8440755,42.0395974 25.4780051,42.0395974 26.3906855,39.4714493 L27.1542157,37.3260578 C28.5894154,36.9596028 29.9376932,36.3768308 31.1654655,35.6192271 L33.2743103,36.6208048 C35.7367692,37.7912877 38.3049174,35.2221519 37.1344345,32.7606806 L36.1259425,30.6399829 C36.1140895,30.6133137 36.1051997,30.5866444 36.0933467,30.560963 C36.7837835,29.3766516 37.3112416,28.086651 37.6441131,26.7205937 C37.6875741,26.7018265 37.7280718,26.6820715 37.7725205,26.6662675 L39.9860667,25.8800191 C42.5552026,24.966351 42.5552026,21.3343969 39.9860667,20.4217165 Z M23.6210365,31.3156034 C19.2601234,31.3156034 15.7249687,27.7814365 15.7249687,23.4215111 C15.7249687,19.0615858 19.2601234,15.5274188 23.6210365,15.5274188 C27.9819496,15.5274188 31.518092,19.0615858 31.518092,23.4215111 C31.518092,27.7814365 27.9819496,31.3156034 23.6210365,31.3156034 Z" id="path-1_13_" fill="#23BDFF"></path>
                <path d="M62.4129142,39.1741368 L60.9194373,38.6427276 C60.8749886,38.6269236 60.8315276,38.6071687 60.7880667,38.5884014 C60.5549578,37.7083168 60.2023313,36.8756442 59.7479667,36.1111262 C59.7677217,36.060751 59.7864889,36.0113635 59.8092071,35.9619761 L60.4897664,34.5317151 C61.2789781,32.8713085 59.5454781,31.1378085 57.8840838,31.9270202 L56.452835,32.6075795 C56.4034476,32.6302977 56.3520846,32.6500527 56.3017094,32.6698077 C55.5381792,32.2174185 54.7074821,31.8657798 53.8283852,31.6336587 C53.8086302,31.58921 53.7878875,31.5447613 53.7710957,31.4973493 L53.2406744,30.0038724 C52.6243188,28.2703724 50.1727251,28.2703724 49.5563695,30.0038724 L49.0249604,31.4973493 C49.0131074,31.529945 48.9982912,31.5605652 48.9844627,31.5911855 C48.0678313,31.8163923 47.202563,32.1719821 46.4084125,32.633261 C46.3866821,32.6243712 46.3649516,32.617457 46.3432211,32.6075795 L44.9119724,31.9270202 C43.2505781,31.1378085 41.0656766,32.8713085 41.8558761,34.5317151 L42.0860217,35.9619761 L42.0860217,35.9629638 C42.0860217,36.7887222 41.6365957,37.6935006 41.3896584,38.6565561 L40.157935,39.1741368 C38.424435,39.7914801 38.5370385,42.242086 40.2705385,42.8584416 L41.7422849,43.361206 C41.9803325,44.3627838 42.3971627,45.3060843 42.9157311,46.1614752 L42.2924613,47.5008632 C41.5032496,49.1622575 43.2436638,50.8957575 44.9050581,50.1055581 L46.2454339,49.4704353 C47.1028003,49.9899915 48.0490641,50.3801524 49.0526174,50.6182 L49.5553818,52.028706 C50.1717373,53.7612182 52.6233311,53.7612182 53.2396866,52.028706 L53.7552917,50.5816533 C54.723286,50.3337282 55.6330031,49.940604 56.4617248,49.4299376 L57.8840838,50.1055581 C59.5454781,50.8957575 61.2789781,49.1622575 60.4897664,47.5008632 L59.8092071,46.0696145 C59.8013051,46.051835 59.7943909,46.0340556 59.7874766,46.0162761 C60.2527066,45.2171869 60.6082963,44.3469798 60.8335031,43.4244219 C60.8621479,43.4135567 60.8898048,43.3987405 60.9194373,43.3878752 L62.4129142,42.8584416 C64.147402,42.242086 64.147402,39.7914801 62.4129142,39.1741368 Z M51.370865,46.0202271 C48.7078929,46.0202271 46.5496607,43.8619949 46.5496607,41.1990228 C46.5496607,38.5360507 48.7078929,36.3778185 51.370865,36.3778185 C54.033837,36.3778185 56.193057,38.5360507 56.193057,41.1990228 C56.193057,43.8619949 54.033837,46.0202271 51.370865,46.0202271 Z" id="path-2_13_" fill="#30CC7B"></path>
                <path d="M19.7747407,39.9643362 C17.8970293,39.9643362 16.2781083,38.8215103 15.6479242,37.053439 L15.1668903,35.6992348 C14.0912313,35.3841427 13.0580456,34.961386 12.0801738,34.4349157 L10.7960997,35.044357 C8.80677265,35.9925963 6.36011766,35.2488211 5.1985245,33.4106197 C4.38758234,32.1275333 4.3006604,30.5965219 4.95948917,29.2107097 L5.56794274,27.9236724 C5.03850912,26.9418496 4.61476467,25.9116271 4.30362365,24.8468333 L2.92966439,24.3618484 C1.14875242,23.7287011 0,22.1028658 0,20.2182402 C0,18.3494185 1.13788718,16.7374117 2.89904416,16.1111786 L4.32337863,15.5916225 C4.52191624,15.0987356 4.76589031,14.6414077 4.9901094,14.2206265 C5.22321823,13.7850291 5.48003305,13.3030074 5.57189373,12.9671726 L4.82614302,11.2030524 C4.20386097,9.89724786 4.29374615,8.38302821 5.09876182,7.10883162 C6.28109772,5.23902222 8.78701766,4.46956553 10.7980752,5.42867009 L12.3251356,6.15367806 C13.2052202,5.69733789 14.1248148,5.32495641 15.0720664,5.04147236 L15.648912,3.41860028 C16.2781083,1.65052906 17.8970293,0.507703134 19.7747407,0.507703134 C21.6524521,0.507703134 23.2713732,1.65052906 23.9005695,3.41860028 L24.5050721,5.11752906 C25.4019484,5.40200085 26.2741311,5.76648034 27.109767,6.20800427 L28.7514063,5.42867009 C30.7397456,4.48043077 33.1854128,5.22519373 34.347006,7.06043191 C35.1579481,8.34351823 35.2458578,9.87551738 34.5860413,11.2613296 L33.8086826,12.8970425 C34.2511943,13.7356416 34.618637,14.608812 34.9050843,15.5096393 L36.5961111,16.1111786 C38.3641823,16.7403749 39.5070083,18.359296 39.5070083,20.2360197 C39.5070083,22.1127433 38.3641823,23.7316644 36.5951234,24.3608607 L34.9870675,24.9327675 C34.701608,25.8879211 34.327251,26.8154177 33.8669598,27.7014288 L34.5860413,29.2097219 C35.2458578,30.5975097 35.1579481,32.1285211 34.347006,33.4125952 C33.5410026,34.6867917 32.1225946,35.4799544 30.6459094,35.4799544 L30.6459094,35.4799544 C29.9959704,35.4789667 29.3578843,35.3337675 28.7514063,35.044357 L27.3488023,34.3776262 C26.4094527,34.8932313 25.4246667,35.312037 24.4072849,35.6281168 L23.9005695,37.053439 C23.2713732,38.8215103 21.6524521,39.9643362 19.7747407,39.9643362 Z M12.1433897,31.2830077 C12.4100821,31.2830077 12.6767744,31.3551134 12.9118587,31.498337 C14.0615989,32.1966758 15.318016,32.7103054 16.6435755,33.0263852 C17.1325114,33.1419519 17.5285989,33.4985293 17.6965162,33.9706735 L18.4402915,36.060751 C18.7514325,36.9339214 19.5396564,37.0020761 19.7747407,37.0020761 C20.0088373,37.0020761 20.798049,36.9339214 21.10919,36.060751 L21.8717325,33.9143718 C22.0366866,33.4501296 22.4228966,33.0975031 22.9009672,32.97601 C24.1662741,32.653016 25.3772547,32.1374108 26.5003256,31.4440108 C26.9280211,31.1812695 27.4604179,31.1496615 27.9147826,31.3669664 L30.0236274,32.3685442 C30.230067,32.4673191 30.4394698,32.5176943 30.6459094,32.5176943 L30.6459094,32.5176943 C31.1160781,32.5176943 31.5743937,32.2529775 31.8420738,31.829233 C31.9931994,31.5901977 32.2026023,31.0982986 31.9092407,30.481943 L30.9017365,28.3632208 C30.8859325,28.3286496 30.8533368,28.2506174 30.8395083,28.2150584 C30.6785051,27.7972405 30.7012234,27.2885496 30.9264302,26.9013519 C31.5546387,25.8227296 32.0238197,24.663112 32.3181689,23.4541068 C32.4287969,23.0017177 32.7468521,22.6273607 33.1765231,22.4436393 C33.2604818,22.4061048 33.3276487,22.3784479 33.3997544,22.3527664 L35.6024353,21.5694812 C36.4756057,21.2593279 36.5437604,20.4701162 36.5437604,20.2360197 C36.5437604,20.0019231 36.4756057,19.2127114 35.6024353,18.9025581 L33.3888892,18.1143342 C33.310857,18.087665 33.219984,18.0501305 33.1300989,18.0096328 C32.7182074,17.8268991 32.3734829,17.4515544 32.2579162,17.0169447 C31.9527017,15.8632536 31.4874718,14.7549989 30.8750672,13.7228009 C30.6459094,13.3365909 30.6044239,12.8654345 30.7624638,12.4446533 C30.8059248,12.3300744 30.8503735,12.2174709 30.9046997,12.1058553 L31.9092407,9.99108405 C32.2026023,9.37472849 31.9931994,8.8818416 31.8420738,8.64280627 C31.4558638,8.03336496 30.7002356,7.77951339 30.0236274,8.10349516 L27.9019419,9.11099943 C27.7824242,9.16730114 27.6708085,9.21273761 27.5582051,9.25521083 C27.1403872,9.40929972 26.672194,9.36880199 26.2869718,9.14161966 C25.2557615,8.5311906 24.1494823,8.06793618 22.9987544,7.7637094 C22.5601937,7.64913048 22.1986775,7.33897721 22.0179194,6.92412251 C21.9655687,6.80460484 21.9280342,6.71570741 21.8954385,6.62285897 L21.10919,4.41227607 C20.798049,3.53811795 20.0098251,3.470951 19.7747407,3.470951 C19.5396564,3.470951 18.7514325,3.53811795 18.4402915,4.41227607 L17.6530553,6.62483447 C17.6283615,6.69397692 17.6026801,6.75620513 17.5760108,6.81843333 C17.390314,7.24020228 16.9991652,7.59875527 16.5507271,7.70938319 C15.3506117,8.00274473 14.1979083,8.46896239 13.1242248,9.09321994 C12.7212231,9.32929202 12.2303117,9.35991225 11.799653,9.17717863 C11.7473023,9.1564359 11.6880373,9.13174217 11.6287724,9.10309744 L9.52585413,8.10349516 C8.82751538,7.77259915 8.00669573,8.05410769 7.60369402,8.69318148 C7.42392365,8.97765328 7.26390826,9.43399345 7.52862507,9.99108405 L8.4531584,12.1690712 C8.53020285,12.3527926 8.56971282,12.548367 8.56971282,12.7469046 C8.56971282,13.8057718 8.07880142,14.7253664 7.60468177,15.6153285 C7.31922222,16.1506886 7.04956667,16.6554285 6.934,17.1078177 C6.81250684,17.5799618 6.46580684,17.9632085 6.00650342,18.1311259 L3.90259744,18.8986071 C3.03041481,19.2087604 2.96324786,19.9861191 2.96324786,20.2182402 C2.96324786,20.4553 3.03239031,21.2543892 3.91938917,21.5694812 L6.0282339,22.3142442 C6.50334131,22.4811738 6.86090655,22.8792368 6.97647322,23.3691604 C7.2866265,24.6769405 7.80124387,25.9294066 8.50550912,27.0929752 C8.76331168,27.5177074 8.78998091,28.0451655 8.57662707,28.4945915 L7.63628974,30.4799675 C7.34292821,31.0973108 7.55233105,31.5901977 7.7034567,31.8282453 C8.08966667,32.4396621 8.84430712,32.6905504 9.52387863,32.3685442 L11.5072792,31.4272191 C11.7087801,31.3304197 11.9260849,31.2830077 12.1433897,31.2830077 Z M19.734243,29.8823792 C14.5633755,29.8823792 10.3565513,25.6765427 10.3565513,20.506663 C10.3565513,15.3367832 14.5633755,11.1319345 19.734243,11.1319345 C24.9060983,11.1319345 29.1129225,15.3367832 29.1129225,20.506663 C29.1129225,25.6765427 24.9060983,29.8823792 19.734243,29.8823792 Z M19.734243,14.0941946 C16.1971128,14.0941946 13.3197991,16.9705205 13.3197991,20.506663 C13.3197991,24.0428054 16.1971128,26.9201191 19.734243,26.9201191 C23.2713732,26.9201191 26.1496746,24.0428054 26.1496746,20.506663 C26.1496746,16.9705205 23.2713732,14.0941946 19.734243,14.0941946 Z" id="path-3_12_" fill="#000000"></path>
                <path d="M47.5107407,51.8953598 C46.0380066,51.8953598 44.7657855,50.9984835 44.2728986,49.6106957 L44.0289245,48.9261855 C43.4342994,48.7385131 42.8584416,48.502441 42.305302,48.2199447 L41.6523997,48.5291103 C40.1045966,49.2679467 38.168608,48.6871501 37.2569154,47.2460239 C36.6296946,46.2533359 36.5585766,45.0216125 37.0682553,43.9508923 L37.3655678,43.3108308 C37.0712185,42.7478137 36.8302077,42.1749191 36.6425353,41.5970858 L35.9056744,41.3461974 C34.4635604,40.8335556 33.5449536,39.5326897 33.5449536,38.0273598 C33.5449536,36.5882091 34.4191117,35.3466083 35.7743037,34.8645866 L36.2820068,34.6492573 C36.3195413,34.5317151 36.3590513,34.4151607 36.3975735,34.299594 C36.5467236,33.8580701 36.686984,33.4382766 36.7136533,33.1399764 L36.5348707,32.0307339 C36.1674279,31.0834823 36.2741048,30.0453578 36.8410729,29.150457 C37.821908,27.5987028 40.0196501,26.8964131 41.6612895,27.6737718 L42.4781581,28.062945 C42.959192,27.8268729 43.4550422,27.6263598 43.9627453,27.4614057 L44.2738863,26.5921863 C44.7667732,25.2043986 46.0380066,24.3075222 47.5117285,24.3075222 C48.9854504,24.3075222 50.2566838,25.2043986 50.7495707,26.5921863 L51.0784912,27.5177074 C51.5535986,27.6796983 52.016853,27.8732972 52.4662789,28.0975162 L53.3611798,27.6747595 C54.9208359,26.9359231 56.8439838,27.5167197 57.7517254,28.9538949 C58.3799339,29.9485584 58.4500641,31.1822573 57.9413732,32.2529775 L57.5186165,33.1409641 C57.7448111,33.5923655 57.9403855,34.0585832 58.1033641,34.5346783 L59.0239464,34.8645866 C60.4117342,35.3584613 61.3086105,36.6296946 61.3086105,38.1024288 C61.3086105,39.575163 60.4117342,40.8454085 59.0239464,41.3392832 L58.1646046,41.6444977 C57.9986627,42.1581274 57.7951863,42.6608917 57.5571387,43.1468644 L57.9403855,43.9508923 C58.4510519,45.0226003 58.3799339,46.2562991 57.7517254,47.2499749 C57.1205536,48.2485895 56.0083479,48.868896 54.8477425,48.868896 L54.8477425,48.868896 C54.3360883,48.8679083 53.8362872,48.7543171 53.3611798,48.5281225 L52.635184,48.183398 C52.1116769,48.4560168 51.5694026,48.6871501 51.0113242,48.872847 L50.7495707,49.6106957 C50.255696,50.9984835 48.9844627,51.8953598 47.5107407,51.8953598 Z M42.3586405,45.074951 C42.6263205,45.074951 42.8920251,45.1470567 43.1271094,45.2892926 C43.8619949,45.7347675 44.6640473,46.0627003 45.5085729,46.2632134 C45.9965211,46.3787801 46.3926085,46.7343698 46.5615137,47.206514 L47.0642781,48.6170199 C47.1571265,48.8777858 47.3586274,48.9330997 47.5107407,48.9330997 C47.6638419,48.9330997 47.8653427,48.8777858 47.9572034,48.6180077 L48.4728085,47.1699672 C48.6377627,46.7047373 49.0239726,46.3530986 49.5020433,46.2316054 C50.307059,46.0261536 51.0794789,45.697233 51.7965849,45.2547214 C52.2232926,44.9919801 52.7556895,44.9623476 53.2100541,45.1766892 L54.6334009,45.8513219 C54.7104453,45.8888564 54.7805755,45.9066359 54.8477425,45.9066359 L54.8477425,45.9066359 C54.9988681,45.9066359 55.1559202,45.811812 55.2467932,45.6676006 C55.3781638,45.4601732 55.2932174,45.2804028 55.2645726,45.2221256 L54.5840134,43.7908769 C54.5682094,43.7572934 54.5405524,43.6930897 54.5277117,43.6575308 C54.3667085,43.2397128 54.3943655,42.7458382 54.6205601,42.356665 C55.0215863,41.6682037 55.3198866,40.9283795 55.5065712,40.1589228 C55.6201624,39.6946806 55.9520462,39.3124217 56.3965333,39.1346268 C56.4123373,39.1277125 56.5150632,39.0862271 56.5308672,39.0812883 L58.0312584,38.5488915 C58.2900487,38.456043 58.3453627,38.2545422 58.3453627,38.1024288 C58.3453627,37.9493276 58.2900487,37.7478268 58.0292829,37.6559661 L56.5367937,37.124557 C56.452835,37.0939368 56.3787538,37.0623288 56.3056604,37.0307208 C55.8957444,36.8469994 55.5836157,36.4864709 55.4690368,36.052849 C55.2744501,35.3179635 54.9781254,34.610735 54.5869766,33.952894 C54.3578188,33.566684 54.3163333,33.0975031 54.4743732,32.6767219 C54.5069689,32.5898 54.5415402,32.5028781 54.5810501,32.4169439 L55.2645726,30.9807564 C55.2922296,30.923467 55.3781638,30.7436966 55.2467932,30.5362692 C55.113447,30.3258786 54.8753994,30.2350057 54.6334009,30.3495846 L53.2031399,31.0301439 C53.1063405,31.0745926 53.0243573,31.1081761 52.9423741,31.139784 C52.5206051,31.3027627 52.048461,31.2602895 51.6602755,31.0301439 C51.00441,30.6419584 50.299157,30.3466214 49.5632838,30.1520348 C49.1257108,30.0364681 48.7641946,29.7263148 48.5834365,29.3114601 C48.5449142,29.2245382 48.5152818,29.1534202 48.4896003,29.0813145 L47.9572034,27.5848744 C47.8653427,27.3250963 47.6648296,27.2707701 47.5117285,27.2707701 C47.3586274,27.2707701 47.1581142,27.3250963 47.0652658,27.5858621 L46.5338567,29.079339 C46.5220037,29.1119348 46.4824937,29.2097219 46.4686652,29.2413299 C46.2839561,29.6650744 45.8997217,30.0058479 45.4512835,30.1164758 C44.6877533,30.3031604 43.9528678,30.6004729 43.2653943,30.9995236 C42.8683191,31.230657 42.3862974,31.2632527 41.9605775,31.0903966 C41.9260063,31.0755803 41.8272313,31.0340949 41.7946356,31.0182909 L40.3890684,30.3495846 C40.0729886,30.1974712 39.551457,30.4088496 39.3460051,30.7338191 C39.2561199,30.8740795 39.2847647,30.9343322 39.3074829,30.9817442 C39.3677356,31.1081761 39.4102088,31.2434977 39.4319393,31.3827704 L39.6620849,32.8130313 C39.6749256,32.8910635 39.6808521,32.9690957 39.6808521,33.0481157 C39.6808521,33.8323886 39.4398413,34.5504823 39.2067325,35.2438823 C39.1119085,35.5263786 39.0131336,35.8157892 38.9370769,36.1111262 C38.8215103,36.5595644 38.503455,36.9279949 38.0767473,37.1077652 L36.8450239,37.6253459 C36.6899473,37.6836231 36.5082014,37.7478268 36.5082014,38.0273598 C36.5082014,38.1182328 36.5338829,38.4254228 36.8815707,38.5488915 L38.3345499,39.0447416 C38.8175593,39.208708 39.181051,39.6097342 39.2976054,40.1055843 C39.4862655,40.8977593 39.8221003,41.6958607 40.2962199,42.4791459 C40.552047,42.9019026 40.5806917,43.4234342 40.3722766,43.8708846 L39.7499946,45.2102726 C39.7164111,45.2804028 39.6324524,45.4581977 39.7628353,45.6636496 C39.8971692,45.8770034 40.1362046,45.9688641 40.3821541,45.8523097 L41.7254932,45.2171869 C41.9260063,45.1213752 42.1433111,45.074951 42.3586405,45.074951 Z M47.4840715,44.5870028 C44.0081818,44.5870028 41.1812433,41.7600644 41.1812433,38.2841746 C41.1812433,34.8092726 44.0081818,31.9823342 47.4840715,31.9823342 C50.9599613,31.9823342 53.7878875,34.8092726 53.7878875,38.2841746 C53.7878875,41.7600644 50.9599613,44.5870028 47.4840715,44.5870028 Z M47.4840715,34.9445943 C45.6429068,34.9445943 44.1444912,36.4420222 44.1444912,38.2841746 C44.1444912,40.1263271 45.6429068,41.6247427 47.4840715,41.6247427 C49.3262239,41.6247427 50.8246396,40.1263271 50.8246396,38.2841746 C50.8246396,36.4420222 49.3262239,34.9445943 47.4840715,34.9445943 Z" id="path-4_11_" fill="#000000"></path>
            </g>
        </g>
    </g>
</svg>