<?xml version="1.0" encoding="UTF-8"?>
<svg width="101px" height="58px" viewBox="0 0 101 58" version="1.1" xmlns="http://www.w3.org/2000/svg" xmlns:xlink="http://www.w3.org/1999/xlink">
    <!-- Generator: sketchtool 47.1 (45422) - http://www.bohemiancoding.com/sketch -->
    <title>6F2B7AC6-C193-4C00-AE65-CFF0DDB49C2C</title>
    <desc>Created with sketchtool.</desc>
    <defs></defs>
    <g id="Page-1" stroke="none" stroke-width="1" fill="none" fill-rule="evenodd">
        <g id="Voice-message" transform="translate(-767.000000, -1244.000000)" fill-rule="nonzero">
            <g id="Group-15" transform="translate(767.000000, 1244.000000)">
                <g id="011-technology-1">
                    <path d="M38.1461509,5.20754717 L14.7182642,5.20754717 C10.2180755,5.20754717 6.14750943,8.99950943 6.14750943,13.4996981 L6.14750943,57.4262264 L15.9333585,45.1320755 L38.145283,45.1320755 C42.6454717,45.1320755 45.2032453,41.4277736 45.2032453,36.926717 L45.2032453,13.4996981 C45.2041132,8.99950943 42.6463396,5.20754717 38.1461509,5.20754717 Z" id="path-1_29_" fill="#F1AD2B"></path>
                    <path d="M1.37392453,55.2564151 C1.2385283,55.2564151 1.10139623,55.2355849 0.968603774,55.1913208 C0.43309434,55.016 0.0720377358,54.5169434 0.0720377358,53.9545283 L0.0720377358,10.028 C0.0720377358,4.68592453 4.48283019,0 9.51071698,0 L32.9386038,0 C38.4429811,0 41.7324151,5.09818868 41.7324151,10.028 L41.7324151,33.4550189 C41.7324151,38.7970943 38.1157736,42.5283019 32.9386038,42.5283019 L11.385434,42.5283019 L2.42324528,54.7252453 C2.17241509,55.0654717 1.78011321,55.2564151 1.37392453,55.2564151 Z M9.51071698,2.60377358 C5.86977358,2.60377358 2.67581132,6.07286792 2.67581132,10.028 L2.67581132,49.9837736 L9.67735849,40.4556981 C9.92298113,40.1215472 10.3118113,39.9245283 10.7266792,39.9245283 L32.9386038,39.9245283 C36.6411698,39.9245283 39.1286415,37.3242264 39.1286415,33.4550189 L39.1286415,10.028 C39.1286415,6.37837736 36.8138868,2.60377358 32.9386038,2.60377358 L9.51071698,2.60377358 Z" id="path-2_29_" fill="#000000"></path>
                    <path d="M12.9997736,33.1503774 C12.6578113,33.1503774 12.3262642,33.0149811 12.0797736,32.7693585 C11.7786038,32.4681887 11.6432075,32.039434 11.718717,31.6202264 L12.4876981,27.3170566 C12.5336981,27.0540755 12.6604151,26.8136604 12.8487547,26.6253208 L23.4356981,16.0375094 C24.1543396,15.3197358 25.1081887,14.9248302 26.1236604,14.9248302 C27.1391321,14.9248302 28.0929811,15.3197358 28.8107547,16.0375094 C30.2931698,17.5199245 30.2931698,19.9310189 28.8107547,21.412566 L18.2238113,32.0003774 C18.0354717,32.188717 17.7941887,32.314566 17.5320755,32.361434 L13.2289057,33.1304151 C13.1516604,33.143434 13.0761509,33.1503774 12.9997736,33.1503774 Z M14.9777736,28.1771698 L14.6089057,30.2384906 L16.6710943,29.8704906 L26.9698868,19.5716981 C27.4368302,19.1047547 27.4368302,18.3461887 26.9698868,17.8792453 C26.5168302,17.4270566 25.7287547,17.4270566 25.276566,17.8792453 L14.9777736,28.1771698 Z" id="path-3_29_" fill="#000000"></path>
                </g>
                <g id="009-technology-2" transform="translate(55.000000, 0.000000)">
                    <path d="M38.1461509,5.20754717 L14.7182642,5.20754717 C10.2180755,5.20754717 6.14750943,8.99950943 6.14750943,13.4996981 L6.14750943,57.4262264 L15.9333585,45.1320755 L38.145283,45.1320755 C42.6463396,45.1320755 45.2032453,41.4277736 45.2032453,36.926717 L45.2032453,13.4996981 C45.2041132,8.99950943 42.6472075,5.20754717 38.1461509,5.20754717 Z" id="path-1_30_" fill="#30CC7B" transform="translate(25.675377, 31.316887) scale(-1, 1) translate(-25.675377, -31.316887) "></path>
                    <path d="M1.37392453,55.2564151 C1.2385283,55.2564151 1.10139623,55.2355849 0.967735849,55.1913208 C0.433962264,55.016 0.0720377358,54.5169434 0.0720377358,53.9545283 L0.0720377358,10.028 C0.0720377358,4.68592453 4.48283019,0 9.51071698,0 L32.9386038,0 C38.4429811,0 41.7324151,5.09818868 41.7324151,10.028 L41.7324151,33.4550189 C41.7324151,38.7970943 38.1166415,42.5283019 32.9386038,42.5283019 L11.385434,42.5283019 L2.42324528,54.7252453 C2.17241509,55.0654717 1.78011321,55.2564151 1.37392453,55.2564151 Z M9.51071698,2.60377358 C5.86977358,2.60377358 2.67581132,6.07286792 2.67581132,10.028 L2.67581132,49.9846415 L9.67735849,40.4556981 C9.92384906,40.1215472 10.3126792,39.9245283 10.7266792,39.9245283 L32.9386038,39.9245283 C36.6411698,39.9245283 39.1286415,37.3242264 39.1286415,33.4550189 L39.1286415,10.028 C39.1286415,6.37837736 36.8130189,2.60377358 32.9386038,2.60377358 L9.51071698,2.60377358 Z" id="path-2_30_" fill="#000000" transform="translate(20.902226, 27.628208) scale(-1, 1) translate(-20.902226, -27.628208) "></path>
                    <path d="M22.7066415,35.2255849 C20.7503396,35.2255849 19.158566,33.6338113 19.158566,31.6775094 C19.158566,29.7220755 20.7503396,28.1303019 22.7066415,28.1303019 C24.6629434,28.1303019 26.254717,29.7220755 26.254717,31.6775094 C26.254717,33.6338113 24.6638113,35.2255849 22.7066415,35.2255849 Z M22.7066415,30.7340755 C22.1858868,30.7340755 21.7623396,31.1567547 21.7623396,31.6775094 C21.7623396,32.1991321 22.1858868,32.6218113 22.7066415,32.6218113 C23.2273962,32.6218113 23.6509434,32.1991321 23.6509434,31.6775094 C23.6509434,31.1567547 23.2282642,30.7340755 22.7066415,30.7340755 Z" id="path-3_30_" fill="#000000"></path>
                    <path d="M24.8078868,32.5471698 C24.0892453,32.5471698 23.506,31.9647925 23.506,31.245283 L23.506,23.4339623 L17.4305283,23.4339623 L17.4305283,31.245283 C17.4305283,31.9647925 16.847283,32.5471698 16.1286415,32.5471698 C15.41,32.5471698 14.8267547,31.9647925 14.8267547,31.245283 L14.8267547,22.1320755 C14.8267547,21.412566 15.41,20.8301887 16.1286415,20.8301887 L24.8078868,20.8301887 C25.5265283,20.8301887 26.1097736,21.412566 26.1097736,22.1320755 L26.1097736,31.245283 C26.1097736,31.9647925 25.5256604,32.5471698 24.8078868,32.5471698 Z" id="path-4_20_" fill="#000000"></path>
                    <path d="M14.1810189,35.2255849 C12.224717,35.2255849 10.6329434,33.6338113 10.6329434,31.6775094 C10.6329434,29.7220755 12.224717,28.1303019 14.1810189,28.1303019 C16.1373208,28.1303019 17.7290943,29.7220755 17.7290943,31.6775094 C17.7290943,33.6338113 16.1373208,35.2255849 14.1810189,35.2255849 Z M14.1810189,30.7340755 C13.6602642,30.7340755 13.236717,31.1567547 13.236717,31.6775094 C13.236717,32.1991321 13.6602642,32.6218113 14.1810189,32.6218113 C14.7009057,32.6218113 15.1253208,32.1991321 15.1253208,31.6775094 C15.1253208,31.1567547 14.7009057,30.7340755 14.1810189,30.7340755 Z" id="path-5_7_" fill="#000000"></path>
                </g>
            </g>
        </g>
    </g>
</svg>