<?xml version="1.0" encoding="UTF-8"?>
<svg width="28px" height="29px" viewBox="0 0 28 29" version="1.1" xmlns="http://www.w3.org/2000/svg" xmlns:xlink="http://www.w3.org/1999/xlink">
    <!-- Generator: Sketch 39.1 (31720) - http://www.bohemiancoding.com/sketch -->
    <title>API icon Copy</title>
    <desc>Created with Sketch.</desc>
    <defs></defs>
    <g id="Page-1" stroke="none" stroke-width="1" fill="none" fill-rule="evenodd">
        <g id="Homepage-Copy" transform="translate(-591.000000, -542.000000)" fill="#777777">
            <g id="API-icon-Copy" transform="translate(591.516854, 542.000000)">
                <path d="M13.3056303,0 L13.479125,0 C14.0897636,0.019848439 14.7024987,0.0757374647 15.2937436,0.235047304 C15.8441045,0.382865942 16.3997069,0.601721099 16.8090706,1.00965875 C17.029215,1.22955856 17.1544876,1.57742857 17.0302633,1.87567749 C16.7907253,2.21257862 16.44426,2.46381808 16.0736836,2.64245403 C15.2161689,3.04673539 14.2543477,3.18671912 13.3129684,3.17836188 C12.179225,3.1559018 11.0114115,2.8978721 10.075798,2.23451637 C9.7602577,2.04334456 9.65333044,1.59414305 9.82263194,1.27291173 C9.95786348,1.00339083 10.2115537,0.817964619 10.4610506,0.660744088 C11.3201378,0.168711732 12.3307053,0.0355182593 13.3056303,0 L13.3056303,0 Z" id="Shape-Copy"></path>
                <path d="M16.9201911,3.84850786 C16.9359157,3.28596131 16.9542611,2.72341476 16.9689374,2.16086822 C17.7289596,2.58343104 18.4784987,3.02688695 19.245335,3.43639159 C20.1101878,3.38729282 20.989717,3.41445384 21.8315071,3.63800994 C22.3949718,3.78844022 22.9678713,4.00886235 23.3824766,4.43351448 C23.6188697,4.67535204 23.7320868,5.0775441 23.541295,5.37892697 C23.2393827,5.78373066 22.7734105,6.0250459 22.3116315,6.20420418 C21.2711873,6.58393615 20.1337747,6.66280758 19.0398669,6.52125687 C18.058652,6.39276435 17.0858236,6.03810408 16.3357603,5.37997163 C16.3174149,5.99631789 16.3011661,6.61318648 16.2828208,7.22953275 C17.0328841,7.98429576 18.082763,8.36455006 19.1247797,8.48886397 C20.2391295,8.61265555 21.400129,8.49252026 22.4300901,8.0328722 C22.8389296,7.84849065 23.21632,7.58993862 23.5156115,7.25460446 C23.5250463,6.79130011 23.5470607,6.32904041 23.5496815,5.86625838 C24.5466209,6.43872915 25.552471,6.99657475 26.5525554,7.56382225 C22.2088974,10.0657702 17.8641911,12.5671959 13.520009,15.0691438 C9.17215776,12.581821 4.82430653,10.0955429 0.476979459,7.60822007 C1.41573793,7.06029869 2.35502056,6.51342196 3.29377904,5.96602291 C3.28172351,6.41209046 3.27019214,6.85868034 3.25761246,7.30474789 C4.06690508,8.11644458 5.2148007,8.49617655 6.33858528,8.58758384 C7.4136236,8.67376785 8.5258768,8.52699387 9.50551922,8.06212253 C9.87557142,7.88087495 10.2183676,7.64008204 10.4904032,7.32877494 C10.5050795,6.69675886 10.5229007,6.06474277 10.5391494,5.43272669 C10.236713,5.83230711 9.78803783,6.08720285 9.32835542,6.26740578 C8.26589678,6.66228525 7.10175241,6.74637996 5.98320937,6.59594968 C5.17653752,6.47999301 4.37510719,6.22823123 3.70104611,5.76283757 C3.50081957,5.64531392 3.36191896,5.4405616 3.30531041,5.21805015 C3.23454972,4.92241288 3.37921602,4.61685138 3.59411885,4.41680001 C4.06742924,3.97647806 4.70008221,3.75814523 5.32120381,3.61920616 C6.0523976,3.45206141 6.80822659,3.43169064 7.55462082,3.46250795 C8.28948368,3.05718194 9.00757363,2.61947162 9.73614665,2.20213208 C9.72042206,2.74169622 9.70417331,3.28126037 9.68844871,3.82082451 C10.5024587,4.63669982 11.6576925,5.01799878 12.788291,5.10522745 C13.8528463,5.18409888 14.953044,5.04254817 15.9232516,4.58342243 C16.2974971,4.40165252 16.6413416,4.15720332 16.9201911,3.84850786 L16.9201911,3.84850786 Z M15.6873827,10.0438325 C14.8062811,10.3305902 13.8649018,10.4078946 12.9439646,10.3326795 C11.847436,10.2381382 10.7378035,9.8897459 9.90177908,9.1522197 C9.88553033,9.76908829 9.86823327,10.3864792 9.85303283,11.0033478 C10.0909984,11.2284709 10.3452127,11.4368795 10.6287796,11.6024573 C11.7488951,12.2470092 13.0970173,12.407886 14.3665165,12.2537995 C15.3587386,12.1195613 16.3970862,11.7931067 17.0842511,11.0284195 C17.0999757,10.3943141 17.1172727,9.76073105 17.1335215,9.12662566 C16.7770973,9.59201932 16.2325021,9.86206256 15.6873827,10.0438325 L15.6873827,10.0438325 Z" id="Shape-Copy-2"></path>
                <path d="M14.6207308,17.2503828 C18.6918291,14.7338097 22.7686931,12.2271608 26.8366465,9.70588668 L26.8366465,21.3281924 C22.9930307,23.483315 19.1420768,25.6253794 15.2963644,27.7763234 C15.0819857,27.9006373 14.8555515,28.0045805 14.6568974,28.1534438 L14.6354071,28.1534438 C14.6112961,27.8583288 14.6228274,27.5621692 14.6207308,27.2665319 C14.6207308,23.9278156 14.6202067,20.5890992 14.6207308,17.2503828 L14.6207308,17.2503828 Z" id="Shape-Copy-3"></path>
                <path d="M0.0723331488,9.96861733 C4.12036871,12.3608766 8.16788013,14.7541804 12.2159157,17.146962 C12.2164398,20.781838 12.2159157,24.416714 12.2159157,28.0515899 C8.14376908,25.7789437 4.07267077,23.5042081 0,21.2315618 L0,17.7105532 C0.0408839537,17.4107373 0.0241110496,17.1093544 0.0288284289,16.8090162 C0.0429805667,14.5290574 0.0571327045,12.2485762 0.0723331488,9.96861733 L0.0723331488,9.96861733 Z" id="Shape-Copy-4"></path>
            </g>
        </g>
    </g>
</svg>