<?xml version="1.0" encoding="UTF-8"?>
<svg width="132px" height="45px" viewBox="0 0 132 45" version="1.1" xmlns="http://www.w3.org/2000/svg" xmlns:xlink="http://www.w3.org/1999/xlink">
    <!-- Generator: Sketch 39.1 (31720) - http://www.bohemiancoding.com/sketch -->
    <title>Android Icon Copy</title>
    <desc>Created with Sketch.</desc>
    <defs>
        <linearGradient x1="58.9170878%" y1="9.59026547%" x2="90.8103723%" y2="60.8514694%" id="linearGradient-1">
            <stop stop-color="#FF177B" offset="0%"></stop>
            <stop stop-color="#FFEC73" offset="100%"></stop>
        </linearGradient>
        <linearGradient x1="37.1029741%" y1="-44.0352456%" x2="0%" y2="101.060094%" id="linearGradient-2">
            <stop stop-color="#064AA2" offset="0%"></stop>
            <stop stop-color="#63FFD4" offset="100%"></stop>
        </linearGradient>
        <path d="M12.422478,11.43 L0.446851726,0 C0.167460593,0.0653568168 0,0.275816699 0,0.63 L0,11.43 L0,22.5 C0,22.800498 0.120289944,22.979287 0.268111036,23.04 L12.422478,11.43 Z" id="path-3"></path>
        <path d="M0.494608608,12.5006678 L7.41652751,8.67142765 C9.1210679,7.72026299 10.4738336,6.96538837 10.4738336,6.96538837 L15.5075601,4.23502043 L12.1563358,0.955716837 L0.00211061953,12.5671615 C0.137580685,12.6110375 0.376350682,12.5870548 0.562629445,12.4944686" id="path-5"></path>
        <linearGradient x1="78.6453125%" y1="50%" x2="2.49516972%" y2="100%" id="linearGradient-7">
            <stop stop-color="#FF4521" offset="0%"></stop>
            <stop stop-color="#8A33DB" offset="100%"></stop>
        </linearGradient>
        <linearGradient x1="0%" y1="-24.1863374%" x2="64.2244373%" y2="100%" id="linearGradient-8">
            <stop stop-color="#00A3B5" offset="0%"></stop>
            <stop stop-color="#D6FFA1" offset="100%"></stop>
        </linearGradient>
        <path d="M1.63712332,1.10321868 C1.4065824,0.978876745 1.17752227,0.943306981 0.9922279,0.993579226 L12.9777968,12.4402063 L16.2936765,9.2801814 L11.2954638,6.49203023 C11.2954638,6.49203023 6.58448626,3.86354107 3.73997036,2.27640734 L1.63712332,1.10321868 Z" id="path-9"></path>
    </defs>
    <g id="Page-1" stroke="none" stroke-width="1" fill="none" fill-rule="evenodd">
        <g id="Homepage-Copy" transform="translate(-867.000000, -549.000000)">
            <g id="Android-Icon-Copy" transform="translate(867.000000, 549.000000)">
                <rect id="background-copy-2" fill="#000000" x="0" y="0" width="132" height="45" rx="4.9"></rect>
                <g id="icon-copy" transform="translate(4.362221, 15.110000)">
                    <path d="M11.7404613,6.49203023 C11.7404613,6.49203023 2.63314108,1.41060233 2.098254,1.11206395 C1.56247693,0.813525581 1.02936984,0.99462093 1.02936984,1.61859302 L1.02936984,12.4663837 L1.02936984,23.5347163 C1.02936984,24.0017988 1.41028776,24.2044105 1.87575522,23.9453186 C2.34033268,23.6862267 11.7404613,18.4407372 11.7404613,18.4407372 C11.7404613,18.4407372 13.0174525,17.7286228 13.655948,17.3725656 C14.6835234,16.7995379 16.7386741,15.6534826 16.7386741,15.6534826 C16.7386741,15.6534826 20.9795009,13.2866919 21.5437578,12.9729128 C22.1071247,12.6582372 22.052835,12.2270151 21.5775776,11.9786814 C21.1014302,11.7312442 16.7386741,9.2801814 16.7386741,9.2801814 L11.7404613,6.49203023 Z" id="orange" fill="url(#linearGradient-1)"></path>
                    <g id="blue" transform="translate(1.000000, 1.000000)">
                        <mask id="mask-4" fill="white">
                            <use xlink:href="#path-3"></use>
                        </mask>
                        <use id="Clip-2" fill="url(#linearGradient-2)" xlink:href="#path-3"></use>
                        <path d="M15.7291808,8.28 L10.7244414,5.49 C10.7069142,5.53059828 1.60314578,0.439837399 1.07244414,0.18 C0.53289918,-0.158335986 0,0.0230919773 0,0.63 L0,11.52 C0,11.5159248 0,22.1357478 0,22.59 C0,23.0725268 0.380769364,23.2755106 0.804333108,23.04 C1.31045157,22.7563751 10.7069142,17.5012513 10.7244414,17.46 L15.7291808,14.67 C15.7031777,14.7088773 19.9423506,12.3377396 20.4658091,12.06 C21.0695347,11.7081306 21.0152662,11.2761165 20.5551794,11.07 C20.0642324,10.779435 15.7031777,8.3238704 15.7291808,8.28" id="Fill-1" mask="url(#mask-4)"></path>
                    </g>
                    <g id="red" transform="translate(1.266628, 11.475349)">
                        <mask id="mask-6" fill="white">
                            <use xlink:href="#path-5"></use>
                        </mask>
                        <g id="Clip-8"></g>
                        <path d="M10.4578137,-4.98534884 C10.4402865,-4.94475056 1.33651807,-10.0355114 0.805816433,-10.2953488 C0.266271469,-10.6336848 -0.266627711,-10.4522569 -0.266627711,-9.84534884 L-0.266627711,1.04465116 C-0.266627711,1.04057593 -0.266627711,11.6603989 -0.266627711,12.1146512 C-0.266627711,12.597178 0.114141653,12.8001617 0.537705397,12.5646512 C1.04382386,12.2810263 10.4402865,7.02590242 10.4578137,6.98465116 L15.4625531,4.19465116 C15.43655,4.23352846 19.6757229,1.86239072 20.1991814,1.58465116 C20.802907,1.23278179 20.7486384,0.800767682 20.2885517,0.594651163 C19.7976047,0.304086178 15.43655,-2.15147844 15.4625531,-2.19534884 L10.4578137,-4.98534884 Z" id="Fill-7" fill="url(#linearGradient-7)" mask="url(#mask-6)"></path>
                    </g>
                    <g id="green" transform="translate(0.444998, 0.000000)">
                        <mask id="mask-10" fill="white">
                            <use xlink:href="#path-9"></use>
                        </mask>
                        <use id="Clip-5" fill="url(#linearGradient-8)" xlink:href="#path-9"></use>
                        <path d="M16.2841832,9.28 L11.2794439,6.49 C11.2619167,6.53059828 2.15814821,1.4398374 1.62744657,1.18 C1.08790161,0.841664014 0.55500243,1.02309198 0.55500243,1.63 L0.55500243,12.52 C0.55500243,12.5159248 0.55500243,23.1357478 0.55500243,23.59 C0.55500243,24.0725268 0.935771794,24.2755106 1.35933554,24.04 C1.865454,23.7563751 11.2619167,18.5012513 11.2794439,18.46 L16.2841832,15.67 C16.2581801,15.7088773 20.497353,13.3377396 21.0208115,13.06 C21.6245371,12.7081306 21.5702686,12.2761165 21.1101818,12.07 C20.6192348,11.779435 16.2581801,9.3238704 16.2841832,9.28" id="Fill-4" mask="url(#mask-10)"></path>
                    </g>
                </g>
                <g id="Google-play-Copy" transform="translate(31.011510, 18.090000)" fill="#FFFFFF">
                    <path d="M59.3968962,13.3082821 L58.407236,14.2542332 C58.1785227,14.3815608 57.9510358,14.5293851 57.724162,14.6343527 C57.0367958,14.9504979 56.3377794,15.03 55.7166358,15.03 C55.055636,15.03 54.0193748,14.9865223 52.9622657,14.2119977 C51.4937179,13.1641845 50.8517265,11.3629644 50.8517265,9.79341857 C50.8517265,6.54376918 53.4632275,4.95 55.5933882,4.95 C56.3377794,4.95 57.1024053,5.13881755 57.724162,5.53694929 C58.7579706,6.22948734 59.0253137,7.12947625 59.1737014,7.61145788 L54.3094053,9.60211658 L52.7163836,9.72758087 C53.2320615,12.3921443 55.0114876,13.9418147 56.9779313,13.9418147 C57.9602334,13.9418147 58.6892953,13.6169739 59.3582663,13.2821955 C59.3582663,13.2821955 59.4925511,13.2113889 59.3968962,13.3082821 L59.3968962,13.3082821 Z M56.4248162,7.96297823 C56.8152052,7.81666049 57.0182803,7.69035201 57.0182803,7.39646596 C57.0182803,6.55357573 56.0938341,5.58 54.9905607,5.58 C54.1734109,5.58 52.6391334,6.23655396 52.6391334,8.51635943 C52.6391334,8.87214914 52.6803546,9.25107457 52.7009652,9.63 L56.4248162,7.96297823 L56.4248162,7.96297823 Z" id="Fill-1"></path>
                    <path d="M49.2453947,13.1942826 C49.2453947,14.0065721 49.3884073,14.1329695 50.0661892,14.1967878 C50.4194425,14.2389203 50.7714735,14.2575082 51.1198375,14.2996407 L50.3571037,14.76 L46.7225059,14.76 C47.1992146,14.1329695 47.2811107,14.0703904 47.2811107,13.6527831 L47.2811107,13.1862279 L47.2731655,0.754667114 L45.6682464,0.754667114 L47.2132714,0 L50.1627532,0 C49.5234747,0.375474771 49.3321801,0.604105449 49.250284,1.33584754 L49.2453947,13.1942826" id="Fill-2"></path>
                    <path d="M43.6063934,5.9757984 C44.0792699,6.37042428 45.0659039,7.20799759 45.0659039,8.79641324 C45.0659039,10.3445609 44.2061839,11.07434 43.3391419,11.7650902 C43.0731107,12.0370537 42.7619275,12.331939 42.7619275,12.7878961 C42.7619275,13.2506677 43.0731107,13.501568 43.2970407,13.6886591 L44.0408296,14.2716151 C44.9450916,15.0466182 45.7694221,15.7571926 45.7694221,17.2006436 C45.7694221,19.1669585 43.8950006,21.15 40.353003,21.15 C37.3693047,21.15 35.9268788,19.7071685 35.9268788,18.1602598 C35.9268788,17.4075589 36.2960276,16.3413876 37.5139134,15.610989 C38.7903749,14.8186397 40.5195776,14.712704 41.4458054,14.6507533 C41.156588,14.2716151 40.8264897,13.8745112 40.8264897,13.226507 C40.8264897,12.872149 40.9314377,12.6608972 41.0327248,12.4118554 C40.8075746,12.4335382 40.5805939,12.4558404 40.3743587,12.4558404 C38.1905844,12.4558404 36.9562242,10.801757 36.9562242,9.17183441 C36.9562242,8.21035973 37.3882198,7.14356887 38.2753971,6.37042428 C39.4493512,5.38912538 40.8490657,5.22 41.9613933,5.22 L46.2044685,5.22 L44.8852956,5.9757984 L43.6063934,5.9757984 L43.6063934,5.9757984 Z M42.1577888,15.2327047 C41.9874053,15.21 41.8852982,15.21 41.6798539,15.21 C41.4916324,15.21 40.3702999,15.2516253 39.5017746,15.5505704 C39.0422928,15.7227477 37.7142857,16.2317113 37.7142857,17.7434657 C37.7142857,19.2520666 39.1480905,20.34 41.3661514,20.34 C43.3590847,20.34 44.4170616,19.3605446 44.4170616,18.0417802 C44.4170616,16.9563696 43.7324521,16.3837067 42.1577888,15.2327047 L42.1577888,15.2327047 Z M42.7400462,11.2063755 C43.2139338,10.7252714 43.2552471,10.0607424 43.2552471,9.68339364 C43.2552471,8.18449782 42.3761248,5.85 40.671952,5.85 C40.1403473,5.85 39.5643916,6.12112289 39.2375306,6.54046787 C38.8906206,6.97463506 38.7867299,7.53787898 38.7867299,8.07950717 C38.7867299,9.47526513 39.5874784,11.79 41.3487608,11.79 C41.8627466,11.79 42.4156155,11.5361697 42.7400462,11.2063755 L42.7400462,11.2063755 Z" id="Fill-3"></path>
                    <path d="M30.7735044,15.03 C27.4935787,15.03 25.7386594,12.4243833 25.7386594,10.065168 C25.7386594,7.3085915 27.9448436,4.95 31.0829083,4.95 C34.1164115,4.95 36.0162492,7.372843 36.0162492,9.91670339 C36.0162492,12.4013027 34.1384244,15.03 30.7735044,15.03 L30.7735044,15.03 Z M33.3385748,13.3258855 C33.839245,12.6502631 33.9607312,11.8069863 33.9607312,10.9849791 C33.9607312,9.12576637 33.091921,5.58 30.5241452,5.58 C29.8412456,5.58 29.1534376,5.85212568 28.6576758,6.29628484 C27.8489952,7.03509043 27.704807,7.96344563 27.704807,8.8742847 C27.704807,10.959956 28.7159647,14.4 31.2254517,14.4 C32.0353595,14.4 32.8618336,14.0002568 33.3385748,13.3258855 L33.3385748,13.3258855 Z" id="Fill-4"></path>
                    <path d="M19.7806027,15.03 C16.4986988,15.03 14.746107,12.4243833 14.746107,10.065168 C14.746107,7.3085915 16.9538221,4.95 20.0919707,4.95 C23.1249027,4.95 25.0236967,7.372843 25.0236967,9.91670339 C25.0236967,12.4013027 23.1475365,15.03 19.7806027,15.03 L19.7806027,15.03 Z M22.3469448,13.3258855 C22.8441775,12.6502631 22.9681787,11.8069863 22.9681787,10.9849791 C22.9681787,9.12576637 22.0964868,5.58 19.5299066,5.58 C18.8442166,5.58 18.1634375,5.85212568 17.6662047,6.29628484 C16.8558996,7.03509043 16.7122546,7.96344563 16.7122546,8.8742847 C16.7122546,10.959956 17.7282054,14.4 20.2346266,14.4 C21.0430901,14.4 21.868742,14.0002568 22.3469448,13.3258855 L22.3469448,13.3258855 Z" id="Fill-5"></path>
                    <path d="M13.3854421,14.4072368 L10.6072735,15.052039 C9.48163629,15.2319114 8.4708349,15.39 7.40046625,15.39 C2.04186792,15.39 0,11.3923508 0,8.26356643 C0,4.44267772 2.89300444,0.9 7.84752786,0.9 C8.89578907,0.9 9.90413407,1.05622138 10.8228211,1.31015893 C12.2788418,1.72467463 12.9598738,2.2356617 13.3854421,2.53503415 L11.7715988,4.08853443 L11.0911809,4.24288862 L11.5763164,3.45929213 C10.9192341,2.80888836 9.71130805,1.60828659 7.41888912,1.60828659 C4.35393791,1.60828659 2.04186792,3.9696568 2.04186792,7.41710794 C2.04186792,11.1197414 4.68186496,14.6026691 8.91605422,14.6026691 C10.1602119,14.6026691 10.8007137,14.349354 11.3822622,14.1128435 L11.3822622,10.9386242 L8.44872746,11.09858 L10.0036176,10.2521215 L14.1205146,10.2521215 L13.6169562,10.7431919 C13.481241,10.8602023 13.4628182,10.9000357 13.4247442,11.0568794 C13.4044791,11.2361295 13.3854421,11.8062441 13.3854421,12.0066556 L13.3854421,14.4072368" id="Fill-6"></path>
                    <path d="M65.3924973,13.4045796 L65.3924973,18.72 L64.3466486,18.72 L64.3466486,5.19428052 L65.3924973,5.19428052 L65.3924973,6.73479386 C66.0738001,5.73911884 67.3187706,4.95 68.7647009,4.95 C71.3581851,4.95 73.1049425,6.93578416 73.1049425,10.0792724 C73.1049425,13.201734 71.3581851,15.2289531 68.7647009,15.2289531 C67.3996446,15.2289531 66.1767307,14.5183751 65.3924973,13.4045796 L65.3924973,13.4045796 Z M72.0324983,10.1603132 C72.0324983,7.76611509 70.8043998,5.94 68.6267851,5.94 C67.2744623,5.94 65.9811769,7.01992022 65.4190928,7.96172564 L65.4190928,12.3370274 C65.9811769,13.2807077 67.2744623,14.4 68.6267851,14.4 C70.8043998,14.4 72.0324983,12.5582611 72.0324983,10.1603132 L72.0324983,10.1603132 Z" id="Fill-7"></path>
                    <polygon id="Fill-8" points="74.534868 1.44 75.6073121 1.44 75.6073121 15.03 74.534868 15.03"></polygon>
                    <path d="M87.2668597,17.7840986 C87.4905044,17.8849257 87.8722322,17.9467827 88.1142587,17.9467827 C88.7539438,17.9467827 89.199395,17.6826531 89.5995045,16.7498486 L90.3623474,15.004861 L86.2423832,5.13 L87.409012,5.13 L90.9432109,13.6873056 L94.4430971,5.13 L95.6262695,5.13 L90.6013102,17.0770725 C90.0798811,18.3080279 89.259442,18.9 88.1326404,18.9 C87.7944161,18.9 87.3483522,18.8393801 87.0873312,18.7583473 L87.2668597,17.7840986" id="Fill-9"></path>
                    <path d="M84.3153351,15.0165911 C84.2450872,14.6751715 84.1920931,14.3741751 84.1532719,14.1229301 C84.121229,13.8723069 84.1027426,13.6160868 84.1027426,13.3555134 C83.7422597,13.88972 83.2314215,14.3343739 82.578855,14.6844999 C81.9256723,15.0371136 81.3051487,15.21 80.4541625,15.21 C79.4294051,15.21 78.6338778,14.9556455 78.0663483,14.4394739 C77.5006674,13.9239241 77.2159783,13.2255376 77.2159783,12.3418269 C77.2159783,11.4593599 77.6282229,10.7429385 78.4502472,10.1950503 C79.2722715,9.64467451 80.3346178,9.37104134 81.6496102,9.37104134 L84.1027426,9.37104134 L84.1027426,8.1477767 C84.1027426,7.44317129 83.8648855,6.88906413 83.3897875,6.48732089 C82.9128409,6.08495575 82.2436367,5.88159656 81.3760129,5.88159656 C80.5829504,5.88159656 79.9396271,6.06754273 79.44974,6.42948479 C78.9641664,6.79888956 78.719531,7.25660322 78.719531,7.80822281 L77.6430119,7.80822281 L77.6208284,7.75536186 C77.5820071,7.01157716 77.9190741,6.35921081 78.6357265,5.79577525 C79.3492978,5.23296157 80.2840885,4.95 81.4345528,4.95 C82.5813199,4.95 83.5093323,5.22860832 84.2087308,5.78458116 C84.9075131,6.33495696 85.2581366,7.13035883 85.2581366,8.17016487 L85.2581366,13.0271536 C85.2581366,13.3760359 85.2747743,13.7131022 85.317909,14.041462 C85.3622761,14.3704437 85.4331403,14.6988035 85.5274204,15.0165911 L84.3153351,15.0165911 L84.3153351,15.0165911 Z M80.5807093,14.31 C81.4734508,14.31 82.1149932,14.1074687 82.7706964,13.7067819 C83.4220898,13.3085955 83.8653821,12.7891403 84.0974949,12.1602933 L84.0974949,10.26 L81.6347599,10.26 C80.6939951,10.26 79.9151552,10.4712826 79.3025498,10.8975984 C78.6887131,11.322664 78.3777928,11.8371184 78.3777928,12.4353357 C78.3777928,12.9997978 78.5748116,13.4511175 78.9663865,13.7930452 C79.3591927,14.1387236 79.896069,14.31 80.5807093,14.31 L80.5807093,14.31 Z" id="Fill-10"></path>
                </g>
                <g id="Get-it-on-Copy" transform="translate(30.654028, 6.200000)" fill="#FFFFFF">
                    <path d="M0.00379565173,4.17799064 C0.00379565173,2.23938469 1.5410346,0.992355212 3.45257923,0.992355212 C4.7337143,0.992355212 5.57159264,1.56511204 6.09365056,2.26649403 L5.15788636,2.77464989 C4.80328098,2.31263758 4.18210593,1.95329467 3.45257923,1.95329467 C2.1523595,1.95329467 1.18642922,2.8761657 1.18642922,4.17799064 C1.18642922,5.46078137 2.1523595,6.40268662 3.45257923,6.40268662 C4.12300503,6.40268662 4.714014,6.1165966 5.00951848,5.848964 L5.00951848,4.89783005 L3.03887296,4.89783005 L3.03887296,3.94669609 L6.15275146,3.94669609 L6.15275146,6.24579854 C5.51249174,6.92007119 4.58596206,7.37227799 3.45257923,7.37227799 C1.5410346,7.37227799 0.00379565173,6.10794468 0.00379565173,4.17799064" id="Fill-1"></path>
                    <polyline id="Fill-2" points="7.64340741 7.2784556 7.64340741 1.08617761 12.2085413 1.08617761 12.2085413 2.04311857 8.81230634 2.04311857 8.81230634 3.63918011 12.1386445 3.63918011 12.1386445 4.59554111 8.81230634 4.59554111 8.81230634 6.3220946 12.2085413 6.3220946 12.2085413 7.2784556 7.64340741 7.2784556"></polyline>
                    <polyline id="Fill-3" points="15.3131397 7.2784556 15.3131397 2.04311857 13.3265332 2.04311857 13.3265332 1.08617761 18.4506631 1.08617761 18.4506631 2.04311857 16.4640565 2.04311857 16.4640565 7.2784556 15.3131397 7.2784556"></polyline>
                    <polygon id="Fill-4" points="22.5499669 1.08617761 23.6679589 1.08617761 23.6679589 7.2784556 22.5499669 7.2784556"></polygon>
                    <polyline id="Fill-5" points="26.8663379 7.2784556 26.8663379 2.04311857 24.8791169 2.04311857 24.8791169 1.08617761 30.0032467 1.08617761 30.0032467 2.04311857 28.0172547 2.04311857 28.0172547 7.2784556 26.8663379 7.2784556"></polyline>
                    <path d="M33.8230526,4.18260542 C33.8230526,2.3422764 35.2291278,0.992355212 37.223923,0.992355212 C39.2075044,0.992355212 40.6241704,2.3422764 40.6241704,4.18260542 C40.6241704,6.0223568 39.2075044,7.37227799 37.223923,7.37227799 C35.2291278,7.37227799 33.8230526,6.0223568 33.8230526,4.18260542 L33.8230526,4.18260542 Z M39.4130124,4.13540541 C39.4130124,2.87264647 38.551487,1.93057915 37.2239209,1.93057915 C35.8864523,1.93057915 35.0342105,2.87264647 35.0342105,4.13540541 C35.0342105,5.38844641 35.8864523,6.34023166 37.2239209,6.34023166 C38.551487,6.34023166 39.4130124,5.38844641 39.4130124,4.13540541 L39.4130124,4.13540541 Z" id="Fill-6"></path>
                    <polyline id="Fill-7" points="46.5004253 7.2784556 43.0783875 2.85042877 43.0783875 7.2784556 41.9284943 7.2784556 41.9284943 1.08617761 43.1084862 1.08617761 46.4611127 5.37559299 46.4611127 1.08617761 47.6116201 1.08617761 47.6116201 7.2784556 46.5004253 7.2784556"></polyline>
                </g>
            </g>
        </g>
    </g>
</svg>