<?xml version="1.0" encoding="UTF-8"?>
<svg width="132px" height="45px" viewBox="0 0 132 45" version="1.1" xmlns="http://www.w3.org/2000/svg" xmlns:xlink="http://www.w3.org/1999/xlink">
    <!-- Generator: Sketch 39.1 (31720) - http://www.bohemiancoding.com/sketch -->
    <title>App Store Icon Copy</title>
    <desc>Created with Sketch.</desc>
    <defs></defs>
    <g id="Page-1" stroke="none" stroke-width="1" fill="none" fill-rule="evenodd">
        <g id="Homepage-Copy" transform="translate(-695.000000, -549.000000)">
            <g id="App-Store-Icon-Copy" transform="translate(695.000000, 549.000000)">
                <rect id="background-copy" fill="#000000" x="0" y="0" width="132" height="45" rx="4.9"></rect>
                <path d="M28.8970759,21.4698807 C28.8683156,18.2509972 31.514266,16.6849999 31.6352578,16.6120932 C30.1367454,14.4119069 27.8141007,14.1112914 26.9979024,14.087322 C25.0471586,13.8805864 23.1549272,15.2628187 22.1612082,15.2628187 C21.1476544,15.2628187 19.6174065,14.1072965 17.9681503,14.141253 C15.8458363,14.1742109 13.8603817,15.4116284 12.7714561,17.333171 C10.5241834,21.2511604 12.2002164,27.0087971 14.3532743,30.175747 C15.4302991,31.7277622 16.6888115,33.4585488 18.3360842,33.3976267 C19.9476544,33.331711 20.5496379,32.3629499 22.4944313,32.3629499 C24.4213735,32.3629499 24.9866627,33.3976267 26.6666627,33.3576778 C28.3962495,33.331711 29.4851751,31.800669 30.524514,30.2346717 C31.7691421,28.4589426 32.2689768,26.7061841 32.2888115,26.6162991 C32.2491421,26.6033157 28.9307949,25.3279467 28.8970759,21.4698807" id="Fill-2-Copy" fill="#FFFFFF"></path>
                <path d="M25.7235222,12.0039863 C26.5902991,10.9123823 27.1833569,9.42728159 27.0187288,7.92020894 C25.7641834,7.97613742 24.1952578,8.79409136 23.2917867,9.861726 C22.4924478,10.8025228 21.7783982,12.3445508 21.9628611,13.7946962 C23.3721173,13.9005609 24.8190594,13.078612 25.7235222,12.0039863" id="Fill-3-Copy" fill="#FFFFFF"></path>
                <path d="M52.2395553,33.1749115 L49.9873239,33.1749115 L48.7536049,29.2709042 L44.4653404,29.2709042 L43.2901338,33.1749115 L41.0974065,33.1749115 L45.3469933,19.8839089 L47.9711255,19.8839089 L52.2395553,33.1749115 L52.2395553,33.1749115 Z M48.381704,27.6329989 L47.2660016,24.163436 C47.147985,23.8078907 46.9258363,22.9729585 46.600547,21.6586393 L46.5608776,21.6586393 C46.4299685,22.2239164 46.2207123,23.0588486 45.9341007,24.163436 L44.8372412,27.6329989 L48.381704,27.6329989 L48.381704,27.6329989 Z" id="Fill-4-Copy" fill="#FFFFFF"></path>
                <path d="M63.1466627,28.2651904 C63.1466627,29.8951059 62.7073239,31.1834583 61.8276544,32.1292488 C61.0402164,32.9711721 60.0613735,33.3916343 58.8941007,33.3916343 C57.6336049,33.3916343 56.7271586,32.9392129 56.1767454,32.0313739 L56.1767454,37.0599431 L54.0623652,37.0599431 L54.0623652,26.7411394 C54.0623652,25.7174486 54.0355883,24.667791 53.9840181,23.5911678 L55.8435222,23.5911678 L55.9615387,25.1112239 L56.0012082,25.1112239 C56.7063321,23.9656889 57.7764148,23.3934207 59.2124478,23.3934207 C60.3350925,23.3934207 61.2722825,23.8398498 62.0220346,24.7337067 C62.7707949,25.629561 63.1466627,26.8060564 63.1466627,28.2651904 L63.1466627,28.2651904 Z M60.9926131,28.3430908 C60.9926131,27.4102837 60.7843487,26.6412672 60.3658363,26.0360412 C59.9086462,25.4058471 59.2947619,25.089252 58.5251751,25.089252 C58.0035222,25.089252 57.5294726,25.2650272 57.1060016,25.6125827 C56.6815387,25.961137 56.4038528,26.4175533 56.2739354,26.9838291 C56.2084809,27.2464932 56.1757536,27.4612186 56.1757536,27.6310014 L56.1757536,29.2309553 C56.1757536,29.9260663 56.387985,30.514314 56.8124478,30.9956984 C57.2369106,31.4750853 57.7883156,31.7157775 58.4666627,31.7157775 C59.2630263,31.7157775 59.8828611,31.4051748 60.3261668,30.7889628 C60.7704644,30.1707534 60.9926131,29.3557956 60.9926131,28.3430908 L60.9926131,28.3430908 Z" id="Fill-5-Copy-2" fill="#FFFFFF"></path>
                <path d="M74.0924478,28.2651904 C74.0924478,29.8951059 73.653109,31.1834583 72.7734396,32.1292488 C71.9850098,32.9711721 71.0071586,33.3916343 69.8388941,33.3916343 C68.57939,33.3916343 67.6729437,32.9392129 67.1215387,32.0313739 L67.1215387,37.0599431 L65.0071586,37.0599431 L65.0071586,26.7411394 C65.0071586,25.7174486 64.9803817,24.667791 64.9288115,23.5911678 L66.7883156,23.5911678 L66.9063321,25.1112239 L66.9460016,25.1112239 C67.6501338,23.9656889 68.7202164,23.3934207 70.1572412,23.3934207 C71.2788941,23.3934207 72.2170759,23.8398498 72.9678197,24.7337067 C73.7155883,25.629561 74.0924478,26.8060564 74.0924478,28.2651904 L74.0924478,28.2651904 Z M71.9374065,28.3430908 C71.9374065,27.4102837 71.7281503,26.6412672 71.3096379,26.0360412 C70.8534396,25.4058471 70.240547,25.089252 69.4709602,25.089252 C68.9493073,25.089252 68.4752578,25.2650272 68.0498032,25.6125827 C67.6263321,25.961137 67.3486462,26.4175533 67.2187288,26.9838291 C67.154266,27.2464932 67.1195553,27.4612186 67.1195553,27.6310014 L67.1195553,29.2309553 C67.1195553,29.9260663 67.3327784,30.514314 67.7552578,30.9956984 C68.1797206,31.4740866 68.7311255,31.7157775 69.4114561,31.7157775 C70.2088115,31.7157775 70.8286462,31.4051748 71.2709602,30.7889628 C71.7152578,30.1707534 71.9374065,29.3557956 71.9374065,28.3430908 L71.9374065,28.3430908 Z" id="Fill-6-Copy" fill="#FFFFFF"></path>
                <path d="M86.3304644,29.4476781 C86.3304644,30.5782323 85.9387288,31.498056 85.1572412,32.2081479 C84.2983982,32.9831567 83.09939,33.3716599 81.5621999,33.3716599 C80.1420346,33.3716599 79.0035222,33.0960124 78.1446792,32.5437187 L78.6336049,30.7689884 C79.5608776,31.321282 80.57939,31.5979282 81.6881503,31.5979282 C82.4855057,31.5979282 83.1053404,31.4161607 83.5476544,31.0556218 C83.991952,30.6930854 84.2150925,30.2107023 84.2150925,29.6074738 C84.2150925,29.0671648 84.0306297,28.6137446 83.665671,28.2452159 C83.2997206,27.8786847 82.6947619,27.535124 81.8458363,27.2215251 C79.5350925,26.353635 78.3787288,25.0832597 78.3787288,23.4143939 C78.3787288,22.3237887 78.7873239,21.4309305 79.6015387,20.7328233 C80.4167454,20.0357148 81.4977371,19.6871606 82.8425305,19.6871606 C84.0435222,19.6871606 85.0441834,19.8978911 85.8385635,20.3183533 L85.307985,22.0541335 C84.5602164,21.6466546 83.7162495,21.4429152 82.7721173,21.4429152 C82.0263321,21.4429152 81.4402164,21.6276789 81.0226958,21.9952089 C80.6706297,22.3237887 80.4911255,22.7242765 80.4911255,23.1996685 C80.4911255,23.723998 80.6944313,24.1594411 81.1000511,24.5000056 C81.4511255,24.815602 82.0917867,25.1581639 83.0180677,25.5256938 C84.1545966,25.9871038 84.9886462,26.5244166 85.5241834,27.1416273 C86.0626958,27.7588379 86.3304644,28.5288532 86.3304644,29.4476781" id="Fill-7-Copy" fill="#FFFFFF"></path>
                <path d="M93.3390594,25.1891243 L91.0084809,25.1891243 L91.0084809,29.8421736 C91.0084809,31.0256601 91.4190594,31.6159053 92.2421999,31.6159053 C92.6200511,31.6159053 92.9334396,31.5839461 93.1813735,31.5170317 L93.2398859,33.1339639 C92.8233569,33.2907633 92.2749272,33.3696624 91.5965801,33.3696624 C90.760547,33.3696624 90.1089768,33.111992 89.6369106,32.5996472 C89.166828,32.0863037 88.9317867,31.2264034 88.9317867,30.0159514 L88.9317867,25.1851294 L87.5443487,25.1851294 L87.5443487,23.587173 L88.9317867,23.587173 L88.9317867,21.8324171 L91.0084809,21.2012243 L91.0084809,23.587173 L93.3390594,23.587173 L93.3390594,25.1891243" id="Fill-8-Copy" fill="#FFFFFF"></path>
                <path d="M103.833605,28.3041406 C103.833605,29.7772566 103.416084,30.9867099 102.580051,31.9325004 C101.706332,32.9052563 100.544018,33.3916343 99.0950925,33.3916343 C97.6967454,33.3916343 96.5850098,32.9252308 95.7559189,31.9924237 C94.926828,31.0596167 94.5122825,29.8831213 94.5122825,28.4639362 C94.5122825,26.9788355 94.941704,25.7623911 95.7945966,24.8166007 C96.6494726,23.8708102 97.8018693,23.3964169 99.2507949,23.3964169 C100.64815,23.3964169 101.768811,23.8648179 102.618729,24.7966262 C103.429968,25.7024678 103.833605,26.8699747 103.833605,28.3041406 L103.833605,28.3041406 Z M101.641869,28.353078 C101.641869,27.4752007 101.45344,26.7221637 101.075588,26.0919696 C100.632283,25.3309429 99.9965801,24.9514282 99.175423,24.9514282 C98.3294726,24.9514282 97.6779024,25.3309429 97.2365801,26.0919696 C96.8567454,26.7221637 96.6693073,27.4881841 96.6693073,28.3930269 C96.6693073,29.2719029 96.8567454,30.0269373 97.2365801,30.6541352 C97.6937702,31.4161607 98.3314561,31.7966741 99.1585635,31.7966741 C99.9658363,31.7966741 100.599555,31.4071722 101.058729,30.6361582 C101.446497,29.9909833 101.641869,29.2329527 101.641869,28.353078 L101.641869,28.353078 Z" id="Fill-9-Copy" fill="#FFFFFF"></path>
                <path d="M110.709307,25.463773 C110.500051,25.4248228 110.275919,25.4058471 110.042861,25.4058471 C109.299059,25.4058471 108.723853,25.6864882 108.319225,26.2537627 C107.967159,26.7531241 107.791621,27.3843169 107.791621,28.1463424 L107.791621,33.1749115 L105.677241,33.1749115 L105.677241,26.609308 C105.677241,25.5057194 105.656415,24.4980081 105.615754,23.5921666 L107.457407,23.5921666 L107.534762,25.4258216 L107.593274,25.4258216 C107.817407,24.7956275 108.168481,24.2872776 108.650464,23.907763 C109.12253,23.5642023 109.630299,23.3934207 110.178729,23.3934207 C110.374101,23.3934207 110.55063,23.4084016 110.707324,23.4323709 L110.709307,25.463773" id="Fill-10-Copy" fill="#FFFFFF"></path>
                <path d="M120.165506,27.9296195 C120.165506,28.3111316 120.140712,28.6327204 120.08815,28.8953844 L113.746002,28.8953844 C113.768811,29.8421736 114.077241,30.5672464 114.66534,31.0666077 C115.199886,31.5120381 115.892117,31.735752 116.740051,31.735752 C117.679225,31.735752 118.536084,31.5859436 119.306663,31.2823319 L119.637902,32.7604415 C118.737407,33.154937 117.673274,33.3526841 116.447489,33.3526841 C114.971787,33.3526841 113.81344,32.9152436 112.970464,32.0423599 C112.130464,31.1684775 111.707985,29.9929808 111.707985,28.5228609 C111.707985,27.0787077 112.098729,25.8752468 112.884183,24.9154742 C113.70534,23.8907847 114.815092,23.3784399 116.211456,23.3784399 C117.583026,23.3784399 118.621373,23.8907847 119.325506,24.9154742 C119.884845,25.7274358 120.165506,26.7341484 120.165506,27.9296195 L120.165506,27.9296195 Z M118.149307,27.3773258 C118.164183,26.7451343 118.02534,26.2018292 117.738729,25.7404192 C117.372778,25.1471779 116.809473,24.851556 116.054762,24.851556 C115.36253,24.851556 114.800216,25.1401869 114.371787,25.7194461 C114.019721,26.1798573 113.810464,26.7341484 113.746002,27.3753284 L118.149307,27.3773258 L118.149307,27.3773258 Z" id="Fill-11-Copy" fill="#FFFFFF"></path>
                <path d="M47.3621999,15.1269924 L46.2544313,15.1269924 L45.6484809,13.208446 L43.5410429,13.208446 L42.9628611,15.1269924 L41.8848445,15.1269924 L43.9734396,8.59434681 L45.2626958,8.59434681 L47.3621999,15.1269924 L47.3621999,15.1269924 Z M45.4660016,12.4034754 L44.9175718,10.6976569 C44.8600511,10.5228805 44.7539354,10.1164003 44.5902991,9.4672305 L44.5704644,9.4672305 C44.5030263,9.7478716 44.406828,10.1553505 44.2620346,10.6976569 L43.7235222,12.4034754 L45.4660016,12.4034754 L45.4660016,12.4034754 Z" id="Fill-12-Copy" fill="#FFFFFF"></path>
                <path d="M52.5846792,10.4170159 L50.8134396,15.1269924 L49.8028611,15.1269924 L48.0891421,10.4170159 L49.2058363,10.4170159 L50.0051751,12.9078304 C50.1400511,13.3242978 50.2550925,13.7217895 50.3413735,14.0993067 L50.3701338,14.0993067 C50.4474892,13.7607397 50.5625305,13.363248 50.7063321,12.9078304 L51.4957536,10.4170159 L52.5846792,10.4170159" id="Fill-13-Copy" fill="#FFFFFF"></path>
                <path d="M56.3552578,15.1269924 L56.2779024,14.584686 L56.2491421,14.584686 C55.9317867,15.0211278 55.4696379,15.2338557 54.8825305,15.2338557 C54.0455057,15.2338557 53.4484809,14.6426119 53.4484809,13.8476285 C53.4484809,12.6851153 54.4491421,12.0838841 56.181704,12.0838841 L56.181704,11.9969953 C56.181704,11.3767884 55.8544313,11.0661856 55.2098032,11.0661856 C54.7476544,11.0661856 54.3430263,11.1830362 53.987985,11.4157386 L53.7767454,10.7276186 C54.2101338,10.455966 54.7486462,10.3201397 55.3843487,10.3201397 C56.6061668,10.3201397 57.2230263,10.9693095 57.2230263,12.2686479 L57.2230263,14.0034293 C57.2230263,14.4788213 57.2428611,14.84735 57.2904644,15.1279911 L56.3552578,15.1269924 L56.3552578,15.1269924 Z M56.2104644,12.7809926 C55.0550925,12.7809926 54.4779024,13.0626325 54.4779024,13.730778 C54.4779024,14.2251458 54.7764148,14.4668367 55.1899685,14.4668367 C55.7195553,14.4668367 56.2104644,14.0603565 56.2104644,13.5080628 L56.2104644,12.7809926 L56.2104644,12.7809926 Z" id="Fill-14-Copy" fill="#FFFFFF"></path>
                <path d="M59.5377371,9.64100826 C59.1916214,9.64100826 58.9218693,9.36935567 58.9218693,9.0108142 C58.9218693,8.65227273 59.200547,8.39060736 59.5575718,8.39060736 C59.9136049,8.39060736 60.2021999,8.65227273 60.1922825,9.0108142 C60.1922825,9.38933013 59.9235222,9.64100826 59.5377371,9.64100826 L59.5377371,9.64100826 Z M59.0379024,10.4170159 L60.0772412,10.4170159 L60.0772412,15.1269924 L59.0379024,15.1269924 L59.0379024,10.4170159 Z" id="Fill-15-Copy" fill="#FFFFFF"></path>
                <polygon id="Fill-16-Copy" fill="#FFFFFF" points="61.9238528 8.25577979 62.9631916 8.25577979 62.9631916 15.1269924 61.9238528 15.1269924"></polygon>
                <path d="M67.3803817,15.1269924 L67.3020346,14.584686 L67.274266,14.584686 C66.9569106,15.0211278 66.4947619,15.2338557 65.9076544,15.2338557 C65.0706297,15.2338557 64.4736049,14.6426119 64.4736049,13.8476285 C64.4736049,12.6851153 65.474266,12.0838841 67.206828,12.0838841 L67.206828,11.9969953 C67.206828,11.3767884 66.8795553,11.0661856 66.2349272,11.0661856 C65.7727784,11.0661856 65.3681503,11.1830362 65.013109,11.4157386 L64.8008776,10.7266199 C65.234266,10.4549673 65.7727784,10.319141 66.4084809,10.319141 C67.6302991,10.319141 68.2481503,10.9683108 68.2481503,12.2676491 L68.2481503,14.0024306 C68.2481503,14.4778226 68.267985,14.8463513 68.3136049,15.1269924 L67.3803817,15.1269924 L67.3803817,15.1269924 Z M67.2355883,12.7809926 C66.0802164,12.7809926 65.5030263,13.0626325 65.5030263,13.730778 C65.5030263,14.2251458 65.8015387,14.4668367 66.2150925,14.4668367 C66.7446792,14.4668367 67.2355883,14.0603565 67.2355883,13.5080628 L67.2355883,12.7809926 L67.2355883,12.7809926 Z" id="Fill-17-Copy" fill="#FFFFFF"></path>
                <path d="M72.4580677,15.2338557 C71.7945966,15.2338557 71.3046792,14.9522159 70.9863321,14.3999222 L70.9664974,14.3999222 L70.9069933,15.1269924 L70.0223652,15.1269924 C70.0501338,14.7494752 70.0600511,14.3220219 70.0600511,13.8576158 L70.0600511,8.25577979 L71.1013735,8.25577979 L71.1013735,11.1061346 L71.1202164,11.1061346 C71.4286462,10.5828038 71.9284809,10.3211385 72.6117867,10.3211385 C73.7383982,10.3211385 74.5278197,11.2908983 74.5278197,12.7050897 C74.5278197,14.1672198 73.6511255,15.2338557 72.4580677,15.2338557 L72.4580677,15.2338557 Z M72.246828,11.1430873 C71.6488115,11.1430873 71.1013735,11.666418 71.1013735,12.3934882 L71.1013735,13.2174345 C71.1013735,13.8666043 71.5932743,14.3999222 72.227985,14.3999222 C73.0064974,14.3999222 73.4706297,13.7607397 73.4706297,12.7430412 C73.4696379,11.7932558 72.9876544,11.1430873 72.246828,11.1430873 L72.246828,11.1430873 Z" id="Fill-18-Copy" fill="#FFFFFF"></path>
                <polygon id="Fill-19-Copy" fill="#FFFFFF" points="76.0660016 8.25577979 77.1043487 8.25577979 77.1043487 15.1269924 76.0660016 15.1269924"></polygon>
                <path d="M82.7612082,13.0236823 L79.6412082,13.0236823 C79.6620346,13.9155417 80.2471586,14.418898 81.1129437,14.418898 C81.5760842,14.418898 81.9995553,14.3409976 82.3744313,14.1961828 L82.5360842,14.923253 C82.0937702,15.1170052 81.5741007,15.2138813 80.9681503,15.2138813 C79.5043487,15.2138813 78.6385635,14.2830717 78.6385635,12.8399173 C78.6385635,11.3957642 79.5251751,10.3101525 80.8521173,10.3101525 C82.0441834,10.3101525 82.7969106,11.2020119 82.7969106,12.549289 C82.7998859,12.7330539 82.7909602,12.8978432 82.7612082,13.0236823 L82.7612082,13.0236823 Z M81.8091421,12.2776364 C81.8091421,11.5505662 81.4421999,11.0372227 80.7777371,11.0372227 C80.1807123,11.0372227 79.7106297,11.5605534 79.6412082,12.2776364 L81.8091421,12.2776364 L81.8091421,12.2776364 Z" id="Fill-20-Copy" fill="#FFFFFF"></path>
                <path d="M89.0607123,15.2338557 C87.6941007,15.2338557 86.8084809,14.20617 86.8084809,12.8109543 C86.8084809,11.356814 87.7129437,10.3201397 89.1390594,10.3201397 C90.4848445,10.3201397 91.3912908,11.2988881 91.3912908,12.7340527 C91.3912908,14.20617 90.4570759,15.2338557 89.0607123,15.2338557 L89.0607123,15.2338557 Z M89.1003817,11.0851614 C88.3496379,11.0851614 87.8686462,11.7922571 87.8686462,12.7809926 C87.8686462,13.7507524 88.3595553,14.4578482 89.0904644,14.4578482 C89.8213735,14.4578482 90.3122825,13.701815 90.3122825,12.7610182 C90.3122825,11.8022443 89.8312908,11.0851614 89.1003817,11.0851614 L89.1003817,11.0851614 Z" id="Fill-21-Copy" fill="#FFFFFF"></path>
                <path d="M96.9787288,15.1269924 L95.9413735,15.1269924 L95.9413735,12.4224512 C95.9413735,11.5895164 95.6230263,11.1720503 94.9972412,11.1720503 C94.3813735,11.1720503 93.9569106,11.7053682 93.9569106,12.3255751 L93.9569106,15.1269924 L92.9195553,15.1269924 L92.9195553,11.7632941 C92.9195553,11.3468267 92.9076544,10.9003977 92.8798859,10.4160171 L93.794266,10.4160171 L93.8428611,11.1430873 L93.8726131,11.1430873 C94.1493073,10.639731 94.7185635,10.319141 95.354266,10.319141 C96.3341007,10.319141 96.9787288,11.0751742 96.9787288,12.3056006 L96.9787288,15.1269924" id="Fill-22-Copy" fill="#FFFFFF"></path>
                <path d="M103.779059,11.2020119 L102.635588,11.2020119 L102.635588,13.4890871 C102.635588,14.0713424 102.836911,14.3619708 103.240547,14.3619708 C103.423026,14.3619708 103.578729,14.3419963 103.702696,14.3130334 L103.731456,15.1080167 C103.529142,15.1859171 103.258398,15.2248672 102.924183,15.2248672 C102.104018,15.2248672 101.616084,14.7694497 101.616084,13.5769747 L101.616084,11.2020119 L100.934762,11.2020119 L100.934762,10.4170159 L101.616084,10.4170159 L101.616084,9.55411938 L102.635588,9.2435166 L102.635588,10.4160171 L103.779059,10.4160171 L103.779059,11.2020119" id="Fill-23-Copy" fill="#FFFFFF"></path>
                <path d="M109.283192,15.1269924 L108.242861,15.1269924 L108.242861,12.4424256 C108.242861,11.5995036 107.924514,11.173049 107.299721,11.173049 C106.761208,11.173049 106.261373,11.5415777 106.261373,12.2876236 L106.261373,15.1269924 L105.221043,15.1269924 L105.221043,8.25577979 L106.261373,8.25577979 L106.261373,11.0851614 L106.281208,11.0851614 C106.607489,10.5718179 107.080547,10.319141 107.686497,10.319141 C108.677241,10.319141 109.283192,11.0941499 109.283192,12.3255751 L109.283192,15.1269924" id="Fill-24-Copy" fill="#FFFFFF"></path>
                <path d="M114.593935,13.0236823 L111.474927,13.0236823 C111.494762,13.9155417 112.079886,14.418898 112.946663,14.418898 C113.410795,14.418898 113.833274,14.3409976 114.206167,14.1961828 L114.368811,14.923253 C113.927489,15.1170052 113.406828,15.2138813 112.799886,15.2138813 C111.337076,15.2138813 110.471291,14.2830717 110.471291,12.8399173 C110.471291,11.3957642 111.356911,10.3101525 112.683853,10.3101525 C113.876911,10.3101525 114.628646,11.2020119 114.628646,12.549289 C114.632613,12.7330539 114.622696,12.8978432 114.593935,13.0236823 L114.593935,13.0236823 Z M113.640878,12.2776364 C113.640878,11.5505662 113.275919,11.0372227 112.611456,11.0372227 C112.014431,11.0372227 111.543357,11.5605534 111.474927,12.2776364 L113.640878,12.2776364 L113.640878,12.2776364 Z" id="Fill-25-Copy-2" fill="#FFFFFF"></path>
            </g>
        </g>
    </g>
</svg>