<?xml version="1.0" encoding="UTF-8"?>
<svg width="24px" height="35px" viewBox="0 0 24 35" version="1.1" xmlns="http://www.w3.org/2000/svg" xmlns:xlink="http://www.w3.org/1999/xlink">
    <!-- Generator: Sketch 39.1 (31720) - http://www.bohemiancoding.com/sketch -->
    <title>Interactive Icon Copy</title>
    <desc>Created with Sketch.</desc>
    <defs></defs>
    <g id="Page-1" stroke="none" stroke-width="1" fill="none" fill-rule="evenodd">
        <g id="Homepage-Copy" transform="translate(-451.000000, -543.000000)" fill="#777777">
            <g id="Interactive-Icon-Copy" transform="translate(451.000000, 543.000000)">
                <path d="M1.30250335,2.39401741 L3.69352684,2.09800089 C4.42589797,2.00748344 5.09737173,2.5424334 5.18711524,3.28777527 L5.49080086,5.82634116 C5.57974309,6.57086755 5.05410254,7.25504898 4.3217314,7.34556643 L1.93070792,7.64158294 C1.19833678,7.73210039 0.526863027,7.19715043 0.437920799,6.45180857 L0.134235176,3.91324267 C0.0444916669,3.16871628 0.570132219,2.48453485 1.30250335,2.39401741 L1.30250335,2.39401741 L1.30250335,2.39401741 Z" id="Shape-Copy-268"></path>
                <path d="M8.23348189,1.76097988 L10.6245054,1.46496336 C11.3568765,1.37444591 12.0283503,1.90939587 12.1172925,2.65473774 L12.4209781,5.19330363 C12.5099203,5.93864549 11.9842798,6.62201145 11.2519087,6.7125289 L8.86088517,7.00854541 C8.12851403,7.09906286 7.45704028,6.5641129 7.36809805,5.81877104 L7.06441243,3.28020514 C6.97466892,2.53567875 7.50111075,1.85149732 8.23348189,1.76097988 L8.23348189,1.76097988 L8.23348189,1.76097988 Z" id="Shape-Copy-271"></path>
                <path d="M18.0846312,0.396283817 C18.8170024,0.305766369 19.4884761,0.840716329 19.5774183,1.58605819 L19.881104,4.12462409 C19.9700462,4.86996595 19.4444056,5.5533319 18.7120345,5.64384935 L16.321011,5.93986587 C15.5886399,6.03038332 14.9171661,5.49543336 14.8282239,4.75009149 L14.5245383,2.2115256 C14.4347948,1.46699921 14.9612366,0.782817782 15.6936077,0.692300334 L18.0846312,0.396283817 Z" id="Shape-Copy-272"></path>
                <path d="M1.93332157,9.9911155 L4.32354378,9.69428351 C5.05591491,9.60458154 5.72738867,10.1395315 5.81713218,10.8848734 L6.1208178,13.4218083 C6.20976003,14.1687811 5.68411947,14.8521471 4.95174834,14.9426645 L2.56072485,15.238681 C1.82835372,15.3291985 1.15687997,14.7942485 1.06793774,14.0489067 L0.764252114,11.5103408 C0.674508605,10.7649989 1.20014916,10.0808175 1.93332157,9.9911155 L1.93332157,9.9911155 L1.93332157,9.9911155 Z" id="Shape-Copy-273"></path>
                <path d="M9.49336315,8.72422529 L11.8843866,8.42820878 C12.6167578,8.3385068 13.2882315,8.87345676 13.3771738,9.61798315 L13.6808594,12.156549 C13.7698016,12.9018909 13.2441611,13.5852569 12.5117899,13.6757743 L10.1215677,13.9717908 C9.3883953,14.0623083 8.71772283,13.5273583 8.62797932,12.7820165 L8.3242937,10.244266 C8.23535147,9.49892417 8.76099202,8.81474274 9.49336315,8.72422529 L9.49336315,8.72422529 L9.49336315,8.72422529 Z" id="Shape-Copy-274"></path>
                <path d="M17.0535704,8.09135518 L19.4445939,7.79533866 C20.1769651,7.70482122 20.8484388,8.23977117 20.937381,8.98511304 L21.2410667,11.5236789 C21.3308102,12.2690208 20.8043683,12.9523868 20.0719972,13.0429042 L17.681775,13.3389207 C16.9494039,13.4294382 16.2779301,12.8944882 16.1881866,12.1491463 L15.884501,9.61058045 C15.7955587,8.86523858 16.3211993,8.18187263 17.0535704,8.09135518 L17.0535704,8.09135518 L17.0535704,8.09135518 Z" id="Shape-Copy-275"></path>
                <path d="M3.46260227,17.6529732 L5.85362576,17.3569567 C6.58599689,17.2664392 7.25747065,17.8030201 7.34641288,18.548362 L7.6500985,21.0852969 C7.73904073,21.8306388 7.21340018,22.5156357 6.48102904,22.6045222 L4.09080684,22.9005387 C3.3584357,22.9910562 2.68696195,22.4561062 2.59721844,21.7107643 L2.29353282,19.1738294 C2.20459059,18.4284875 2.73023114,17.7434906 3.46260227,17.6529732 L3.46260227,17.6529732 L3.46260227,17.6529732 Z" id="Shape-Copy-276"></path>
                <path d="M17.6842121,15.054768 L20.0752356,14.7587515 C20.8076067,14.668234 21.4790805,15.203184 21.5680227,15.9485259 L21.8717083,18.4870918 C21.9606506,19.2324336 21.43501,19.9157996 20.7026389,20.006317 L18.3116154,20.3023335 C17.5792443,20.392851 16.9077705,19.857901 16.818027,19.1125592 L16.5143414,16.5739933 C16.4262004,15.8286514 16.9526423,15.1461009 17.6842121,15.054768 L17.6842121,15.054768 L17.6842121,15.054768 Z" id="Shape-Copy-277"></path>
                <path d="M10.876983,28.3721305 C11.0084172,28.6535623 11.2443388,28.8972655 11.5068043,28.9087226 L21.3764899,30.2678893 C22.8714159,30.4257543 24.2582876,29.4893527 24.9095317,27.977101 C25.4857186,26.7027582 25.5387594,25.0477803 25.0744165,23.5464821 C24.5894676,21.9641697 23.5163593,20.5614498 22.2212645,19.9263845 C21.2180918,19.4384988 20.1740813,19.4702813 19.1512316,19.2855348 C18.7857442,19.2653765 18.3710658,19.0793477 18.0515086,19.298673 C17.68247,19.5331283 17.672549,20.2737544 18.01373,20.6567613 C18.2522215,20.984481 18.6798251,20.8691838 18.8786539,21.2572745 C19.1216754,21.6514511 18.8925682,22.2014249 18.5262067,22.196233 C18.2184861,22.1826583 17.907298,22.0986586 17.5997187,22.0933325 C17.1203935,22.1589899 16.9281043,22.9444494 17.2676759,23.4314701 C17.4542548,23.7643846 17.7916726,23.7957641 18.0599635,23.94929 C18.4163752,24.2315303 18.3887505,24.9285727 18.0178041,25.0516723 C17.6222138,25.1220034 17.1839068,24.8764884 16.8021943,25.0310218 C16.4299708,25.2115493 16.3006012,25.8424626 16.5840128,26.2847184 C16.7727375,26.6769038 17.1611966,26.6522223 17.4396125,26.8688609 C17.7456216,27.1784482 17.6999634,27.8126604 17.3573691,27.9410359 C17.1793922,27.9782448 16.9898274,27.9329383 16.8052191,27.9130018 C15.0317072,27.6605401 13.2583837,27.4190766 11.4861698,27.1763943 C10.9598021,27.0696195 10.6047667,27.7915214 10.876983,28.3721305 L10.876983,28.3721305 L10.876983,28.3721305 Z M7.18878509,29.6497376 C6.76173372,28.6798426 6.73647719,27.5273622 7.13934942,26.6236509 C7.63297949,25.3809111 8.93320675,24.6696214 10.1662566,25.0365234 C10.9077829,25.2137113 11.506197,25.8083672 12.0265623,26.4227009 C12.9477176,26.5560425 13.8704613,26.6181297 14.7929498,26.7320071 C14.4035367,25.6568932 14.803048,24.4307155 15.6701842,23.975696 C15.158443,22.8665171 15.5327079,21.4905953 16.4704452,21.0207047 C15.8568179,19.7465984 16.4912591,18.0511333 17.7390268,17.9420468 C18.7313211,17.9513382 19.7326125,18.1436508 20.7295364,18.2178579 C21.9725806,18.314136 23.2294815,18.862844 24.2245489,19.8163469 C25.4082218,20.9132238 26.2430039,22.5050359 26.515719,24.1614911 C26.8844635,26.1671103 26.4262291,28.2623121 25.3067304,29.7113341 C24.259235,31.1120234 22.5950235,31.8656864 20.9019445,31.6975608 C17.9166091,31.3760866 14.9324898,31.0589436 11.9471407,30.7402688 C11.4367229,31.372013 10.6923698,31.7687152 9.8956987,31.7340905 C8.78225789,31.7020639 7.67045293,30.8355329 7.18878509,29.6497376 L7.18878509,29.6497376 L7.18878509,29.6497376 Z" id="Shape-Copy-279" style="mix-blend-mode: luminosity;" transform="translate(16.746576, 24.839117) rotate(81.000000) translate(-16.746576, -24.839117) "></path>
            </g>
        </g>
    </g>
</svg>