<?xml version="1.0" encoding="UTF-8"?>
<svg width="44px" height="27px" viewBox="0 0 44 27" version="1.1" xmlns="http://www.w3.org/2000/svg" xmlns:xlink="http://www.w3.org/1999/xlink">
    <!-- Generator: Sketch 39.1 (31720) - http://www.bohemiancoding.com/sketch -->
    <title>TTS powered icon</title>
    <desc>Created with Sketch.</desc>
    <defs></defs>
    <g id="Page-1" stroke="none" stroke-width="1" fill="none" fill-rule="evenodd">
        <g id="Homepage-Copy" transform="translate(-301.000000, -545.000000)" fill="#777777">
            <g id="TTS-powered-icon" transform="translate(301.562500, 544.000000)">
                <path d="M27.2830102,23.1681862 C27.2830102,22.62593 26.8414883,22.1766321 26.308617,22.1766321 L0.974393223,22.1766321 C0.441521929,22.1766321 0,22.62593 0,23.1681862 L0,25.1512944 C0,25.6935505 0.441521929,26.1428485 0.974393223,26.1428485 L26.308617,26.1428485 C26.8414883,26.1428485 27.2830102,25.6935505 27.2830102,25.1512944 L27.2830102,23.1681862 Z M21.4366509,17.2188615 C21.4366509,16.6766054 20.995129,16.2273074 20.4622577,16.2273074 L6.82075256,16.2273074 C6.28788126,16.2273074 5.84635934,16.6766054 5.84635934,17.2188615 L5.84635934,19.2019697 C5.84635934,19.7442259 6.28788126,20.1935238 6.82075256,20.1935238 L20.4622577,20.1935238 C20.995129,20.1935238 21.4366509,19.7442259 21.4366509,19.2019697 L21.4366509,17.2188615 Z M25.3342238,11.2695369 C25.3342238,10.7272807 24.8927019,10.2779828 24.3598306,10.2779828 L2.92317967,10.2779828 C2.39030837,10.2779828 1.94878645,10.7272807 1.94878645,11.2695369 L1.94878645,13.2526451 C1.94878645,13.7949013 2.39030837,14.2441992 2.92317967,14.2441992 L24.3598306,14.2441992 C24.8927019,14.2441992 25.3342238,13.7949013 25.3342238,13.2526451 L25.3342238,11.2695369 Z M19.4878645,5.32021227 C19.4878645,4.77795612 19.0463425,4.32865816 18.5134712,4.32865816 L8.769539,4.32865816 C8.23666771,4.32865816 7.79514578,4.77795612 7.79514578,5.32021227 L7.79514578,7.30332048 C7.79514578,7.84557663 8.23666771,8.29487458 8.769539,8.29487458 L18.5134712,8.29487458 C19.0463425,8.29487458 19.4878645,7.84557663 19.4878645,7.30332048 L19.4878645,5.32021227 Z" id="Icons/Align-center"></path>
                <g id="#010101ff-copy" transform="translate(35.108123, 14.613082) rotate(-5.000000) translate(-35.108123, -14.613082) translate(27.108123, 1.113082)">
                    <path d="M1.50017441,-7.46069873e-14 L1.50679432,-7.46069873e-14 C1.71812236,0.0211164557 1.93097806,0.0442930533 2.1361954,0.103522136 C2.66477009,0.250307255 3.12103495,0.601561469 3.45304911,1.03676647 C3.93477517,1.65841432 4.22044993,2.40676091 4.46182219,3.15047218 C4.67416867,3.79890188 4.83304661,4.46638789 5.09376939,5.09833645 C5.43444036,5.95947582 5.92024022,6.75005531 6.3938187,7.54114985 C6.99826779,8.53619844 7.58489404,9.54309285 8.13281925,10.5716188 C8.4709441,11.2071726 8.76884024,11.8710533 8.93993956,12.5740768 C9.04789508,13.0422441 9.10289129,13.535133 9.00104646,14.0099958 C8.87526809,14.6759367 8.33599969,15.3058251 7.64447326,15.3671143 C7.28241488,15.3722647 6.92035649,15.3696895 6.55880733,15.3727797 C6.55626121,15.5731285 6.56644569,15.7734773 6.55422431,15.9738262 C6.54149371,16.2498852 6.28484473,16.4826812 6.01291902,16.4728956 C5.50369485,16.4785609 4.99447068,16.4698053 4.4852465,16.4749557 C3.88588965,16.4816512 3.3053741,16.8488715 3.0441421,17.3958392 C2.75846734,17.9603181 2.84248933,18.6875482 3.24579487,19.1721966 C3.54216334,19.5435372 4.00606656,19.7686077 4.47760814,19.7701529 C5.15793163,19.7711829 5.83876435,19.7675777 6.51908785,19.7706679 C6.6698182,19.7675777 6.82716847,19.8098106 6.93359632,19.9236334 C7.07668831,20.0554825 7.11284323,20.2599516 7.0996034,20.4474245 C7.05173633,21.3930297 6.86841563,22.3309094 6.57866707,23.2306764 C6.29401076,24.0676091 5.90343582,24.8952712 5.27403475,25.5246445 C4.78263342,26.0221688 4.10842062,26.3399457 3.40976505,26.3574569 C2.81651889,26.3682727 2.22276351,26.3605472 1.62900813,26.3620923 C1.20584284,26.3626073 0.781149879,26.1885253 0.492419774,25.8722935 C0.189940616,25.5540016 0.0397194854,25.1090109 0.0381918129,24.6717457 C0.0402287096,17.0152279 0.0371733645,9.35871014 0.0397194854,1.7016773 C0.035645692,1.20363797 0.230169326,0.692207717 0.615142799,0.370825563 C0.862116523,0.154510651 1.17987241,0.0417178758 1.50017441,-7.46069873e-14 L1.50017441,-7.46069873e-14 Z" id="Shape"></path>
                    <path d="M12.9536445,12.6961402 C13.1354375,12.6554524 13.3345442,12.7141664 13.4643963,12.8501358 C14.4640034,13.8580603 15.2003415,15.1332882 15.5644368,16.5135834 C16.0700964,18.3991283 15.8923772,20.4675109 15.0526665,22.2294474 C14.6498702,23.0756507 14.1075465,23.8564445 13.4445366,24.5146599 C13.234227,24.7247944 12.8563827,24.7021328 12.6674605,24.4739721 C12.4632616,24.2566271 12.500435,23.8816813 12.7224567,23.6906031 C13.9323733,22.4637885 14.6727853,20.7755022 14.7491689,19.0439528 C14.8601798,17.1264756 14.1605058,15.1770662 12.8482351,13.7875004 C12.7260213,13.6546213 12.5722356,13.5279225 12.5427006,13.3378744 C12.4790476,13.05615 12.6756081,12.7543392 12.9536445,12.6961402 L12.9536445,12.6961402 Z" id="Shape"></path>
                    <path d="M11.055766,14.6347338 C11.232976,14.5997114 11.4224074,14.6646059 11.5471673,14.7954249 C12.4632616,15.7163084 13.036648,16.9786604 13.1191423,18.2837604 C13.23881,19.8700697 12.636907,21.5037624 11.4906434,22.5982128 C11.2691309,22.7882609 10.9075818,22.7419077 10.7329179,22.5106568 C10.5551986,22.3010373 10.5796414,21.9611139 10.7782388,21.774156 C11.4544885,21.0907039 11.8980228,20.1775459 12.0125982,19.2175198 C12.1709669,17.9695887 11.7717352,16.6583083 10.9264231,15.7322745 C10.8052277,15.5957901 10.6483867,15.4680613 10.6224162,15.274923 C10.5602909,14.9875332 10.769582,14.680572 11.055766,14.6347338 L11.055766,14.6347338 Z" id="Shape"></path>
                    <path d="M9.03159991,16.6062898 C9.2083007,16.5331547 9.42472097,16.5656019 9.57239598,16.6886954 C10.5190437,17.5544701 10.6886154,19.1258434 9.96602626,20.1868166 C9.78474246,20.4283682 9.59938486,20.7533556 9.2653338,20.7744721 C8.92669973,20.8105246 8.63338661,20.4628756 8.69907652,20.1306777 C8.72555618,19.9189981 8.91244145,19.7943595 9.02345232,19.6295482 C9.43541468,19.0681595 9.42472097,18.234317 9.00002801,17.683229 C8.88748947,17.5328386 8.71995472,17.4045948 8.69958575,17.2037309 C8.6522279,16.9570289 8.80244903,16.696421 9.03159991,16.6062898 L9.03159991,16.6062898 Z" id="Shape"></path>
                </g>
            </g>
        </g>
    </g>
</svg>