<?xml version="1.0" encoding="UTF-8"?>
<svg width="93px" height="31px" viewBox="0 0 93 31" version="1.1" xmlns="http://www.w3.org/2000/svg" xmlns:xlink="http://www.w3.org/1999/xlink">
    <!-- Generator: Sketch 39.1 (31720) - http://www.bohemiancoding.com/sketch -->
    <title>Useful</title>
    <desc>Created with Sketch.</desc>
    <defs></defs>
    <g id="Page-1" stroke="none" stroke-width="1" fill="none" fill-rule="evenodd">
        <g id="Homepage-Copy" transform="translate(-132.000000, -532.000000)" fill="#777777">
            <g id="Useful" transform="translate(132.000000, 532.000000)">
                <path d="M38.5187097,18.1200485 C39.2973041,18.1200485 40.0157631,18.3190058 40.6744033,18.7169204 C41.3324105,19.114835 41.853056,19.6501249 42.2360231,20.32279 C42.6189903,20.9954552 42.8107904,21.7202282 42.8107904,22.4971091 C42.8107904,23.27399 42.5794276,24.1329803 42.117335,25.0740799 C41.6552424,25.7941159 41.1279504,26.5425743 40.5364086,27.3194552 C39.9445502,28.0963361 39.468215,28.693208 39.107403,29.1100709 L38.5665015,29.7353653 C38.5028846,29.6785204 38.4174291,29.596411 38.3098185,29.4890372 C38.2022079,29.3816634 37.9917342,29.1590207 37.678714,28.8211091 C37.3653772,28.4831975 37.061219,28.1389698 36.7668723,27.788426 C36.4725257,27.4378822 36.1430473,27.0099661 35.7797033,26.5046777 C35.4157262,25.9993893 35.0973255,25.5098912 34.8251339,25.0361833 C34.4266582,24.1585605 34.2269456,23.330835 34.2269456,22.5539541 C34.2269456,21.7710729 34.4184291,21.0396679 34.8013963,20.3606867 C35.1843634,19.6817054 35.7069079,19.1385204 36.3680801,18.7311316 C37.0295688,18.3237428 37.7464454,18.1200485 38.5187097,18.1200485 C38.5187097,18.1200485 37.7464454,18.1200485 38.5187097,18.1200485 L38.5187097,18.1200485 L38.5187097,18.1200485 Z M38.5095312,24.7424844 C39.1865285,24.7424844 39.7641442,24.5040515 40.2423784,24.0271855 C40.7199796,23.5503196 40.9589384,22.9742909 40.9589384,22.2981518 C40.9589384,21.6223286 40.7199796,21.0475631 40.2423784,20.5738552 C39.7641442,20.1001473 39.1865285,19.8632934 38.5095312,19.8632934 C37.8319008,19.8632934 37.2558676,20.1017264 36.7811149,20.5785923 C36.3063623,21.0554582 36.0689859,21.6286447 36.0689859,22.2981518 C36.0689859,22.9742909 36.3079448,23.5503196 36.786179,24.0271855 C37.2637801,24.5040515 37.8382309,24.7424844 38.5095312,24.7424844 L38.5095312,24.7424844 Z" id="Fill-64-Copy"></path>
                <path d="M8.27379954,22.7525956 L11.7208204,25.8316967 C11.8154545,25.920438 11.8977449,26.042023 11.9673753,26.1967676 C12.0370057,26.3515121 12.0718209,26.4920455 12.0718209,26.6183676 L12.0718209,27.006808 C12.0718209,27.1331301 12.0338407,27.2168185 11.9581968,27.2578732 C11.8822363,27.2989279 11.7901343,27.2812428 11.6825237,27.2057653 L8.27379954,24.8463843 L8.27379954,27.3380877 C8.9068031,27.9131691 9.22330488,28.270029 9.22330488,28.4089833 L9.22330488,29.0153294 C9.22330488,29.1476518 9.18184315,29.2395511 9.09986918,29.2900799 C9.01757872,29.3406088 8.91629815,29.3371349 8.79634398,29.28029 L7.90349245,28.5416215 L5.79559059,28.5416215 L4.90305557,29.28029 C4.78278489,29.3371349 4.68182083,29.3406088 4.59953036,29.2900799 C4.5169234,29.2395511 4.47577817,29.1476518 4.47577817,29.0153294 L4.47577817,28.4089833 C4.47577817,28.270029 4.79227995,27.9131691 5.42528351,27.3380877 L5.42528351,24.8463843 L2.01687583,27.2057653 C1.90894873,27.2812428 1.81716321,27.2989279 1.74120278,27.2578732 C1.66524235,27.2168185 1.62726214,27.1331301 1.62726214,27.006808 L1.62726214,26.6183676 C1.62726214,26.4920455 1.66207734,26.3515121 1.73170773,26.1967676 C1.80133812,26.042023 1.88394508,25.920438 1.97857912,25.8316967 L5.42528351,22.7525956 L5.42528351,19.5411721 C5.42528351,19.1495736 5.56454429,18.81482 5.84338236,18.5365956 C6.12158743,18.258687 6.45707931,18.1200485 6.84954152,18.1200485 C7.24232023,18.1200485 7.57749562,18.258687 7.85601719,18.5365956 C8.13485525,18.81482 8.27379954,19.1495736 8.27379954,19.5411721 L8.27379954,22.7525956" id="Fill-106-Copy"></path>
                <path d="M33.1812237,9.26486943 C32.8232602,8.90485145 32.6444367,8.47219827 32.6444367,7.96690988 C32.6444367,7.53109865 32.7789499,7.14423722 33.0482929,6.80632561 C33.3170029,6.46872981 33.6604074,6.25524546 34.0781897,6.16681999 C34.0658462,6.09102674 34.0591996,5.9741788 34.0591996,5.81627617 C34.0591996,4.84991213 34.4010215,4.02723947 35.0846654,3.3482582 C35.7686257,2.66927692 36.5912139,2.32978629 37.5533793,2.32978629 C38.2496832,2.32978629 38.8842693,2.51769041 39.457454,2.89349865 C40.0300057,3.26930689 40.4557006,3.76354209 40.7345387,4.37620426 C41.0127437,4.2877788 41.2975953,4.24356606 41.588777,4.24356606 C42.3486978,4.24356606 42.9972099,4.5167376 43.5355794,5.06308067 C44.073316,5.60942374 44.3423425,6.26156157 44.3423425,7.01949415 C44.3423425,7.79005895 44.073316,8.44693385 43.5355794,8.99011887 C42.9972099,9.53330389 42.3486978,9.8048964 41.588777,9.8048964 L34.4674869,9.8048964 C33.9674141,9.8048964 33.5385542,9.62488741 33.1812237,9.26486943" id="Fill-5-Copy"></path>
                <path d="M69.2143844,11.6997279 C68.9038962,11.6176185 68.606701,11.4944545 68.3215329,11.3302357 L68.2740576,11.3018133 L67.0112155,12.06922 C66.6314134,11.7786792 66.2990865,11.4470837 66.0142349,11.0744335 L66.7738392,9.8048964 L66.745354,9.75752561 C66.5934332,9.479617 66.4731625,9.18591812 66.384542,8.87642898 L66.3658684,8.81958404 L64.9317988,8.45956606 C64.8938186,8.20060576 64.8748285,7.96690988 64.8748285,7.75847842 C64.8748285,7.6005758 64.8938186,7.37003797 64.9317988,7.06686494 L66.3658684,6.70684696 L66.384542,6.65000202 C66.4668325,6.359777 66.5871031,6.06576232 66.745354,5.76890539 L66.7738392,5.7215346 L66.0142349,4.45199752 C66.3054166,4.08566344 66.6377434,3.75438374 67.0112155,3.45721101 L68.2740576,4.22461775 L68.3215329,4.19619527 C68.6000545,4.03829265 68.8978827,3.91512861 69.2143844,3.82670314 L69.2618597,3.81722898 L69.6223552,2.37715707 C69.9198669,2.34557655 70.1540782,2.32978629 70.3249892,2.32978629 C70.5402104,2.32978629 70.7744217,2.34557655 71.0279396,2.37715707 L71.3884352,3.81722898 L71.4454055,3.82670314 C71.7492472,3.91512861 72.0435939,4.03829265 72.3284455,4.19619527 L72.3762372,4.22461775 L73.6482579,3.45721101 C74.0283765,3.75438374 74.3575384,4.08566344 74.6357434,4.45199752 L73.8764557,5.7215346 L73.9049408,5.76890539 C74.0502151,6.03418179 74.1736508,6.32788067 74.2752479,6.65000202 L74.2844265,6.70684696 L75.7279911,7.06686494 C75.7593248,7.35108966 75.7754663,7.58162748 75.7754663,7.75847842 C75.7754663,7.97322599 75.7593248,8.20692187 75.7279911,8.45956606 L74.2844265,8.81958404 L74.2752479,8.87642898 C74.1799809,9.18591812 74.0565452,9.479617 73.9049408,9.75752561 L73.8764557,9.8048964 L74.6357434,11.0744335 C74.3319017,11.4597159 74.0024234,11.7913114 73.6482579,12.06922 L72.3762372,11.3018133 L72.3284455,11.3302357 C72.0309338,11.4944545 71.7362706,11.6176185 71.4454055,11.6997279 L71.3884352,11.7186762 L71.0279396,13.1492739 C70.7301115,13.1808545 70.4959001,13.1966447 70.3249892,13.1966447 C70.1100845,13.1966447 69.8755567,13.1808545 69.6223552,13.1492739 L69.2618597,11.7186762 L69.2143844,11.6997279 L69.2143844,11.6997279 L69.2143844,11.6997279 L69.2143844,11.6997279 Z M68.2835527,7.75847842 C68.2835527,8.32092756 68.4829488,8.80063572 68.8817411,9.19855033 C69.2808498,9.59646494 69.761616,9.79542224 70.3249892,9.79542224 C70.8883624,9.79542224 71.3694451,9.59646494 71.7685538,9.19855033 C72.167346,8.80063572 72.3667422,8.32092756 72.3667422,7.75847842 C72.3667422,7.20266119 72.167346,6.72579527 71.7685538,6.32788067 C71.3694451,5.92996606 70.8883624,5.73100876 70.3249892,5.73100876 C69.761616,5.73100876 69.2808498,5.92996606 68.8817411,6.32788067 C68.4829488,6.72579527 68.2835527,7.20266119 68.2835527,7.75847842 L68.2835527,7.75847842 Z" id="Fill-25-Copy"></path>
                <path d="M84.4402084,2.76086044 C85.1143571,2.47347767 85.8249036,2.32978629 86.5718479,2.32978629 C87.3187921,2.32978629 88.0296551,2.47347767 88.7038038,2.76086044 C89.3779526,3.04824321 89.9599994,3.43668366 90.4505772,3.92618179 C90.9411549,4.41567992 91.3307686,4.99676157 91.6187852,5.66942674 C91.9064854,6.3420919 92.0504937,7.05107468 92.0504937,7.79637505 C92.0504937,8.54167542 91.9064854,9.2506582 91.6187852,9.92332336 C91.3307686,10.5959885 90.9411549,11.1770702 90.4505772,11.6665683 C89.9599994,12.1560664 89.3779526,12.5445069 88.7038038,12.8318897 C88.0296551,13.1195882 87.3187921,13.2629638 86.5718479,13.2629638 C85.8249036,13.2629638 85.1143571,13.1195882 84.4402084,12.8318897 C83.7660596,12.5445069 83.1836963,12.1560664 82.6931185,11.6665683 C82.2028573,11.1770702 81.8132436,10.5959885 81.525227,9.92332336 C81.2372103,9.2506582 81.0935185,8.54167542 81.0935185,7.79637505 C81.0935185,7.05107468 81.2372103,6.3420919 81.525227,5.66942674 C81.8132436,4.99676157 82.2028573,4.41567992 82.6931185,3.92618179 C83.1836963,3.43668366 83.7660596,3.04824321 84.4402084,2.76086044 C84.4402084,2.76086044 83.7660596,3.04824321 84.4402084,2.76086044 L84.4402084,2.76086044 L84.4402084,2.76086044 Z M87.3884224,8.27955707 L87.939452,5.41836157 C87.9644557,5.29203947 87.939452,5.18308666 87.8631751,5.09150314 C87.7872147,5.00023542 87.6827691,4.95412786 87.5498384,4.95412786 L85.5843623,4.95412786 C85.4577616,4.95412786 85.3567975,5.00023542 85.2805206,5.09150314 C85.2045602,5.18308666 85.17924,5.29203947 85.2045602,5.41836157 L85.7552733,8.27955707 C85.7805934,8.40587917 85.8486413,8.51483198 85.9597334,8.6064155 C86.0701925,8.69799902 86.1888807,8.74379078 86.3157979,8.74379078 L86.8282143,8.74379078 C86.954815,8.74379078 87.0735032,8.69799902 87.1842788,8.6064155 C87.2953709,8.51483198 87.3631023,8.40587917 87.3884224,8.27955707 C87.3884224,8.27955707 87.3631023,8.40587917 87.3884224,8.27955707 L87.3884224,8.27955707 L87.3884224,8.27955707 Z M85.6223425,10.6386222 L87.5213532,10.6386222 L87.5213532,9.69120651 L85.6223425,9.69120651 L85.6223425,9.69120651 L85.6223425,10.6386222 L85.6223425,10.6386222 Z" id="Fill-100-Copy"></path>
                <path d="M92.4875826,22.4963873 L91.5380773,22.4963873 L91.5380773,24.3912188 L87.7400559,24.3912188 L87.7400559,21.5489716 L85.8410452,21.5489716 L85.8410452,24.3912188 L82.0430239,24.3912188 L82.0430239,22.4963873 L81.0935185,22.4963873 L81.0935185,21.5489716 L82.1474695,21.5489716 L82.1474695,21.4921266 C82.1474695,21.4605461 82.1506345,21.4131753 82.157281,21.3500143 C82.1632945,21.2868532 82.1731061,21.2300083 82.1857662,21.1794794 L82.5177765,19.5025536 C82.5810769,19.2625416 82.7092601,19.0699004 82.9023262,18.92463 C83.0957088,18.7793596 83.315361,18.7067244 83.5622324,18.7067244 C83.7458034,18.7067244 83.9420346,18.7635693 84.1509257,18.8772592 L86.4107484,20.2415379 C86.5436792,20.3173311 86.6702799,20.431021 86.7905506,20.5826075 C86.9048077,20.443969 87.0310919,20.3331214 87.1706692,20.251012 L89.4396705,18.8867334 C89.623558,18.7793596 89.8163076,18.7256727 90.0191852,18.7256727 C90.2660566,18.7256727 90.4857089,18.8014659 90.678775,18.9530525 C90.871841,19.104639 91.0031893,19.3035963 91.0731362,19.5499244 L91.3956515,21.1794794 C91.4083116,21.2300083 91.4178066,21.2868532 91.4241367,21.3500143 C91.4307832,21.4131753 91.4336317,21.4605461 91.4336317,21.4921266 L91.4336317,21.5489716 L92.4875826,21.5489716 L92.4875826,22.4963873 L92.4875826,22.4963873 L92.4875826,22.4963873 L92.4875826,22.4963873 Z M82.0430239,26.2860502 L85.8410452,26.2860502 L85.8410452,30.0757131 L82.0430239,30.0757131 L82.0430239,30.0757131 L82.0430239,26.2860502 L82.0430239,26.2860502 Z M83.6286978,19.7394075 L83.4577868,20.1846929 C83.3441627,20.4878659 83.2330706,20.791039 83.12546,21.094212 C83.0178494,21.397385 82.9738556,21.5489716 82.9925292,21.5489716 L85.6606392,21.5489716 L83.6286978,19.7394075 L83.6286978,19.7394075 L83.6286978,19.7394075 L83.6286978,19.7394075 Z M87.7400559,30.0757131 L91.5380773,30.0757131 L91.5380773,26.2860502 L87.7400559,26.2860502 L87.7400559,26.2860502 L87.7400559,30.0757131 L87.7400559,30.0757131 Z M90.588572,21.5489716 C90.601232,21.5489716 90.5790769,21.4589671 90.5221066,21.2789581 C90.4654528,21.0989491 90.3860108,20.8715693 90.2847302,20.5968188 C90.1834497,20.3220682 90.1106543,20.1199528 90.066344,19.9904727 C90.0220338,19.8609925 89.9840535,19.7583558 89.9527199,19.6825626 L88.0344026,21.5489716 L90.588572,21.5489716 L90.588572,21.5489716 Z" id="Fill-101-Copy"></path>
                <path d="M15.287154,28.8061761 C15.201382,28.5914285 15.2254361,28.382997 15.3580504,28.1808817 L21.4538747,18.08143 C21.5807919,17.8793146 21.7323963,17.7877311 21.9099538,17.8066794 C22.0868782,17.8256277 22.2387991,17.9393176 22.3653998,18.1477491 L28.4615406,28.1524592 C28.5944714,28.3545746 28.6178925,28.5677431 28.532437,28.7919648 C28.4469815,29.0161865 28.2871481,29.1282974 28.0532533,29.1282974 L15.7663377,29.1282974 C15.5321264,29.1282974 15.372293,29.0209236 15.287154,28.8061761 C15.287154,28.8061761 15.372293,29.0209236 15.287154,28.8061761 L15.287154,28.8061761 L15.287154,28.8061761 Z M26.134936,27.2334659 L21.9099538,20.3836502 L17.6843385,27.2334659 L20.9604484,27.2334659 L20.9604484,26.2860502 L22.8594591,26.2860502 L22.8594591,27.2334659 L26.134936,27.2334659 L26.134936,27.2334659 L26.134936,27.2334659 L26.134936,27.2334659 Z M22.8594591,23.443803 L21.9099538,26.2860502 L20.9604484,23.443803 L20.9604484,22.4963873 L22.8594591,22.4963873 L22.8594591,23.443803 L22.8594591,23.443803 Z" id="Fill-105-Copy"></path>
                <polyline id="Fill-189-Copy" points="22.5163797 10.742838 23.2285087 11.1691751 19.90524 11.1691751 20.617369 10.742838 20.617369 9.27434359 16.8193476 9.27434359 19.383012 6.4320964 17.768853 6.4320964 20.3325174 3.58984921 18.7183583 3.58984921 21.5668743 0.434954825 24.4153904 3.58984921 22.8015478 3.58984921 25.3648957 6.4320964 23.7510531 6.4320964 26.314401 9.27434359 22.5163797 9.27434359 22.5163797 10.742838"></polyline>
                <path d="M7.8401921,8.01428067 L5.54238917,8.01428067 L5.16258703,11.8039436 L0.0447532363,11.8039436 L4.13712126,0.434954825 L6.12190393,0.434954825 L5.92250781,3.27720202 L7.46038996,3.27720202 L7.27048889,0.434954825 L9.2457765,0.434954825 L13.337828,11.8039436 L8.22980579,11.8039436 L7.8401921,8.01428067 L7.8401921,8.01428067 L7.8401921,8.01428067 L7.8401921,8.01428067 Z M7.75505312,7.06686494 L7.49837017,4.22461775 L5.88452759,4.22461775 L5.62784465,7.06686494 L7.75505312,7.06686494 L7.75505312,7.06686494 Z" id="Fill-30-Copy"></path>
                <path d="M71.7716231,20.6015558 L74.6201392,20.6015558 C74.8799871,20.6015558 75.1031209,20.6947184 75.2898569,20.8810435 C75.4762765,21.0673686 75.5696445,21.2900113 75.5696445,21.5489716 L75.5696445,25.3386345 L70.8221178,25.3386345 L70.8221178,24.3912188 L68.9231071,24.3912188 L68.9231071,25.3386345 L64.1755804,25.3386345 L64.1755804,21.5489716 C64.1755804,21.2900113 64.2689484,21.0673686 64.4556845,20.8810435 C64.6424205,20.6947184 64.8655543,20.6015558 65.1250857,20.6015558 L67.9736018,20.6015558 L67.9736018,19.6541401 C67.9736018,19.3951798 68.0669698,19.1725371 68.2537058,18.986212 C68.4404419,18.7998869 68.6635756,18.7067244 68.9231071,18.7067244 L70.8221178,18.7067244 C71.0819658,18.7067244 71.3050995,18.7998869 71.4918356,18.986212 C71.6782551,19.1725371 71.7716231,19.3951798 71.7716231,19.6541401 L71.7716231,20.6015558 L71.7716231,20.6015558 L71.7716231,20.6015558 L71.7716231,20.6015558 Z M75.5696445,26.2860502 L75.5696445,28.1808817 C75.5696445,28.439842 75.4762765,28.6624847 75.2898569,28.8488098 C75.1031209,29.0351349 74.8799871,29.1282974 74.6201392,29.1282974 L65.1250857,29.1282974 C64.8655543,29.1282974 64.6424205,29.0351349 64.4556845,28.8488098 C64.2689484,28.6624847 64.1755804,28.439842 64.1755804,28.1808817 L64.1755804,26.2860502 L75.5696445,26.2860502 L75.5696445,26.2860502 L75.5696445,26.2860502 L75.5696445,26.2860502 Z M68.9231071,20.6015558 L70.8221178,20.6015558 L70.8221178,19.6541401 L68.9231071,19.6541401 L68.9231071,19.6541401 L68.9231071,20.6015558 L68.9231071,20.6015558 Z" id="Fill-191-Copy"></path>
                <path d="M49.1122176,3.27720202 L49.1122176,1.85607842 C49.1122176,1.72344022 49.1581103,1.61132936 49.2502123,1.51943003 C49.3416814,1.42816232 49.4540395,1.38237056 49.5869702,1.38237056 L51.0112283,1.38237056 L51.0112283,0.434954825 L51.9607336,0.434954825 L51.9607336,1.38237056 L56.7082603,1.38237056 L56.7082603,0.434954825 L57.6577657,0.434954825 L57.6577657,1.38237056 L59.0820237,1.38237056 C59.2149544,1.38237056 59.327629,1.42816232 59.4190981,1.51943003 C59.5108836,1.61132936 59.5567763,1.72344022 59.5567763,1.85607842 L59.5567763,3.27720202 L49.1122176,3.27720202 L49.1122176,3.27720202 L49.1122176,3.27720202 L49.1122176,3.27720202 Z M59.5567763,4.22461775 L59.5567763,11.3302357 C59.5567763,11.4565578 59.5108836,11.5670897 59.4190981,11.6615154 C59.327629,11.7565728 59.2149544,11.8039436 59.0820237,11.8039436 L49.5869702,11.8039436 C49.4540395,11.8039436 49.3416814,11.7565728 49.2502123,11.6615154 C49.1581103,11.5670897 49.1122176,11.4565578 49.1122176,11.3302357 L49.1122176,4.22461775 L59.5567763,4.22461775 L59.5567763,4.22461775 L59.5567763,4.22461775 L59.5567763,4.22461775 Z M50.0617229,7.06686494 L51.0112283,7.06686494 L51.0112283,6.11944921 L50.0617229,6.11944921 L50.0617229,6.11944921 L50.0617229,7.06686494 L50.0617229,7.06686494 Z M50.0617229,8.9616964 L51.0112283,8.9616964 L51.0112283,8.01428067 L50.0617229,8.01428067 L50.0617229,8.01428067 L50.0617229,8.9616964 L50.0617229,8.9616964 Z M50.0617229,10.8565279 L51.0112283,10.8565279 L51.0112283,9.90911213 L50.0617229,9.90911213 L50.0617229,9.90911213 L50.0617229,10.8565279 L50.0617229,10.8565279 Z M51.9607336,7.06686494 L52.9102389,7.06686494 L52.9102389,6.11944921 L51.9607336,6.11944921 L51.9607336,6.11944921 L51.9607336,7.06686494 L51.9607336,7.06686494 Z M51.9607336,8.9616964 L52.9102389,8.9616964 L52.9102389,8.01428067 L51.9607336,8.01428067 L51.9607336,8.01428067 L51.9607336,8.9616964 L51.9607336,8.9616964 Z M51.9607336,10.8565279 L52.9102389,10.8565279 L52.9102389,9.90911213 L51.9607336,9.90911213 L51.9607336,9.90911213 L51.9607336,10.8565279 L51.9607336,10.8565279 Z M53.8597443,7.06686494 L54.8092496,7.06686494 L54.8092496,6.11944921 L53.8597443,6.11944921 L53.8597443,6.11944921 L53.8597443,7.06686494 L53.8597443,7.06686494 Z M53.8597443,8.9616964 L54.8092496,8.9616964 L54.8092496,8.01428067 L53.8597443,8.01428067 L53.8597443,8.01428067 L53.8597443,8.9616964 L53.8597443,8.9616964 Z M53.8597443,10.8565279 L54.8092496,10.8565279 L54.8092496,9.90911213 L53.8597443,9.90911213 L53.8597443,9.90911213 L53.8597443,10.8565279 L53.8597443,10.8565279 Z M55.758755,7.06686494 L56.7082603,7.06686494 L56.7082603,6.11944921 L55.758755,6.11944921 L55.758755,6.11944921 L55.758755,7.06686494 L55.758755,7.06686494 Z M55.758755,8.9616964 L56.7082603,8.9616964 L56.7082603,8.01428067 L55.758755,8.01428067 L55.758755,8.01428067 L55.758755,8.9616964 L55.758755,8.9616964 Z M55.758755,10.8565279 L56.7082603,10.8565279 L56.7082603,9.90911213 L55.758755,9.90911213 L55.758755,9.90911213 L55.758755,10.8565279 L55.758755,10.8565279 Z M57.6577657,7.06686494 L58.607271,7.06686494 L58.607271,6.11944921 L57.6577657,6.11944921 L57.6577657,6.11944921 L57.6577657,7.06686494 L57.6577657,7.06686494 Z M57.6577657,8.9616964 L58.607271,8.9616964 L58.607271,8.01428067 L57.6577657,8.01428067 L57.6577657,8.01428067 L57.6577657,8.9616964 L57.6577657,8.9616964 Z M57.6577657,10.8565279 L58.607271,10.8565279 L58.607271,9.90911213 L57.6577657,9.90911213 L57.6577657,9.90911213 L57.6577657,10.8565279 L57.6577657,10.8565279 Z" id="Fill-192-Copy"></path>
                <path d="M57.3315756,22.1560395 L58.2810809,22.1560395 C58.5409289,22.1560395 58.7640626,22.249202 58.9507987,22.4355271 C59.1372182,22.6218522 59.2305862,22.8444949 59.2305862,23.1034552 L59.2305862,28.7879496 C59.2305862,29.0469099 59.1372182,29.2695526 58.9507987,29.4558777 C58.7640626,29.6422028 58.5409289,29.7353653 58.2810809,29.7353653 L49.7355328,29.7353653 C49.4760014,29.7353653 49.2528676,29.6422028 49.0661316,29.4558777 C48.8793955,29.2695526 48.7860275,29.0469099 48.7860275,28.7879496 L48.7860275,23.1034552 C48.7860275,22.8444949 48.8793955,22.6218522 49.0661316,22.4355271 C49.2528676,22.249202 49.4760014,22.1560395 49.7355328,22.1560395 L50.6850382,22.1560395 L50.6850382,20.261208 C50.6850382,19.7429716 50.8717742,19.2976862 51.2452463,18.9253518 C51.6187184,18.5527016 52.0649859,18.3663765 52.5840488,18.3663765 L55.4325649,18.3663765 C55.9516278,18.3663765 56.3978953,18.5527016 56.7716839,18.9253518 C57.1448395,19.2976862 57.3315756,19.7429716 57.3315756,20.261208 L57.3315756,22.1560395 L57.3315756,22.1560395 L57.3315756,22.1560395 L57.3315756,22.1560395 Z M52.5840488,22.1560395 L55.4325649,22.1560395 L55.4325649,20.7349159 C55.4325649,20.6022777 55.3866721,20.4901668 55.2948866,20.3982675 C55.2034176,20.3069998 55.0907429,20.261208 54.9578122,20.261208 L53.0588015,20.261208 C52.9258708,20.261208 52.8135126,20.3069998 52.7220436,20.3982675 C52.6299416,20.4901668 52.5840488,20.6022777 52.5840488,20.7349159 L52.5840488,22.1560395 L52.5840488,22.1560395 Z" id="Fill-196-Copy"></path>
            </g>
        </g>
    </g>
</svg>